<svg width="126" height="22" viewBox="0 0 126 22" fill="none" xmlns="http://www.w3.org/2000/svg">
<path d="M10.5649 2.10375C10.6051 2.02259 10.6672 1.95427 10.7441 1.90651C10.821 1.85874 10.9098 1.83343 11.0003 1.83343C11.0909 1.83343 11.1797 1.85874 11.2566 1.90651C11.3335 1.95427 11.3956 2.02259 11.4358 2.10375L13.5533 6.39283C13.6928 6.67514 13.8987 6.91937 14.1533 7.10458C14.408 7.28979 14.7038 7.41044 15.0153 7.45617L19.7508 8.14917C19.8406 8.16217 19.9249 8.20002 19.9942 8.25843C20.0635 8.31685 20.1152 8.3935 20.1432 8.47972C20.1712 8.56594 20.1746 8.65829 20.1529 8.74632C20.1312 8.83434 20.0853 8.91454 20.0203 8.97783L16.5957 12.3127C16.3698 12.5328 16.2008 12.8044 16.1033 13.1043C16.0057 13.4042 15.9825 13.7233 16.0356 14.0342L16.8441 18.7458C16.8599 18.8355 16.8502 18.9278 16.8161 19.0123C16.782 19.0967 16.7249 19.1699 16.6512 19.2234C16.5775 19.2769 16.4902 19.3087 16.3994 19.315C16.3085 19.3213 16.2177 19.302 16.1373 19.2592L11.9042 17.0335C11.6253 16.887 11.3149 16.8105 10.9999 16.8105C10.6848 16.8105 10.3745 16.887 10.0956 17.0335L5.86335 19.2592C5.78298 19.3017 5.69229 19.3208 5.60159 19.3144C5.51089 19.308 5.42382 19.2762 5.35028 19.2227C5.27675 19.1692 5.21969 19.0962 5.18562 19.0119C5.15154 18.9276 5.1418 18.8354 5.15751 18.7458L5.9651 14.0351C6.01844 13.7241 5.99533 13.4048 5.89776 13.1047C5.80018 12.8046 5.63107 12.5328 5.40501 12.3127L1.98035 8.97875C1.91489 8.91553 1.86851 8.8352 1.84648 8.7469C1.82445 8.65861 1.82766 8.5659 1.85575 8.47934C1.88384 8.39278 1.93568 8.31586 2.00535 8.25732C2.07503 8.19878 2.15974 8.16099 2.24985 8.14825L6.98443 7.45617C7.29633 7.41079 7.59254 7.2903 7.84755 7.10507C8.10256 6.91984 8.30874 6.67542 8.44835 6.39283L10.5649 2.10375Z" fill="white"/>
<path d="M36.5649 2.10375C36.6051 2.02259 36.6672 1.95427 36.7441 1.90651C36.821 1.85874 36.9098 1.83343 37.0003 1.83343C37.0909 1.83343 37.1797 1.85874 37.2566 1.90651C37.3335 1.95427 37.3956 2.02259 37.4358 2.10375L39.5533 6.39283C39.6928 6.67514 39.8987 6.91937 40.1533 7.10458C40.408 7.28979 40.7038 7.41044 41.0153 7.45617L45.7508 8.14917C45.8406 8.16217 45.9249 8.20002 45.9942 8.25843C46.0635 8.31685 46.1152 8.3935 46.1432 8.47972C46.1712 8.56594 46.1746 8.65829 46.1529 8.74632C46.1312 8.83434 46.0853 8.91454 46.0203 8.97783L42.5957 12.3127C42.3698 12.5328 42.2008 12.8044 42.1033 13.1043C42.0057 13.4042 41.9825 13.7233 42.0356 14.0342L42.8441 18.7458C42.8599 18.8355 42.8502 18.9278 42.8161 19.0123C42.782 19.0967 42.7249 19.1699 42.6512 19.2234C42.5775 19.2769 42.4902 19.3087 42.3994 19.315C42.3085 19.3213 42.2177 19.302 42.1373 19.2592L37.9042 17.0335C37.6253 16.887 37.3149 16.8105 36.9999 16.8105C36.6848 16.8105 36.3745 16.887 36.0956 17.0335L31.8633 19.2592C31.783 19.3017 31.6923 19.3208 31.6016 19.3144C31.5109 19.308 31.4238 19.2762 31.3503 19.2227C31.2767 19.1692 31.2197 19.0962 31.1856 19.0119C31.1515 18.9276 31.1418 18.8354 31.1575 18.7458L31.9651 14.0351C32.0184 13.7241 31.9953 13.4048 31.8978 13.1047C31.8002 12.8046 31.6311 12.5328 31.405 12.3127L27.9803 8.97875C27.9149 8.91553 27.8685 8.8352 27.8465 8.7469C27.8245 8.65861 27.8277 8.5659 27.8558 8.47934C27.8838 8.39278 27.9357 8.31586 28.0054 8.25732C28.075 8.19878 28.1597 8.16099 28.2498 8.14825L32.9844 7.45617C33.2963 7.41079 33.5925 7.2903 33.8475 7.10507C34.1026 6.91984 34.3087 6.67542 34.4483 6.39283L36.5649 2.10375Z" fill="white"/>
<path d="M62.5649 2.10375C62.6051 2.02259 62.6672 1.95427 62.7441 1.90651C62.821 1.85874 62.9098 1.83343 63.0003 1.83343C63.0909 1.83343 63.1797 1.85874 63.2566 1.90651C63.3335 1.95427 63.3956 2.02259 63.4358 2.10375L65.5533 6.39283C65.6928 6.67514 65.8987 6.91937 66.1533 7.10458C66.408 7.28979 66.7038 7.41044 67.0153 7.45617L71.7508 8.14917C71.8406 8.16217 71.9249 8.20002 71.9942 8.25843C72.0635 8.31685 72.1152 8.3935 72.1432 8.47972C72.1712 8.56594 72.1746 8.65829 72.1529 8.74632C72.1312 8.83434 72.0853 8.91454 72.0203 8.97783L68.5957 12.3127C68.3698 12.5328 68.2008 12.8044 68.1033 13.1043C68.0057 13.4042 67.9825 13.7233 68.0356 14.0342L68.8441 18.7458C68.8599 18.8355 68.8502 18.9278 68.8161 19.0123C68.782 19.0967 68.7249 19.1699 68.6512 19.2234C68.5775 19.2769 68.4902 19.3087 68.3994 19.315C68.3085 19.3213 68.2177 19.302 68.1373 19.2592L63.9042 17.0335C63.6253 16.887 63.3149 16.8105 62.9999 16.8105C62.6848 16.8105 62.3745 16.887 62.0956 17.0335L57.8633 19.2592C57.783 19.3017 57.6923 19.3208 57.6016 19.3144C57.5109 19.308 57.4238 19.2762 57.3503 19.2227C57.2767 19.1692 57.2197 19.0962 57.1856 19.0119C57.1515 18.9276 57.1418 18.8354 57.1575 18.7458L57.9651 14.0351C58.0184 13.7241 57.9953 13.4048 57.8978 13.1047C57.8002 12.8046 57.6311 12.5328 57.405 12.3127L53.9803 8.97875C53.9149 8.91553 53.8685 8.8352 53.8465 8.7469C53.8245 8.65861 53.8277 8.5659 53.8558 8.47934C53.8838 8.39278 53.9357 8.31586 54.0054 8.25732C54.075 8.19878 54.1597 8.16099 54.2498 8.14825L58.9844 7.45617C59.2963 7.41079 59.5925 7.2903 59.8475 7.10507C60.1026 6.91984 60.3087 6.67542 60.4483 6.39283L62.5649 2.10375Z" fill="white"/>
<path d="M88.5649 2.10375C88.6051 2.02259 88.6672 1.95427 88.7441 1.90651C88.821 1.85874 88.9098 1.83343 89.0003 1.83343C89.0909 1.83343 89.1797 1.85874 89.2566 1.90651C89.3335 1.95427 89.3956 2.02259 89.4358 2.10375L91.5533 6.39283C91.6928 6.67514 91.8987 6.91937 92.1533 7.10458C92.408 7.28979 92.7038 7.41044 93.0153 7.45617L97.7508 8.14917C97.8406 8.16217 97.9249 8.20002 97.9942 8.25843C98.0635 8.31685 98.1152 8.3935 98.1432 8.47972C98.1712 8.56594 98.1746 8.65829 98.1529 8.74632C98.1312 8.83434 98.0853 8.91454 98.0203 8.97783L94.5957 12.3127C94.3698 12.5328 94.2008 12.8044 94.1033 13.1043C94.0057 13.4042 93.9825 13.7233 94.0356 14.0342L94.8441 18.7458C94.8599 18.8355 94.8502 18.9278 94.8161 19.0123C94.782 19.0967 94.7249 19.1699 94.6512 19.2234C94.5775 19.2769 94.4902 19.3087 94.3994 19.315C94.3085 19.3213 94.2177 19.302 94.1373 19.2592L89.9042 17.0335C89.6253 16.887 89.3149 16.8105 88.9999 16.8105C88.6848 16.8105 88.3745 16.887 88.0956 17.0335L83.8633 19.2592C83.783 19.3017 83.6923 19.3208 83.6016 19.3144C83.5109 19.308 83.4238 19.2762 83.3503 19.2227C83.2767 19.1692 83.2197 19.0962 83.1856 19.0119C83.1515 18.9276 83.1418 18.8354 83.1575 18.7458L83.9651 14.0351C84.0184 13.7241 83.9953 13.4048 83.8978 13.1047C83.8002 12.8046 83.6311 12.5328 83.405 12.3127L79.9803 8.97875C79.9149 8.91553 79.8685 8.8352 79.8465 8.7469C79.8245 8.65861 79.8277 8.5659 79.8558 8.47934C79.8838 8.39278 79.9357 8.31586 80.0054 8.25732C80.075 8.19878 80.1597 8.16099 80.2498 8.14825L84.9844 7.45617C85.2963 7.41079 85.5925 7.2903 85.8475 7.10507C86.1026 6.91984 86.3087 6.67542 86.4483 6.39283L88.5649 2.10375Z" fill="white"/>
<path d="M114.565 2.10375C114.605 2.02259 114.667 1.95427 114.744 1.90651C114.821 1.85874 114.91 1.83343 115 1.83343C115.091 1.83343 115.18 1.85874 115.257 1.90651C115.334 1.95427 115.396 2.02259 115.436 2.10375L117.553 6.39283C117.693 6.67514 117.899 6.91937 118.153 7.10458C118.408 7.28979 118.704 7.41044 119.015 7.45617L123.751 8.14917C123.841 8.16217 123.925 8.20002 123.994 8.25843C124.064 8.31685 124.115 8.3935 124.143 8.47972C124.171 8.56594 124.175 8.65829 124.153 8.74632C124.131 8.83434 124.085 8.91454 124.02 8.97783L120.596 12.3127C120.37 12.5328 120.201 12.8044 120.103 13.1043C120.006 13.4042 119.982 13.7233 120.036 14.0342L120.844 18.7458C120.86 18.8355 120.85 18.9278 120.816 19.0123C120.782 19.0967 120.725 19.1699 120.651 19.2234C120.577 19.2769 120.49 19.3087 120.399 19.315C120.309 19.3213 120.218 19.302 120.137 19.2592L115.904 17.0335C115.625 16.887 115.315 16.8105 115 16.8105C114.685 16.8105 114.375 16.887 114.096 17.0335L109.863 19.2592C109.783 19.3017 109.692 19.3208 109.602 19.3144C109.511 19.308 109.424 19.2762 109.35 19.2227C109.277 19.1692 109.22 19.0962 109.186 19.0119C109.152 18.9276 109.142 18.8354 109.158 18.7458L109.965 14.0351C110.018 13.7241 109.995 13.4048 109.898 13.1047C109.8 12.8046 109.631 12.5328 109.405 12.3127L105.98 8.97875C105.915 8.91553 105.869 8.8352 105.846 8.7469C105.824 8.65861 105.828 8.5659 105.856 8.47934C105.884 8.39278 105.936 8.31585 106.005 8.25732C106.075 8.19878 106.16 8.16099 106.25 8.14825L110.984 7.45617C111.296 7.41079 111.593 7.2903 111.848 7.10507C112.103 6.91984 112.309 6.67542 112.448 6.39283L114.565 2.10375Z" fill="white"/>
</svg>
