<svg width="16" height="16" viewBox="0 0 16 16" fill="none" xmlns="http://www.w3.org/2000/svg">
<path fill-rule="evenodd" clip-rule="evenodd" d="M12 7.99999C12 8.1326 11.9473 8.25978 11.8535 8.35354C11.7598 8.44731 11.6326 8.49999 11.5 8.49999H5.70699L7.85399 10.646C7.90048 10.6925 7.93736 10.7477 7.96252 10.8084C7.98768 10.8691 8.00062 10.9342 8.00062 11C8.00062 11.0657 7.98768 11.1308 7.96252 11.1916C7.93736 11.2523 7.90048 11.3075 7.85399 11.354C7.80751 11.4005 7.75232 11.4374 7.69158 11.4625C7.63084 11.4877 7.56574 11.5006 7.49999 11.5006C7.43425 11.5006 7.36915 11.4877 7.30841 11.4625C7.24767 11.4374 7.19248 11.4005 7.14599 11.354L4.14599 8.35399C4.09943 8.30755 4.06249 8.25237 4.03728 8.19162C4.01207 8.13088 3.9991 8.06576 3.9991 7.99999C3.9991 7.93422 4.01207 7.8691 4.03728 7.80836C4.06249 7.74761 4.09943 7.69244 4.14599 7.64599L7.14599 4.64599C7.23988 4.5521 7.36722 4.49936 7.49999 4.49936C7.63277 4.49936 7.76011 4.5521 7.85399 4.64599C7.94788 4.73988 8.00062 4.86722 8.00062 4.99999C8.00062 5.13277 7.94788 5.2601 7.85399 5.35399L5.70699 7.49999H11.5C11.6326 7.49999 11.7598 7.55267 11.8535 7.64644C11.9473 7.74021 12 7.86738 12 7.99999Z" fill="black"/>
</svg>
