<svg width="190" height="34" viewBox="0 0 190 34" fill="none" xmlns="http://www.w3.org/2000/svg">
<path d="M28.5649 25.5331H38.4289L13.9936 1.09766H4.12939L28.5649 25.5331Z" fill="white"/>
<path d="M19.0615 1.09766L42.6168 24.6529V1.09766H36.2423V8.53451L28.8054 1.09766L19.0615 1.09766Z" fill="white"/>
<path d="M0 1.91406V25.5314H6.37446V18.0945L13.8113 25.5314H23.6174L0 1.91406Z" fill="white"/>
<path d="M57.9993 21.8579H63.7108V25.2237H53.6392V7.32422H57.9993V21.8579Z" fill="white"/>
<path d="M71.5016 25.4288C70.1077 25.4288 68.8497 25.1313 67.7279 24.5362C66.6229 23.9413 65.7475 23.0914 65.1015 21.9865C64.4727 20.8816 64.1582 19.5897 64.1582 18.1108C64.1582 16.649 64.4811 15.3655 65.1271 14.2607C65.7731 13.1387 66.6569 12.2803 67.7788 11.6854C68.9008 11.0904 70.1586 10.793 71.5525 10.793C72.9464 10.793 74.2043 11.0904 75.3263 11.6854C76.4481 12.2803 77.332 13.1387 77.978 14.2607C78.624 15.3655 78.9469 16.649 78.9469 18.1108C78.9469 19.5727 78.6155 20.8646 77.9524 21.9865C77.3066 23.0914 76.4141 23.9413 75.2752 24.5362C74.1533 25.1313 72.8954 25.4288 71.5016 25.4288ZM71.5016 21.655C72.3345 21.655 73.04 21.3491 73.6179 20.7371C74.2128 20.1252 74.5102 19.2498 74.5102 18.1108C74.5102 16.9719 74.2213 16.0965 73.6434 15.4846C73.0824 14.8727 72.3854 14.5667 71.5525 14.5667C70.7026 14.5667 69.9971 14.8727 69.4363 15.4846C68.8753 16.0795 68.5948 16.955 68.5948 18.1108C68.5948 19.2498 68.8667 20.1252 69.4107 20.7371C69.9717 21.3491 70.6687 21.655 71.5016 21.655Z" fill="white"/>
<path d="M85.9009 10.793C86.9038 10.793 87.7793 10.9969 88.5272 11.4049C89.2921 11.8129 89.8786 12.3484 90.2866 13.0113V10.9969H94.6467V25.1993C94.6467 26.5082 94.3831 27.6895 93.8562 28.7434C93.3463 29.8143 92.5558 30.6642 91.4849 31.2932C90.431 31.9222 89.1136 32.2367 87.5328 32.2367C85.4249 32.2367 83.7166 31.7351 82.4077 30.7322C81.0988 29.7463 80.3509 28.4035 80.1639 26.7036H84.473C84.609 27.2476 84.932 27.6725 85.4419 27.9785C85.952 28.3015 86.5808 28.463 87.3288 28.463C88.2297 28.463 88.9436 28.1995 89.4707 27.6725C90.0145 27.1626 90.2866 26.3382 90.2866 25.1993V23.1849C89.8615 23.8478 89.2751 24.3918 88.5272 24.8168C87.7793 25.2247 86.9038 25.4288 85.9009 25.4288C84.7281 25.4288 83.6656 25.1313 82.7137 24.5362C81.7617 23.9243 81.0053 23.066 80.4444 21.961C79.9005 20.8391 79.6284 19.5473 79.6284 18.0854C79.6284 16.6235 79.9005 15.3401 80.4444 14.2352C81.0053 13.1303 81.7617 12.2803 82.7137 11.6854C83.6656 11.0904 84.7281 10.793 85.9009 10.793ZM90.2866 18.1108C90.2866 17.023 89.9806 16.1645 89.3686 15.5356C88.7737 14.9066 88.0427 14.5921 87.1759 14.5921C86.3089 14.5921 85.5695 14.9066 84.9575 15.5356C84.3625 16.1475 84.065 16.9974 84.065 18.0854C84.065 19.1733 84.3625 20.0402 84.9575 20.6862C85.5695 21.3151 86.3089 21.6295 87.1759 21.6295C88.0427 21.6295 88.7737 21.3151 89.3686 20.6862C89.9806 20.0572 90.2866 19.1987 90.2866 18.1108Z" fill="white"/>
<path d="M103.512 25.4288C102.118 25.4288 100.861 25.1313 99.7386 24.5362C98.6338 23.9413 97.7583 23.0914 97.1124 21.9865C96.4834 20.8816 96.1689 19.5897 96.1689 18.1108C96.1689 16.649 96.4919 15.3655 97.1378 14.2607C97.7838 13.1387 98.6677 12.2803 99.7897 11.6854C100.912 11.0904 102.169 10.793 103.563 10.793C104.957 10.793 106.215 11.0904 107.337 11.6854C108.459 12.2803 109.343 13.1387 109.989 14.2607C110.635 15.3655 110.958 16.649 110.958 18.1108C110.958 19.5727 110.626 20.8646 109.963 21.9865C109.317 23.0914 108.425 23.9413 107.286 24.5362C106.164 25.1313 104.906 25.4288 103.512 25.4288ZM103.512 21.655C104.345 21.655 105.051 21.3491 105.629 20.7371C106.224 20.1252 106.521 19.2498 106.521 18.1108C106.521 16.9719 106.232 16.0965 105.654 15.4846C105.093 14.8727 104.396 14.5667 103.563 14.5667C102.713 14.5667 102.008 14.8727 101.447 15.4846C100.886 16.0795 100.606 16.955 100.606 18.1108C100.606 19.2498 100.878 20.1252 101.421 20.7371C101.982 21.3491 102.679 21.655 103.512 21.655Z" fill="white"/>
<path d="M114.699 9.51789C113.934 9.51789 113.305 9.2969 112.812 8.85494C112.336 8.39598 112.098 7.83503 112.098 7.17208C112.098 6.49214 112.336 5.93118 112.812 5.48922C113.305 5.03026 113.934 4.80078 114.699 4.80078C115.447 4.80078 116.059 5.03026 116.535 5.48922C117.028 5.93118 117.274 6.49214 117.274 7.17208C117.274 7.83503 117.028 8.39598 116.535 8.85494C116.059 9.2969 115.447 9.51789 114.699 9.51789ZM116.866 10.9968V25.2245H112.506V10.9968H116.866Z" fill="white"/>
<path d="M123.621 13.0113C124.047 12.3484 124.633 11.8129 125.38 11.4049C126.128 10.9969 127.004 10.793 128.007 10.793C129.18 10.793 130.243 11.0904 131.194 11.6854C132.146 12.2803 132.894 13.1303 133.438 14.2352C134 15.3401 134.28 16.6235 134.28 18.0854C134.28 19.5473 134 20.8391 133.438 21.961C132.894 23.066 132.146 23.9243 131.194 24.5362C130.243 25.1313 129.18 25.4288 128.007 25.4288C127.021 25.4288 126.145 25.2247 125.38 24.8168C124.633 24.4088 124.047 23.8819 123.621 23.2359V32.0072H119.261V10.9969H123.621V13.0113ZM129.843 18.0854C129.843 16.9974 129.537 16.1475 128.925 15.5356C128.33 14.9066 127.59 14.5921 126.707 14.5921C125.839 14.5921 125.1 14.9066 124.488 15.5356C123.894 16.1645 123.596 17.023 123.596 18.1108C123.596 19.1987 123.894 20.0572 124.488 20.6862C125.1 21.3151 125.839 21.6295 126.707 21.6295C127.574 21.6295 128.313 21.3151 128.925 20.6862C129.537 20.0402 129.843 19.1733 129.843 18.0854Z" fill="white"/>
<path d="M141.59 25.4288C140.348 25.4288 139.244 25.2163 138.276 24.7913C137.306 24.3664 136.541 23.7883 135.981 23.0575C135.42 22.3095 135.105 21.4765 135.037 20.5586H139.347C139.397 21.0516 139.627 21.4511 140.035 21.7571C140.442 22.063 140.944 22.216 141.539 22.216C142.083 22.216 142.499 22.114 142.789 21.9101C143.095 21.6891 143.248 21.4085 143.248 21.0686C143.248 20.6606 143.034 20.3632 142.61 20.1761C142.184 19.9722 141.496 19.7512 140.545 19.5132C139.524 19.2752 138.674 19.0287 137.994 18.7738C137.315 18.5018 136.729 18.0854 136.235 17.5244C135.743 16.9465 135.496 16.173 135.496 15.204C135.496 14.3882 135.717 13.6488 136.159 12.9857C136.618 12.3058 137.281 11.7704 138.147 11.3794C139.032 10.9884 140.077 10.793 141.284 10.793C143.069 10.793 144.472 11.2349 145.491 12.1189C146.528 13.0028 147.123 14.1757 147.276 15.6376H143.248C143.179 15.1446 142.958 14.7536 142.584 14.4646C142.228 14.1757 141.751 14.0312 141.157 14.0312C140.647 14.0312 140.256 14.1331 139.983 14.3372C139.712 14.5241 139.576 14.7876 139.576 15.1275C139.576 15.5356 139.788 15.8415 140.213 16.0455C140.654 16.2495 141.335 16.4535 142.253 16.6574C143.307 16.9295 144.166 17.2014 144.828 17.4734C145.491 17.7283 146.069 18.1534 146.562 18.7483C147.073 19.3263 147.335 20.1081 147.353 21.094C147.353 21.9271 147.114 22.675 146.638 23.3379C146.179 23.9839 145.508 24.4938 144.625 24.8678C143.757 25.2417 142.746 25.4288 141.59 25.4288Z" fill="white"/>
<path d="M163.304 10.9961V25.2238H158.944V23.2861C158.502 23.9151 157.899 24.425 157.134 24.816C156.386 25.1899 155.553 25.3768 154.635 25.3768C153.547 25.3768 152.586 25.139 151.753 24.663C150.921 24.17 150.275 23.4645 149.816 22.5466C149.357 21.6286 149.128 20.5493 149.128 19.3084V10.9961H153.462V18.7219C153.462 19.6739 153.709 20.4133 154.201 20.9402C154.695 21.4673 155.357 21.7307 156.19 21.7307C157.04 21.7307 157.711 21.4673 158.205 20.9402C158.698 20.4133 158.944 19.6739 158.944 18.7219V10.9961H163.304Z" fill="white"/>
<path d="M183.825 10.8438C185.593 10.8438 186.996 11.3792 188.032 12.4501C189.087 13.521 189.614 15.0084 189.614 16.9122V25.2245H185.278V17.4986C185.278 16.5807 185.033 15.8754 184.539 15.3824C184.063 14.8724 183.401 14.6174 182.551 14.6174C181.7 14.6174 181.029 14.8724 180.536 15.3824C180.061 15.8754 179.823 16.5807 179.823 17.4986V25.2245H175.487V17.4986C175.487 16.5807 175.242 15.8754 174.748 15.3824C174.272 14.8724 173.609 14.6174 172.759 14.6174C171.909 14.6174 171.238 14.8724 170.745 15.3824C170.27 15.8754 170.032 16.5807 170.032 17.4986V25.2245H165.671V10.9967H170.032V12.7816C170.473 12.1866 171.051 11.7192 171.765 11.3792C172.479 11.0222 173.286 10.8438 174.187 10.8438C175.258 10.8438 176.21 11.0732 177.043 11.5322C177.893 11.9912 178.556 12.6456 179.032 13.4956C179.525 12.7136 180.197 12.0761 181.047 11.5832C181.897 11.0902 182.823 10.8438 183.825 10.8438Z" fill="white"/>
</svg>
