<svg width="190" height="47" viewBox="0 0 190 47" fill="none" xmlns="http://www.w3.org/2000/svg">
<path d="M55.3281 32.7577H68.9262V28.6619H60.1612V13.2344H55.3281V32.7577Z" fill="white"/>
<path d="M76.9827 30.0305C75.044 30.0305 74.0337 28.3376 74.0337 25.7982C74.0337 23.2588 75.044 21.5386 76.9827 21.5386C78.9214 21.5386 79.959 23.2588 79.959 25.7982C79.959 28.3376 78.9214 30.0305 76.9827 30.0305ZM77.01 33.198C81.5154 33.198 84.4644 30.0032 84.4644 25.7982C84.4644 21.5932 81.5154 18.3984 77.01 18.3984C72.5319 18.3984 69.5283 21.5932 69.5283 25.7982C69.5283 30.0032 72.5319 33.198 77.01 33.198Z" fill="white"/>
<path d="M92.2629 37.5941C94.3381 37.5941 96.1676 37.1299 97.3964 36.0377C98.5159 35.0274 99.2531 33.4983 99.2531 31.3958V18.7807H94.9935V20.2825H94.9389C94.1197 19.1083 92.8637 18.3711 91.0069 18.3711C87.5391 18.3711 85.1362 21.2655 85.1362 25.3613C85.1362 29.6482 88.0579 31.9965 91.198 31.9965C92.891 31.9965 93.9559 31.3138 94.775 30.3855H94.8843V31.778C94.8843 33.471 94.0924 34.454 92.2083 34.454C90.7338 34.454 89.9966 33.8259 89.7508 33.0887H85.4366C85.8735 36.0104 88.4129 37.5941 92.2629 37.5941ZM92.2356 28.6925C90.57 28.6925 89.4778 27.3273 89.4778 25.2247C89.4778 23.0949 90.57 21.7297 92.2356 21.7297C94.0924 21.7297 95.0754 23.3134 95.0754 25.1974C95.0754 27.1634 94.1743 28.6925 92.2356 28.6925Z" fill="white"/>
<path d="M108.012 30.0305C106.073 30.0305 105.063 28.3376 105.063 25.7982C105.063 23.2588 106.073 21.5386 108.012 21.5386C109.951 21.5386 110.988 23.2588 110.988 25.7982C110.988 28.3376 109.951 30.0305 108.012 30.0305ZM108.039 33.198C112.545 33.198 115.494 30.0032 115.494 25.7982C115.494 21.5932 112.545 18.3984 108.039 18.3984C103.561 18.3984 100.558 21.5932 100.558 25.7982C100.558 30.0032 103.561 33.198 108.039 33.198Z" fill="white"/>
<path d="M116.793 32.7577H121.244V18.7774H116.793V32.7577ZM116.793 16.8387H121.244V13.2344H116.793V16.8387Z" fill="white"/>
<path d="M123.175 37.3756H127.626V31.3138H127.68C128.554 32.488 129.837 33.1979 131.639 33.1979C135.298 33.1979 137.729 30.3035 137.729 25.7709C137.729 21.5658 135.462 18.3711 131.749 18.3711C129.837 18.3711 128.472 19.2176 127.516 20.4736H127.434V18.7807H123.175V37.3756ZM130.493 29.7574C128.581 29.7574 127.489 28.201 127.489 25.9347C127.489 23.6683 128.472 21.9481 130.411 21.9481C132.322 21.9481 133.223 23.5318 133.223 25.9347C133.223 28.3103 132.186 29.7574 130.493 29.7574Z" fill="white"/>
<path d="M144.976 33.1979C148.635 33.1979 151.338 31.6142 151.338 28.556C151.338 24.979 148.444 24.351 145.986 23.9414C144.211 23.6137 142.628 23.4772 142.628 22.4942C142.628 21.6204 143.474 21.2109 144.566 21.2109C145.795 21.2109 146.641 21.5931 146.805 22.8492H150.901C150.683 20.0913 148.553 18.3711 144.594 18.3711C141.29 18.3711 138.559 19.9002 138.559 22.8492C138.559 26.1258 141.153 26.7812 143.583 27.1907C145.44 27.5184 147.133 27.6549 147.133 28.911C147.133 29.8121 146.286 30.3035 144.948 30.3035C143.474 30.3035 142.546 29.6209 142.382 28.2283H138.177C138.313 31.3138 140.88 33.1979 144.976 33.1979Z" fill="white"/>
<path d="M157.383 33.1673C159.321 33.1673 160.55 32.4027 161.56 31.0375H161.642V32.7577H165.902V18.7773H161.451V26.5867C161.451 28.2523 160.523 29.3991 158.994 29.3991C157.574 29.3991 156.891 28.5527 156.891 27.0236V18.7773H152.468V27.952C152.468 31.0648 154.161 33.1673 157.383 33.1673Z" fill="white"/>
<path d="M167.838 32.761H172.289V24.9244C172.289 23.2588 173.108 22.0846 174.501 22.0846C175.839 22.0846 176.467 22.9584 176.467 24.4602V32.761H180.918V24.9244C180.918 23.2588 181.71 22.0846 183.129 22.0846C184.467 22.0846 185.095 22.9584 185.095 24.4602V32.761H189.546V23.6683C189.546 20.5282 187.962 18.3711 184.795 18.3711C182.993 18.3711 181.491 19.1356 180.399 20.8286H180.344C179.634 19.3268 178.242 18.3711 176.412 18.3711C174.392 18.3711 173.054 19.3268 172.18 20.774H172.098V18.7807H167.838V32.761Z" fill="white"/>
<path fill-rule="evenodd" clip-rule="evenodd" d="M9.84588 4.42932C8.21819 5.56745 6.74631 6.91309 5.46859 8.42788C10.69 7.94313 17.3235 8.73467 25.025 12.5854C33.2491 16.6974 39.8716 16.8364 44.4805 15.9474C44.0623 14.6812 43.5358 13.4643 42.9122 12.3075C37.6362 12.864 30.8724 12.1274 22.9898 8.18621C17.9843 5.68344 13.572 4.65247 9.84588 4.42932ZM39.8302 7.92074C35.6637 3.26557 29.6089 0.335938 22.8697 0.335938C20.8906 0.335938 18.9704 0.588634 17.1398 1.06349C19.6191 1.73999 22.2529 2.72969 25.025 4.11576C30.7962 7.00133 35.7788 7.93043 39.8302 7.92074ZM45.4659 20.3918C39.8979 21.4913 32.209 21.2655 22.9898 16.6559C14.3709 12.3464 7.51093 12.4007 2.88434 13.4288C2.64553 13.4819 2.41235 13.5376 2.18479 13.5956C1.57905 14.913 1.09554 16.2983 0.748608 17.7368C1.11915 17.6379 1.50204 17.5438 1.89709 17.4559C7.50995 16.2086 15.4405 16.2628 25.025 21.0551C33.644 25.3646 40.504 25.3103 45.1306 24.2822C45.2891 24.247 45.4453 24.2106 45.5989 24.1731C45.6158 23.8143 45.6242 23.4533 45.6242 23.0904C45.6242 22.1774 45.5705 21.2769 45.4659 20.3918ZM44.856 28.9751C39.342 29.939 31.877 29.5691 22.9898 25.1256C14.3709 20.8161 7.51093 20.8704 2.88434 21.8985C1.85738 22.1266 0.93353 22.4046 0.118568 22.698C0.116346 22.8285 0.115234 22.9593 0.115234 23.0904C0.115234 35.6574 10.3028 45.8449 22.8697 45.8449C33.4017 45.8449 42.2625 38.6896 44.856 28.9751Z" fill="white"/>
</svg>
