<svg width="190" height="48" viewBox="0 0 190 48" fill="none" xmlns="http://www.w3.org/2000/svg">
<g clip-path="url(#clip0_2589_467)">
<path d="M30.5605 23.6247C32.1111 22.3263 33.0971 20.376 33.0971 18.1953C33.0971 16.0148 32.1111 14.0645 30.5605 12.766C30.7383 12.68 30.9093 12.5866 31.0722 12.4854C32.1007 11.8459 33.3146 11.4766 34.6147 11.4766C38.3255 11.4766 41.3335 14.4847 41.3335 18.1953C41.3335 21.906 38.3255 24.9141 34.6147 24.9141C33.3146 24.9141 32.1007 24.5448 31.0722 23.9054C30.9093 23.8042 30.7383 23.7108 30.5605 23.6247Z" fill="white"/>
<path d="M28.6945 19.2536C29.3881 17.3539 29.2669 15.1719 28.1766 13.2834C27.0862 11.395 25.2572 10.199 23.2651 9.84975C23.376 9.68641 23.4774 9.52002 23.5678 9.35091C24.1388 8.28287 25.0054 7.35606 26.1314 6.70596C29.345 4.85061 33.4542 5.95166 35.3095 9.1652C37.1648 12.3788 36.0638 16.488 32.8502 18.3432C31.7242 18.9933 30.4882 19.2805 29.2778 19.241C29.0862 19.2346 28.8914 19.2393 28.6945 19.2536Z" fill="white"/>
<path d="M24.8922 16.4026C24.543 14.4106 23.347 12.5815 21.4585 11.4912C19.5701 10.4009 17.388 10.2797 15.4883 10.9733C15.5027 10.7764 15.5073 10.5816 15.5009 10.39C15.4615 9.17953 15.7486 7.94356 16.3987 6.81755C18.2541 3.604 22.3632 2.50296 25.5768 4.3583C28.7903 6.21364 29.8914 10.3228 28.036 13.5364C27.3859 14.6623 26.4591 15.529 25.391 16.1C25.222 16.1904 25.0556 16.2918 24.8922 16.4026Z" fill="white"/>
<path d="M20.1726 15.8316C18.8742 14.2811 16.9239 13.2951 14.7432 13.2951C12.5626 13.2951 10.6123 14.2811 9.31387 15.8316C9.22786 15.6539 9.13445 15.4829 9.0332 15.32C8.39373 14.2915 8.02441 13.0776 8.02441 11.7774C8.02441 8.0667 11.0325 5.05859 14.7432 5.05859C18.4539 5.05859 21.462 8.0667 21.462 11.7774C21.462 13.0776 21.0927 14.2915 20.4533 15.32C20.3519 15.4829 20.2586 15.6539 20.1726 15.8316Z" fill="white"/>
<path d="M15.8001 17.6999C13.9003 17.0064 11.7183 17.1276 9.82982 18.2178C7.94135 19.3081 6.74536 21.1372 6.39616 23.1292C6.23282 23.0183 6.06641 22.917 5.8973 22.8266C4.82927 22.2556 3.90245 21.3889 3.25235 20.2629C1.397 17.0493 2.49804 12.9402 5.7116 11.0849C8.92516 9.22951 13.0343 10.3306 14.8897 13.5441C15.5398 14.6701 15.8269 15.9061 15.7873 17.1165C15.7811 17.3081 15.7857 17.503 15.8001 17.6999Z" fill="white"/>
<path d="M12.9457 21.5022C10.9536 21.8514 9.12456 23.0474 8.03425 24.9358C6.94395 26.8243 6.82275 29.0063 7.51634 30.906C7.31943 30.8916 7.1246 30.887 6.93294 30.8932C5.7225 30.9329 4.48653 30.6457 3.36053 29.9956C0.146969 28.1402 -0.954076 24.0311 0.901271 20.8175C2.75661 17.604 6.86577 16.5029 10.0793 18.3583C11.2053 19.0084 12.072 19.9352 12.6429 21.0032C12.7334 21.1723 12.8348 21.3387 12.9457 21.5022Z" fill="white"/>
<path d="M12.3751 26.2192C10.8245 27.5177 9.83846 29.468 9.83846 31.6485C9.83846 33.8291 10.8245 35.7794 12.3751 37.0779C12.1974 37.1638 12.0263 37.2573 11.8635 37.3585C10.835 37.998 9.62106 38.3673 8.32085 38.3673C4.61016 38.3673 1.60205 35.3592 1.60205 31.6485C1.60205 27.9378 4.61016 24.9297 8.32085 24.9297C9.62106 24.9297 10.835 25.299 11.8635 25.9385C12.0263 26.0398 12.1974 26.1331 12.3751 26.2192Z" fill="white"/>
<path d="M14.2405 30.5938C13.5468 32.4935 13.668 34.6755 14.7583 36.564C15.8486 38.4525 17.6777 39.6484 19.6698 39.9976C19.5589 40.1611 19.4575 40.3275 19.3671 40.4966C18.7961 41.5646 17.9295 42.4914 16.8035 43.1414C13.5899 44.9969 9.48074 43.8957 7.6254 40.6823C5.77004 37.4686 6.8711 33.3596 10.0846 31.5041C11.2107 30.854 12.4467 30.5669 13.6571 30.6065C13.8487 30.6128 14.0435 30.6082 14.2405 30.5938Z" fill="white"/>
<path d="M18.0431 33.4492C18.3923 35.4412 19.5883 37.2703 21.4767 38.3605C23.3652 39.4509 25.5473 39.5721 27.4471 38.8785C27.4327 39.0755 27.4281 39.2702 27.4343 39.4619C27.4739 40.6723 27.1868 41.9083 26.5367 43.0343C24.6813 46.2479 20.5722 47.3489 17.3586 45.4935C14.145 43.6382 13.044 39.5291 14.8994 36.3155C15.5495 35.1895 16.4763 34.3228 17.5442 33.7519C17.7134 33.6614 17.8798 33.56 18.0431 33.4492Z" fill="white"/>
<path d="M22.763 34.0195C24.0615 35.5701 26.0118 36.5561 28.1924 36.5561C30.3731 36.5561 32.3234 35.5701 33.6218 34.0195C33.7078 34.1972 33.8012 34.3682 33.9025 34.531C34.5419 35.5595 34.9112 36.7735 34.9112 38.0737C34.9112 41.7844 31.9031 44.7925 28.1924 44.7925C24.4817 44.7925 21.4736 41.7844 21.4736 38.0737C21.4736 36.7735 21.843 35.5595 22.4824 34.531C22.5837 34.3682 22.6771 34.1972 22.763 34.0195Z" fill="white"/>
<path d="M27.1357 32.1519C29.0355 32.8455 31.2175 32.7243 33.106 31.6341C34.9944 30.5438 36.1904 28.7147 36.5396 26.7227C36.7029 26.8334 36.8693 26.9349 37.0385 27.0253C38.1066 27.5963 39.0333 28.463 39.6834 29.5889C41.5389 32.8025 40.4377 36.9116 37.2242 38.767C34.0106 40.6223 29.9015 39.5213 28.0461 36.3077C27.396 35.1818 27.1089 33.9458 27.1484 32.7353C27.1547 32.5437 27.1501 32.3489 27.1357 32.1519Z" fill="white"/>
<path d="M34.9052 24.9074C34.9038 24.9098 34.9024 24.9121 34.9011 24.9145C33.8109 26.803 31.9818 27.999 29.9897 28.3482C30.1005 28.5116 30.202 28.678 30.2924 28.847C30.8634 29.9151 31.73 30.8419 32.856 31.492C36.0696 33.3474 40.1787 32.2463 42.0341 29.0328C43.6247 26.2777 43.0424 22.8644 40.8189 20.7773C39.8421 23.1215 37.5753 24.7937 34.9052 24.9074Z" fill="white"/>
<path d="M58.6894 12.2197V32.2864H54.2422V12.2197H58.6894ZM54.9472 32.2864L55.0285 28.3544H66.5533V32.2864H54.9472ZM67.2494 25.48C67.2494 24.0519 67.5477 22.8044 68.1442 21.7378C68.7408 20.6531 69.5814 19.8125 70.6661 19.2159C71.7508 18.6194 73.0162 18.3211 74.4625 18.3211C75.9088 18.3211 77.1651 18.6194 78.2317 19.2159C79.3165 19.8125 80.1571 20.6531 80.7536 21.7378C81.3502 22.8044 81.6485 24.0519 81.6485 25.48C81.6485 26.9082 81.3502 28.1556 80.7536 29.2222C80.1571 30.2888 79.3165 31.1204 78.2317 31.7169C77.1651 32.3135 75.9088 32.6118 74.4625 32.6118C73.0162 32.6118 71.7508 32.3135 70.6661 31.7169C69.5814 31.1204 68.7408 30.2888 68.1442 29.2222C67.5477 28.1556 67.2494 26.9082 67.2494 25.48ZM71.4525 25.4529C71.4525 26.1399 71.579 26.7455 71.8321 27.2698C72.0852 27.776 72.4377 28.1736 72.8896 28.463C73.3417 28.7341 73.866 28.8697 74.4625 28.8697C75.0591 28.8697 75.5833 28.7341 76.0353 28.463C76.4872 28.1736 76.8307 27.776 77.0658 27.2698C77.3189 26.7455 77.4454 26.1399 77.4454 25.4529C77.4454 24.7659 77.3189 24.1693 77.0658 23.6632C76.8307 23.157 76.4872 22.7683 76.0353 22.4971C75.5833 22.2079 75.0591 22.0632 74.4625 22.0632C73.866 22.0632 73.3417 22.2079 72.8896 22.4971C72.4377 22.7683 72.0852 23.157 71.8321 23.6632C71.579 24.1693 71.4525 24.7659 71.4525 25.4529ZM82.5916 25.2631C82.5916 23.8711 82.8717 22.6508 83.4321 21.6022C83.9926 20.5538 84.7609 19.7402 85.7371 19.1617C86.7133 18.5651 87.8342 18.2668 89.0996 18.2668C90.1662 18.2668 91.1063 18.4837 91.9198 18.9176C92.7515 19.3515 93.3118 19.921 93.6011 20.626L93.1943 20.8972L93.5198 18.7279H97.289V31.4186C97.289 33.0096 96.9816 34.3835 96.3671 35.5405C95.7523 36.7155 94.8756 37.6195 93.7366 38.2522C92.6159 38.8849 91.278 39.2013 89.7233 39.2013C88.4217 39.2013 87.2467 38.9392 86.1981 38.4149C85.1676 37.9087 84.327 37.1856 83.6762 36.2455C83.0435 35.3054 82.6638 34.2208 82.5373 32.9914H86.7676C86.8037 33.7688 87.1111 34.3654 87.6895 34.7813C88.2861 35.197 89.0454 35.4049 89.9674 35.4049C90.9979 35.4049 91.7933 35.1157 92.3537 34.5371C92.9141 33.9767 93.1943 33.2265 93.1943 32.2864V29.412L93.5739 29.7645C93.2847 30.4696 92.7243 31.039 91.8927 31.4729C91.0611 31.9068 90.103 32.1238 89.0183 32.1238C87.7709 32.1238 86.659 31.8345 85.6828 31.256C84.7248 30.6775 83.9654 29.8731 83.405 28.8426C82.8627 27.8121 82.5916 26.619 82.5916 25.2631ZM86.8217 25.1546C86.8217 25.8055 86.9573 26.3839 87.2285 26.8901C87.4998 27.3964 87.8613 27.794 88.3133 28.0832C88.7652 28.3544 89.2623 28.49 89.8047 28.49C90.4554 28.49 91.0249 28.3544 91.5131 28.0832C92.0193 27.794 92.408 27.3964 92.6791 26.8901C92.9683 26.3839 93.113 25.8055 93.113 25.1546C93.113 24.4858 92.9683 23.9163 92.6791 23.4462C92.3898 22.9582 91.9921 22.5784 91.4859 22.3073C90.9979 22.0361 90.4284 21.9005 89.7775 21.9005C89.2352 21.9005 88.7381 22.0361 88.2861 22.3073C87.8342 22.5784 87.4726 22.9582 87.2015 23.4462C86.9483 23.9344 86.8217 24.5038 86.8217 25.1546ZM98.7773 25.48C98.7773 24.0519 99.0756 22.8044 99.6722 21.7378C100.269 20.6531 101.109 19.8125 102.194 19.2159C103.279 18.6194 104.544 18.3211 105.99 18.3211C107.437 18.3211 108.693 18.6194 109.76 19.2159C110.844 19.8125 111.685 20.6531 112.282 21.7378C112.878 22.8044 113.176 24.0519 113.176 25.48C113.176 26.9082 112.878 28.1556 112.282 29.2222C111.685 30.2888 110.844 31.1204 109.76 31.7169C108.693 32.3135 107.437 32.6118 105.99 32.6118C104.544 32.6118 103.279 32.3135 102.194 31.7169C101.109 31.1204 100.269 30.2888 99.6722 29.2222C99.0756 28.1556 98.7773 26.9082 98.7773 25.48ZM102.98 25.4529C102.98 26.1399 103.107 26.7455 103.36 27.2698C103.613 27.776 103.966 28.1736 104.418 28.463C104.87 28.7341 105.394 28.8697 105.99 28.8697C106.587 28.8697 107.111 28.7341 107.563 28.463C108.015 28.1736 108.359 27.776 108.594 27.2698C108.847 26.7455 108.973 26.1399 108.973 25.4529C108.973 24.7659 108.847 24.1693 108.594 23.6632C108.359 23.157 108.015 22.7683 107.563 22.4971C107.111 22.2079 106.587 22.0632 105.99 22.0632C105.394 22.0632 104.87 22.2079 104.418 22.4971C103.966 22.7683 103.613 23.157 103.36 23.6632C103.107 24.1693 102.98 24.7659 102.98 25.4529ZM114.933 32.2864V18.7279H119.136V32.2864H114.933ZM117.048 16.6127C116.379 16.6127 115.81 16.3867 115.34 15.9348C114.888 15.4647 114.662 14.8952 114.662 14.2264C114.662 13.5575 114.888 12.9971 115.34 12.5451C115.81 12.0932 116.379 11.8672 117.048 11.8672C117.699 11.8672 118.25 12.0932 118.702 12.5451C119.172 12.9971 119.407 13.5575 119.407 14.2264C119.407 14.8952 119.172 15.4647 118.702 15.9348C118.25 16.3867 117.699 16.6127 117.048 16.6127ZM121.854 38.7946V18.7279H125.678L125.894 20.382C126.274 19.7493 126.88 19.2431 127.711 18.8634C128.543 18.4837 129.438 18.294 130.396 18.294C131.661 18.294 132.764 18.5741 133.704 19.1346C134.644 19.695 135.385 20.4995 135.928 21.5481C136.47 22.5784 136.759 23.8258 136.796 25.2902C136.832 26.7183 136.596 27.9929 136.091 29.1137C135.584 30.2164 134.853 31.0842 133.894 31.7169C132.935 32.3498 131.779 32.6661 130.423 32.6661C129.483 32.6661 128.606 32.5034 127.793 32.178C126.98 31.8525 126.374 31.4368 125.976 30.9306V38.7946H121.854ZM126.057 25.5072C126.057 26.176 126.192 26.7726 126.464 27.2969C126.754 27.8031 127.142 28.2008 127.63 28.49C128.136 28.7613 128.714 28.8967 129.365 28.8967C130.034 28.8967 130.604 28.7522 131.074 28.463C131.562 28.1736 131.933 27.776 132.185 27.2698C132.457 26.7635 132.593 26.176 132.593 25.5072C132.593 24.8382 132.457 24.2507 132.185 23.7445C131.933 23.2383 131.562 22.8406 131.074 22.5514C130.604 22.2621 130.034 22.1175 129.365 22.1175C128.714 22.1175 128.136 22.2621 127.63 22.5514C127.142 22.8226 126.754 23.2113 126.464 23.7174C126.192 24.2236 126.057 24.8202 126.057 25.5072ZM137.511 28.0019H141.282C141.282 28.4719 141.434 28.8426 141.742 29.1137C142.068 29.3849 142.537 29.5205 143.152 29.5205C143.513 29.5205 143.813 29.4753 144.047 29.3849C144.301 29.2945 144.491 29.168 144.616 29.0053C144.761 28.8245 144.833 28.6256 144.833 28.4087C144.833 28.1736 144.753 27.9748 144.59 27.8121C144.445 27.6494 144.191 27.5229 143.83 27.4325L141.444 26.8087C140.106 26.4472 139.157 25.9139 138.597 25.2089C138.036 24.5038 137.756 23.6993 137.756 22.7954C137.756 21.8915 137.982 21.1051 138.434 20.4363C138.904 19.7493 139.537 19.225 140.332 18.8634C141.128 18.4837 142.022 18.294 143.017 18.294C144.517 18.294 145.746 18.7098 146.705 19.5414C147.681 20.3548 148.196 21.4666 148.251 22.8767H144.481C144.499 22.4067 144.364 22.0361 144.075 21.7649C143.785 21.4757 143.405 21.3311 142.936 21.3311C142.52 21.3311 142.176 21.4395 141.905 21.6565C141.652 21.8553 141.525 22.1356 141.525 22.4971C141.525 22.8406 141.652 23.0937 141.905 23.2565C142.158 23.401 142.501 23.5276 142.936 23.6361L145.349 24.2327C146.47 24.5038 147.319 24.9649 147.898 25.6156C148.477 26.2664 148.765 27.0981 148.765 28.1104C148.765 29.5024 148.251 30.6051 147.22 31.4186C146.189 32.2322 144.852 32.639 143.207 32.639C141.508 32.639 140.142 32.2142 139.112 31.3645C138.099 30.4967 137.566 29.3758 137.511 28.0019ZM155.429 32.639C153.838 32.639 152.608 32.1418 151.74 31.1476C150.874 30.1532 150.439 28.8515 150.439 27.2426V18.7279H154.615V25.7241C154.615 26.9895 154.841 27.8392 155.293 28.2731C155.745 28.707 156.341 28.9239 157.083 28.9239C158.041 28.9239 158.701 28.6527 159.062 28.1104C159.424 27.5681 159.605 26.7907 159.605 25.7783V18.7279H163.781V32.2864H159.85L159.578 30.7679C159.162 31.3282 158.574 31.7803 157.815 32.1238C157.055 32.4672 156.261 32.639 155.429 32.639ZM170.675 32.2864H166.471V18.7279H170.377L170.675 21.0599L170.214 20.5718C170.575 19.8848 171.118 19.3334 171.841 18.9176C172.582 18.4837 173.377 18.2668 174.227 18.2668C175.565 18.2668 176.613 18.5651 177.373 19.1617C178.15 19.7582 178.71 20.5447 179.053 21.5209H178.402C178.62 20.5447 179.144 19.7582 179.976 19.1617C180.808 18.5651 181.801 18.2668 182.959 18.2668C184.712 18.2668 186.005 18.7368 186.837 19.6769C187.668 20.617 188.084 21.8644 188.084 23.4192V32.2864H184.017V24.4496C184.017 23.5998 183.808 22.9671 183.392 22.5514C182.995 22.1356 182.462 21.9277 181.793 21.9277C181.395 21.9277 181.015 22.0181 180.654 22.1988C180.293 22.3615 179.993 22.6598 179.759 23.0937C179.524 23.5096 179.406 24.1061 179.406 24.8834V32.2864H175.284V24.4496C175.284 23.5998 175.086 22.9762 174.688 22.5784C174.29 22.1627 173.757 21.9548 173.087 21.9548C172.69 21.9548 172.301 22.0452 171.921 22.226C171.56 22.3887 171.262 22.687 171.027 23.1209C170.793 23.5366 170.675 24.1241 170.675 24.8834V32.2864Z" fill="white"/>
</g>
<defs>
<clipPath id="clip0_2589_467">
<rect width="190" height="47.1895" fill="white"/>
</clipPath>
</defs>
</svg>
