<svg width="190" height="48" viewBox="0 0 190 48" fill="none" xmlns="http://www.w3.org/2000/svg">
<path d="M1.09131 34.9954L1.09131 11.6641L12.757 18.145V28.5792L22.0896 33.8288L31.422 28.5792V18.145L43.0878 11.6641V34.9954L22.0896 46.661L1.09131 34.9954Z" fill="white"/>
<path fill-rule="evenodd" clip-rule="evenodd" d="M6.92415 14.9062L1.09131 11.6657L22.0896 0L43.0878 11.6657L37.2549 14.9062V32.0806L22.0896 40.8299L6.92414 32.0806L6.92415 14.9062ZM36.6231 15.2572L31.422 18.1466V18.0818L22.0896 12.8322L12.757 18.0818V18.1466L7.55603 15.2572V31.7217L22.0896 40.1064L36.6231 31.7217V15.2572Z" fill="white"/>
<path d="M54.2681 33.153V13.5547H57.9638V29.7932H66.9231V33.153H54.2681Z" fill="white"/>
<path d="M74.9019 33.5457C73.5208 33.5457 72.2795 33.2658 71.1783 32.7058C70.077 32.1458 69.2091 31.3339 68.5745 30.27C67.9398 29.2062 67.6226 27.9276 67.6226 26.4344V25.9863C67.6226 24.4932 67.9398 23.2146 68.5745 22.1507C69.2091 21.0868 70.077 20.2749 71.1783 19.715C72.2795 19.1549 73.5208 18.875 74.9019 18.875C76.2832 18.875 77.5244 19.1549 78.6257 19.715C79.7269 20.2749 80.5948 21.0868 81.2294 22.1507C81.864 23.2146 82.1814 24.4932 82.1814 25.9863V26.4344C82.1814 27.9276 81.864 29.2062 81.2294 30.27C80.5948 31.3339 79.7269 32.1458 78.6257 32.7058C77.5244 33.2658 76.2832 33.5457 74.9019 33.5457ZM74.9019 30.41C75.9845 30.41 76.8805 30.0648 77.5897 29.3741C78.2991 28.6648 78.6536 27.6568 78.6536 26.3503V26.0704C78.6536 24.7639 78.2991 23.7652 77.5897 23.0746C76.8992 22.3654 76.0032 22.0107 74.9019 22.0107C73.8194 22.0107 72.9234 22.3654 72.2142 23.0746C71.5049 23.7652 71.1503 24.7639 71.1503 26.0704V26.3503C71.1503 27.6568 71.5049 28.6648 72.2142 29.3741C72.9234 30.0648 73.8194 30.41 74.9019 30.41Z" fill="white"/>
<path d="M83.5059 26.2664V25.8184C83.5059 24.3625 83.7951 23.1213 84.3738 22.0947C84.9523 21.0494 85.7177 20.2562 86.6695 19.715C87.6402 19.1549 88.6947 18.875 89.8332 18.875C91.1025 18.875 92.0638 19.099 92.717 19.547C93.3703 19.9949 93.8463 20.4616 94.1449 20.9469H94.6489V19.2669H98.1206V35.6176C98.1206 36.5695 97.8406 37.3254 97.2806 37.8854C96.7207 38.464 95.9741 38.7533 95.0408 38.7533H85.7456V35.6736H93.809C94.3315 35.6736 94.5929 35.3936 94.5929 34.8336V31.2219H94.0889C93.9022 31.5206 93.6409 31.8285 93.305 32.1458C92.969 32.4445 92.521 32.6964 91.9611 32.9018C91.4012 33.1071 90.6918 33.2098 89.8332 33.2098C88.6947 33.2098 87.6402 32.9391 86.6695 32.3978C85.7177 31.8378 84.9523 31.0446 84.3738 30.0181C83.7951 28.9728 83.5059 27.7223 83.5059 26.2664ZM90.8412 30.1301C91.9237 30.1301 92.829 29.7847 93.557 29.0941C94.2849 28.4036 94.6489 27.4329 94.6489 26.1824V25.9024C94.6489 24.6331 94.2849 23.6626 93.557 22.9907C92.8476 22.3001 91.9425 21.9547 90.8412 21.9547C89.7586 21.9547 88.8533 22.3001 88.1255 22.9907C87.3975 23.6626 87.0335 24.6331 87.0335 25.9024V26.1824C87.0335 27.4329 87.3975 28.4036 88.1255 29.0941C88.8533 29.7847 89.7586 30.1301 90.8412 30.1301Z" fill="white"/>
<path d="M107.379 33.5457C105.998 33.5457 104.757 33.2658 103.656 32.7058C102.554 32.1458 101.687 31.3339 101.052 30.27C100.417 29.2062 100.1 27.9276 100.1 26.4344V25.9863C100.1 24.4932 100.417 23.2146 101.052 22.1507C101.687 21.0868 102.554 20.2749 103.656 19.715C104.757 19.1549 105.998 18.875 107.379 18.875C108.761 18.875 110.002 19.1549 111.103 19.715C112.204 20.2749 113.072 21.0868 113.707 22.1507C114.342 23.2146 114.659 24.4932 114.659 25.9863V26.4344C114.659 27.9276 114.342 29.2062 113.707 30.27C113.072 31.3339 112.204 32.1458 111.103 32.7058C110.002 33.2658 108.761 33.5457 107.379 33.5457ZM107.379 30.41C108.462 30.41 109.358 30.0648 110.067 29.3741C110.776 28.6648 111.131 27.6568 111.131 26.3503V26.0704C111.131 24.7639 110.776 23.7652 110.067 23.0746C109.377 22.3654 108.481 22.0107 107.379 22.0107C106.297 22.0107 105.401 22.3654 104.692 23.0746C103.982 23.7652 103.628 24.7639 103.628 26.0704V26.3503C103.628 27.6568 103.982 28.6648 104.692 29.3741C105.401 30.0648 106.297 30.41 107.379 30.41Z" fill="white"/>
<path d="M116.655 33.1544V19.2675H120.183V33.1544H116.655ZM118.419 17.6437C117.784 17.6437 117.243 17.4384 116.795 17.0278C116.366 16.6171 116.151 16.0758 116.151 15.404C116.151 14.732 116.366 14.1907 116.795 13.78C117.243 13.3695 117.784 13.1641 118.419 13.1641C119.072 13.1641 119.614 13.3695 120.043 13.78C120.472 14.1907 120.687 14.732 120.687 15.404C120.687 16.0758 120.472 16.6171 120.043 17.0278C119.614 17.4384 119.072 17.6437 118.419 17.6437Z" fill="white"/>
<path d="M122.832 38.7533V19.2669H126.304V20.9469H126.808C127.125 20.4056 127.619 19.9296 128.292 19.5189C128.964 19.0896 129.925 18.875 131.176 18.875C132.296 18.875 133.331 19.1549 134.283 19.715C135.235 20.2562 136 21.0588 136.579 22.1228C137.158 23.1866 137.447 24.4745 137.447 25.9863V26.4344C137.447 27.9462 137.158 29.2341 136.579 30.298C136 31.362 135.235 32.1739 134.283 32.7338C133.331 33.2751 132.296 33.5457 131.176 33.5457C130.335 33.5457 129.626 33.443 129.047 33.2378C128.487 33.0511 128.03 32.8085 127.676 32.5098C127.34 32.1925 127.069 31.8752 126.864 31.5579H126.36V38.7533H122.832ZM130.111 30.466C131.213 30.466 132.118 30.1206 132.827 29.4301C133.555 28.7208 133.919 27.6942 133.919 26.3503V26.0704C133.919 24.7265 133.555 23.7092 132.827 23.0186C132.1 22.3094 131.194 21.9547 130.111 21.9547C129.029 21.9547 128.123 22.3094 127.396 23.0186C126.668 23.7092 126.304 24.7265 126.304 26.0704V26.3503C126.304 27.6942 126.668 28.7208 127.396 29.4301C128.123 30.1206 129.029 30.466 130.111 30.466Z" fill="white"/>
<path d="M145.193 33.5457C143.383 33.5457 141.899 33.1538 140.742 32.3698C139.585 31.5859 138.885 30.466 138.642 29.0101L141.89 28.1702C142.021 28.8234 142.235 29.3368 142.534 29.7101C142.851 30.0834 143.234 30.354 143.682 30.522C144.148 30.6713 144.652 30.746 145.193 30.746C146.014 30.746 146.622 30.6059 147.014 30.326C147.405 30.0274 147.601 29.6634 147.601 29.2341C147.601 28.8048 147.415 28.4782 147.041 28.2542C146.669 28.0115 146.071 27.8156 145.249 27.6663L144.466 27.5262C143.495 27.3396 142.608 27.0876 141.806 26.7703C141.004 26.4344 140.359 25.977 139.874 25.3985C139.389 24.8198 139.146 24.0732 139.146 23.1586C139.146 21.7774 139.65 20.7228 140.658 19.9949C141.665 19.2483 142.992 18.875 144.633 18.875C146.183 18.875 147.471 19.2204 148.497 19.9109C149.524 20.6015 150.196 21.5068 150.514 22.6267L147.238 23.6346C147.089 22.9254 146.781 22.4213 146.314 22.1228C145.865 21.8241 145.305 21.6747 144.633 21.6747C143.962 21.6747 143.449 21.796 143.094 22.0387C142.74 22.2627 142.562 22.58 142.562 22.9907C142.562 23.4386 142.748 23.7745 143.122 23.9985C143.495 24.2038 143.999 24.3625 144.633 24.4745L145.417 24.6145C146.463 24.8011 147.405 25.0531 148.246 25.3704C149.104 25.6691 149.776 26.1077 150.261 26.6864C150.766 27.2463 151.018 28.0115 151.018 28.9821C151.018 30.4381 150.485 31.5672 149.421 32.3698C148.376 33.1538 146.967 33.5457 145.193 33.5457Z" fill="white"/>
<path d="M158.14 33.3764C157.058 33.3764 156.105 33.1338 155.285 32.6486C154.482 32.1445 153.856 31.4539 153.408 30.5767C152.961 29.6995 152.736 28.6915 152.736 27.553V19.2656H156.264V27.2729C156.264 28.3182 156.516 29.1022 157.021 29.6247C157.542 30.1474 158.28 30.4087 159.232 30.4087C160.314 30.4087 161.155 30.054 161.752 29.3448C162.349 28.6169 162.647 27.609 162.647 26.3211V19.2656H166.175V33.1525H162.703V31.3326H162.2C161.976 31.7993 161.556 32.2565 160.94 32.7045C160.324 33.1525 159.39 33.3764 158.14 33.3764Z" fill="white"/>
<path d="M168.842 33.1538V19.2669H172.313V20.7788H172.817C173.059 20.3121 173.461 19.9109 174.02 19.5748C174.58 19.2203 175.318 19.043 176.233 19.043C177.222 19.043 178.015 19.2389 178.613 19.6309C179.21 20.0041 179.667 20.4988 179.985 21.1147H180.488C180.806 20.5175 181.254 20.0229 181.833 19.6309C182.411 19.2389 183.232 19.043 184.296 19.043C185.154 19.043 185.929 19.2296 186.62 19.6029C187.329 19.9575 187.889 20.5081 188.3 21.2548C188.728 21.9826 188.943 22.9066 188.943 24.0266V33.1538H185.415V24.2785C185.415 23.5132 185.22 22.9439 184.828 22.5706C184.435 22.1787 183.885 21.9826 183.176 21.9826C182.374 21.9826 181.748 22.244 181.3 22.7666C180.871 23.2705 180.657 23.9985 180.657 24.9505V33.1538H177.129V24.2785C177.129 23.5132 176.932 22.9439 176.541 22.5706C176.149 22.1787 175.599 21.9826 174.888 21.9826C174.086 21.9826 173.461 22.244 173.013 22.7666C172.583 23.2705 172.369 23.9985 172.369 24.9505V33.1538H168.842Z" fill="white"/>
</svg>
