<svg width="190" height="36" viewBox="0 0 190 36" fill="none" xmlns="http://www.w3.org/2000/svg">
<g clip-path="url(#clip0_2589_456)">
<path d="M12.8059 29.3801C9.14541 33.0406 2.94597 33.026 1.21463 28.1475C0.875659 27.1923 0.60464 26.2102 0.405305 25.2081C-0.408573 21.1164 0.00913925 16.8753 1.60562 13.021C3.2021 9.16683 5.90564 5.87254 9.37437 3.55481C12.8431 1.23708 16.9213 -1.78704e-07 21.0931 0C25.2649 1.78704e-07 29.343 1.23708 32.8116 3.55481C36.2804 5.87254 38.984 9.16683 40.5804 13.0211C42.1769 16.8753 42.5946 21.1164 41.7808 25.2081C41.5814 26.2102 41.3104 27.1923 40.9714 28.1475C39.24 33.026 33.0406 33.0406 29.3801 29.3801L23.7297 23.7297C23.1898 23.1898 23.2456 22.2995 23.3945 21.5508C23.485 21.0956 23.4385 20.6238 23.2609 20.195C23.0833 19.7662 22.7826 19.3997 22.3967 19.1419C22.0108 18.8842 21.5572 18.7465 21.0931 18.7465C20.629 18.7465 20.1753 18.8842 19.7894 19.1419C19.4034 19.3997 19.1027 19.7662 18.9251 20.195C18.7475 20.6238 18.701 21.0956 18.7916 21.5508C18.9405 22.2995 18.9962 23.1898 18.4564 23.7297L12.8059 29.3801Z" fill="white"/>
<path d="M59.3469 24.3143H65.0166V27.6555H55.0186V9.88672H59.3469V24.3143Z" fill="white"/>
<path d="M72.7507 27.8609C71.367 27.8609 70.1183 27.5656 69.0045 26.975C67.9078 26.3844 67.0387 25.5407 66.3975 24.4438C65.7732 23.347 65.4609 22.0646 65.4609 20.5964C65.4609 19.1453 65.7815 17.8712 66.4227 16.7743C67.064 15.6607 67.9415 14.8085 69.0551 14.2179C70.1689 13.6273 71.4176 13.332 72.8013 13.332C74.185 13.332 75.4337 13.6273 76.5474 14.2179C77.6611 14.8085 78.5386 15.6607 79.1798 16.7743C79.821 17.8712 80.1417 19.1453 80.1417 20.5964C80.1417 22.0476 79.8126 23.3301 79.1545 24.4438C78.5133 25.5407 77.6274 26.3844 76.4967 26.975C75.3831 27.5656 74.1344 27.8609 72.7507 27.8609ZM72.7507 24.1147C73.5775 24.1147 74.2778 23.8111 74.8516 23.2036C75.4422 22.5961 75.7375 21.7271 75.7375 20.5964C75.7375 19.4658 75.4505 18.5969 74.8768 17.9894C74.32 17.3819 73.6281 17.0781 72.8013 17.0781C71.9576 17.0781 71.2573 17.3819 70.7004 17.9894C70.1435 18.58 69.8651 19.4489 69.8651 20.5964C69.8651 21.7271 70.1352 22.5961 70.6752 23.2036C71.232 23.8111 71.9239 24.1147 72.7507 24.1147Z" fill="white"/>
<path d="M87.045 13.332C88.0406 13.332 88.9097 13.5345 89.6521 13.9395C90.4114 14.3444 90.9936 14.8761 91.3987 15.5341V13.5345H95.7269V27.633C95.7269 28.9324 95.4654 30.1052 94.9422 31.1513C94.436 32.2145 93.6513 33.0582 92.5883 33.6825C91.5421 34.3069 90.2343 34.6191 88.665 34.6191C86.5725 34.6191 84.8766 34.1213 83.5773 33.1257C82.278 32.1469 81.5354 30.8139 81.3499 29.1264H85.6276C85.7625 29.6664 86.0832 30.0883 86.5895 30.3921C87.0956 30.7126 87.72 30.873 88.4625 30.873C89.3568 30.873 90.0655 30.6114 90.5886 30.0883C91.1286 29.5821 91.3987 28.7637 91.3987 27.633V25.6335C90.9767 26.2915 90.3946 26.8316 89.6521 27.2534C88.9097 27.6584 88.0406 27.8609 87.045 27.8609C85.8807 27.8609 84.826 27.5656 83.881 26.975C82.9361 26.3675 82.1851 25.5153 81.6284 24.4185C81.0884 23.3048 80.8184 22.0224 80.8184 20.5712C80.8184 19.1199 81.0884 17.8459 81.6284 16.7491C82.1851 15.6522 82.9361 14.8085 83.881 14.2179C84.826 13.6273 85.8807 13.332 87.045 13.332ZM91.3987 20.5964C91.3987 19.5165 91.0949 18.6643 90.4874 18.04C89.8968 17.4157 89.1711 17.1035 88.3106 17.1035C87.45 17.1035 86.716 17.4157 86.1084 18.04C85.5179 18.6475 85.2226 19.4912 85.2226 20.5712C85.2226 21.6511 85.5179 22.5117 86.1084 23.1529C86.716 23.7772 87.45 24.0895 88.3106 24.0895C89.1711 24.0895 89.8968 23.7772 90.4874 23.1529C91.0949 22.5285 91.3987 21.6765 91.3987 20.5964Z" fill="white"/>
<path d="M104.528 27.8609C103.144 27.8609 101.896 27.5656 100.782 26.975C99.6851 26.3844 98.816 25.5407 98.1748 24.4438C97.5505 23.347 97.2383 22.0646 97.2383 20.5964C97.2383 19.1453 97.5588 17.8712 98.2002 16.7743C98.8414 15.6607 99.7188 14.8085 100.832 14.2179C101.946 13.6273 103.195 13.332 104.579 13.332C105.962 13.332 107.211 13.6273 108.325 14.2179C109.438 14.8085 110.316 15.6607 110.957 16.7743C111.598 17.8712 111.919 19.1453 111.919 20.5964C111.919 22.0476 111.59 23.3301 110.932 24.4438C110.291 25.5407 109.405 26.3844 108.274 26.975C107.16 27.5656 105.912 27.8609 104.528 27.8609ZM104.528 24.1147C105.355 24.1147 106.055 23.8111 106.629 23.2036C107.22 22.5961 107.515 21.7271 107.515 20.5964C107.515 19.4658 107.228 18.5969 106.654 17.9894C106.097 17.3819 105.405 17.0781 104.579 17.0781C103.735 17.0781 103.035 17.3819 102.478 17.9894C101.921 18.58 101.642 19.4489 101.642 20.5964C101.642 21.7271 101.913 22.5961 102.452 23.2036C103.009 23.8111 103.701 24.1147 104.528 24.1147Z" fill="white"/>
<path d="M115.633 12.0655C114.873 12.0655 114.249 11.8461 113.76 11.4074C113.287 10.9518 113.051 10.3949 113.051 9.7368C113.051 9.06182 113.287 8.50496 113.76 8.06622C114.249 7.61062 114.873 7.38281 115.633 7.38281C116.375 7.38281 116.983 7.61062 117.455 8.06622C117.944 8.50496 118.189 9.06182 118.189 9.7368C118.189 10.3949 117.944 10.9518 117.455 11.4074C116.983 11.8461 116.375 12.0655 115.633 12.0655ZM117.784 13.5336V27.6574H113.456V13.5336H117.784Z" fill="white"/>
<path d="M124.489 15.5341C124.911 14.8761 125.493 14.3444 126.236 13.9395C126.979 13.5345 127.848 13.332 128.843 13.332C130.008 13.332 131.062 13.6273 132.007 14.2179C132.952 14.8085 133.695 15.6522 134.234 16.7491C134.791 17.8459 135.07 19.1199 135.07 20.5712C135.07 22.0224 134.791 23.3048 134.234 24.4185C133.695 25.5153 132.952 26.3675 132.007 26.975C131.062 27.5656 130.008 27.8609 128.843 27.8609C127.864 27.8609 126.996 27.6584 126.236 27.2534C125.493 26.8484 124.911 26.3253 124.489 25.6841V34.3913H120.161V13.5345H124.489V15.5341ZM130.666 20.5712C130.666 19.4912 130.362 18.6475 129.754 18.04C129.163 17.4157 128.43 17.1035 127.552 17.1035C126.692 17.1035 125.958 17.4157 125.35 18.04C124.76 18.6643 124.465 19.5165 124.465 20.5964C124.465 21.6765 124.76 22.5285 125.35 23.1529C125.958 23.7772 126.692 24.0895 127.552 24.0895C128.413 24.0895 129.147 23.7772 129.754 23.1529C130.362 22.5117 130.666 21.6511 130.666 20.5712Z" fill="white"/>
<path d="M142.327 27.8609C141.095 27.8609 139.998 27.6499 139.036 27.2281C138.075 26.8062 137.315 26.2325 136.758 25.5069C136.202 24.7644 135.889 23.9376 135.822 23.0263H140.1C140.15 23.5157 140.378 23.9122 140.783 24.216C141.188 24.5197 141.686 24.6716 142.277 24.6716C142.816 24.6716 143.229 24.5703 143.516 24.3678C143.82 24.1485 143.972 23.87 143.972 23.5326C143.972 23.1276 143.761 22.8323 143.34 22.6467C142.918 22.4442 142.234 22.2249 141.289 21.9886C140.276 21.7523 139.433 21.5077 138.758 21.2545C138.083 20.9846 137.501 20.5712 137.012 20.0143C136.522 19.4406 136.278 18.6727 136.278 17.711C136.278 16.901 136.497 16.167 136.936 15.5088C137.391 14.8339 138.049 14.3023 138.91 13.9142C139.787 13.5261 140.826 13.332 142.023 13.332C143.794 13.332 145.187 13.7707 146.199 14.6482C147.229 15.5257 147.82 16.69 147.972 18.1412H143.972C143.905 17.6519 143.685 17.2638 143.314 16.9768C142.96 16.69 142.488 16.5466 141.897 16.5466C141.391 16.5466 141.002 16.6478 140.732 16.8503C140.463 17.0359 140.328 17.2975 140.328 17.635C140.328 18.04 140.539 18.3437 140.96 18.5462C141.399 18.7487 142.073 18.9513 142.985 19.1536C144.031 19.4237 144.883 19.6937 145.541 19.9636C146.199 20.2168 146.773 20.6386 147.262 21.2293C147.768 21.803 148.031 22.5791 148.048 23.558C148.048 24.3848 147.811 25.1272 147.338 25.7854C146.883 26.4266 146.217 26.9328 145.339 27.304C144.478 27.6753 143.474 27.8609 142.327 27.8609Z" fill="white"/>
<path d="M163.883 13.5352V27.659H159.555V25.7354C159.116 26.3597 158.516 26.8659 157.758 27.254C157.015 27.6253 156.189 27.8109 155.277 27.8109C154.197 27.8109 153.243 27.5747 152.417 27.1021C151.589 26.6128 150.948 25.9125 150.494 25.0014C150.038 24.0901 149.81 23.0186 149.81 21.7867V13.5352H154.112V21.2045C154.112 22.1495 154.357 22.8835 154.846 23.4067C155.336 23.9297 155.994 24.1913 156.821 24.1913C157.665 24.1913 158.331 23.9297 158.82 23.4067C159.31 22.8835 159.555 22.1495 159.555 21.2045V13.5352H163.883Z" fill="white"/>
<path d="M184.255 13.3828C186.009 13.3828 187.401 13.9143 188.431 14.9775C189.477 16.0405 190 17.517 190 19.4069V27.6586H185.698V19.9892C185.698 19.0779 185.452 18.3776 184.963 17.8883C184.49 17.382 183.833 17.1289 182.988 17.1289C182.145 17.1289 181.478 17.382 180.989 17.8883C180.517 18.3776 180.281 19.0779 180.281 19.9892V27.6586H175.977V19.9892C175.977 19.0779 175.733 18.3776 175.244 17.8883C174.771 17.382 174.112 17.1289 173.269 17.1289C172.426 17.1289 171.759 17.382 171.27 17.8883C170.797 18.3776 170.561 19.0779 170.561 19.9892V27.6586H166.233V13.5347H170.561V15.3065C171 14.7159 171.574 14.2518 172.282 13.9143C172.991 13.5599 173.792 13.3828 174.686 13.3828C175.75 13.3828 176.695 13.6106 177.521 14.0662C178.365 14.5218 179.023 15.1715 179.496 16.0152C179.985 15.2389 180.652 14.6062 181.495 14.1168C182.339 13.6275 183.259 13.3828 184.255 13.3828Z" fill="white"/>
</g>
<defs>
<clipPath id="clip0_2589_456">
<rect width="190" height="35.5484" fill="white"/>
</clipPath>
</defs>
</svg>
