<svg width="2017" height="2017" viewBox="0 0 2017 2017" fill="none" xmlns="http://www.w3.org/2000/svg">
<path d="M1016.06 50.0758L1011.71 50.0216L1011.97 29.0232L1016.32 29.0774L1016.06 50.0758Z" fill="white"/>
<path d="M1053.2 51.0214L1049 50.791L1049.52 41.3552C1049.6 39.9174 1049.3 38.8692 1048.61 38.2106C1047.93 37.5321 1046.91 37.1555 1045.55 37.0809L1041.66 36.867L1040.91 50.3466L1036.72 50.1162L1037.58 34.5397L1045.66 34.9841C1048.52 35.141 1050.6 35.7759 1051.9 36.889C1053.22 37.9832 1053.83 39.5487 1053.71 41.5856L1053.2 51.0214Z" fill="white"/>
<path d="M1099.06 41.7197C1099.01 42.1769 1099.16 42.6164 1099.52 43.0383C1099.89 43.4624 1100.55 43.8677 1101.5 44.2543L1105.97 46.1099C1107.35 46.6865 1108.39 47.3757 1109.09 48.1775C1109.78 48.9793 1110.07 49.9467 1109.94 51.0797C1109.86 51.7953 1109.64 52.4347 1109.28 52.9978C1108.92 53.5411 1108.37 53.9839 1107.65 54.3262C1106.93 54.6685 1106.02 54.8893 1104.92 54.9886C1103.82 55.1077 1102.49 55.08 1100.92 54.9054C1100.1 54.8148 1099.3 54.6656 1098.52 54.458C1097.76 54.2525 1097.03 54.0106 1096.34 53.7322C1095.67 53.4362 1095.06 53.127 1094.51 52.8045C1093.96 52.4621 1093.5 52.1186 1093.11 51.774L1094.51 50.1177C1095.28 50.7273 1096.21 51.2928 1097.27 51.8141C1098.37 52.3178 1099.66 52.6525 1101.15 52.8183C1102.64 52.984 1103.7 52.9013 1104.34 52.5701C1104.99 52.2388 1105.34 51.775 1105.4 51.1787C1105.46 50.7215 1105.29 50.2908 1104.91 49.8866C1104.54 49.4625 1103.84 49.0428 1102.82 48.6275L1098.35 46.7719C1097.12 46.2528 1096.13 45.6001 1095.4 44.8137C1094.68 44.0097 1094.39 43.0114 1094.52 41.8187C1094.59 41.1827 1094.8 40.6118 1095.14 40.106C1095.5 39.5826 1096.01 39.1564 1096.67 38.8273C1097.33 38.4983 1098.15 38.2775 1099.12 38.1649C1100.11 38.0325 1101.27 38.0414 1102.62 38.1917C1104.27 38.3752 1105.74 38.7695 1107.02 39.3748C1108.32 39.9624 1109.36 40.6008 1110.13 41.2899L1108.73 42.9463C1107.98 42.3389 1107.1 41.7888 1106.11 41.2962C1105.12 40.7838 1103.88 40.4446 1102.39 40.2789C1101.34 40.1617 1100.53 40.2434 1099.98 40.5238C1099.42 40.8043 1099.12 41.2029 1099.06 41.7197Z" fill="white"/>
<path d="M1146.68 46.1191L1143.87 45.6715L1144.2 43.5975L1147.01 44.0451L1147.77 39.3047L1151.91 39.9644L1151.16 44.7048L1155.75 45.4351L1155.42 47.509L1150.83 46.7787L1149.61 54.4819C1149.49 55.2325 1149.46 55.887 1149.54 56.4454C1149.63 56.9872 1149.79 57.448 1150.01 57.8278C1150.26 58.1909 1150.56 58.4813 1150.91 58.699C1151.26 58.9167 1151.64 59.0586 1152.06 59.1245C1152.65 59.2188 1153.24 59.221 1153.82 59.1312C1154.4 59.0216 1154.9 58.888 1155.31 58.7304L1155.89 60.7976C1155.25 60.9996 1154.53 61.1382 1153.73 61.2132C1152.95 61.2913 1152.18 61.2707 1151.43 61.1514C1149.2 60.7964 1147.57 59.9701 1146.54 58.6723C1145.51 57.3746 1145.15 55.7579 1145.46 53.8223L1146.68 46.1191Z" fill="white"/>
<path d="M1187.52 61.415C1187.13 63.2745 1188.06 64.4404 1190.31 64.9126L1194.42 65.7749L1195.59 60.1963L1191.48 59.334C1189.23 58.8618 1187.91 59.5555 1187.52 61.415ZM1196.02 58.1411C1196.32 56.7318 1196.16 55.6163 1195.56 54.7948C1194.97 53.9773 1194.09 53.4454 1192.92 53.199C1192.04 53.0143 1191.15 52.9706 1190.25 53.0681C1189.36 53.146 1188.53 53.3402 1187.77 53.6508L1187.11 51.6736C1187.6 51.4703 1188.13 51.3144 1188.68 51.2058C1189.25 51.1014 1189.83 51.0382 1190.41 51.0161C1190.99 50.9745 1191.55 50.97 1192.09 51.0025C1192.66 51.0392 1193.18 51.1068 1193.65 51.2054C1194.9 51.4682 1195.97 51.847 1196.87 52.3418C1197.77 52.8366 1198.49 53.4278 1199.04 54.1155C1199.59 54.8032 1199.95 55.5636 1200.13 56.3968C1200.32 57.2146 1200.33 58.0834 1200.13 59.0034L1198.1 68.6925L1189.88 66.9679C1187.22 66.4094 1185.33 65.5955 1184.23 64.5261C1183.15 63.4607 1182.77 62.1158 1183.11 60.4911C1183.46 58.8665 1184.34 57.7843 1185.76 57.2446C1187.2 56.7089 1189.25 56.7203 1191.91 57.2788L1196.02 58.1411Z" fill="white"/>
<path d="M1248.1 66.0698C1246.71 65.6915 1245.49 65.8262 1244.45 66.474C1243.42 67.1076 1242.67 68.3025 1242.2 70.0586C1241.72 71.8147 1241.76 73.2346 1242.31 74.3184C1242.89 75.3882 1243.87 76.1122 1245.26 76.4905L1248.88 77.4756L1251.72 67.055L1248.1 66.0698ZM1252.3 80.8947C1252.06 81.8017 1251.66 82.5745 1251.11 83.2133C1250.56 83.8713 1249.86 84.3759 1249.02 84.7271C1248.2 85.0835 1247.23 85.2646 1246.11 85.2704C1245.01 85.2814 1243.77 85.1003 1242.4 84.7273C1241.94 84.6012 1241.44 84.426 1240.93 84.2017C1240.42 84.0019 1239.92 83.7513 1239.42 83.4498C1238.92 83.1676 1238.44 82.8398 1237.98 82.4664C1237.53 82.1175 1237.14 81.7405 1236.79 81.3355L1238.28 79.8745C1238.81 80.497 1239.46 81.0467 1240.22 81.5234C1240.98 82.0195 1241.79 82.3858 1242.66 82.6222C1244.11 83.0163 1245.31 82.9903 1246.26 82.5444C1247.21 82.0984 1247.87 81.1808 1248.25 79.7913L1248.33 79.5019L1244.71 78.5167C1243.38 78.1542 1242.21 77.6495 1241.21 77.0027C1240.22 76.3611 1239.43 75.6168 1238.83 74.7698C1238.23 73.9228 1237.84 72.9977 1237.66 71.9944C1237.49 70.9964 1237.56 69.9571 1237.85 68.8764C1238.15 67.7957 1238.62 66.8667 1239.27 66.0894C1239.93 65.3173 1240.74 64.7179 1241.68 64.2913C1242.63 63.8646 1243.69 63.6247 1244.86 63.5716C1246.06 63.5237 1247.32 63.6811 1248.65 64.0436L1256.32 66.1321L1252.3 80.8947Z" fill="white"/>
<path d="M1306.99 83.1339L1303.57 82.016C1302.27 81.5936 1301.17 81.6224 1300.26 82.1022C1299.35 82.563 1298.67 83.4778 1298.22 84.8466L1295.38 93.5442L1291.39 92.2399L1294.23 83.5423C1294.86 81.6032 1295.96 80.3 1297.53 79.6329C1299.12 78.953 1301.06 78.9888 1303.36 79.7403L1307.64 81.1378L1306.99 83.1339Z" fill="white"/>
<path d="M1332.15 100.464C1331.47 102.24 1332.21 103.536 1334.36 104.354L1338.29 105.848L1340.31 100.521L1336.39 99.0272C1334.24 98.2092 1332.83 98.688 1332.15 100.464ZM1341.06 98.5582C1341.57 97.2123 1341.59 96.0865 1341.13 95.1807C1340.68 94.2819 1339.89 93.6192 1338.77 93.1924C1337.93 92.8723 1337.05 92.6902 1336.15 92.646C1335.26 92.5832 1334.41 92.6458 1333.61 92.8339L1333.27 90.7781C1333.79 90.6542 1334.33 90.5819 1334.89 90.5612C1335.47 90.5477 1336.05 90.5751 1336.62 90.6434C1337.2 90.693 1337.76 90.7765 1338.29 90.8937C1338.85 91.0181 1339.35 91.1657 1339.8 91.3364C1340.99 91.7916 1341.99 92.3337 1342.8 92.9626C1343.61 93.5916 1344.24 94.2886 1344.67 95.0539C1345.11 95.8191 1345.35 96.6267 1345.39 97.4766C1345.45 98.3149 1345.32 99.1734 1344.99 100.052L1341.46 109.305L1333.61 106.317C1331.07 105.35 1329.34 104.252 1328.42 103.023C1327.51 101.801 1327.35 100.415 1327.94 98.8634C1328.53 97.3119 1329.57 96.3806 1331.06 96.0695C1332.57 95.7654 1334.59 96.0971 1337.13 97.0645L1341.06 98.5582Z" fill="white"/>
<path d="M1384.55 108.846L1398.71 115.391C1401.3 116.591 1403 117.949 1403.8 119.463C1404.62 120.968 1404.61 122.647 1403.75 124.498L1399.79 133.076L1395.97 131.314L1399.94 122.736C1400.54 121.429 1400.65 120.343 1400.25 119.478C1399.87 118.595 1399.06 117.868 1397.83 117.298L1396.46 116.668L1390.8 128.922L1386.99 127.16L1392.65 114.906L1387.48 112.514L1381.81 124.768L1378 123.006L1384.55 108.846Z" fill="white"/>
<path d="M1576.51 236.198L1573.03 233.6L1585.57 216.758L1589.06 219.356L1576.51 236.198Z" fill="white"/>
<path d="M1605.61 258.459L1602.35 255.81L1608.31 248.476C1609.22 247.359 1609.59 246.332 1609.42 245.397C1609.27 244.446 1608.66 243.542 1607.61 242.684L1604.58 240.225L1596.06 250.701L1592.81 248.052L1602.64 235.946L1608.93 241.055C1611.15 242.859 1612.46 244.593 1612.86 246.258C1613.29 247.92 1612.86 249.542 1611.57 251.125L1605.61 258.459Z" fill="white"/>
<path d="M1648.05 277.733C1647.74 278.073 1647.61 278.518 1647.65 279.069C1647.7 279.632 1648 280.348 1648.54 281.214L1651.07 285.342C1651.85 286.622 1652.29 287.79 1652.38 288.848C1652.47 289.905 1652.14 290.855 1651.37 291.699C1650.88 292.231 1650.33 292.619 1649.7 292.861C1649.09 293.088 1648.39 293.128 1647.61 292.981C1646.82 292.834 1645.95 292.478 1645.01 291.914C1644.05 291.365 1642.98 290.559 1641.81 289.496C1641.21 288.944 1640.65 288.354 1640.14 287.727C1639.64 287.114 1639.19 286.491 1638.8 285.858C1638.43 285.224 1638.11 284.616 1637.86 284.034C1637.62 283.436 1637.45 282.885 1637.34 282.381L1639.44 281.857C1639.71 282.807 1640.12 283.806 1640.68 284.856C1641.27 285.904 1642.12 286.933 1643.23 287.942C1644.34 288.952 1645.25 289.51 1645.96 289.618C1646.67 289.726 1647.23 289.558 1647.64 289.114C1647.95 288.774 1648.07 288.329 1648 287.781C1647.94 287.217 1647.62 286.467 1647.04 285.532L1644.51 281.404C1643.82 280.262 1643.41 279.156 1643.27 278.086C1643.16 277.015 1643.51 276.036 1644.32 275.149C1644.75 274.675 1645.25 274.333 1645.82 274.122C1646.42 273.909 1647.09 273.864 1647.81 273.985C1648.54 274.107 1649.33 274.409 1650.19 274.892C1651.06 275.361 1652 276.053 1653.01 276.968C1654.24 278.085 1655.19 279.264 1655.87 280.506C1656.58 281.747 1657.05 282.872 1657.26 283.881L1655.17 284.405C1654.91 283.468 1654.52 282.51 1654.01 281.529C1653.51 280.533 1652.7 279.531 1651.6 278.521C1650.81 277.808 1650.11 277.402 1649.5 277.304C1648.89 277.205 1648.4 277.348 1648.05 277.733Z" fill="white"/>
<path d="M1684.19 309.417L1682.18 307.402L1683.66 305.917L1685.68 307.931L1689.07 304.536L1692.04 307.505L1688.65 310.9L1691.94 314.187L1690.45 315.673L1687.16 312.386L1681.65 317.903C1681.11 318.44 1680.71 318.957 1680.44 319.452C1680.2 319.947 1680.06 320.414 1680.02 320.852C1680 321.29 1680.07 321.7 1680.23 322.082C1680.39 322.464 1680.61 322.803 1680.91 323.1C1681.33 323.524 1681.81 323.871 1682.33 324.139C1682.87 324.394 1683.35 324.577 1683.77 324.69L1683.03 326.706C1682.4 326.494 1681.73 326.183 1681.04 325.773C1680.36 325.377 1679.75 324.911 1679.21 324.374C1677.61 322.776 1676.78 321.15 1676.71 319.495C1676.64 317.841 1677.29 316.32 1678.68 314.934L1684.19 309.417Z" fill="white"/>
<path d="M1708.6 346.123C1707.19 347.4 1707.26 348.89 1708.81 350.593L1711.63 353.704L1715.85 349.875L1713.03 346.764C1711.48 345.06 1710.01 344.847 1708.6 346.123ZM1717.41 348.465C1718.47 347.497 1719 346.504 1719 345.484C1719 344.479 1718.6 343.532 1717.8 342.643C1717.19 341.976 1716.5 341.419 1715.71 340.97C1714.94 340.507 1714.16 340.179 1713.36 339.984L1713.99 337.997C1714.51 338.121 1715.02 338.302 1715.53 338.54C1716.06 338.792 1716.56 339.078 1717.04 339.399C1717.54 339.707 1717.99 340.033 1718.42 340.38C1718.85 340.741 1719.23 341.099 1719.55 341.455C1720.41 342.403 1721.06 343.34 1721.5 344.268C1721.93 345.195 1722.17 346.099 1722.21 346.979C1722.26 347.859 1722.1 348.687 1721.75 349.463C1721.43 350.24 1720.92 350.944 1720.23 351.576L1712.89 358.226L1707.25 352.004C1705.42 349.989 1704.38 348.225 1704.11 346.711C1703.86 345.212 1704.35 343.905 1705.58 342.79C1706.81 341.675 1708.15 341.316 1709.62 341.713C1711.1 342.125 1712.76 343.339 1714.58 345.353L1717.41 348.465Z" fill="white"/>
<path d="M1754.6 385.058C1753.69 383.937 1752.63 383.332 1751.4 383.243C1750.2 383.158 1748.89 383.686 1747.47 384.829C1746.06 385.971 1745.26 387.144 1745.07 388.348C1744.91 389.554 1745.29 390.717 1746.19 391.838L1748.55 394.757L1756.95 387.976L1754.6 385.058ZM1749.31 399.533C1748.58 400.123 1747.81 400.517 1746.99 400.714C1746.16 400.923 1745.3 400.923 1744.41 400.715C1743.53 400.521 1742.64 400.099 1741.73 399.446C1740.83 398.81 1739.93 397.939 1739.04 396.834C1738.74 396.46 1738.45 396.03 1738.16 395.544C1737.86 395.086 1737.6 394.589 1737.38 394.052C1737.13 393.529 1736.94 392.981 1736.79 392.41C1736.63 391.868 1736.53 391.331 1736.49 390.8L1738.55 390.487C1738.62 391.305 1738.82 392.13 1739.16 392.963C1739.48 393.808 1739.92 394.581 1740.49 395.282C1741.43 396.449 1742.42 397.131 1743.45 397.326C1744.48 397.522 1745.56 397.168 1746.68 396.264L1746.91 396.076L1744.56 393.157C1743.69 392.083 1743.04 390.989 1742.6 389.876C1742.18 388.778 1741.97 387.71 1741.99 386.673C1742 385.636 1742.22 384.658 1742.66 383.738C1743.12 382.833 1743.78 382.029 1744.65 381.326C1745.52 380.623 1746.45 380.146 1747.43 379.895C1748.42 379.66 1749.42 379.647 1750.44 379.855C1751.45 380.063 1752.45 380.49 1753.44 381.136C1754.43 381.797 1755.37 382.665 1756.23 383.739L1761.22 389.927L1749.31 399.533Z" fill="white"/>
<path d="M1792.29 433.357L1790.17 430.447C1789.37 429.347 1788.46 428.724 1787.44 428.578C1786.43 428.42 1785.35 428.765 1784.19 429.612L1776.79 434.999L1774.32 431.604L1781.71 426.217C1783.36 425.016 1785.02 424.604 1786.67 424.979C1788.36 425.359 1789.92 426.527 1791.34 428.483L1793.99 432.12L1792.29 433.357Z" fill="white"/>
<path d="M1802.65 462.296C1801.06 463.34 1800.9 464.823 1802.17 466.745L1804.48 470.253L1809.24 467.121L1806.93 463.612C1805.67 461.69 1804.24 461.252 1802.65 462.296ZM1810.99 465.967C1812.19 465.175 1812.87 464.275 1813.02 463.267C1813.18 462.275 1812.93 461.277 1812.27 460.275C1811.78 459.523 1811.18 458.865 1810.47 458.3C1809.78 457.725 1809.06 457.279 1808.3 456.964L1809.23 455.097C1809.72 455.3 1810.2 455.558 1810.67 455.872C1811.15 456.202 1811.6 456.562 1812.03 456.953C1812.47 457.333 1812.87 457.727 1813.24 458.134C1813.61 458.558 1813.93 458.97 1814.19 459.371C1814.9 460.441 1815.39 461.467 1815.68 462.451C1815.97 463.434 1816.07 464.364 1815.97 465.24C1815.88 466.116 1815.6 466.91 1815.13 467.623C1814.7 468.341 1814.09 468.959 1813.3 469.475L1805.03 474.916L1800.41 467.899C1798.92 465.626 1798.16 463.722 1798.13 462.185C1798.11 460.665 1798.79 459.449 1800.18 458.536C1801.57 457.624 1802.95 457.477 1804.34 458.096C1805.74 458.731 1807.19 460.185 1808.68 462.458L1810.99 465.967Z" fill="white"/>
<path d="M1840.19 499.699L1847.84 513.291C1849.25 515.783 1849.83 517.876 1849.59 519.572C1849.38 521.275 1848.38 522.627 1846.61 523.628L1838.37 528.266L1836.31 524.606L1844.55 519.968C1845.8 519.262 1846.52 518.442 1846.71 517.511C1846.91 516.569 1846.68 515.506 1846.01 514.321L1845.28 513.014L1833.51 519.64L1831.45 515.98L1843.22 509.355L1840.42 504.389L1828.66 511.014L1826.59 507.355L1840.19 499.699Z" fill="white"/>
<path d="M1921.31 715.154L1920 711.005L1940.03 704.699L1941.34 708.849L1921.31 715.154Z" fill="white"/>
<path d="M1931.87 750.304L1930.78 746.247L1939.91 743.799C1941.3 743.426 1942.2 742.811 1942.61 741.955C1943.04 741.094 1943.08 740.007 1942.73 738.693L1941.72 734.926L1928.68 738.424L1927.59 734.367L1942.66 730.326L1944.76 738.149C1945.5 740.911 1945.54 743.084 1944.89 744.667C1944.26 746.264 1942.96 747.327 1940.99 747.855L1931.87 750.304Z" fill="white"/>
<path d="M1955.06 791.296C1954.61 791.389 1954.24 791.671 1953.95 792.14C1953.67 792.628 1953.49 793.381 1953.41 794.397L1953.04 799.225C1952.92 800.72 1952.59 801.923 1952.04 802.833C1951.5 803.744 1950.67 804.315 1949.55 804.547C1948.84 804.694 1948.17 804.682 1947.52 804.51C1946.89 804.335 1946.3 803.957 1945.75 803.377C1945.2 802.797 1944.71 802 1944.27 800.988C1943.82 799.979 1943.43 798.702 1943.11 797.155C1942.94 796.352 1942.83 795.547 1942.79 794.739C1942.75 793.951 1942.75 793.184 1942.8 792.438C1942.87 791.708 1942.98 791.033 1943.11 790.412C1943.27 789.787 1943.45 789.239 1943.66 788.766L1945.67 789.574C1945.33 790.503 1945.08 791.556 1944.91 792.734C1944.78 793.927 1944.86 795.258 1945.16 796.727C1945.47 798.195 1945.88 799.183 1946.39 799.689C1946.91 800.194 1947.46 800.386 1948.04 800.264C1948.5 800.17 1948.85 799.881 1949.12 799.397C1949.41 798.908 1949.59 798.114 1949.67 797.015L1950.04 792.188C1950.15 790.857 1950.47 789.719 1950.99 788.774C1951.53 787.844 1952.39 787.257 1953.56 787.012C1954.19 786.882 1954.79 786.899 1955.38 787.063C1955.99 787.242 1956.55 787.595 1957.07 788.12C1957.59 788.646 1958.05 789.356 1958.46 790.251C1958.89 791.142 1959.25 792.253 1959.52 793.585C1959.86 795.21 1959.94 796.725 1959.77 798.131C1959.61 799.552 1959.33 800.735 1958.91 801.68L1956.9 800.872C1957.25 799.963 1957.5 798.961 1957.66 797.865C1957.84 796.765 1957.77 795.481 1957.47 794.013C1957.25 792.975 1956.93 792.236 1956.49 791.796C1956.05 791.357 1955.57 791.19 1955.06 791.296Z" fill="white"/>
<path d="M1965.63 837.676L1965.18 834.862L1967.26 834.531L1967.71 837.345L1972.45 836.589L1973.11 840.736L1968.37 841.493L1969.1 846.085L1967.03 846.416L1966.3 841.824L1958.59 843.053C1957.84 843.173 1957.21 843.355 1956.7 843.598C1956.22 843.857 1955.83 844.152 1955.54 844.482C1955.27 844.829 1955.09 845.203 1954.99 845.603C1954.89 846.004 1954.88 846.411 1954.94 846.826C1955.04 847.419 1955.22 847.977 1955.48 848.502C1955.77 849.023 1956.05 849.454 1956.33 849.795L1954.54 850.991C1954.15 850.446 1953.8 849.804 1953.48 849.065C1953.16 848.346 1952.94 847.611 1952.82 846.861C1952.46 844.629 1952.74 842.823 1953.66 841.441C1954.57 840.06 1955.99 839.215 1957.93 838.906L1965.63 837.676Z" fill="white"/>
<path d="M1963.81 881.475C1961.92 881.682 1961.1 882.929 1961.35 885.215L1961.81 889.39L1967.48 888.769L1967.02 884.594C1966.77 882.308 1965.7 881.268 1963.81 881.475ZM1969.57 888.54C1971 888.383 1972.01 887.89 1972.6 887.061C1973.2 886.251 1973.43 885.25 1973.3 884.057C1973.2 883.162 1972.97 882.303 1972.59 881.478C1972.24 880.652 1971.8 879.925 1971.27 879.3L1972.94 878.06C1973.29 878.464 1973.6 878.913 1973.88 879.406C1974.15 879.919 1974.39 880.446 1974.59 880.988C1974.81 881.527 1974.99 882.06 1975.13 882.588C1975.27 883.136 1975.37 883.649 1975.42 884.126C1975.56 885.398 1975.53 886.538 1975.34 887.545C1975.15 888.552 1974.81 889.424 1974.33 890.161C1973.85 890.898 1973.24 891.478 1972.5 891.901C1971.78 892.341 1970.96 892.613 1970.02 892.715L1960.18 893.794L1959.27 885.444C1958.97 882.74 1959.16 880.698 1959.83 879.316C1960.51 877.954 1961.67 877.183 1963.32 877.002C1964.97 876.821 1966.27 877.322 1967.23 878.505C1968.18 879.708 1968.81 881.662 1969.11 884.365L1969.57 888.54Z" fill="white"/>
<path d="M1978.2 940.228C1978.13 938.79 1977.62 937.674 1976.68 936.881C1975.76 936.107 1974.39 935.767 1972.57 935.86C1970.75 935.953 1969.42 936.432 1968.56 937.297C1967.72 938.181 1967.34 939.342 1967.42 940.78L1967.61 944.525L1978.39 943.973L1978.2 940.228ZM1965.43 948.843C1964.49 948.891 1963.63 948.755 1962.85 948.434C1962.05 948.114 1961.36 947.609 1960.76 946.919C1960.17 946.248 1959.69 945.382 1959.34 944.318C1958.98 943.275 1958.77 942.044 1958.7 940.626C1958.67 940.147 1958.69 939.626 1958.74 939.062C1958.77 938.52 1958.85 937.965 1958.98 937.397C1959.09 936.831 1959.26 936.272 1959.47 935.72C1959.66 935.19 1959.9 934.697 1960.17 934.242L1962.02 935.199C1961.6 935.902 1961.28 936.689 1961.06 937.561C1960.83 938.434 1960.73 939.32 1960.78 940.219C1960.86 941.717 1961.25 942.848 1961.97 943.612C1962.69 944.377 1963.77 944.722 1965.21 944.648L1965.51 944.633L1965.32 940.888C1965.25 939.51 1965.36 938.242 1965.67 937.085C1965.97 935.948 1966.43 934.963 1967.05 934.131C1967.66 933.298 1968.42 932.638 1969.32 932.152C1970.21 931.685 1971.22 931.423 1972.34 931.366C1973.46 931.309 1974.49 931.466 1975.43 931.839C1976.37 932.231 1977.19 932.81 1977.89 933.575C1978.59 934.34 1979.15 935.273 1979.57 936.373C1979.98 937.493 1980.23 938.742 1980.3 940.12L1980.71 948.06L1965.43 948.843Z" fill="white"/>
<path d="M1980.37 1002.12L1980.36 998.524C1980.36 997.164 1979.99 996.124 1979.25 995.406C1978.53 994.687 1977.44 994.329 1976 994.331L1966.85 994.347L1966.85 990.147L1976 990.131C1978.04 990.128 1979.62 990.765 1980.74 992.043C1981.88 993.341 1982.46 995.2 1982.46 997.62L1982.47 1002.12L1980.37 1002.12Z" fill="white"/>
<path d="M1971.74 1032.33C1969.84 1032.24 1968.84 1033.35 1968.74 1035.65L1968.54 1039.84L1974.24 1040.1L1974.43 1035.91C1974.54 1033.61 1973.64 1032.42 1971.74 1032.33ZM1976.34 1040.2C1977.78 1040.26 1978.85 1039.93 1979.57 1039.21C1980.28 1038.5 1980.66 1037.54 1980.72 1036.35C1980.76 1035.45 1980.66 1034.56 1980.42 1033.69C1980.2 1032.82 1979.88 1032.03 1979.45 1031.33L1981.29 1030.37C1981.57 1030.82 1981.81 1031.31 1982.01 1031.84C1982.2 1032.39 1982.36 1032.95 1982.47 1033.51C1982.6 1034.08 1982.7 1034.63 1982.75 1035.18C1982.81 1035.74 1982.82 1036.26 1982.8 1036.74C1982.74 1038.02 1982.54 1039.14 1982.2 1040.11C1981.85 1041.07 1981.38 1041.88 1980.79 1042.54C1980.2 1043.19 1979.51 1043.67 1978.72 1043.97C1977.94 1044.3 1977.08 1044.44 1976.14 1044.39L1966.25 1043.94L1966.64 1035.55C1966.76 1032.83 1967.27 1030.84 1968.15 1029.58C1969.02 1028.34 1970.29 1027.76 1971.95 1027.83C1973.61 1027.91 1974.82 1028.61 1975.58 1029.92C1976.34 1031.26 1976.65 1033.29 1976.53 1036L1976.34 1040.2Z" fill="white"/>
<path d="M1980.12 1085.05L1978.34 1100.54C1978.01 1103.38 1977.25 1105.42 1976.06 1106.65C1974.89 1107.91 1973.29 1108.42 1971.27 1108.18L1961.88 1107.1L1962.36 1102.93L1971.75 1104.01C1973.18 1104.18 1974.24 1103.94 1974.94 1103.29C1975.66 1102.65 1976.1 1101.65 1976.25 1100.3L1976.42 1098.81L1963.01 1097.27L1963.49 1093.09L1976.91 1094.64L1977.56 1088.98L1964.15 1087.43L1964.63 1083.26L1980.12 1085.05Z" fill="white"/>
<path d="M1919.29 1306.97L1920.67 1302.85L1940.58 1309.51L1939.2 1313.63L1919.29 1306.97Z" fill="white"/>
<path d="M1907.29 1341.38L1908.79 1337.46L1917.62 1340.83C1918.96 1341.34 1920.05 1341.38 1920.89 1340.93C1921.74 1340.48 1922.42 1339.62 1922.9 1338.35L1924.29 1334.71L1911.68 1329.89L1913.18 1325.97L1927.75 1331.54L1924.86 1339.1C1923.84 1341.78 1922.6 1343.56 1921.14 1344.46C1919.7 1345.38 1918.02 1345.48 1916.12 1344.75L1907.29 1341.38Z" fill="white"/>
<path d="M1902.26 1387.61C1901.84 1387.43 1901.37 1387.44 1900.86 1387.65C1900.34 1387.87 1899.76 1388.38 1899.1 1389.16L1895.97 1392.85C1894.99 1393.99 1894.02 1394.77 1893.04 1395.19C1892.07 1395.6 1891.06 1395.58 1890.02 1395.11C1889.36 1394.82 1888.82 1394.41 1888.4 1393.89C1887.99 1393.38 1887.74 1392.73 1887.63 1391.94C1887.52 1391.15 1887.59 1390.21 1887.83 1389.14C1888.06 1388.05 1888.49 1386.79 1889.14 1385.35C1889.47 1384.6 1889.86 1383.89 1890.3 1383.2C1890.72 1382.54 1891.18 1381.92 1891.65 1381.35C1892.14 1380.8 1892.62 1380.31 1893.1 1379.89C1893.59 1379.48 1894.06 1379.14 1894.5 1378.88L1895.66 1380.71C1894.84 1381.26 1894.02 1381.97 1893.19 1382.83C1892.38 1383.71 1891.67 1384.84 1891.05 1386.21C1890.44 1387.58 1890.19 1388.62 1890.31 1389.33C1890.43 1390.04 1890.77 1390.52 1891.31 1390.76C1891.73 1390.95 1892.19 1390.93 1892.69 1390.69C1893.21 1390.46 1893.82 1389.93 1894.53 1389.08L1897.67 1385.39C1898.54 1384.38 1899.46 1383.64 1900.43 1383.18C1901.42 1382.74 1902.46 1382.77 1903.55 1383.26C1904.14 1383.52 1904.62 1383.89 1905 1384.37C1905.38 1384.87 1905.63 1385.49 1905.74 1386.22C1905.86 1386.95 1905.82 1387.79 1905.62 1388.76C1905.45 1389.73 1905.09 1390.84 1904.53 1392.08C1903.85 1393.6 1903.03 1394.87 1902.06 1395.91C1901.1 1396.97 1900.18 1397.76 1899.29 1398.28L1898.13 1396.45C1898.94 1395.91 1899.73 1395.25 1900.51 1394.46C1901.3 1393.67 1902 1392.59 1902.61 1391.22C1903.05 1390.26 1903.21 1389.47 1903.12 1388.85C1903.02 1388.24 1902.73 1387.83 1902.26 1387.61Z" fill="white"/>
<path d="M1883.32 1432.01L1884.6 1429.47L1886.48 1430.42L1885.19 1432.96L1889.47 1435.13L1887.57 1438.88L1883.29 1436.71L1881.19 1440.85L1879.32 1439.91L1881.42 1435.76L1874.46 1432.23C1873.78 1431.89 1873.17 1431.67 1872.61 1431.56C1872.07 1431.49 1871.58 1431.5 1871.15 1431.6C1870.73 1431.72 1870.36 1431.91 1870.05 1432.18C1869.73 1432.45 1869.48 1432.77 1869.29 1433.14C1869.02 1433.68 1868.84 1434.24 1868.74 1434.82C1868.67 1435.41 1868.64 1435.92 1868.67 1436.36L1866.52 1436.28C1866.53 1435.61 1866.61 1434.88 1866.79 1434.1C1866.95 1433.33 1867.21 1432.6 1867.55 1431.93C1868.57 1429.91 1869.86 1428.61 1871.41 1428.03C1872.96 1427.45 1874.61 1427.6 1876.36 1428.49L1883.32 1432.01Z" fill="white"/>
<path d="M1855.99 1466.67C1854.34 1465.73 1852.94 1466.26 1851.8 1468.26L1849.72 1471.9L1854.67 1474.73L1856.75 1471.08C1857.89 1469.08 1857.64 1467.61 1855.99 1466.67ZM1856.49 1475.77C1857.74 1476.48 1858.85 1476.68 1859.82 1476.36C1860.78 1476.05 1861.55 1475.38 1862.15 1474.33C1862.59 1473.55 1862.91 1472.72 1863.09 1471.83C1863.29 1470.96 1863.36 1470.11 1863.3 1469.29L1865.38 1469.27C1865.42 1469.8 1865.41 1470.35 1865.35 1470.91C1865.27 1471.49 1865.15 1472.05 1865 1472.61C1864.86 1473.17 1864.69 1473.71 1864.49 1474.22C1864.28 1474.75 1864.06 1475.22 1863.82 1475.63C1863.19 1476.75 1862.5 1477.65 1861.75 1478.36C1861.01 1479.06 1860.22 1479.57 1859.4 1479.88C1858.57 1480.19 1857.74 1480.3 1856.89 1480.21C1856.06 1480.15 1855.23 1479.88 1854.41 1479.42L1845.81 1474.51L1849.98 1467.21C1851.32 1464.85 1852.68 1463.31 1854.03 1462.59C1855.38 1461.88 1856.77 1461.94 1858.22 1462.76C1859.66 1463.59 1860.42 1464.76 1860.49 1466.27C1860.56 1467.81 1859.92 1469.76 1858.57 1472.12L1856.49 1475.77Z" fill="white"/>
<path d="M1833.31 1522.38C1834.09 1521.17 1834.34 1519.97 1834.04 1518.78C1833.75 1517.61 1832.84 1516.53 1831.32 1515.54C1829.79 1514.55 1828.43 1514.15 1827.23 1514.34C1826.03 1514.57 1825.04 1515.29 1824.26 1516.49L1822.21 1519.64L1831.27 1525.52L1833.31 1522.38ZM1817.91 1521.85C1817.12 1521.34 1816.51 1520.72 1816.07 1520.01C1815.61 1519.28 1815.34 1518.46 1815.26 1517.55C1815.18 1516.66 1815.3 1515.68 1815.64 1514.61C1815.96 1513.56 1816.52 1512.44 1817.29 1511.25C1817.55 1510.84 1817.87 1510.43 1818.24 1510C1818.58 1509.58 1818.98 1509.18 1819.42 1508.8C1819.84 1508.41 1820.3 1508.05 1820.79 1507.73C1821.26 1507.41 1821.74 1507.15 1822.23 1506.95L1823.17 1508.81C1822.41 1509.13 1821.69 1509.58 1821 1510.16C1820.3 1510.72 1819.7 1511.39 1819.21 1512.14C1818.4 1513.4 1818.05 1514.55 1818.19 1515.59C1818.32 1516.63 1818.99 1517.54 1820.2 1518.33L1820.45 1518.49L1822.5 1515.35C1823.25 1514.19 1824.09 1513.23 1825.01 1512.47C1825.92 1511.73 1826.87 1511.2 1827.86 1510.89C1828.85 1510.58 1829.85 1510.49 1830.86 1510.63C1831.86 1510.77 1832.83 1511.15 1833.77 1511.77C1834.71 1512.38 1835.45 1513.11 1835.99 1513.96C1836.52 1514.83 1836.85 1515.78 1836.97 1516.81C1837.08 1517.84 1836.99 1518.93 1836.68 1520.06C1836.36 1521.21 1835.82 1522.37 1835.07 1523.52L1830.74 1530.19L1817.91 1521.85Z" fill="white"/>
<path d="M1799.11 1573.16L1801.22 1570.25C1802.02 1569.14 1802.33 1568.08 1802.15 1567.07C1801.99 1566.06 1801.32 1565.14 1800.16 1564.29L1792.74 1558.93L1795.2 1555.53L1802.62 1560.89C1804.27 1562.09 1805.17 1563.53 1805.33 1565.22C1805.49 1566.94 1804.87 1568.79 1803.45 1570.75L1800.81 1574.39L1799.11 1573.16Z" fill="white"/>
<path d="M1774.8 1592C1773.31 1590.82 1771.85 1591.12 1770.42 1592.92L1767.8 1596.2L1772.25 1599.76L1774.87 1596.48C1776.31 1594.68 1776.28 1593.19 1774.8 1592ZM1773.9 1601.07C1775.02 1601.97 1776.09 1602.33 1777.09 1602.16C1778.09 1602.01 1778.96 1601.46 1779.7 1600.52C1780.27 1599.82 1780.71 1599.04 1781.02 1598.2C1781.36 1597.36 1781.55 1596.54 1781.62 1595.72L1783.68 1596.02C1783.64 1596.55 1783.55 1597.09 1783.39 1597.63C1783.23 1598.19 1783.03 1598.73 1782.79 1599.26C1782.56 1599.8 1782.31 1600.3 1782.04 1600.77C1781.75 1601.26 1781.46 1601.69 1781.16 1602.07C1780.36 1603.07 1779.54 1603.86 1778.69 1604.44C1777.85 1605.02 1776.99 1605.4 1776.13 1605.58C1775.27 1605.76 1774.43 1605.74 1773.61 1605.52C1772.79 1605.33 1772.01 1604.94 1771.28 1604.35L1763.54 1598.18L1768.78 1591.61C1770.47 1589.49 1772.05 1588.17 1773.5 1587.67C1774.94 1587.18 1776.31 1587.45 1777.6 1588.49C1778.9 1589.52 1779.47 1590.79 1779.31 1592.31C1779.14 1593.83 1778.21 1595.66 1776.51 1597.79L1773.9 1601.07Z" fill="white"/>
<path d="M1750.79 1639.4L1740.25 1650.89C1738.32 1653 1736.51 1654.21 1734.82 1654.5C1733.14 1654.83 1731.54 1654.31 1730.04 1652.93L1723.08 1646.54L1725.91 1643.45L1732.88 1649.83C1733.94 1650.81 1734.94 1651.24 1735.89 1651.12C1736.84 1651.03 1737.78 1650.48 1738.7 1649.47L1739.72 1648.37L1729.77 1639.24L1732.61 1636.15L1742.56 1645.27L1746.41 1641.07L1736.46 1631.95L1739.3 1628.85L1750.79 1639.4Z" fill="white"/>
<path d="M1571.21 1783.6L1574.74 1781.06L1586.99 1798.12L1583.46 1800.66L1571.21 1783.6Z" fill="white"/>
<path d="M1541.19 1804.57L1544.71 1802.27L1549.89 1810.17C1550.68 1811.37 1551.54 1812.04 1552.49 1812.16C1553.44 1812.3 1554.48 1812 1555.62 1811.25L1558.88 1809.11L1551.48 1797.83L1554.99 1795.52L1563.55 1808.57L1556.77 1813.01C1554.38 1814.58 1552.33 1815.3 1550.62 1815.18C1548.91 1815.08 1547.49 1814.18 1546.38 1812.47L1541.19 1804.57Z" fill="white"/>
<path d="M1510.07 1839.1C1509.84 1838.7 1509.45 1838.44 1508.92 1838.31C1508.36 1838.19 1507.59 1838.26 1506.6 1838.51L1501.9 1839.67C1500.45 1840.02 1499.2 1840.09 1498.16 1839.85C1497.13 1839.62 1496.32 1839.01 1495.75 1838.03C1495.39 1837.4 1495.19 1836.76 1495.15 1836.09C1495.12 1835.43 1495.29 1834.76 1495.67 1834.05C1496.05 1833.35 1496.65 1832.63 1497.48 1831.9C1498.29 1831.15 1499.38 1830.38 1500.75 1829.59C1501.46 1829.18 1502.19 1828.82 1502.94 1828.53C1503.68 1828.24 1504.41 1828 1505.13 1827.82C1505.85 1827.66 1506.52 1827.54 1507.15 1827.48C1507.8 1827.43 1508.37 1827.43 1508.89 1827.48L1508.75 1829.64C1507.76 1829.61 1506.68 1829.7 1505.52 1829.92C1504.34 1830.16 1503.1 1830.66 1501.8 1831.41C1500.5 1832.16 1499.69 1832.86 1499.38 1833.5C1499.06 1834.15 1499.05 1834.73 1499.35 1835.25C1499.58 1835.65 1499.97 1835.9 1500.51 1836C1501.06 1836.12 1501.87 1836.04 1502.94 1835.77L1507.64 1834.61C1508.94 1834.3 1510.12 1834.24 1511.18 1834.44C1512.23 1834.66 1513.06 1835.29 1513.66 1836.33C1513.98 1836.88 1514.16 1837.46 1514.18 1838.07C1514.2 1838.71 1514.05 1839.35 1513.71 1840.01C1513.37 1840.67 1512.85 1841.33 1512.12 1842C1511.41 1842.69 1510.47 1843.37 1509.29 1844.06C1507.86 1844.89 1506.44 1845.44 1505.05 1845.71C1503.65 1846.01 1502.44 1846.11 1501.41 1846.01L1501.55 1843.85C1502.52 1843.89 1503.55 1843.82 1504.64 1843.63C1505.74 1843.45 1506.94 1842.99 1508.24 1842.24C1509.16 1841.71 1509.76 1841.16 1510.04 1840.61C1510.32 1840.05 1510.33 1839.55 1510.07 1839.1Z" fill="white"/>
<path d="M1468.87 1863.95L1471.4 1862.64L1472.37 1864.51L1469.84 1865.81L1472.04 1870.08L1468.31 1872.01L1466.11 1867.74L1461.98 1869.88L1461.01 1868.01L1465.14 1865.88L1461.56 1858.95C1461.21 1858.27 1460.84 1857.73 1460.45 1857.33C1460.05 1856.95 1459.65 1856.67 1459.25 1856.5C1458.83 1856.35 1458.42 1856.29 1458.01 1856.33C1457.6 1856.36 1457.21 1856.47 1456.83 1856.66C1456.3 1856.94 1455.83 1857.29 1455.41 1857.7C1455.01 1858.14 1454.68 1858.54 1454.45 1858.91L1452.75 1857.59C1453.15 1857.05 1453.65 1856.51 1454.25 1855.97C1454.83 1855.45 1455.46 1855.01 1456.14 1854.66C1458.14 1853.62 1459.95 1853.32 1461.54 1853.76C1463.14 1854.19 1464.39 1855.28 1465.29 1857.02L1468.87 1863.95Z" fill="white"/>
<path d="M1426.32 1876.14C1425.53 1874.41 1424.09 1874.02 1422 1874.98L1418.17 1876.72L1420.54 1881.9L1424.36 1880.16C1426.45 1879.21 1427.1 1877.87 1426.32 1876.14ZM1421.41 1883.82C1422 1885.13 1422.79 1885.93 1423.76 1886.24C1424.72 1886.55 1425.74 1886.46 1426.83 1885.96C1427.65 1885.59 1428.39 1885.09 1429.06 1884.48C1429.74 1883.89 1430.29 1883.24 1430.72 1882.54L1432.42 1883.75C1432.14 1884.2 1431.81 1884.64 1431.43 1885.05C1431.03 1885.48 1430.6 1885.87 1430.15 1886.23C1429.71 1886.6 1429.26 1886.94 1428.8 1887.24C1428.32 1887.54 1427.87 1887.8 1427.43 1887.99C1426.27 1888.52 1425.17 1888.86 1424.16 1888.99C1423.14 1889.12 1422.21 1889.08 1421.36 1888.85C1420.51 1888.62 1419.76 1888.22 1419.13 1887.65C1418.49 1887.11 1417.97 1886.41 1417.58 1885.56L1413.48 1876.55L1421.13 1873.06C1423.6 1871.94 1425.6 1871.48 1427.12 1871.68C1428.63 1871.9 1429.72 1872.76 1430.41 1874.27C1431.1 1875.79 1431.03 1877.18 1430.21 1878.46C1429.36 1879.74 1427.7 1880.95 1425.23 1882.07L1421.41 1883.82Z" fill="white"/>
<path d="M1375.28 1908.08C1376.63 1907.56 1377.53 1906.73 1377.99 1905.58C1378.43 1904.47 1378.33 1903.06 1377.67 1901.36C1377.02 1899.67 1376.14 1898.55 1375.05 1898C1373.95 1897.48 1372.73 1897.48 1371.39 1898L1367.89 1899.36L1371.78 1909.43L1375.28 1908.08ZM1363.11 1898.63C1362.77 1897.76 1362.63 1896.9 1362.69 1896.06C1362.75 1895.2 1363.01 1894.38 1363.48 1893.6C1363.93 1892.83 1364.6 1892.1 1365.5 1891.43C1366.38 1890.77 1367.49 1890.18 1368.81 1889.67C1369.26 1889.5 1369.76 1889.35 1370.31 1889.22C1370.83 1889.08 1371.39 1888.99 1371.97 1888.93C1372.54 1888.86 1373.12 1888.84 1373.71 1888.87C1374.28 1888.89 1374.82 1888.96 1375.34 1889.08L1375 1891.14C1374.2 1890.95 1373.36 1890.9 1372.46 1890.96C1371.56 1891.01 1370.69 1891.2 1369.85 1891.52C1368.45 1892.06 1367.5 1892.8 1367 1893.72C1366.5 1894.64 1366.51 1895.77 1367.02 1897.12L1367.13 1897.4L1370.63 1896.04C1371.92 1895.55 1373.16 1895.26 1374.35 1895.19C1375.53 1895.12 1376.6 1895.25 1377.59 1895.57C1378.57 1895.9 1379.44 1896.41 1380.18 1897.11C1380.9 1897.82 1381.47 1898.7 1381.87 1899.74C1382.27 1900.79 1382.45 1901.81 1382.39 1902.82C1382.31 1903.84 1382.01 1904.8 1381.51 1905.7C1381 1906.61 1380.29 1907.43 1379.37 1908.17C1378.44 1908.92 1377.33 1909.54 1376.04 1910.04L1368.62 1912.9L1363.11 1898.63Z" fill="white"/>
<path d="M1318.01 1929.17L1321.43 1928.04C1322.72 1927.61 1323.59 1926.93 1324.04 1926C1324.5 1925.09 1324.5 1923.95 1324.05 1922.59L1321.18 1913.9L1325.17 1912.58L1328.04 1921.27C1328.68 1923.21 1328.57 1924.91 1327.7 1926.37C1326.83 1927.86 1325.24 1928.99 1322.94 1929.75L1318.67 1931.16L1318.01 1929.17Z" fill="white"/>
<path d="M1287.26 1930.2C1286.75 1928.37 1285.39 1927.76 1283.17 1928.38L1279.13 1929.5L1280.65 1934.99L1284.7 1933.87C1286.92 1933.25 1287.77 1932.03 1287.26 1930.2ZM1281.22 1937.02C1281.6 1938.4 1282.25 1939.32 1283.17 1939.77C1284.06 1940.23 1285.09 1940.3 1286.24 1939.98C1287.11 1939.74 1287.92 1939.37 1288.67 1938.87C1289.43 1938.39 1290.08 1937.83 1290.61 1937.21L1292.1 1938.66C1291.76 1939.07 1291.37 1939.45 1290.93 1939.8C1290.46 1940.15 1289.98 1940.47 1289.48 1940.76C1288.98 1941.06 1288.49 1941.33 1287.99 1941.55C1287.47 1941.78 1286.98 1941.95 1286.52 1942.08C1285.28 1942.42 1284.15 1942.58 1283.13 1942.56C1282.11 1942.53 1281.19 1942.34 1280.39 1941.98C1279.58 1941.62 1278.91 1941.11 1278.37 1940.45C1277.82 1939.82 1277.42 1939.05 1277.17 1938.14L1274.52 1928.6L1282.61 1926.35C1285.23 1925.62 1287.28 1925.48 1288.75 1925.92C1290.2 1926.37 1291.15 1927.39 1291.6 1928.99C1292.04 1930.59 1291.76 1931.96 1290.74 1933.09C1289.71 1934.23 1287.88 1935.16 1285.26 1935.89L1281.22 1937.02Z" fill="white"/>
<path d="M1239.47 1954.68L1224.19 1957.79C1221.39 1958.36 1219.21 1958.28 1217.67 1957.53C1216.12 1956.8 1215.14 1955.44 1214.73 1953.44L1212.84 1944.18L1216.96 1943.35L1218.84 1952.61C1219.13 1954.02 1219.69 1954.95 1220.52 1955.42C1221.35 1955.9 1222.44 1956.01 1223.77 1955.73L1225.24 1955.44L1222.54 1942.21L1226.66 1941.37L1229.35 1954.6L1234.94 1953.46L1232.24 1940.23L1236.36 1939.39L1239.47 1954.68Z" fill="white"/>
<path d="M1009.19 1965.87L1013.54 1965.89L1013.43 1986.89L1009.08 1986.87L1009.19 1965.87Z" fill="white"/>
<path d="M971.979 1965.2L976.175 1965.4L975.727 1974.84C975.658 1976.28 975.969 1977.32 976.659 1977.97C977.348 1978.65 978.371 1979.02 979.73 1979.08L983.625 1979.27L984.265 1965.78L988.461 1965.98L987.721 1981.56L979.63 1981.18C976.773 1981.04 974.69 1980.42 973.381 1979.32C972.051 1978.24 971.434 1976.68 971.531 1974.64L971.979 1965.2Z" fill="white"/>
<path d="M926.105 1974.83C926.152 1974.38 925.997 1973.94 925.638 1973.52C925.259 1973.1 924.597 1972.7 923.651 1972.32L919.165 1970.49C917.776 1969.93 916.731 1969.25 916.029 1968.45C915.328 1967.65 915.036 1966.69 915.153 1965.55C915.228 1964.84 915.445 1964.2 915.805 1963.63C916.163 1963.09 916.702 1962.64 917.422 1962.29C918.142 1961.94 919.05 1961.72 920.147 1961.61C921.246 1961.48 922.581 1961.5 924.153 1961.66C924.968 1961.75 925.768 1961.89 926.551 1962.09C927.315 1962.29 928.044 1962.53 928.74 1962.8C929.413 1963.09 930.025 1963.4 930.575 1963.71C931.123 1964.05 931.591 1964.39 931.978 1964.73L930.598 1966.4C929.816 1965.8 928.889 1965.24 927.816 1964.73C926.722 1964.23 925.428 1963.9 923.936 1963.75C922.444 1963.6 921.379 1963.69 920.741 1964.02C920.103 1964.36 919.753 1964.82 919.691 1965.42C919.644 1965.88 919.81 1966.31 920.191 1966.71C920.57 1967.13 921.271 1967.55 922.294 1967.95L926.78 1969.78C928.014 1970.29 929.003 1970.93 929.746 1971.71C930.468 1972.51 930.767 1973.51 930.643 1974.7C930.577 1975.34 930.377 1975.91 930.043 1976.42C929.686 1976.94 929.179 1977.37 928.521 1977.71C927.863 1978.04 927.046 1978.27 926.068 1978.39C925.088 1978.53 923.922 1978.53 922.57 1978.39C920.918 1978.22 919.45 1977.83 918.165 1977.24C916.857 1976.66 915.817 1976.03 915.043 1975.34L916.422 1973.68C917.184 1974.28 918.063 1974.82 919.058 1975.31C920.051 1975.81 921.294 1976.14 922.786 1976.3C923.84 1976.41 924.644 1976.32 925.196 1976.04C925.748 1975.75 926.051 1975.35 926.105 1974.83Z" fill="white"/>
<path d="M878.398 1970.78L881.216 1971.21L880.902 1973.29L878.084 1972.86L877.365 1977.6L873.212 1976.98L873.931 1972.23L869.334 1971.53L869.648 1969.46L874.246 1970.15L875.414 1962.44C875.527 1961.69 875.546 1961.04 875.468 1960.48C875.368 1959.94 875.205 1959.48 874.979 1959.1C874.731 1958.74 874.43 1958.45 874.079 1958.23C873.727 1958.02 873.343 1957.88 872.928 1957.82C872.335 1957.73 871.748 1957.73 871.167 1957.82C870.584 1957.94 870.088 1958.07 869.679 1958.23L869.081 1956.17C869.719 1955.97 870.439 1955.82 871.24 1955.74C872.021 1955.66 872.788 1955.67 873.539 1955.79C875.774 1956.12 877.41 1956.94 878.449 1958.23C879.487 1959.52 879.86 1961.13 879.566 1963.07L878.398 1970.78Z" fill="white"/>
<path d="M837.532 1955.8C837.908 1953.94 836.969 1952.78 834.714 1952.32L830.597 1951.49L829.469 1957.08L833.586 1957.91C835.84 1958.36 837.156 1957.66 837.532 1955.8ZM829.053 1959.14C828.768 1960.55 828.931 1961.66 829.541 1962.48C830.132 1963.29 831.016 1963.82 832.192 1964.06C833.074 1964.23 833.964 1964.27 834.863 1964.17C835.757 1964.08 836.583 1963.88 837.341 1963.56L838.014 1965.54C837.523 1965.74 837.001 1965.9 836.448 1966.02C835.875 1966.13 835.3 1966.19 834.724 1966.22C834.143 1966.27 833.58 1966.27 833.035 1966.25C832.47 1966.21 831.953 1966.15 831.482 1966.05C830.227 1965.8 829.149 1965.43 828.248 1964.94C827.347 1964.45 826.619 1963.87 826.063 1963.18C825.507 1962.5 825.14 1961.74 824.961 1960.91C824.759 1960.1 824.75 1959.23 824.936 1958.31L826.896 1948.6L835.13 1950.26C837.796 1950.8 839.685 1951.6 840.797 1952.66C841.889 1953.72 842.271 1955.06 841.943 1956.69C841.614 1958.32 840.741 1959.41 839.324 1959.96C837.888 1960.5 835.836 1960.51 833.17 1959.97L829.053 1959.14Z" fill="white"/>
<path d="M776.936 1951.61C778.328 1951.98 779.546 1951.83 780.588 1951.18C781.605 1950.54 782.346 1949.34 782.811 1947.58C783.276 1945.82 783.227 1944.4 782.664 1943.32C782.077 1942.25 781.087 1941.54 779.695 1941.17L776.069 1940.21L773.311 1950.65L776.936 1951.61ZM772.621 1936.82C772.861 1935.91 773.252 1935.13 773.795 1934.49C774.342 1933.83 775.035 1933.32 775.874 1932.96C776.694 1932.6 777.664 1932.41 778.785 1932.4C779.887 1932.38 781.124 1932.55 782.497 1932.91C782.961 1933.03 783.453 1933.21 783.974 1933.43C784.481 1933.62 784.985 1933.87 785.485 1934.17C785.991 1934.44 786.474 1934.77 786.935 1935.14C787.382 1935.48 787.779 1935.86 788.128 1936.26L786.653 1937.73C786.113 1937.11 785.461 1936.57 784.696 1936.1C783.936 1935.61 783.121 1935.25 782.25 1935.02C780.8 1934.63 779.601 1934.67 778.654 1935.12C777.707 1935.58 777.05 1936.5 776.682 1937.89L776.605 1938.18L780.231 1939.14C781.565 1939.49 782.737 1939.99 783.748 1940.63C784.739 1941.26 785.536 1942 786.141 1942.84C786.746 1943.68 787.144 1944.61 787.334 1945.61C787.505 1946.6 787.448 1947.64 787.162 1948.73C786.876 1949.81 786.412 1950.74 785.771 1951.52C785.111 1952.3 784.31 1952.91 783.368 1953.34C782.426 1953.77 781.367 1954.02 780.192 1954.08C778.998 1954.14 777.734 1953.99 776.4 1953.64L768.714 1951.61L772.621 1936.82Z" fill="white"/>
<path d="M717.879 1934.98L721.31 1936.07C722.606 1936.48 723.709 1936.45 724.619 1935.96C725.524 1935.49 726.195 1934.57 726.632 1933.2L729.408 1924.48L733.41 1925.75L730.634 1934.47C730.015 1936.42 728.925 1937.73 727.366 1938.41C725.781 1939.1 723.836 1939.08 721.53 1938.34L717.242 1936.98L717.879 1934.98Z" fill="white"/>
<path d="M692.556 1917.83C693.219 1916.05 692.472 1914.76 690.316 1913.95L686.38 1912.49L684.392 1917.83L688.329 1919.3C690.485 1920.1 691.894 1919.61 692.556 1917.83ZM683.66 1919.8C683.158 1921.15 683.145 1922.28 683.62 1923.18C684.076 1924.07 684.867 1924.73 685.992 1925.15C686.835 1925.46 687.709 1925.64 688.613 1925.68C689.509 1925.73 690.356 1925.66 691.154 1925.47L691.511 1927.52C690.994 1927.65 690.453 1927.73 689.889 1927.75C689.306 1927.77 688.728 1927.75 688.154 1927.68C687.574 1927.64 687.016 1927.56 686.482 1927.44C685.93 1927.32 685.428 1927.18 684.978 1927.01C683.779 1926.57 682.772 1926.03 681.958 1925.41C681.144 1924.79 680.516 1924.09 680.074 1923.33C679.632 1922.57 679.388 1921.76 679.341 1920.91C679.268 1920.08 679.396 1919.22 679.724 1918.34L683.176 1909.06L691.048 1911.99C693.598 1912.93 695.339 1914.02 696.271 1915.24C697.185 1916.46 697.353 1917.84 696.774 1919.4C696.195 1920.95 695.163 1921.89 693.677 1922.21C692.173 1922.53 690.146 1922.21 687.597 1921.26L683.66 1919.8Z" fill="white"/>
<path d="M640.172 1909.86L625.963 1903.43C623.358 1902.24 621.651 1900.9 620.841 1899.39C620.005 1897.89 620.008 1896.21 620.85 1894.36L624.751 1885.75L628.576 1887.48L624.676 1896.09C624.081 1897.4 623.984 1898.49 624.384 1899.35C624.776 1900.23 625.591 1900.95 626.83 1901.51L628.196 1902.13L633.768 1889.84L637.594 1891.57L632.022 1903.87L637.213 1906.22L642.785 1893.92L646.611 1895.65L640.172 1909.86Z" fill="white"/>
<path d="M447.232 1783.94L450.74 1786.51L438.322 1803.45L434.814 1800.88L447.232 1783.94Z" fill="white"/>
<path d="M417.964 1761.9L421.243 1764.52L415.337 1771.9C414.437 1773.02 414.075 1774.05 414.249 1774.99C414.412 1775.93 415.024 1776.83 416.085 1777.68L419.13 1780.12L427.566 1769.58L430.845 1772.21L421.096 1784.39L414.773 1779.32C412.54 1777.54 411.218 1775.81 410.806 1774.15C410.366 1772.49 410.784 1770.87 412.059 1769.27L417.964 1761.9Z" fill="white"/>
<path d="M375.371 1742.93C375.678 1742.59 375.809 1742.14 375.765 1741.59C375.706 1741.03 375.405 1740.31 374.862 1739.45L372.3 1735.34C371.508 1734.07 371.062 1732.9 370.962 1731.85C370.861 1730.79 371.192 1729.84 371.952 1728.99C372.433 1728.45 372.985 1728.06 373.609 1727.81C374.22 1727.58 374.918 1727.54 375.705 1727.68C376.492 1727.82 377.36 1728.17 378.311 1728.72C379.276 1729.27 380.346 1730.07 381.523 1731.12C382.134 1731.67 382.697 1732.25 383.212 1732.88C383.713 1733.49 384.165 1734.11 384.568 1734.73C384.942 1735.37 385.258 1735.97 385.517 1736.55C385.762 1737.15 385.941 1737.7 386.053 1738.2L383.958 1738.74C383.68 1737.79 383.257 1736.8 382.69 1735.75C382.095 1734.71 381.238 1733.68 380.121 1732.68C379.004 1731.68 378.089 1731.13 377.375 1731.03C376.661 1730.93 376.104 1731.1 375.704 1731.54C375.397 1731.89 375.28 1732.33 375.352 1732.88C375.411 1733.44 375.735 1734.19 376.324 1735.12L378.886 1739.23C379.586 1740.37 380.007 1741.47 380.151 1742.54C380.266 1743.61 379.923 1744.59 379.122 1745.49C378.695 1745.96 378.197 1746.31 377.628 1746.52C377.031 1746.74 376.368 1746.79 375.639 1746.67C374.911 1746.56 374.115 1746.26 373.254 1745.79C372.379 1745.32 371.435 1744.64 370.422 1743.73C369.186 1742.62 368.222 1741.45 367.531 1740.21C366.812 1738.98 366.34 1737.86 366.115 1736.85L368.21 1736.31C368.474 1737.24 368.866 1738.2 369.387 1739.18C369.894 1740.17 370.706 1741.17 371.823 1742.17C372.613 1742.87 373.315 1743.27 373.929 1743.37C374.543 1743.46 375.024 1743.32 375.371 1742.93Z" fill="white"/>
<path d="M338.999 1711.52L341.03 1713.52L339.556 1715.01L337.526 1713.01L334.158 1716.43L331.165 1713.49L334.533 1710.06L331.22 1706.8L332.693 1705.31L336.007 1708.57L341.479 1703.01C342.013 1702.47 342.412 1701.95 342.677 1701.45C342.913 1700.96 343.051 1700.49 343.09 1700.05C343.101 1699.61 343.027 1699.2 342.868 1698.82C342.71 1698.44 342.481 1698.1 342.182 1697.81C341.754 1697.39 341.278 1697.04 340.753 1696.78C340.213 1696.53 339.731 1696.35 339.306 1696.24L340.033 1694.22C340.671 1694.43 341.338 1694.73 342.034 1695.14C342.716 1695.53 343.327 1695.99 343.869 1696.52C345.479 1698.11 346.326 1699.73 346.41 1701.38C346.493 1703.04 345.847 1704.56 344.472 1705.96L338.999 1711.52Z" fill="white"/>
<path d="M314.32 1674.99C315.718 1673.71 315.638 1672.22 314.08 1670.52L311.236 1667.43L307.042 1671.3L309.887 1674.39C311.444 1676.08 312.922 1676.28 314.32 1674.99ZM305.497 1672.72C304.438 1673.69 303.915 1674.69 303.93 1675.71C303.93 1676.71 304.337 1677.66 305.15 1678.54C305.759 1679.2 306.458 1679.76 307.247 1680.2C308.021 1680.66 308.807 1680.98 309.606 1681.17L308.993 1683.16C308.474 1683.04 307.958 1682.86 307.444 1682.63C306.916 1682.38 306.411 1682.1 305.929 1681.78C305.432 1681.48 304.971 1681.15 304.546 1680.81C304.108 1680.45 303.727 1680.1 303.402 1679.74C302.535 1678.8 301.88 1677.87 301.437 1676.94C300.994 1676.02 300.748 1675.12 300.7 1674.24C300.651 1673.36 300.799 1672.53 301.142 1671.75C301.458 1670.97 301.961 1670.26 302.653 1669.63L309.936 1662.92L315.625 1669.1C317.468 1671.1 318.527 1672.86 318.804 1674.37C319.068 1675.87 318.589 1677.18 317.368 1678.3C316.146 1679.43 314.801 1679.8 313.33 1679.41C311.847 1679.01 310.184 1677.81 308.342 1675.81L305.497 1672.72Z" fill="white"/>
<path d="M268.039 1636.4C268.951 1637.52 270.021 1638.11 271.25 1638.19C272.45 1638.27 273.755 1637.73 275.163 1636.58C276.571 1635.43 277.363 1634.25 277.54 1633.04C277.688 1631.84 277.306 1630.67 276.394 1629.56L274.018 1626.66L265.663 1633.5L268.039 1636.4ZM273.214 1621.89C273.941 1621.29 274.712 1620.89 275.529 1620.69C276.36 1620.48 277.221 1620.47 278.11 1620.67C278.987 1620.86 279.883 1621.27 280.8 1621.92C281.704 1622.55 282.605 1623.41 283.505 1624.51C283.809 1624.88 284.108 1625.31 284.401 1625.79C284.696 1626.25 284.96 1626.75 285.191 1627.28C285.437 1627.8 285.639 1628.35 285.795 1628.92C285.954 1629.46 286.057 1630 286.104 1630.53L284.046 1630.85C283.971 1630.04 283.762 1629.21 283.418 1628.38C283.09 1627.54 282.641 1626.77 282.07 1626.07C281.12 1624.91 280.128 1624.24 279.095 1624.05C278.062 1623.86 276.989 1624.23 275.875 1625.14L275.643 1625.33L278.019 1628.23C278.893 1629.3 279.552 1630.39 279.996 1631.5C280.427 1632.59 280.641 1633.66 280.637 1634.69C280.633 1635.73 280.415 1636.71 279.982 1637.63C279.536 1638.54 278.88 1639.35 278.014 1640.06C277.147 1640.77 276.225 1641.25 275.247 1641.51C274.257 1641.75 273.253 1641.78 272.235 1641.57C271.218 1641.37 270.215 1640.95 269.227 1640.32C268.226 1639.66 267.288 1638.8 266.414 1637.73L261.377 1631.58L273.214 1621.89Z" fill="white"/>
<path d="M229.989 1588.39L232.13 1591.29C232.939 1592.38 233.855 1593 234.878 1593.14C235.885 1593.29 236.967 1592.93 238.125 1592.08L245.481 1586.64L247.979 1590.01L240.623 1595.45C238.983 1596.67 237.332 1597.09 235.67 1596.73C233.981 1596.36 232.416 1595.21 230.977 1593.26L228.301 1589.64L229.989 1588.39Z" fill="white"/>
<path d="M219.394 1559.49C220.974 1558.44 221.125 1556.96 219.846 1555.04L217.512 1551.55L212.773 1554.72L215.108 1558.21C216.386 1560.12 217.815 1560.55 219.394 1559.49ZM211.028 1555.89C209.83 1556.69 209.16 1557.59 209.018 1558.6C208.864 1559.59 209.12 1560.59 209.787 1561.59C210.287 1562.34 210.893 1562.99 211.603 1563.55C212.297 1564.12 213.025 1564.56 213.785 1564.87L212.872 1566.74C212.378 1566.54 211.895 1566.29 211.423 1565.98C210.94 1565.65 210.485 1565.29 210.057 1564.91C209.613 1564.53 209.208 1564.14 208.841 1563.74C208.463 1563.31 208.141 1562.9 207.874 1562.51C207.163 1561.44 206.66 1560.42 206.364 1559.44C206.069 1558.46 205.965 1557.53 206.053 1556.65C206.141 1555.77 206.414 1554.98 206.874 1554.26C207.305 1553.54 207.912 1552.92 208.693 1552.39L216.924 1546.89L221.592 1553.88C223.104 1556.14 223.88 1558.04 223.921 1559.57C223.951 1561.09 223.275 1562.31 221.895 1563.24C220.515 1564.16 219.129 1564.32 217.736 1563.71C216.332 1563.08 214.874 1561.64 213.362 1559.38L211.028 1555.89Z" fill="white"/>
<path d="M181.598 1522.4L173.841 1508.87C172.419 1506.38 171.821 1504.3 172.047 1502.6C172.245 1500.89 173.23 1499.53 175 1498.52L183.198 1493.82L185.287 1497.47L177.088 1502.16C175.839 1502.88 175.124 1503.7 174.944 1504.64C174.747 1505.58 174.987 1506.64 175.663 1507.82L176.409 1509.12L188.121 1502.41L190.21 1506.05L178.497 1512.77L181.332 1517.71L193.044 1511L195.133 1514.64L181.598 1522.4Z" fill="white"/>
<path d="M98.8653 1307.56L100.203 1311.7L80.2196 1318.15L78.8823 1314.01L98.8653 1307.56Z" fill="white"/>
<path d="M88.0515 1272.52L89.1702 1276.57L80.0616 1279.08C78.6737 1279.47 77.7768 1280.09 77.371 1280.95C76.9459 1281.81 76.9145 1282.9 77.2767 1284.21L78.3156 1287.97L91.3278 1284.38L92.4466 1288.42L77.4102 1292.58L75.2526 1284.77C74.4908 1282.01 74.43 1279.84 75.0701 1278.25C75.6857 1276.65 76.9766 1275.58 78.9429 1275.04L88.0515 1272.52Z" fill="white"/>
<path d="M64.556 1231.76C65.0057 1231.67 65.374 1231.38 65.6609 1230.91C65.9436 1230.42 66.1184 1229.67 66.1851 1228.65L66.5226 1223.82C66.629 1222.32 66.9517 1221.12 67.4908 1220.2C68.0298 1219.29 68.8565 1218.71 69.9707 1218.47C70.6745 1218.32 71.3513 1218.32 72.0011 1218.49C72.6314 1218.66 73.2236 1219.04 73.7777 1219.61C74.3319 1220.19 74.8305 1220.98 75.2736 1221.99C75.7363 1222.99 76.1345 1224.27 76.4682 1225.81C76.6413 1226.61 76.7538 1227.42 76.8054 1228.23C76.8528 1229.01 76.8548 1229.78 76.8114 1230.53C76.7442 1231.26 76.6448 1231.93 76.5131 1232.56C76.3619 1233.18 76.1841 1233.73 75.9796 1234.21L73.9667 1233.41C74.2976 1232.48 74.5403 1231.43 74.6947 1230.25C74.8254 1229.05 74.7323 1227.72 74.4155 1226.26C74.0987 1224.79 73.6815 1223.81 73.1638 1223.3C72.6461 1222.8 72.094 1222.61 71.5076 1222.74C71.0579 1222.84 70.7015 1223.13 70.4384 1223.62C70.1556 1224.11 69.9796 1224.9 69.9102 1226L69.5727 1230.83C69.4716 1232.16 69.1655 1233.3 68.6545 1234.25C68.1197 1235.19 67.2658 1235.78 66.0929 1236.03C65.4673 1236.17 64.861 1236.16 64.2741 1236C63.6634 1235.82 63.097 1235.47 62.5751 1234.95C62.0532 1234.43 61.5834 1233.73 61.1656 1232.83C60.7283 1231.95 60.366 1230.84 60.0788 1229.51C59.7282 1227.89 59.6362 1226.37 59.8028 1224.96C59.9457 1223.54 60.2217 1222.36 60.6307 1221.41L62.6436 1222.2C62.3085 1223.11 62.065 1224.12 61.9132 1225.21C61.7419 1226.31 61.8146 1227.6 62.1314 1229.06C62.3553 1230.1 62.6883 1230.84 63.1304 1231.27C63.5726 1231.71 64.0478 1231.87 64.556 1231.76Z" fill="white"/>
<path d="M53.6068 1185.3L54.0769 1188.11L52.0056 1188.45L51.5355 1185.64L46.8013 1186.43L46.1085 1182.29L50.8428 1181.5L50.0758 1176.91L52.147 1176.57L52.914 1181.15L60.6072 1179.87C61.3568 1179.74 61.9847 1179.55 62.4909 1179.31C62.9741 1179.04 63.3602 1178.75 63.6494 1178.41C63.9155 1178.07 64.0962 1177.69 64.1913 1177.29C64.2864 1176.89 64.2993 1176.48 64.2301 1176.07C64.1311 1175.48 63.9467 1174.92 63.6768 1174.4C63.3871 1173.88 63.1025 1173.45 62.8228 1173.11L64.5977 1171.9C64.9925 1172.44 65.3529 1173.08 65.6788 1173.82C66.0014 1174.53 66.2254 1175.27 66.3508 1176.02C66.7236 1178.25 66.4582 1180.05 65.5548 1181.44C64.6514 1182.83 63.2331 1183.69 61.2999 1184.01L53.6068 1185.3Z" fill="white"/>
<path d="M55.1139 1141.55C57.001 1141.32 57.8107 1140.07 57.5431 1137.79L57.0544 1133.62L51.3931 1134.28L51.8818 1138.45C52.1494 1140.73 53.2268 1141.77 55.1139 1141.55ZM49.3074 1134.52C47.8772 1134.69 46.8686 1135.19 46.2816 1136.03C45.6923 1136.84 45.4675 1137.84 45.6071 1139.03C45.7119 1139.93 45.9533 1140.79 46.3315 1141.61C46.6898 1142.43 47.1369 1143.15 47.6729 1143.78L46.0073 1145.03C45.6581 1144.63 45.3441 1144.18 45.0651 1143.69C44.7837 1143.18 44.5409 1142.65 44.3367 1142.11C44.1127 1141.58 43.9295 1141.04 43.7872 1140.52C43.6426 1139.97 43.5423 1139.46 43.4865 1138.98C43.3376 1137.71 43.3551 1136.57 43.539 1135.56C43.7229 1134.55 44.0534 1133.68 44.5305 1132.94C45.0076 1132.2 45.6137 1131.61 46.3488 1131.18C47.0618 1130.74 47.8851 1130.46 48.8187 1130.35L58.6514 1129.2L59.6288 1137.54C59.9453 1140.24 59.772 1142.29 59.1088 1143.68C58.4433 1145.04 57.2862 1145.82 55.6375 1146.01C53.9887 1146.21 52.6827 1145.72 51.7193 1144.54C50.7536 1143.35 50.1125 1141.4 49.7961 1138.69L49.3074 1134.52Z" fill="white"/>
<path d="M40.2907 1082.98C40.3751 1084.42 40.8911 1085.53 41.8388 1086.32C42.7653 1087.08 44.137 1087.41 45.9539 1087.31C47.7708 1087.2 49.1044 1086.71 49.9548 1085.84C50.7841 1084.95 51.1565 1083.79 51.0721 1082.35L50.8524 1078.6L40.0709 1079.24L40.2907 1082.98ZM53.0021 1074.27C53.9405 1074.22 54.7996 1074.35 55.5794 1074.66C56.3791 1074.97 57.0796 1075.47 57.6808 1076.16C58.2809 1076.83 58.7623 1077.69 59.1251 1078.75C59.4867 1079.79 59.7091 1081.02 59.7923 1082.44C59.8205 1082.92 59.811 1083.44 59.764 1084C59.7357 1084.54 59.6581 1085.1 59.5312 1085.67C59.4243 1086.24 59.2668 1086.8 59.0589 1087.35C58.8697 1087.88 58.6383 1088.38 58.3646 1088.83L56.5062 1087.89C56.9255 1087.18 57.2398 1086.39 57.449 1085.52C57.6781 1084.65 57.7663 1083.76 57.7135 1082.86C57.6256 1081.36 57.2188 1080.23 56.4931 1079.48C55.7674 1078.72 54.6858 1078.38 53.2482 1078.46L52.9487 1078.48L53.1685 1082.23C53.2494 1083.6 53.1435 1084.87 52.851 1086.03C52.5572 1087.17 52.1043 1088.16 51.4924 1089C50.8804 1089.83 50.1281 1090.5 49.2354 1090.99C48.3416 1091.46 47.3357 1091.73 46.2176 1091.8C45.0995 1091.86 44.069 1091.71 43.126 1091.35C42.1818 1090.96 41.3568 1090.39 40.651 1089.63C39.9453 1088.87 39.3799 1087.94 38.9549 1086.85C38.5287 1085.73 38.2752 1084.48 38.1943 1083.1L37.7284 1075.17L53.0021 1074.27Z" fill="white"/>
<path d="M37.667 1021.18L37.7001 1024.78C37.7126 1026.14 38.0922 1027.18 38.8387 1027.89C39.5653 1028.61 40.6486 1028.96 42.0886 1028.94L51.2382 1028.86L51.2768 1033.06L42.1272 1033.14C40.0873 1033.16 38.5015 1032.54 37.3697 1031.27C36.2178 1029.98 35.6307 1028.12 35.6085 1025.7L35.567 1021.2L37.667 1021.18Z" fill="white"/>
<path d="M46.0698 990.855C47.9684 990.928 48.9619 989.815 49.0503 987.517L49.2116 983.32L43.5158 983.101L43.3545 987.298C43.2661 989.596 44.1712 990.782 46.0698 990.855ZM41.4174 983.02C39.9785 982.965 38.9046 983.304 38.1959 984.037C37.488 984.751 37.111 985.707 37.0649 986.906C37.0303 987.805 37.1364 988.69 37.3831 989.56C37.6099 990.43 37.9401 991.213 38.3736 991.91L36.5346 992.89C36.2517 992.439 36.0103 991.949 35.8105 991.421C35.6114 990.873 35.4527 990.317 35.3343 989.752C35.1959 989.186 35.0971 988.632 35.0379 988.089C34.9795 987.526 34.9595 987.005 34.978 986.526C35.0271 985.247 35.2205 984.123 35.5579 983.155C35.8953 982.188 36.3569 981.375 36.9426 980.717C37.5283 980.059 38.2174 979.575 39.0099 979.265C39.7832 978.935 40.6395 978.787 41.5788 978.824L51.4715 979.204L51.1487 987.598C51.0442 990.316 50.5573 992.309 49.6879 993.576C48.8194 994.824 47.5557 995.415 45.8969 995.352C44.2381 995.288 43.0237 994.601 42.2534 993.29C41.484 991.96 41.1515 989.935 41.256 987.217L41.4174 983.02Z" fill="white"/>
<path d="M37.302 938.103L38.9731 922.593C39.2795 919.749 40.0225 917.707 41.2022 916.466C42.3642 915.204 43.9593 914.681 45.9875 914.9L55.3831 915.912L54.9332 920.088L45.5376 919.076C44.1059 918.922 43.0433 919.169 42.3497 919.819C41.6363 920.466 41.2067 921.466 41.061 922.818L40.9003 924.309L54.3227 925.755L53.8727 929.931L40.4504 928.485L39.8398 934.152L53.2622 935.598L52.8123 939.774L37.302 938.103Z" fill="white"/>
<path d="M96.4751 715.729L95.1271 719.865L75.1608 713.358L76.5087 709.222L96.4751 715.729Z" fill="white"/>
<path d="M108.222 681.207L106.752 685.141L97.9001 681.833C96.5513 681.329 95.4604 681.305 94.6276 681.763C93.776 682.213 93.1121 683.075 92.636 684.349L91.2705 688.002L103.916 692.729L102.446 696.663L87.8329 691.201L90.6689 683.614C91.6702 680.935 92.896 679.14 94.3464 678.231C95.785 677.295 97.4597 677.184 99.3706 677.899L108.222 681.207Z" fill="white"/>
<path d="M112.876 635.019C113.297 635.204 113.762 635.19 114.271 634.976C114.788 634.744 115.371 634.236 116.022 633.452L119.128 629.737C120.091 628.587 121.06 627.8 122.033 627.376C123.005 626.951 124.014 626.968 125.057 627.426C125.717 627.716 126.261 628.119 126.689 628.635C127.1 629.142 127.361 629.792 127.472 630.584C127.583 631.375 127.522 632.31 127.289 633.387C127.074 634.472 126.649 635.738 126.014 637.185C125.684 637.936 125.304 638.653 124.872 639.337C124.449 640.003 124.001 640.626 123.528 641.204C123.045 641.757 122.568 642.246 122.097 642.673C121.607 643.091 121.14 643.432 120.697 643.696L119.531 641.874C120.345 641.314 121.161 640.601 121.977 639.737C122.783 638.846 123.488 637.714 124.091 636.34C124.695 634.967 124.934 633.925 124.809 633.215C124.684 632.505 124.347 632.029 123.797 631.788C123.376 631.603 122.916 631.63 122.418 631.87C121.901 632.102 121.292 632.643 120.591 633.492L117.485 637.207C116.623 638.226 115.706 638.97 114.735 639.44C113.754 639.883 112.715 639.863 111.616 639.38C111.03 639.123 110.546 638.757 110.164 638.284C109.772 637.784 109.518 637.17 109.401 636.441C109.284 635.713 109.318 634.865 109.502 633.897C109.669 632.922 110.025 631.812 110.572 630.566C111.24 629.047 112.053 627.766 113.013 626.724C113.963 625.656 114.881 624.858 115.769 624.33L116.934 626.152C116.128 626.694 115.342 627.364 114.576 628.164C113.792 628.955 113.098 630.038 112.495 631.411C112.068 632.381 111.906 633.173 112.009 633.786C112.111 634.399 112.4 634.81 112.876 635.019Z" fill="white"/>
<path d="M131.499 590.449L130.23 593.001L128.349 592.066L129.619 589.514L125.321 587.376L127.191 583.616L131.489 585.753L133.56 581.59L135.44 582.525L133.369 586.688L140.353 590.162C141.034 590.5 141.651 590.718 142.206 590.815C142.752 590.886 143.239 590.871 143.668 590.772C144.088 590.646 144.455 590.448 144.767 590.179C145.08 589.91 145.329 589.588 145.516 589.212C145.784 588.674 145.961 588.115 146.049 587.534C146.12 586.943 146.141 586.429 146.113 585.99L148.26 586.053C148.261 586.724 148.178 587.453 148.01 588.24C147.85 589.01 147.602 589.735 147.263 590.415C146.257 592.439 144.98 593.748 143.434 594.341C141.888 594.935 140.238 594.795 138.483 593.922L131.499 590.449Z" fill="white"/>
<path d="M158.578 555.568C160.235 556.497 161.626 555.959 162.751 553.953L164.806 550.29L159.834 547.502L157.78 551.165C156.655 553.171 156.921 554.639 158.578 555.568ZM158.002 546.474C156.746 545.77 155.636 545.583 154.671 545.913C153.716 546.226 152.945 546.906 152.358 547.953C151.918 548.738 151.61 549.574 151.433 550.461C151.239 551.338 151.177 552.186 151.245 553.004L149.162 553.039C149.115 552.509 149.123 551.963 149.186 551.402C149.258 550.823 149.37 550.255 149.522 549.698C149.656 549.132 149.82 548.593 150.015 548.083C150.219 547.555 150.438 547.082 150.673 546.664C151.299 545.547 151.983 544.635 152.724 543.927C153.465 543.219 154.246 542.705 155.067 542.386C155.888 542.067 156.722 541.95 157.569 542.035C158.407 542.093 159.237 542.351 160.057 542.811L168.692 547.654L164.583 554.98C163.252 557.353 161.912 558.905 160.561 559.638C159.219 560.353 157.825 560.305 156.377 559.493C154.929 558.681 154.16 557.516 154.071 555.999C153.992 554.464 154.618 552.51 155.948 550.138L158.002 546.474Z" fill="white"/>
<path d="M180.846 499.673C180.07 500.886 179.835 502.088 180.14 503.281C180.439 504.446 181.356 505.519 182.889 506.5C184.422 507.481 185.788 507.868 186.988 507.663C188.182 507.429 189.167 506.706 189.943 505.493L191.964 502.334L182.867 496.514L180.846 499.673ZM196.25 500.09C197.041 500.596 197.66 501.206 198.107 501.919C198.57 502.642 198.843 503.458 198.927 504.367C199.021 505.258 198.904 506.24 198.574 507.311C198.256 508.366 197.714 509.491 196.949 510.687C196.69 511.091 196.376 511.508 196.007 511.937C195.665 512.359 195.276 512.763 194.84 513.149C194.42 513.545 193.963 513.906 193.47 514.231C193.005 514.551 192.527 514.815 192.037 515.024L191.087 513.169C191.841 512.844 192.559 512.39 193.241 511.806C193.941 511.232 194.533 510.566 195.018 509.808C195.826 508.545 196.16 507.393 196.018 506.352C195.876 505.312 195.199 504.404 193.986 503.628L193.733 503.466L191.712 506.625C190.969 507.787 190.138 508.752 189.22 509.518C188.314 510.267 187.367 510.801 186.38 511.119C185.392 511.438 184.393 511.534 183.381 511.409C182.379 511.267 181.407 510.894 180.464 510.29C179.52 509.687 178.774 508.96 178.226 508.111C177.688 507.244 177.356 506.296 177.232 505.267C177.107 504.237 177.194 503.154 177.495 502.016C177.806 500.862 178.333 499.703 179.077 498.541L183.362 491.844L196.25 500.09Z" fill="white"/>
<path d="M214.647 448.671L212.56 451.605C211.771 452.713 211.47 453.774 211.655 454.79C211.824 455.794 212.495 456.714 213.669 457.549L221.124 462.854L218.688 466.276L211.233 460.971C209.571 459.788 208.655 458.35 208.485 456.658C208.31 454.938 208.924 453.092 210.327 451.12L212.936 447.454L214.647 448.671Z" fill="white"/>
<path d="M238.823 429.644C240.317 430.818 241.775 430.501 243.196 428.692L245.791 425.39L241.309 421.868L238.714 425.17C237.293 426.979 237.329 428.47 238.823 429.644ZM239.658 420.57C238.526 419.681 237.458 419.324 236.453 419.502C235.461 419.663 234.595 420.216 233.853 421.16C233.297 421.867 232.863 422.646 232.552 423.495C232.225 424.332 232.033 425.159 231.974 425.978L229.91 425.692C229.946 425.16 230.038 424.622 230.186 424.078C230.347 423.517 230.545 422.973 230.781 422.447C231.002 421.907 231.247 421.401 231.518 420.927C231.801 420.437 232.091 420.003 232.387 419.626C233.178 418.62 233.994 417.824 234.836 417.239C235.677 416.654 236.528 416.267 237.389 416.078C238.249 415.889 239.091 415.902 239.914 416.117C240.734 416.303 241.514 416.687 242.253 417.268L250.037 423.385L244.847 429.99C243.166 432.128 241.602 433.455 240.154 433.971C238.718 434.471 237.348 434.208 236.043 433.182C234.737 432.156 234.158 430.887 234.304 429.374C234.463 427.845 235.382 426.011 237.063 423.873L239.658 420.57Z" fill="white"/>
<path d="M262.479 382.071L272.938 370.496C274.855 368.374 276.655 367.157 278.339 366.845C280.021 366.505 281.619 367.018 283.132 368.386L290.144 374.721L287.328 377.838L280.317 371.502C279.248 370.537 278.243 370.114 277.3 370.232C276.342 370.337 275.408 370.895 274.496 371.904L273.49 373.017L283.507 382.067L280.691 385.184L270.674 376.133L266.853 380.362L276.87 389.413L274.054 392.529L262.479 382.071Z" fill="white"/>
<path d="M440.979 236.548L437.465 239.111L425.09 222.144L428.605 219.581L440.979 236.548Z" fill="white"/>
<path d="M470.871 215.331L467.376 217.66L462.136 209.795C461.337 208.597 460.467 207.939 459.524 207.823C458.57 207.689 457.527 208 456.395 208.754L453.149 210.916L460.635 222.151L457.14 224.48L448.49 211.497L455.231 207.006C457.611 205.42 459.655 204.683 461.363 204.794C463.077 204.878 464.5 205.769 465.631 207.466L470.871 215.331Z" fill="white"/>
<path d="M501.725 180.574C501.958 180.97 502.344 181.231 502.881 181.355C503.436 181.47 504.207 181.399 505.193 181.144L509.886 179.949C511.34 179.58 512.585 179.508 513.623 179.733C514.66 179.958 515.468 180.562 516.046 181.544C516.411 182.165 516.617 182.81 516.663 183.479C516.698 184.131 516.53 184.81 516.157 185.517C515.783 186.224 515.187 186.946 514.368 187.684C513.559 188.438 512.474 189.216 511.112 190.018C510.405 190.434 509.677 190.793 508.927 191.095C508.193 191.387 507.466 191.63 506.744 191.823C506.029 191.988 505.356 192.106 504.724 192.176C504.082 192.229 503.504 192.232 502.99 192.187L503.111 190.027C504.099 190.049 505.177 189.948 506.345 189.725C507.52 189.474 508.754 188.969 510.047 188.208C511.34 187.447 512.143 186.742 512.457 186.093C512.772 185.444 512.777 184.861 512.472 184.344C512.239 183.947 511.85 183.701 511.305 183.603C510.751 183.489 509.941 183.571 508.875 183.85L504.183 185.045C502.887 185.367 501.708 185.434 500.646 185.247C499.592 185.032 498.76 184.408 498.151 183.373C497.827 182.822 497.648 182.242 497.615 181.635C497.59 181 497.743 180.353 498.074 179.694C498.406 179.035 498.93 178.367 499.645 177.69C500.351 176.997 501.29 176.305 502.462 175.615C503.893 174.773 505.302 174.211 506.69 173.927C508.085 173.617 509.297 173.507 510.325 173.598L510.204 175.758C509.234 175.726 508.204 175.81 507.115 176.01C506.016 176.192 504.82 176.664 503.527 177.425C502.613 177.963 502.019 178.51 501.743 179.066C501.467 179.623 501.461 180.126 501.725 180.574Z" fill="white"/>
<path d="M542.713 155.432L540.191 156.759L539.213 154.901L541.735 153.573L539.499 149.326L543.215 147.369L545.451 151.617L549.566 149.45L550.544 151.309L546.429 153.475L550.063 160.377C550.417 161.049 550.791 161.587 551.184 161.99C551.586 162.367 551.989 162.64 552.396 162.81C552.81 162.954 553.223 163.008 553.633 162.972C554.044 162.937 554.435 162.821 554.807 162.626C555.338 162.346 555.809 161.996 556.221 161.576C556.623 161.138 556.941 160.734 557.175 160.362L558.88 161.668C558.489 162.213 557.995 162.756 557.398 163.296C556.818 163.827 556.192 164.27 555.52 164.624C553.52 165.677 551.72 165.992 550.118 165.569C548.517 165.146 547.26 164.068 546.347 162.333L542.713 155.432Z" fill="white"/>
<path d="M585.154 142.937C585.954 144.66 587.398 145.037 589.483 144.068L593.292 142.298L590.891 137.129L587.082 138.898C584.996 139.867 584.353 141.214 585.154 142.937ZM590.006 135.224C589.4 133.919 588.608 133.117 587.633 132.821C586.675 132.516 585.652 132.616 584.564 133.122C583.748 133.501 583.008 133.999 582.346 134.615C581.676 135.213 581.129 135.864 580.707 136.568L578.996 135.377C579.269 134.92 579.594 134.482 579.973 134.063C580.37 133.636 580.793 133.241 581.242 132.878C581.683 132.497 582.131 132.157 582.587 131.857C583.061 131.548 583.516 131.293 583.951 131.091C585.112 130.552 586.2 130.211 587.215 130.071C588.23 129.93 589.164 129.97 590.017 130.192C590.87 130.413 591.614 130.806 592.251 131.37C592.898 131.907 593.419 132.602 593.815 133.455L597.986 142.433L590.368 145.972C587.901 147.118 585.906 147.593 584.381 147.397C582.875 147.193 581.772 146.338 581.073 144.833C580.373 143.327 580.431 141.933 581.247 140.65C582.08 139.359 583.73 138.14 586.197 136.994L590.006 135.224Z" fill="white"/>
<path d="M636.025 110.586C634.686 111.115 633.791 111.953 633.34 113.098C632.901 114.218 633.016 115.624 633.685 117.317C634.354 119.009 635.235 120.124 636.329 120.659C637.433 121.169 638.655 121.159 639.994 120.63L643.482 119.251L639.512 109.207L636.025 110.586ZM648.27 119.94C648.616 120.814 648.761 121.67 648.705 122.51C648.657 123.367 648.401 124.189 647.937 124.974C647.492 125.752 646.823 126.479 645.928 127.155C645.053 127.824 643.955 128.419 642.634 128.941C642.188 129.118 641.689 129.272 641.139 129.403C640.615 129.546 640.063 129.646 639.483 129.703C638.911 129.778 638.33 129.804 637.739 129.779C637.175 129.766 636.633 129.7 636.114 129.583L636.428 127.523C637.23 127.701 638.078 127.753 638.974 127.678C639.876 127.623 640.746 127.429 641.583 127.098C642.978 126.547 643.923 125.808 644.417 124.882C644.911 123.955 644.893 122.823 644.364 121.483L644.254 121.204L640.766 122.583C639.483 123.09 638.245 123.386 637.052 123.47C635.878 123.547 634.798 123.425 633.812 123.106C632.825 122.786 631.958 122.279 631.211 121.585C630.482 120.884 629.912 120.012 629.5 118.971C629.088 117.929 628.909 116.903 628.961 115.894C629.032 114.876 629.319 113.914 629.82 113.006C630.321 112.098 631.027 111.271 631.936 110.524C632.864 109.77 633.969 109.14 635.253 108.633L642.646 105.711L648.27 119.94Z" fill="white"/>
<path d="M693.104 89.0816L689.695 90.2372C688.407 90.6738 687.541 91.358 687.096 92.29C686.645 93.203 686.651 94.3414 687.113 95.7052L690.051 104.371L686.073 105.719L683.136 97.0535C682.481 95.1214 682.58 93.4196 683.433 91.948C684.298 90.451 685.876 89.3141 688.168 88.5373L692.43 87.0927L693.104 89.0816Z" fill="white"/>
<path d="M723.809 87.8217C724.332 89.6484 725.699 90.2453 727.91 89.6124L731.948 88.4568L730.38 82.9768L726.342 84.1324C724.131 84.7653 723.287 85.995 723.809 87.8217ZM729.802 80.9579C729.406 79.5735 728.749 78.6589 727.831 78.2143C726.933 77.7641 725.907 77.7042 724.753 78.0343C723.888 78.282 723.08 78.6587 722.33 79.1645C721.575 79.6511 720.934 80.2091 720.407 80.8384L718.902 79.3968C719.242 78.9873 719.632 78.6053 720.072 78.2507C720.53 77.8906 721.01 77.5662 721.509 77.2776C722.004 76.9696 722.5 76.7029 722.997 76.4775C723.513 76.2465 724.002 76.0649 724.463 75.9329C725.694 75.5807 726.822 75.414 727.846 75.4327C728.871 75.4515 729.787 75.6365 730.595 75.9878C731.403 76.3391 732.078 76.8429 732.619 77.4992C733.174 78.1309 733.581 78.8985 733.84 79.8022L736.564 89.3201L728.488 91.6314C725.873 92.3798 723.828 92.5387 722.353 92.108C720.896 91.6718 719.94 90.6558 719.483 89.0599C719.026 87.464 719.3 86.0957 720.305 84.9552C721.33 83.8091 723.149 82.8619 725.764 82.1135L729.802 80.9579Z" fill="white"/>
<path d="M771.361 63.0008L786.622 59.7689C789.42 59.1764 791.592 59.248 793.138 59.9837C794.7 60.6956 795.692 62.0495 796.114 64.0452L798.072 73.2902L793.963 74.1603L792.005 64.9154C791.707 63.5066 791.142 62.5735 790.309 62.1161C789.472 61.6392 788.388 61.5416 787.058 61.8234L785.59 62.1341L788.387 75.3412L784.278 76.2114L781.481 63.0042L775.905 64.1851L778.702 77.3922L774.593 78.2624L771.361 63.0008Z" fill="white"/>
</svg>
