<svg width="1593" height="1594" viewBox="0 0 1593 1594" fill="none" xmlns="http://www.w3.org/2000/svg">
<path d="M811.225 24.9723L811.101 31.2711L806.752 31.1856L806.876 24.8868L797.417 9.99807L802.216 10.0924L809.055 20.8789L809.205 20.8818L816.463 10.3724L821.262 10.4667L811.225 24.9723Z" fill="white"/>
<path d="M838.034 30.8785C838.673 30.9163 839.279 30.8319 839.852 30.6253C840.425 30.4188 840.936 30.0783 841.385 29.604C841.835 29.1096 842.204 28.4603 842.492 27.6558C842.8 26.8526 842.988 25.872 843.056 24.714C843.125 23.556 843.053 22.5601 842.842 21.7262C842.651 20.8935 842.36 20.2151 841.97 19.6912C841.582 19.1474 841.115 18.7391 840.57 18.4665C840.025 18.1939 839.434 18.0387 838.795 18.001C838.156 17.9632 837.55 18.0477 836.977 18.2542C836.403 18.4608 835.892 18.8112 835.442 19.3055C834.993 19.7799 834.615 20.4187 834.307 21.2219C834.019 22.0263 833.841 23.0075 833.772 24.1655C833.704 25.3235 833.765 26.3189 833.957 27.1516C834.168 27.9855 834.468 28.6744 834.856 29.2182C835.246 29.7421 835.713 30.1404 836.258 30.413C836.803 30.6856 837.395 30.8408 838.034 30.8785ZM838.91 16.0544C840.247 16.1334 841.464 16.3956 842.56 16.841C843.676 17.2676 844.613 17.8639 845.369 18.6298C846.126 19.3758 846.693 20.2908 847.07 21.3749C847.468 22.4403 847.627 23.6417 847.548 24.9794C847.468 26.337 847.168 27.5214 846.647 28.5325C846.147 29.5447 845.476 30.3866 844.635 31.0582C843.795 31.7098 842.795 32.1816 841.636 32.4738C840.496 32.787 839.256 32.9042 837.919 32.8251C836.561 32.7449 835.335 32.4821 834.239 32.0367C833.142 31.6113 832.215 31.0256 831.458 30.2797C830.702 29.5137 830.125 28.5981 829.727 27.5328C829.349 26.4686 829.2 25.2578 829.28 23.9001C829.359 22.5625 829.649 21.3875 830.15 20.3753C830.671 19.3442 831.352 18.5029 832.192 17.8513C833.033 17.1798 834.023 16.6973 835.162 16.404C836.303 16.0907 837.552 15.9742 838.91 16.0544Z" fill="white"/>
<path d="M861.393 18.0932L865.573 18.5048L864.647 27.9093C864.506 29.3423 864.762 30.4126 865.416 31.1201C866.072 31.8077 867.077 32.2181 868.43 32.3513L872.311 32.7335L873.634 19.2985L877.814 19.71L876.285 35.235L868.224 34.4412C865.378 34.161 863.318 33.4457 862.045 32.2954C860.793 31.1271 860.267 29.5279 860.467 27.4977L861.393 18.0932Z" fill="white"/>
<path d="M907.714 25.4916L904.896 25.0638L905.211 22.9876L908.029 23.4154L908.75 18.6697L912.902 19.3001L912.182 24.0457L916.779 24.7437L916.464 26.8199L911.866 26.122L910.696 33.8336C910.582 34.585 910.563 35.2396 910.64 35.7975C910.74 36.3387 910.903 36.7983 911.129 37.1765C911.377 37.5379 911.678 37.8262 912.029 38.0414C912.381 38.2566 912.764 38.3958 913.18 38.4588C913.773 38.5489 914.36 38.5469 914.94 38.453C915.524 38.3393 916.02 38.2023 916.429 38.0418L917.026 40.1048C916.388 40.3113 915.668 40.4549 914.867 40.5356C914.086 40.6193 913.319 40.6041 912.568 40.49C910.333 40.1508 908.697 39.336 907.659 38.0455C906.621 36.7551 906.249 35.141 906.543 33.2032L907.714 25.4916Z" fill="white"/>
<path d="M927.37 26.3543L931.5 27.1201L929.777 36.4117C929.515 37.8276 929.679 38.9158 930.27 39.6763C930.865 40.4172 931.831 40.9116 933.168 41.1596L937.003 41.8706L939.464 28.5969L943.594 29.3626L940.75 44.7011L932.785 43.2244C929.973 42.7029 927.982 41.815 926.811 40.5605C925.663 39.2899 925.276 37.6518 925.647 35.646L927.37 26.3543Z" fill="white"/>
<path d="M962.036 46.9249C962.699 47.0748 963.326 47.114 963.916 47.0424C964.53 46.9557 965.083 46.7321 965.575 46.3716C966.086 46.0156 966.528 45.5106 966.901 44.8569C967.294 44.2075 967.603 43.3854 967.828 42.3905C968.053 41.3956 968.128 40.5206 968.052 39.7654C967.997 39.0146 967.814 38.3685 967.506 37.8272C967.218 37.2904 966.812 36.8604 966.291 36.5375C965.793 36.1994 965.213 35.9554 964.549 35.8055L960.892 34.9786L958.378 46.098L962.036 46.9249ZM953.818 47.2202L958.449 26.7371L962.545 27.6632L961.355 32.9303L965.012 33.7572C966.358 34.0614 967.538 34.5126 968.551 35.1107C969.584 35.7133 970.415 36.4344 971.045 37.274C971.676 38.1137 972.09 39.048 972.288 40.077C972.505 41.1104 972.482 42.2123 972.217 43.3828C971.953 44.5532 971.5 45.5581 970.859 46.3975C970.238 47.2413 969.462 47.9066 968.532 48.3934C967.601 48.8803 966.541 49.1736 965.349 49.2734C964.177 49.3775 962.919 49.2775 961.572 48.9732L953.818 47.2202Z" fill="white"/>
<path d="M991.959 54.7665C992.906 55.0196 993.829 55.0903 994.728 54.9787C995.647 54.8722 996.582 54.6254 997.534 54.2381L998.229 56.2869C997.774 56.5173 997.259 56.7006 996.685 56.8368C996.129 56.9782 995.536 57.0681 994.905 57.1064C994.298 57.1306 993.672 57.1083 993.028 57.0397C992.379 56.9904 991.745 56.8831 991.127 56.7179C989.755 56.3513 988.548 55.8321 987.506 55.1603C986.478 54.513 985.659 53.7454 985.047 52.8574C984.441 51.9501 984.05 50.9347 983.874 49.8112C983.718 48.6929 983.815 47.4767 984.166 46.1629C984.512 44.8683 985.022 43.7728 985.696 42.8765C986.395 41.9661 987.202 41.2708 988.117 40.7908C989.056 40.2966 990.085 40.0124 991.202 39.9383C992.324 39.8448 993.503 39.9634 994.74 40.2938C995.899 40.6037 996.944 41.0693 997.875 41.6908C998.806 42.3122 999.558 43.0618 1000.13 43.9395C1000.71 44.7978 1001.09 45.7597 1001.29 46.8253C1001.48 47.8908 1001.41 49.0225 1001.09 50.2205L1000.55 52.2493L988.174 48.942C987.978 50.6077 988.221 51.9045 988.905 52.8324C989.608 53.7655 990.626 54.4103 991.959 54.7665ZM994.236 42.1777C993.676 42.028 993.126 41.9948 992.586 42.0783C992.046 42.1617 991.531 42.3863 991.04 42.7519C990.568 43.1227 990.118 43.6442 989.69 44.3165C989.281 44.9939 988.928 45.8517 988.63 46.8899L996.745 49.0587C997.013 48.0539 997.13 47.1535 997.094 46.3573C997.058 45.5611 996.909 44.8795 996.647 44.3125C996.409 43.7313 996.067 43.2673 995.621 42.9205C995.2 42.5596 994.739 42.312 994.236 42.1777Z" fill="white"/>
<path d="M1164.92 118.299L1161.9 123.83L1158.08 121.747L1161.1 116.216L1159.58 98.6423L1163.8 100.941L1164.88 113.666L1165.02 113.738L1176.31 107.765L1180.52 110.064L1164.92 118.299Z" fill="white"/>
<path d="M1185.63 135.717C1186.18 136.045 1186.76 136.25 1187.36 136.332C1187.96 136.413 1188.57 136.347 1189.19 136.133C1189.82 135.902 1190.45 135.496 1191.07 134.916C1191.72 134.345 1192.34 133.562 1192.93 132.567C1193.53 131.571 1193.92 130.655 1194.12 129.817C1194.34 128.99 1194.39 128.255 1194.29 127.61C1194.19 126.948 1193.97 126.371 1193.61 125.877C1193.25 125.384 1192.8 124.973 1192.25 124.645C1191.7 124.316 1191.12 124.111 1190.52 124.03C1189.92 123.949 1189.3 124.023 1188.67 124.254C1188.06 124.468 1187.43 124.86 1186.78 125.43C1186.16 126.011 1185.54 126.799 1184.95 127.795C1184.35 128.79 1183.95 129.702 1183.73 130.529C1183.54 131.366 1183.48 132.115 1183.58 132.777C1183.68 133.422 1183.91 133.991 1184.27 134.484C1184.63 134.978 1185.08 135.389 1185.63 135.717ZM1193.25 122.971C1194.4 123.658 1195.36 124.453 1196.13 125.353C1196.92 126.247 1197.47 127.209 1197.79 128.237C1198.12 129.248 1198.2 130.322 1198.03 131.457C1197.89 132.586 1197.48 133.726 1196.79 134.876C1196.1 136.043 1195.28 136.955 1194.35 137.612C1193.44 138.279 1192.46 138.716 1191.4 138.923C1190.36 139.114 1189.25 139.071 1188.09 138.795C1186.93 138.546 1185.78 138.078 1184.63 137.391C1183.46 136.693 1182.5 135.893 1181.73 134.993C1180.95 134.109 1180.4 133.161 1180.07 132.15C1179.76 131.122 1179.67 130.043 1179.81 128.914C1179.96 127.796 1180.39 126.653 1181.09 125.486C1181.77 124.336 1182.57 123.427 1183.48 122.76C1184.42 122.086 1185.42 121.654 1186.46 121.464C1187.52 121.257 1188.62 121.286 1189.76 121.551C1190.92 121.8 1192.08 122.273 1193.25 122.971Z" fill="white"/>
<path d="M1212.07 135.042L1215.59 137.337L1210.42 145.252C1209.64 146.458 1209.37 147.526 1209.62 148.455C1209.89 149.368 1210.59 150.196 1211.73 150.939L1215 153.069L1222.37 141.762L1225.89 144.056L1217.37 157.123L1210.58 152.698C1208.19 151.135 1206.69 149.55 1206.09 147.942C1205.52 146.328 1205.79 144.666 1206.91 142.958L1212.07 135.042Z" fill="white"/>
<path d="M1249.9 163.094L1247.6 161.413L1248.83 159.717L1251.14 161.398L1253.97 157.521L1257.36 159.997L1254.53 163.874L1258.28 166.616L1257.05 168.312L1253.29 165.57L1248.69 171.87C1248.24 172.484 1247.92 173.056 1247.74 173.587C1247.57 174.113 1247.51 174.596 1247.53 175.035C1247.59 175.471 1247.72 175.865 1247.93 176.218C1248.14 176.572 1248.42 176.872 1248.76 177.12C1249.24 177.474 1249.76 177.743 1250.32 177.928C1250.89 178.096 1251.4 178.204 1251.83 178.25L1251.41 180.356C1250.75 180.244 1250.04 180.039 1249.3 179.741C1248.56 179.454 1247.89 179.087 1247.28 178.639C1245.45 177.306 1244.38 175.828 1244.05 174.204C1243.73 172.58 1244.14 170.977 1245.3 169.394L1249.9 163.094Z" fill="white"/>
<path d="M1267.19 173.128L1270.5 175.715L1264.68 183.16C1263.79 184.294 1263.44 185.336 1263.61 186.283C1263.79 187.215 1264.42 188.1 1265.49 188.937L1268.57 191.339L1276.88 180.703L1280.19 183.29L1270.58 195.58L1264.2 190.592C1261.95 188.831 1260.59 187.123 1260.13 185.47C1259.7 183.813 1260.11 182.181 1261.37 180.573L1267.19 173.128Z" fill="white"/>
<path d="M1288.47 207.412C1288.99 207.851 1289.53 208.175 1290.09 208.384C1290.67 208.59 1291.27 208.647 1291.87 208.554C1292.49 208.474 1293.11 208.231 1293.74 207.823C1294.39 207.428 1295.05 206.842 1295.7 206.063C1296.36 205.284 1296.83 204.542 1297.12 203.838C1297.41 203.146 1297.55 202.489 1297.53 201.866C1297.52 201.257 1297.36 200.688 1297.04 200.161C1296.76 199.631 1296.35 199.147 1295.84 198.708L1292.97 196.286L1285.61 204.99L1288.47 207.412ZM1281.05 203.88L1294.61 187.847L1297.82 190.56L1294.33 194.683L1297.19 197.105C1298.25 197.996 1299.08 198.941 1299.71 199.939C1300.34 200.95 1300.75 201.973 1300.92 203.009C1301.09 204.045 1301.03 205.065 1300.73 206.069C1300.44 207.086 1299.92 208.053 1299.14 208.969C1298.37 209.885 1297.5 210.568 1296.54 211.017C1295.6 211.478 1294.61 211.71 1293.56 211.713C1292.51 211.715 1291.43 211.486 1290.33 211.024C1289.24 210.576 1288.17 209.906 1287.12 209.015L1281.05 203.88Z" fill="white"/>
<path d="M1311.23 228.02C1311.95 228.681 1312.74 229.169 1313.59 229.484C1314.45 229.813 1315.4 230.025 1316.42 230.121L1316.09 232.259C1315.58 232.254 1315.04 232.179 1314.47 232.035C1313.91 231.905 1313.34 231.711 1312.76 231.454C1312.21 231.196 1311.67 230.888 1311.13 230.53C1310.58 230.187 1310.06 229.8 1309.59 229.368C1308.54 228.41 1307.71 227.394 1307.09 226.317C1306.48 225.269 1306.11 224.21 1305.97 223.14C1305.85 222.056 1305.97 220.974 1306.34 219.896C1306.71 218.831 1307.36 217.797 1308.28 216.793C1309.18 215.803 1310.14 215.066 1311.15 214.582C1312.19 214.096 1313.23 213.851 1314.26 213.846C1315.32 213.841 1316.36 214.062 1317.39 214.511C1318.43 214.946 1319.42 215.594 1320.37 216.458C1321.25 217.267 1321.96 218.162 1322.5 219.142C1323.04 220.123 1323.37 221.135 1323.47 222.178C1323.59 223.206 1323.49 224.237 1323.16 225.271C1322.84 226.305 1322.26 227.279 1321.43 228.195L1320.01 229.745L1310.55 221.107C1309.61 222.494 1309.23 223.757 1309.41 224.896C1309.6 226.048 1310.21 227.089 1311.23 228.02ZM1319.05 217.897C1318.62 217.506 1318.15 217.223 1317.63 217.049C1317.11 216.874 1316.55 216.836 1315.95 216.934C1315.36 217.045 1314.72 217.301 1314.03 217.7C1313.36 218.113 1312.65 218.711 1311.9 219.495L1318.11 225.16C1318.81 224.392 1319.33 223.647 1319.66 222.924C1320 222.201 1320.18 221.527 1320.21 220.903C1320.26 220.277 1320.17 219.708 1319.94 219.195C1319.73 218.681 1319.43 218.248 1319.05 217.897Z" fill="white"/>
<path d="M1435.69 363.998L1430.47 367.529L1428.03 363.926L1433.25 360.396L1439.96 344.082L1442.65 348.057L1437.78 359.865L1437.87 359.989L1450.64 359.859L1453.33 363.834L1435.69 363.998Z" fill="white"/>
<path d="M1446.06 388.903C1446.4 389.447 1446.82 389.894 1447.32 390.243C1447.82 390.592 1448.39 390.813 1449.04 390.906C1449.7 390.988 1450.44 390.915 1451.27 390.686C1452.1 390.475 1453.01 390.063 1453.99 389.451C1454.98 388.839 1455.75 388.206 1456.31 387.553C1456.88 386.916 1457.27 386.288 1457.47 385.667C1457.69 385.036 1457.76 384.419 1457.66 383.817C1457.57 383.215 1457.36 382.642 1457.02 382.098C1456.68 381.554 1456.26 381.108 1455.77 380.759C1455.27 380.41 1454.68 380.194 1454.02 380.111C1453.38 380.018 1452.64 380.078 1451.8 380.289C1450.98 380.518 1450.07 380.938 1449.09 381.55C1448.1 382.162 1447.33 382.787 1446.76 383.423C1446.2 384.077 1445.81 384.719 1445.59 385.35C1445.38 385.971 1445.33 386.582 1445.42 387.184C1445.51 387.787 1445.72 388.36 1446.06 388.903ZM1458.68 381.069C1459.38 382.208 1459.87 383.353 1460.14 384.505C1460.44 385.663 1460.49 386.772 1460.3 387.831C1460.13 388.88 1459.71 389.871 1459.04 390.804C1458.4 391.744 1457.51 392.567 1456.37 393.274C1455.21 393.991 1454.07 394.429 1452.95 394.587C1451.83 394.762 1450.76 394.699 1449.72 394.399C1448.71 394.089 1447.74 393.545 1446.84 392.766C1445.92 392.015 1445.11 391.071 1444.41 389.932C1443.69 388.777 1443.2 387.623 1442.93 386.471C1442.64 385.33 1442.59 384.235 1442.76 383.186C1442.95 382.126 1443.36 381.127 1444 380.187C1444.66 379.265 1445.56 378.445 1446.71 377.728C1447.85 377.021 1448.98 376.58 1450.1 376.405C1451.24 376.236 1452.32 376.307 1453.34 376.618C1454.37 376.918 1455.33 377.448 1456.23 378.21C1457.14 378.961 1457.96 379.914 1458.68 381.069Z" fill="white"/>
<path d="M1469.88 400.456L1471.96 404.108L1463.74 408.776C1462.49 409.487 1461.76 410.313 1461.56 411.255C1461.38 412.188 1461.62 413.245 1462.29 414.428L1464.22 417.819L1475.96 411.152L1478.03 414.804L1464.47 422.508L1460.47 415.465C1459.06 412.978 1458.45 410.883 1458.66 409.179C1458.89 407.483 1459.89 406.131 1461.67 405.123L1469.88 400.456Z" fill="white"/>
<path d="M1490.65 442.754L1489.37 440.205L1491.25 439.266L1492.53 441.815L1496.82 439.669L1498.7 443.426L1494.4 445.572L1496.48 449.731L1494.6 450.67L1492.53 446.511L1485.55 449.999C1484.87 450.339 1484.32 450.701 1483.91 451.085C1483.53 451.479 1483.25 451.877 1483.07 452.279C1482.91 452.691 1482.85 453.102 1482.88 453.514C1482.9 453.925 1483.01 454.319 1483.2 454.694C1483.47 455.231 1483.81 455.71 1484.22 456.13C1484.65 456.541 1485.05 456.868 1485.41 457.109L1484.07 458.786C1483.54 458.384 1483 457.878 1482.48 457.27C1481.96 456.68 1481.53 456.045 1481.19 455.365C1480.18 453.343 1479.9 451.537 1480.36 449.945C1480.81 448.353 1481.92 447.118 1483.67 446.242L1490.65 442.754Z" fill="white"/>
<path d="M1501.43 459.663L1503.19 463.48L1494.6 467.422C1493.29 468.023 1492.49 468.784 1492.21 469.705C1491.95 470.618 1492.1 471.693 1492.67 472.929L1494.3 476.473L1506.57 470.841L1508.32 474.658L1494.14 481.166L1490.76 473.805C1489.57 471.206 1489.15 469.066 1489.5 467.387C1489.88 465.717 1490.99 464.456 1492.85 463.605L1501.43 459.663Z" fill="white"/>
<path d="M1504.63 499.952C1504.89 500.58 1505.22 501.115 1505.61 501.557C1506.04 502.009 1506.54 502.332 1507.12 502.527C1507.7 502.74 1508.37 502.811 1509.12 502.739C1509.88 502.687 1510.73 502.466 1511.67 502.077C1512.61 501.688 1513.37 501.245 1513.94 500.749C1514.53 500.271 1514.95 499.75 1515.22 499.187C1515.49 498.642 1515.61 498.063 1515.57 497.45C1515.56 496.849 1515.42 496.234 1515.17 495.605L1513.74 492.138L1503.2 496.485L1504.63 499.952ZM1499.65 493.403L1519.07 485.396L1520.67 489.279L1515.68 491.338L1517.11 494.804C1517.63 496.08 1517.94 497.304 1518.04 498.477C1518.14 499.668 1518.03 500.763 1517.71 501.762C1517.38 502.761 1516.86 503.637 1516.13 504.392C1515.41 505.164 1514.49 505.78 1513.39 506.237C1512.28 506.695 1511.19 506.903 1510.14 506.862C1509.09 506.84 1508.1 506.589 1507.17 506.109C1506.23 505.628 1505.38 504.93 1504.61 504.013C1503.85 503.115 1503.21 502.028 1502.69 500.752L1499.65 493.403Z" fill="white"/>
<path d="M1515.29 528.53C1515.63 529.45 1516.1 530.245 1516.71 530.916C1517.33 531.605 1518.07 532.227 1518.94 532.782L1517.66 534.531C1517.21 534.292 1516.77 533.977 1516.32 533.585C1515.89 533.213 1515.47 532.78 1515.08 532.286C1514.71 531.804 1514.37 531.28 1514.05 530.714C1513.72 530.155 1513.44 529.575 1513.22 528.974C1512.73 527.642 1512.46 526.356 1512.4 525.118C1512.34 523.905 1512.5 522.793 1512.87 521.781C1513.26 520.763 1513.87 519.858 1514.68 519.067C1515.51 518.295 1516.56 517.674 1517.83 517.203C1519.09 516.74 1520.28 516.526 1521.4 516.561C1522.55 516.607 1523.58 516.866 1524.5 517.337C1525.45 517.82 1526.27 518.497 1526.97 519.367C1527.7 520.23 1528.28 521.263 1528.72 522.464C1529.14 523.59 1529.36 524.712 1529.39 525.831C1529.42 526.95 1529.24 527.997 1528.85 528.971C1528.48 529.938 1527.92 530.806 1527.16 531.577C1526.4 532.347 1525.43 532.947 1524.27 533.375L1522.3 534.101L1517.87 522.081C1516.4 522.88 1515.48 523.826 1515.11 524.919C1514.76 526.032 1514.81 527.235 1515.29 528.53ZM1526.89 523.138C1526.69 522.593 1526.4 522.125 1526.02 521.732C1525.64 521.338 1525.16 521.047 1524.58 520.856C1524.01 520.684 1523.32 520.617 1522.53 520.654C1521.74 520.711 1520.83 520.916 1519.81 521.271L1522.71 529.153C1523.69 528.793 1524.49 528.37 1525.12 527.882C1525.75 527.394 1526.23 526.879 1526.54 526.338C1526.88 525.808 1527.06 525.262 1527.08 524.698C1527.14 524.146 1527.07 523.626 1526.89 523.138Z" fill="white"/>
<path d="M1563.01 706.242L1556.75 706.966L1556.25 702.645L1562.51 701.921L1575.99 690.546L1576.54 695.314L1566.77 703.542L1566.79 703.691L1578.18 709.47L1578.73 714.238L1563.01 706.242Z" fill="white"/>
<path d="M1560.72 733.264C1560.77 733.902 1560.94 734.491 1561.22 735.031C1561.5 735.571 1561.91 736.032 1562.44 736.413C1562.99 736.792 1563.68 737.07 1564.52 737.247C1565.35 737.444 1566.35 737.499 1567.51 737.411C1568.66 737.323 1569.64 737.118 1570.44 736.797C1571.24 736.495 1571.87 736.116 1572.34 735.659C1572.83 735.201 1573.17 734.684 1573.36 734.107C1573.56 733.531 1573.64 732.923 1573.59 732.285C1573.54 731.647 1573.37 731.058 1573.09 730.518C1572.81 729.977 1572.39 729.518 1571.84 729.138C1571.31 728.757 1570.63 728.468 1569.79 728.271C1568.96 728.094 1567.96 728.05 1566.8 728.138C1565.65 728.226 1564.67 728.42 1563.87 728.722C1563.07 729.043 1562.43 729.433 1561.94 729.891C1561.48 730.348 1561.14 730.865 1560.95 731.441C1560.75 732.018 1560.68 732.625 1560.72 733.264ZM1575.53 732.137C1575.63 733.473 1575.54 734.714 1575.24 735.86C1574.97 737.024 1574.51 738.032 1573.85 738.884C1573.21 739.735 1572.38 740.42 1571.36 740.939C1570.35 741.477 1569.19 741.796 1567.85 741.898C1566.49 742.001 1565.28 741.863 1564.21 741.483C1563.14 741.123 1562.21 740.572 1561.43 739.829C1560.68 739.084 1560.07 738.157 1559.63 737.048C1559.16 735.96 1558.88 734.748 1558.78 733.411C1558.68 732.055 1558.77 730.805 1559.07 729.659C1559.34 728.515 1559.8 727.517 1560.43 726.667C1561.09 725.814 1561.92 725.119 1562.92 724.582C1563.93 724.064 1565.11 723.754 1566.46 723.651C1567.8 723.549 1569 723.678 1570.07 724.038C1571.16 724.416 1572.09 724.978 1572.85 725.722C1573.63 726.465 1574.24 727.382 1574.68 728.471C1575.14 729.559 1575.43 730.781 1575.53 732.137Z" fill="white"/>
<path d="M1576.54 754.824L1576.69 759.021L1567.25 759.368C1565.81 759.421 1564.78 759.819 1564.17 760.562C1563.58 761.304 1563.31 762.355 1563.36 763.714L1563.5 767.612L1576.99 767.116L1577.15 771.313L1561.56 771.886L1561.26 763.791C1561.15 760.933 1561.59 758.796 1562.55 757.38C1563.54 755.982 1565.06 755.246 1567.1 755.171L1576.54 754.824Z" fill="white"/>
<path d="M1575.44 802.614L1575.49 799.764L1577.59 799.798L1577.54 802.648L1582.34 802.724L1582.27 806.924L1577.48 806.847L1577.4 811.496L1575.3 811.463L1575.38 806.813L1567.58 806.689C1566.82 806.676 1566.17 806.746 1565.62 806.897C1565.1 807.069 1564.67 807.292 1564.32 807.567C1564 807.861 1563.75 808.198 1563.59 808.575C1563.42 808.952 1563.33 809.351 1563.33 809.771C1563.32 810.371 1563.4 810.952 1563.57 811.515C1563.76 812.078 1563.96 812.551 1564.18 812.935L1562.21 813.804C1561.92 813.199 1561.68 812.505 1561.5 811.722C1561.31 810.959 1561.22 810.197 1561.23 809.437C1561.27 807.178 1561.86 805.447 1563 804.245C1564.13 803.043 1565.68 802.458 1567.64 802.489L1575.44 802.614Z" fill="white"/>
<path d="M1577.2 822.847L1577 827.042L1567.56 826.58C1566.12 826.509 1565.06 826.818 1564.39 827.506C1563.74 828.194 1563.38 829.218 1563.31 830.576L1563.12 834.472L1576.6 835.132L1576.4 839.327L1560.81 838.564L1561.21 830.474C1561.35 827.617 1561.96 825.525 1563.05 824.196C1564.16 822.889 1565.73 822.285 1567.76 822.385L1577.2 822.847Z" fill="white"/>
<path d="M1561.46 860.178C1561.4 860.855 1561.44 861.482 1561.59 862.057C1561.76 862.654 1562.06 863.172 1562.48 863.611C1562.9 864.069 1563.46 864.44 1564.16 864.722C1564.85 865.024 1565.71 865.22 1566.73 865.309C1567.74 865.399 1568.62 865.355 1569.36 865.179C1570.09 865.023 1570.71 864.756 1571.21 864.378C1571.7 864.02 1572.07 863.561 1572.32 863C1572.59 862.462 1572.75 861.854 1572.81 861.176L1573.14 857.441L1561.78 856.442L1561.46 860.178ZM1560.06 852.075L1580.98 853.914L1580.61 858.098L1575.23 857.625L1574.9 861.36C1574.78 862.735 1574.49 863.964 1574.04 865.049C1573.58 866.153 1572.98 867.073 1572.23 867.811C1571.48 868.548 1570.61 869.084 1569.62 869.418C1568.62 869.773 1567.53 869.897 1566.33 869.792C1565.14 869.687 1564.08 869.373 1563.16 868.851C1562.24 868.348 1561.48 867.669 1560.87 866.812C1560.27 865.956 1559.83 864.944 1559.57 863.777C1559.31 862.63 1559.24 861.369 1559.36 859.994L1560.06 852.075Z" fill="white"/>
<path d="M1557.74 890.628C1557.61 891.6 1557.67 892.525 1557.9 893.401C1558.13 894.296 1558.5 895.19 1559.01 896.081L1557.07 897.046C1556.79 896.626 1556.53 896.141 1556.32 895.59C1556.11 895.059 1555.94 894.483 1555.81 893.863C1555.71 893.265 1555.65 892.642 1555.63 891.994C1555.59 891.344 1555.61 890.702 1555.69 890.067C1555.87 888.658 1556.22 887.392 1556.74 886.269C1557.25 885.164 1557.9 884.248 1558.69 883.522C1559.51 882.799 1560.46 882.275 1561.55 881.949C1562.64 881.643 1563.86 881.575 1565.21 881.745C1566.54 881.914 1567.69 882.271 1568.67 882.818C1569.67 883.388 1570.47 884.093 1571.06 884.935C1571.68 885.799 1572.1 886.78 1572.33 887.877C1572.57 888.976 1572.61 890.161 1572.45 891.43C1572.3 892.621 1571.98 893.719 1571.49 894.726C1571 895.732 1570.36 896.579 1569.57 897.265C1568.79 897.953 1567.89 898.464 1566.86 898.798C1565.83 899.131 1564.7 899.22 1563.47 899.064L1561.39 898.801L1563 886.092C1561.32 886.122 1560.07 886.538 1559.24 887.341C1558.41 888.163 1557.91 889.259 1557.74 890.628ZM1570.52 891.186C1570.59 890.61 1570.55 890.061 1570.39 889.537C1570.24 889.014 1569.94 888.533 1569.52 888.096C1569.08 887.679 1568.51 887.303 1567.78 886.97C1567.06 886.656 1566.16 886.422 1565.09 886.266L1564.04 894.6C1565.07 894.73 1565.98 894.724 1566.76 894.582C1567.54 894.439 1568.2 894.199 1568.73 893.862C1569.27 893.548 1569.68 893.147 1569.97 892.659C1570.27 892.193 1570.45 891.702 1570.52 891.186Z" fill="white"/>
<path d="M1518.28 1070.34L1512.39 1068.1L1513.94 1064.03L1519.83 1066.27L1537.03 1062.39L1535.33 1066.87L1522.86 1069.67L1522.81 1069.81L1530.26 1080.19L1528.55 1084.68L1518.28 1070.34Z" fill="white"/>
<path d="M1503.89 1093.05C1503.64 1093.64 1503.51 1094.23 1503.51 1094.84C1503.52 1095.45 1503.66 1096.05 1503.96 1096.63C1504.27 1097.22 1504.76 1097.79 1505.42 1098.33C1506.07 1098.89 1506.93 1099.4 1508 1099.85C1509.07 1100.31 1510.03 1100.58 1510.88 1100.66C1511.73 1100.76 1512.47 1100.72 1513.09 1100.53C1513.74 1100.34 1514.28 1100.04 1514.72 1099.62C1515.16 1099.2 1515.5 1098.69 1515.76 1098.11C1516.01 1097.52 1516.13 1096.92 1516.13 1096.31C1516.13 1095.7 1515.97 1095.1 1515.66 1094.51C1515.36 1093.93 1514.89 1093.36 1514.24 1092.79C1513.58 1092.25 1512.71 1091.75 1511.65 1091.3C1510.58 1090.84 1509.62 1090.57 1508.77 1090.47C1507.92 1090.38 1507.17 1090.43 1506.52 1090.62C1505.9 1090.81 1505.37 1091.11 1504.93 1091.53C1504.49 1091.95 1504.14 1092.46 1503.89 1093.05ZM1517.55 1098.87C1517.02 1100.1 1516.37 1101.16 1515.58 1102.04C1514.8 1102.95 1513.92 1103.63 1512.95 1104.08C1511.99 1104.54 1510.94 1104.77 1509.79 1104.76C1508.65 1104.77 1507.47 1104.52 1506.23 1103.99C1504.98 1103.46 1503.97 1102.78 1503.19 1101.95C1502.41 1101.13 1501.84 1100.22 1501.49 1099.2C1501.16 1098.19 1501.06 1097.09 1501.17 1095.9C1501.26 1094.72 1501.57 1093.51 1502.09 1092.28C1502.63 1091.03 1503.29 1089.96 1504.08 1089.08C1504.85 1088.19 1505.71 1087.52 1506.67 1087.06C1507.65 1086.6 1508.7 1086.37 1509.84 1086.35C1510.97 1086.36 1512.16 1086.63 1513.41 1087.16C1514.64 1087.68 1515.65 1088.35 1516.44 1089.17C1517.23 1090.01 1517.79 1090.93 1518.12 1091.94C1518.47 1092.96 1518.59 1094.05 1518.48 1095.22C1518.39 1096.4 1518.08 1097.62 1517.55 1098.87Z" fill="white"/>
<path d="M1508.03 1119.39L1506.23 1123.19L1497.69 1119.14C1496.39 1118.52 1495.3 1118.4 1494.41 1118.78C1493.54 1119.16 1492.81 1119.97 1492.23 1121.2L1490.56 1124.72L1502.76 1130.51L1500.96 1134.3L1486.86 1127.62L1490.33 1120.3C1491.56 1117.71 1492.93 1116.02 1494.44 1115.21C1495.96 1114.42 1497.65 1114.47 1499.49 1115.34L1508.03 1119.39Z" fill="white"/>
<path d="M1485.29 1160.72L1486.65 1158.22L1488.5 1159.22L1487.14 1161.72L1491.36 1164.01L1489.37 1167.7L1485.14 1165.42L1482.93 1169.51L1481.08 1168.51L1483.3 1164.42L1476.43 1160.71C1475.77 1160.35 1475.16 1160.11 1474.61 1159.99C1474.06 1159.9 1473.57 1159.9 1473.14 1159.98C1472.72 1160.1 1472.35 1160.28 1472.02 1160.54C1471.7 1160.8 1471.44 1161.11 1471.24 1161.48C1470.96 1162.01 1470.76 1162.56 1470.65 1163.14C1470.56 1163.73 1470.52 1164.24 1470.54 1164.68L1468.39 1164.54C1468.41 1163.87 1468.52 1163.15 1468.72 1162.37C1468.9 1161.6 1469.18 1160.89 1469.54 1160.22C1470.61 1158.23 1471.93 1156.97 1473.5 1156.42C1475.06 1155.88 1476.71 1156.08 1478.43 1157.01L1485.29 1160.72Z" fill="white"/>
<path d="M1477.69 1179.17L1475.58 1182.8L1467.42 1178.03C1466.17 1177.3 1465.09 1177.09 1464.18 1177.39C1463.28 1177.7 1462.49 1178.44 1461.8 1179.61L1459.83 1182.98L1471.49 1189.79L1469.37 1193.42L1455.9 1185.55L1459.99 1178.55C1461.43 1176.08 1462.94 1174.51 1464.52 1173.83C1466.1 1173.18 1467.77 1173.37 1469.53 1174.4L1477.69 1179.17Z" fill="white"/>
<path d="M1446.63 1204.8C1446.26 1205.37 1446.01 1205.95 1445.88 1206.53C1445.75 1207.13 1445.78 1207.73 1445.95 1208.32C1446.11 1208.92 1446.44 1209.5 1446.93 1210.08C1447.4 1210.67 1448.07 1211.23 1448.93 1211.78C1449.79 1212.33 1450.59 1212.7 1451.33 1212.88C1452.05 1213.08 1452.72 1213.13 1453.34 1213.02C1453.94 1212.93 1454.48 1212.7 1454.96 1212.32C1455.45 1211.96 1455.87 1211.5 1456.24 1210.93L1458.26 1207.76L1448.64 1201.64L1446.63 1204.8ZM1449.13 1196.97L1466.84 1208.25L1464.58 1211.79L1460.03 1208.89L1458.01 1212.05C1457.27 1213.22 1456.44 1214.17 1455.54 1214.93C1454.62 1215.69 1453.66 1216.23 1452.66 1216.54C1451.66 1216.85 1450.64 1216.92 1449.6 1216.76C1448.56 1216.62 1447.53 1216.22 1446.51 1215.58C1445.5 1214.93 1444.71 1214.17 1444.14 1213.28C1443.55 1212.41 1443.19 1211.45 1443.05 1210.41C1442.9 1209.37 1442.99 1208.28 1443.3 1207.12C1443.59 1205.98 1444.11 1204.83 1444.86 1203.67L1449.13 1196.97Z" fill="white"/>
<path d="M1429.29 1230.07C1428.73 1230.88 1428.35 1231.72 1428.15 1232.6C1427.94 1233.51 1427.86 1234.47 1427.9 1235.5L1425.74 1235.46C1425.68 1234.95 1425.68 1234.41 1425.74 1233.82C1425.8 1233.25 1425.91 1232.66 1426.09 1232.05C1426.27 1231.47 1426.5 1230.89 1426.79 1230.31C1427.05 1229.71 1427.37 1229.15 1427.73 1228.63C1428.54 1227.46 1429.44 1226.5 1430.42 1225.75C1431.38 1225 1432.38 1224.48 1433.42 1224.21C1434.48 1223.94 1435.56 1223.92 1436.68 1224.13C1437.79 1224.36 1438.9 1224.87 1440.02 1225.64C1441.12 1226.4 1441.98 1227.25 1442.59 1228.19C1443.21 1229.15 1443.6 1230.15 1443.74 1231.17C1443.89 1232.22 1443.81 1233.29 1443.5 1234.36C1443.21 1235.45 1442.7 1236.52 1441.97 1237.57C1441.29 1238.56 1440.5 1239.39 1439.6 1240.05C1438.7 1240.72 1437.74 1241.18 1436.72 1241.42C1435.72 1241.67 1434.68 1241.71 1433.61 1241.53C1432.54 1241.35 1431.5 1240.91 1430.48 1240.2L1428.76 1239.01L1436.05 1228.47C1434.55 1227.73 1433.24 1227.52 1432.14 1227.85C1431.02 1228.19 1430.07 1228.93 1429.29 1230.07ZM1440.37 1236.46C1440.7 1235.99 1440.91 1235.48 1441.02 1234.94C1441.12 1234.41 1441.08 1233.85 1440.91 1233.26C1440.72 1232.69 1440.38 1232.09 1439.89 1231.46C1439.39 1230.85 1438.7 1230.23 1437.82 1229.6L1433.04 1236.5C1433.9 1237.09 1434.71 1237.51 1435.47 1237.74C1436.23 1237.98 1436.92 1238.07 1437.54 1238.01C1438.17 1237.98 1438.72 1237.82 1439.2 1237.52C1439.68 1237.24 1440.07 1236.89 1440.37 1236.46Z" fill="white"/>
<path d="M1311.24 1371.61L1307.04 1366.92L1310.28 1364.02L1314.48 1368.71L1331.55 1373.17L1327.97 1376.37L1315.61 1373.13L1315.5 1373.23L1317.34 1385.87L1313.77 1389.07L1311.24 1371.61Z" fill="white"/>
<path d="M1287.87 1385.3C1287.38 1385.71 1286.99 1386.19 1286.71 1386.73C1286.43 1387.27 1286.29 1387.87 1286.29 1388.52C1286.29 1389.19 1286.46 1389.91 1286.8 1390.7C1287.12 1391.5 1287.65 1392.34 1288.39 1393.24C1289.13 1394.13 1289.86 1394.81 1290.58 1395.28C1291.29 1395.76 1291.97 1396.06 1292.61 1396.18C1293.26 1396.31 1293.88 1396.29 1294.47 1396.12C1295.05 1395.95 1295.59 1395.66 1296.09 1395.25C1296.58 1394.84 1296.96 1394.37 1297.24 1393.83C1297.52 1393.28 1297.66 1392.68 1297.65 1392.01C1297.66 1391.36 1297.5 1390.63 1297.18 1389.83C1296.84 1389.05 1296.3 1388.21 1295.56 1387.32C1294.82 1386.42 1294.1 1385.73 1293.39 1385.25C1292.67 1384.79 1291.98 1384.49 1291.33 1384.35C1290.69 1384.24 1290.07 1384.26 1289.49 1384.43C1288.9 1384.61 1288.36 1384.9 1287.87 1385.3ZM1297.33 1396.75C1296.29 1397.61 1295.22 1398.24 1294.12 1398.66C1293.01 1399.11 1291.92 1399.31 1290.84 1399.27C1289.78 1399.24 1288.74 1398.95 1287.73 1398.42C1286.71 1397.91 1285.78 1397.14 1284.92 1396.1C1284.06 1395.05 1283.47 1393.98 1283.16 1392.89C1282.84 1391.81 1282.76 1390.73 1282.92 1389.67C1283.09 1388.62 1283.5 1387.59 1284.15 1386.59C1284.77 1385.58 1285.6 1384.65 1286.63 1383.8C1287.68 1382.93 1288.75 1382.29 1289.86 1381.87C1290.95 1381.43 1292.03 1381.23 1293.09 1381.26C1294.17 1381.31 1295.21 1381.59 1296.23 1382.09C1297.23 1382.62 1298.17 1383.4 1299.03 1384.45C1299.89 1385.48 1300.47 1386.54 1300.8 1387.62C1301.12 1388.73 1301.19 1389.81 1301.02 1390.86C1300.86 1391.93 1300.47 1392.95 1299.83 1393.94C1299.21 1394.95 1298.38 1395.89 1297.33 1396.75Z" fill="white"/>
<path d="M1279.56 1410.51L1276.22 1413.05L1270.5 1405.54C1269.62 1404.39 1268.71 1403.78 1267.74 1403.71C1266.8 1403.65 1265.78 1404.04 1264.7 1404.86L1261.6 1407.23L1269.78 1417.96L1266.44 1420.51L1256.98 1408.1L1263.43 1403.19C1265.7 1401.46 1267.7 1400.58 1269.41 1400.55C1271.12 1400.56 1272.6 1401.37 1273.84 1402.99L1279.56 1410.51Z" fill="white"/>
<path d="M1240.41 1436.79L1242.76 1435.19L1243.95 1436.92L1241.59 1438.53L1244.3 1442.49L1240.83 1444.86L1238.12 1440.89L1234.28 1443.51L1233.1 1441.78L1236.94 1439.16L1232.55 1432.71C1232.12 1432.09 1231.68 1431.6 1231.25 1431.24C1230.81 1430.91 1230.37 1430.69 1229.95 1430.56C1229.52 1430.47 1229.11 1430.46 1228.7 1430.54C1228.3 1430.62 1227.92 1430.78 1227.58 1431.02C1227.08 1431.36 1226.65 1431.76 1226.29 1432.22C1225.94 1432.7 1225.67 1433.14 1225.48 1433.54L1223.64 1432.43C1223.97 1431.85 1224.39 1431.25 1224.93 1430.65C1225.44 1430.06 1226.01 1429.54 1226.64 1429.12C1228.51 1427.84 1230.26 1427.32 1231.9 1427.56C1233.54 1427.8 1234.91 1428.73 1236.02 1430.35L1240.41 1436.79Z" fill="white"/>
<path d="M1225.25 1449.66L1221.7 1451.92L1216.64 1443.94C1215.87 1442.72 1215 1442.04 1214.05 1441.88C1213.11 1441.75 1212.07 1442.04 1210.92 1442.77L1207.63 1444.86L1214.87 1456.26L1211.32 1458.51L1202.96 1445.34L1209.8 1441C1212.21 1439.46 1214.27 1438.76 1215.98 1438.88C1217.69 1439.03 1219.09 1439.96 1220.18 1441.69L1225.25 1449.66Z" fill="white"/>
<path d="M1185.89 1458.19C1185.3 1458.53 1184.81 1458.93 1184.43 1459.39C1184.04 1459.87 1183.79 1460.41 1183.67 1461.01C1183.54 1461.62 1183.56 1462.29 1183.73 1463.02C1183.89 1463.76 1184.22 1464.58 1184.74 1465.46C1185.25 1466.34 1185.79 1467.03 1186.36 1467.53C1186.91 1468.04 1187.48 1468.39 1188.08 1468.58C1188.66 1468.78 1189.25 1468.81 1189.85 1468.7C1190.44 1468.6 1191.03 1468.39 1191.62 1468.04L1194.86 1466.16L1189.13 1456.31L1185.89 1458.19ZM1191.7 1452.38L1202.26 1470.53L1198.63 1472.64L1195.92 1467.97L1192.68 1469.86C1191.48 1470.55 1190.31 1471.03 1189.16 1471.28C1188 1471.54 1186.9 1471.58 1185.86 1471.39C1184.83 1471.21 1183.89 1470.81 1183.05 1470.19C1182.18 1469.58 1181.45 1468.76 1180.85 1467.72C1180.24 1466.68 1179.89 1465.64 1179.79 1464.59C1179.67 1463.55 1179.78 1462.53 1180.13 1461.54C1180.48 1460.55 1181.06 1459.61 1181.86 1458.73C1182.65 1457.86 1183.64 1457.07 1184.83 1456.38L1191.7 1452.38Z" fill="white"/>
<path d="M1158.85 1472.73C1157.98 1473.19 1157.26 1473.77 1156.67 1474.46C1156.07 1475.16 1155.56 1475.98 1155.13 1476.91L1153.22 1475.89C1153.4 1475.41 1153.65 1474.92 1153.98 1474.43C1154.29 1473.95 1154.66 1473.48 1155.09 1473.02C1155.52 1472.59 1156 1472.18 1156.51 1471.79C1157.02 1471.39 1157.56 1471.03 1158.12 1470.73C1159.38 1470.07 1160.61 1469.62 1161.84 1469.4C1163.03 1469.18 1164.15 1469.18 1165.2 1469.41C1166.27 1469.67 1167.24 1470.14 1168.14 1470.84C1169.02 1471.56 1169.77 1472.51 1170.41 1473.71C1171.04 1474.9 1171.41 1476.05 1171.53 1477.16C1171.64 1478.3 1171.52 1479.36 1171.18 1480.34C1170.83 1481.34 1170.27 1482.25 1169.51 1483.06C1168.75 1483.9 1167.8 1484.61 1166.67 1485.21C1165.61 1485.78 1164.53 1486.15 1163.43 1486.33C1162.32 1486.51 1161.26 1486.47 1160.24 1486.22C1159.24 1485.99 1158.3 1485.54 1157.43 1484.9C1156.57 1484.25 1155.84 1483.37 1155.26 1482.28L1154.27 1480.43L1165.58 1474.41C1164.59 1473.06 1163.53 1472.27 1162.4 1472.06C1161.25 1471.86 1160.06 1472.08 1158.85 1472.73ZM1165.76 1483.49C1166.27 1483.22 1166.7 1482.87 1167.03 1482.44C1167.37 1482.01 1167.6 1481.5 1167.71 1480.89C1167.8 1480.3 1167.77 1479.61 1167.63 1478.83C1167.47 1478.05 1167.14 1477.19 1166.65 1476.22L1159.23 1480.17C1159.72 1481.08 1160.25 1481.82 1160.82 1482.38C1161.39 1482.94 1161.96 1483.34 1162.54 1483.57C1163.11 1483.84 1163.68 1483.94 1164.24 1483.89C1164.79 1483.87 1165.3 1483.74 1165.76 1483.49Z" fill="white"/>
<path d="M988.946 1544.16L987.385 1538.06L991.6 1536.98L993.161 1543.08L1006.25 1554.91L1001.6 1556.1L992.13 1547.53L991.984 1547.56L987.793 1559.63L983.143 1560.82L988.946 1544.16Z" fill="white"/>
<path d="M961.619 1545.58C960.993 1545.72 960.431 1545.96 959.934 1546.31C959.436 1546.66 959.034 1547.13 958.728 1547.71C958.426 1548.3 958.243 1549.03 958.179 1549.88C958.096 1550.73 958.176 1551.73 958.418 1552.86C958.66 1554 958.994 1554.94 959.419 1555.69C959.825 1556.44 960.286 1557.02 960.801 1557.42C961.32 1557.84 961.879 1558.11 962.477 1558.22C963.074 1558.34 963.686 1558.33 964.312 1558.2C964.938 1558.07 965.5 1557.82 965.997 1557.47C966.495 1557.12 966.895 1556.65 967.197 1556.05C967.503 1555.47 967.698 1554.76 967.781 1553.9C967.845 1553.05 967.755 1552.06 967.513 1550.92C967.271 1549.79 966.947 1548.84 966.541 1548.09C966.115 1547.34 965.643 1546.76 965.124 1546.34C964.608 1545.94 964.052 1545.68 963.454 1545.56C962.856 1545.44 962.245 1545.45 961.619 1545.58ZM964.719 1560.11C963.409 1560.39 962.166 1560.46 960.992 1560.32C959.802 1560.21 958.74 1559.88 957.808 1559.34C956.879 1558.83 956.089 1558.1 955.437 1557.15C954.77 1556.23 954.297 1555.11 954.017 1553.8C953.733 1552.47 953.708 1551.25 953.94 1550.14C954.153 1549.03 954.576 1548.04 955.208 1547.17C955.844 1546.32 956.682 1545.6 957.722 1545.01C958.738 1544.4 959.901 1543.96 961.212 1543.68C962.542 1543.39 963.794 1543.32 964.969 1543.46C966.139 1543.58 967.189 1543.89 968.117 1544.41C969.05 1544.95 969.85 1545.68 970.517 1546.6C971.164 1547.52 971.63 1548.65 971.914 1549.98C972.194 1551.29 972.227 1552.5 972.014 1553.61C971.785 1554.74 971.353 1555.74 970.717 1556.59C970.085 1557.46 969.258 1558.19 968.238 1558.77C967.222 1559.38 966.049 1559.82 964.719 1560.11Z" fill="white"/>
<path d="M942.888 1564.05L938.75 1564.77L937.139 1555.46C936.894 1554.04 936.362 1553.08 935.543 1552.57C934.728 1552.08 933.65 1551.95 932.31 1552.18L928.467 1552.85L930.768 1566.15L926.63 1566.87L923.971 1551.49L931.952 1550.11C934.771 1549.63 936.946 1549.77 938.48 1550.54C939.997 1551.33 940.93 1552.73 941.278 1554.74L942.888 1564.05Z" fill="white"/>
<path d="M896.41 1569.23L899.24 1568.89L899.489 1570.98L896.659 1571.32L897.228 1576.08L893.058 1576.58L892.489 1571.81L887.871 1572.36L887.622 1570.28L892.24 1569.73L891.315 1561.98C891.225 1561.23 891.068 1560.59 890.846 1560.07C890.605 1559.58 890.326 1559.18 890.008 1558.88C889.672 1558.59 889.306 1558.4 888.909 1558.28C888.513 1558.17 888.106 1558.14 887.689 1558.19C887.094 1558.26 886.528 1558.41 885.994 1558.66C885.461 1558.93 885.02 1559.19 884.668 1559.45L883.543 1557.62C884.104 1557.25 884.759 1556.92 885.51 1556.63C886.241 1556.34 886.984 1556.16 887.738 1556.06C889.982 1555.8 891.776 1556.15 893.121 1557.11C894.465 1558.08 895.253 1559.54 895.485 1561.48L896.41 1569.23Z" fill="white"/>
<path d="M876.952 1573.66L872.768 1574.02L871.956 1564.6C871.833 1563.17 871.385 1562.16 870.612 1561.59C869.842 1561.03 868.779 1560.81 867.424 1560.93L863.538 1561.26L864.698 1574.71L860.513 1575.08L859.174 1559.53L867.244 1558.84C870.093 1558.59 872.249 1558.92 873.711 1559.82C875.156 1560.73 875.966 1562.21 876.141 1564.24L876.952 1573.66Z" fill="white"/>
<path d="M837.831 1563.07C837.152 1563.1 836.537 1563.23 835.987 1563.46C835.418 1563.71 834.945 1564.07 834.567 1564.55C834.169 1565.03 833.877 1565.63 833.692 1566.36C833.486 1567.09 833.407 1567.97 833.455 1568.99C833.503 1570 833.664 1570.87 833.938 1571.58C834.192 1572.28 834.539 1572.86 834.981 1573.3C835.402 1573.74 835.907 1574.05 836.496 1574.22C837.065 1574.41 837.69 1574.49 838.369 1574.46L842.115 1574.28L841.577 1562.9L837.831 1563.07ZM845.673 1560.6L846.664 1581.58L842.469 1581.77L842.214 1576.38L838.468 1576.56C837.09 1576.62 835.833 1576.5 834.697 1576.2C833.541 1575.89 832.548 1575.42 831.717 1574.77C830.885 1574.13 830.237 1573.34 829.772 1572.4C829.288 1571.47 829.017 1570.4 828.96 1569.2C828.904 1568 829.072 1566.91 829.466 1565.93C829.841 1564.95 830.411 1564.1 831.178 1563.39C831.945 1562.67 832.89 1562.1 834.011 1561.69C835.113 1561.28 836.353 1561.04 837.732 1560.98L845.673 1560.6Z" fill="white"/>
<path d="M806.693 1563.49C805.713 1563.5 804.804 1563.68 803.968 1564.03C803.111 1564.38 802.275 1564.86 801.461 1565.49L800.244 1563.7C800.621 1563.36 801.069 1563.04 801.586 1562.76C802.083 1562.47 802.631 1562.23 803.229 1562.02C803.808 1561.84 804.417 1561.69 805.056 1561.59C805.694 1561.46 806.334 1561.4 806.974 1561.39C808.394 1561.38 809.696 1561.56 810.879 1561.93C812.042 1562.27 813.037 1562.8 813.863 1563.49C814.69 1564.2 815.337 1565.08 815.807 1566.11C816.256 1567.15 816.487 1568.34 816.499 1569.7C816.511 1571.04 816.312 1572.24 815.902 1573.28C815.471 1574.34 814.879 1575.23 814.125 1575.94C813.352 1576.66 812.437 1577.21 811.38 1577.58C810.324 1577.97 809.155 1578.17 807.875 1578.18C806.676 1578.19 805.544 1578.02 804.481 1577.67C803.418 1577.32 802.493 1576.8 801.706 1576.11C800.92 1575.44 800.293 1574.61 799.824 1573.64C799.355 1572.66 799.115 1571.55 799.104 1570.31L799.085 1568.21L811.895 1568.1C811.64 1566.44 811.059 1565.25 810.152 1564.54C809.226 1563.83 808.073 1563.48 806.693 1563.49ZM807.858 1576.23C808.438 1576.23 808.977 1576.11 809.475 1575.89C809.973 1575.66 810.41 1575.31 810.785 1574.83C811.141 1574.34 811.435 1573.72 811.668 1572.96C811.882 1572.2 811.993 1571.28 812.004 1570.2L803.604 1570.27C803.613 1571.31 803.741 1572.21 803.988 1572.97C804.235 1573.73 804.561 1574.34 804.965 1574.82C805.349 1575.32 805.803 1575.67 806.325 1575.89C806.827 1576.12 807.338 1576.24 807.858 1576.23Z" fill="white"/>
<path d="M622.541 1548.67L623.961 1542.53L628.199 1543.51L626.779 1549.65L632.965 1566.17L628.288 1565.09L623.82 1553.12L623.674 1553.09L614.405 1561.87L609.728 1560.79L622.541 1548.67Z" fill="white"/>
<path d="M597.685 1537.39C597.068 1537.22 596.457 1537.18 595.854 1537.27C595.25 1537.35 594.68 1537.58 594.143 1537.95C593.6 1538.34 593.105 1538.9 592.657 1539.62C592.19 1540.35 591.803 1541.27 591.496 1542.39C591.19 1543.51 591.054 1544.49 591.088 1545.35C591.103 1546.21 591.247 1546.93 591.52 1547.53C591.788 1548.14 592.16 1548.63 592.637 1549.01C593.113 1549.39 593.66 1549.67 594.278 1549.84C594.895 1550 595.505 1550.05 596.109 1549.96C596.712 1549.88 597.285 1549.64 597.828 1549.25C598.365 1548.88 598.867 1548.33 599.334 1547.61C599.782 1546.88 600.16 1545.96 600.466 1544.84C600.773 1543.72 600.918 1542.74 600.903 1541.88C600.869 1541.02 600.718 1540.29 600.451 1539.68C600.177 1539.08 599.803 1538.6 599.326 1538.22C598.849 1537.84 598.302 1537.56 597.685 1537.39ZM593.763 1551.72C592.47 1551.36 591.334 1550.85 590.354 1550.19C589.35 1549.54 588.557 1548.77 587.975 1547.86C587.389 1546.97 587.023 1545.96 586.879 1544.82C586.71 1543.7 586.802 1542.49 587.156 1541.2C587.515 1539.89 588.054 1538.79 588.773 1537.91C589.472 1537.02 590.302 1536.34 591.264 1535.85C592.22 1535.39 593.296 1535.13 594.49 1535.09C595.671 1535.02 596.908 1535.16 598.2 1535.51C599.512 1535.87 600.657 1536.38 601.637 1537.05C602.622 1537.69 603.408 1538.45 603.995 1539.34C604.576 1540.25 604.952 1541.26 605.121 1542.39C605.27 1543.5 605.166 1544.72 604.806 1546.03C604.452 1547.32 603.926 1548.41 603.227 1549.3C602.503 1550.2 601.663 1550.88 600.707 1551.35C599.745 1551.83 598.676 1552.1 597.501 1552.15C596.32 1552.22 595.074 1552.08 593.763 1551.72Z" fill="white"/>
<path d="M572.249 1545.09L568.245 1543.82L571.1 1534.81C571.535 1533.44 571.506 1532.34 571.013 1531.51C570.514 1530.71 569.616 1530.1 568.32 1529.68L564.602 1528.51L560.523 1541.38L556.52 1540.11L561.233 1525.24L568.954 1527.68C571.681 1528.55 573.547 1529.67 574.555 1531.06C575.537 1532.46 575.72 1534.14 575.104 1536.08L572.249 1545.09Z" fill="white"/>
<path d="M528.419 1528.23L531.087 1529.23L530.347 1531.2L527.68 1530.19L525.989 1534.68L522.058 1533.2L523.749 1528.71L519.397 1527.07L520.136 1525.11L524.488 1526.75L527.236 1519.45C527.503 1518.74 527.658 1518.1 527.698 1517.54C527.713 1516.99 527.649 1516.5 527.507 1516.09C527.338 1515.68 527.105 1515.34 526.806 1515.05C526.506 1514.77 526.16 1514.55 525.767 1514.41C525.205 1514.19 524.631 1514.07 524.043 1514.05C523.449 1514.04 522.935 1514.07 522.502 1514.14L522.346 1512C523.014 1511.93 523.747 1511.94 524.548 1512.02C525.33 1512.1 526.076 1512.28 526.787 1512.55C528.903 1513.34 530.334 1514.48 531.081 1515.96C531.828 1517.44 531.857 1519.09 531.167 1520.93L528.419 1528.23Z" fill="white"/>
<path d="M509.272 1523.26L505.392 1521.65L509.01 1512.92C509.562 1511.59 509.627 1510.49 509.207 1509.63C508.779 1508.78 507.937 1508.09 506.681 1507.57L503.078 1506.08L497.909 1518.55L494.029 1516.94L500.002 1502.53L507.485 1505.63C510.127 1506.73 511.89 1508.01 512.774 1509.48C513.633 1510.96 513.671 1512.65 512.89 1514.53L509.272 1523.26Z" fill="white"/>
<path d="M479.526 1495.88C478.908 1495.59 478.303 1495.42 477.711 1495.37C477.092 1495.33 476.505 1495.43 475.949 1495.68C475.375 1495.92 474.837 1496.32 474.336 1496.89C473.816 1497.44 473.343 1498.18 472.916 1499.1C472.489 1500.03 472.234 1500.87 472.15 1501.63C472.048 1502.37 472.092 1503.04 472.281 1503.64C472.451 1504.22 472.758 1504.73 473.201 1505.15C473.618 1505.58 474.135 1505.94 474.752 1506.23L478.157 1507.8L482.931 1497.45L479.526 1495.88ZM487.624 1497.3L478.831 1516.37L475.017 1514.61L477.278 1509.71L473.873 1508.14C472.62 1507.56 471.56 1506.87 470.693 1506.07C469.809 1505.27 469.146 1504.39 468.704 1503.44C468.262 1502.49 468.052 1501.49 468.072 1500.44C468.075 1499.38 468.327 1498.31 468.83 1497.22C469.332 1496.13 469.984 1495.24 470.786 1494.55C471.569 1493.86 472.466 1493.37 473.478 1493.09C474.489 1492.8 475.587 1492.74 476.773 1492.89C477.941 1493.03 479.152 1493.39 480.405 1493.97L487.624 1497.3Z" fill="white"/>
<path d="M452.006 1482.03C451.132 1481.59 450.244 1481.33 449.341 1481.25C448.421 1481.16 447.454 1481.21 446.442 1481.39L446.189 1479.24C446.682 1479.11 447.224 1479.04 447.814 1479.03C448.387 1479 448.986 1479.04 449.611 1479.13C450.21 1479.23 450.817 1479.39 451.433 1479.59C452.057 1479.77 452.655 1480.01 453.225 1480.3C454.491 1480.94 455.564 1481.7 456.443 1482.57C457.314 1483.42 457.956 1484.34 458.369 1485.34C458.774 1486.35 458.945 1487.43 458.884 1488.56C458.804 1489.69 458.456 1490.86 457.84 1492.07C457.232 1493.26 456.505 1494.23 455.659 1494.97C454.786 1495.71 453.853 1496.22 452.858 1496.5C451.836 1496.79 450.771 1496.86 449.663 1496.7C448.546 1496.55 447.417 1496.19 446.277 1495.61C445.207 1495.07 444.281 1494.39 443.5 1493.59C442.718 1492.79 442.139 1491.9 441.761 1490.92C441.374 1489.97 441.198 1488.94 441.232 1487.86C441.266 1486.78 441.565 1485.69 442.127 1484.58L443.079 1482.71L454.497 1488.52C455.035 1486.93 455.067 1485.61 454.591 1484.56C454.098 1483.5 453.236 1482.66 452.006 1482.03ZM447.161 1493.87C447.678 1494.14 448.209 1494.28 448.754 1494.31C449.3 1494.34 449.85 1494.23 450.407 1493.98C450.945 1493.71 451.494 1493.3 452.052 1492.73C452.593 1492.15 453.117 1491.38 453.625 1490.43L446.138 1486.62C445.666 1487.55 445.365 1488.41 445.234 1489.19C445.104 1489.98 445.108 1490.68 445.247 1491.28C445.359 1491.9 445.597 1492.43 445.96 1492.86C446.297 1493.3 446.697 1493.64 447.161 1493.87Z" fill="white"/>
<path d="M295.969 1384.07L300.061 1379.28L303.368 1382.11L299.276 1386.9L297.14 1404.41L293.491 1401.29L295.049 1388.61L294.935 1388.51L282.656 1392.03L279.007 1388.91L295.969 1384.07Z" fill="white"/>
<path d="M279.277 1362.75C278.807 1362.31 278.285 1361.99 277.711 1361.79C277.137 1361.59 276.526 1361.52 275.878 1361.61C275.217 1361.7 274.52 1361.97 273.787 1362.41C273.039 1362.84 272.272 1363.47 271.484 1364.33C270.697 1365.18 270.12 1365.99 269.754 1366.77C269.374 1367.54 269.168 1368.25 269.137 1368.9C269.093 1369.56 269.194 1370.18 269.443 1370.73C269.691 1371.29 270.05 1371.78 270.52 1372.22C270.99 1372.65 271.512 1372.97 272.086 1373.18C272.66 1373.38 273.278 1373.43 273.939 1373.34C274.587 1373.26 275.285 1373 276.032 1372.58C276.765 1372.14 277.526 1371.49 278.313 1370.64C279.1 1369.79 279.684 1368.98 280.065 1368.21C280.431 1367.44 280.636 1366.71 280.68 1366.05C280.711 1365.39 280.603 1364.79 280.354 1364.23C280.106 1363.68 279.747 1363.18 279.277 1362.75ZM269.196 1373.65C268.212 1372.74 267.438 1371.77 266.874 1370.73C266.281 1369.69 265.935 1368.63 265.837 1367.56C265.724 1366.51 265.867 1365.44 266.263 1364.36C266.631 1363.29 267.27 1362.26 268.18 1361.27C269.103 1360.27 270.087 1359.55 271.13 1359.1C272.159 1358.63 273.212 1358.41 274.288 1358.42C275.351 1358.45 276.423 1358.72 277.504 1359.23C278.585 1359.71 279.617 1360.41 280.601 1361.31C281.599 1362.24 282.381 1363.22 282.945 1364.26C283.523 1365.28 283.869 1366.32 283.981 1367.38C284.079 1368.45 283.945 1369.53 283.576 1370.6C283.194 1371.67 282.54 1372.7 281.617 1373.69C280.708 1374.68 279.738 1375.4 278.709 1375.87C277.652 1376.33 276.592 1376.55 275.529 1376.52C274.453 1376.51 273.382 1376.25 272.315 1375.76C271.234 1375.28 270.195 1374.57 269.196 1373.65Z" fill="white"/>
<path d="M253.218 1357.92L250.248 1354.95L256.928 1348.26C257.946 1347.24 258.427 1346.25 258.37 1345.29C258.299 1344.35 257.783 1343.39 256.821 1342.43L254.062 1339.67L244.519 1349.22L241.548 1346.25L252.576 1335.22L258.305 1340.94C260.328 1342.97 261.467 1344.83 261.722 1346.52C261.949 1348.22 261.341 1349.79 259.899 1351.23L253.218 1357.92Z" fill="white"/>
<path d="M221.995 1322.71L223.902 1324.83L222.342 1326.24L220.435 1324.12L216.868 1327.33L214.057 1324.21L217.624 1321L214.512 1317.54L216.072 1316.14L219.184 1319.59L224.98 1314.37C225.545 1313.86 225.974 1313.37 226.268 1312.89C226.534 1312.41 226.7 1311.95 226.765 1311.51C226.802 1311.07 226.753 1310.66 226.617 1310.27C226.482 1309.88 226.274 1309.53 225.992 1309.22C225.591 1308.77 225.136 1308.4 224.627 1308.11C224.104 1307.83 223.633 1307.62 223.216 1307.48L224.062 1305.51C224.687 1305.75 225.334 1306.1 226.005 1306.54C226.662 1306.97 227.245 1307.47 227.754 1308.04C229.266 1309.72 230.014 1311.38 229.999 1313.04C229.983 1314.7 229.247 1316.18 227.791 1317.49L221.995 1322.71Z" fill="white"/>
<path d="M207.159 1309.36L204.452 1306.15L211.677 1300.06C212.778 1299.13 213.341 1298.19 213.366 1297.22C213.376 1296.27 212.943 1295.28 212.066 1294.24L209.553 1291.26L199.231 1299.96L196.524 1296.75L208.451 1286.69L213.672 1292.88C215.515 1295.07 216.492 1297.02 216.602 1298.73C216.683 1300.44 215.944 1301.96 214.384 1303.27L207.159 1309.36Z" fill="white"/>
<path d="M193.373 1271.44C192.956 1270.9 192.496 1270.48 191.994 1270.16C191.464 1269.84 190.895 1269.66 190.286 1269.62C189.665 1269.58 189.003 1269.69 188.3 1269.95C187.584 1270.21 186.824 1270.65 186.019 1271.27C185.215 1271.9 184.602 1272.53 184.181 1273.16C183.749 1273.78 183.48 1274.39 183.375 1275.01C183.258 1275.61 183.299 1276.2 183.497 1276.78C183.668 1277.35 183.962 1277.91 184.38 1278.45L186.684 1281.4L195.678 1274.4L193.373 1271.44ZM199.916 1276.42L183.349 1289.33L180.768 1286.01L185.028 1282.69L182.723 1279.74C181.875 1278.65 181.249 1277.55 180.845 1276.45C180.428 1275.33 180.242 1274.24 180.287 1273.19C180.332 1272.14 180.604 1271.16 181.103 1270.24C181.59 1269.3 182.307 1268.46 183.254 1267.72C184.201 1266.99 185.188 1266.5 186.216 1266.25C187.231 1266 188.253 1265.97 189.281 1266.19C190.309 1266.4 191.315 1266.85 192.3 1267.52C193.272 1268.19 194.182 1269.06 195.03 1270.15L199.916 1276.42Z" fill="white"/>
<path d="M175.309 1246.56C174.737 1245.76 174.067 1245.12 173.301 1244.64C172.522 1244.14 171.642 1243.74 170.66 1243.43L171.42 1241.41C171.918 1241.52 172.433 1241.7 172.964 1241.96C173.483 1242.2 173.999 1242.51 174.512 1242.88C174.997 1243.24 175.466 1243.66 175.921 1244.12C176.393 1244.57 176.815 1245.05 177.189 1245.57C178.018 1246.73 178.623 1247.89 179.004 1249.07C179.389 1250.22 179.537 1251.34 179.447 1252.41C179.342 1253.5 179.001 1254.53 178.425 1255.51C177.838 1256.48 176.992 1257.36 175.888 1258.15C174.801 1258.93 173.712 1259.46 172.623 1259.72C171.505 1259.98 170.44 1260.01 169.428 1259.8C168.388 1259.59 167.413 1259.16 166.501 1258.51C165.574 1257.87 164.736 1257.03 163.989 1255.99C163.288 1255.02 162.774 1254 162.448 1252.93C162.121 1251.85 162.014 1250.8 162.127 1249.76C162.223 1248.73 162.535 1247.74 163.062 1246.79C163.589 1245.85 164.355 1245.01 165.362 1244.29L167.067 1243.06L174.547 1253.46C175.755 1252.3 176.388 1251.14 176.447 1249.99C176.494 1248.82 176.115 1247.68 175.309 1246.56ZM165.572 1254.85C165.911 1255.32 166.315 1255.7 166.786 1255.98C167.256 1256.25 167.798 1256.41 168.409 1256.43C169.009 1256.45 169.687 1256.33 170.445 1256.08C171.19 1255.81 172.007 1255.37 172.895 1254.76L167.99 1247.94C167.146 1248.55 166.485 1249.17 166.008 1249.81C165.532 1250.45 165.215 1251.07 165.059 1251.67C164.875 1252.28 164.846 1252.85 164.971 1253.4C165.068 1253.95 165.268 1254.43 165.572 1254.85Z" fill="white"/>
<path d="M81.5641 1087.83L87.3999 1085.46L89.0388 1089.49L83.203 1091.86L73.2593 1106.43L71.4509 1101.98L78.6602 1091.44L78.6037 1091.3L66.0824 1088.78L64.274 1084.34L81.5641 1087.83Z" fill="white"/>
<path d="M76.6118 1061.4C76.3943 1060.8 76.0775 1060.27 75.6614 1059.83C75.2453 1059.38 74.7308 1059.05 74.1178 1058.82C73.486 1058.6 72.7437 1058.52 71.8909 1058.58C71.0314 1058.61 70.0562 1058.82 68.9652 1059.22C67.8743 1059.61 66.9875 1060.07 66.3047 1060.59C65.6151 1061.1 65.1066 1061.63 64.7791 1062.2C64.4329 1062.77 64.2421 1063.36 64.2067 1063.97C64.1714 1064.58 64.2625 1065.18 64.4801 1065.78C64.6976 1066.39 65.0144 1066.91 65.4305 1067.35C65.8466 1067.8 66.3705 1068.13 67.0023 1068.35C67.6153 1068.57 68.3516 1068.67 69.2111 1068.64C70.0639 1068.58 71.0357 1068.36 72.1266 1067.96C73.2176 1067.57 74.1078 1067.12 74.7974 1066.62C75.4802 1066.09 75.9947 1065.55 76.341 1064.97C76.6684 1064.41 76.8498 1063.82 76.8852 1063.21C76.9205 1062.61 76.8294 1062 76.6118 1061.4ZM62.6462 1066.45C62.1907 1065.19 61.9512 1063.97 61.9279 1062.78C61.8789 1061.59 62.057 1060.49 62.4622 1059.5C62.8485 1058.51 63.4654 1057.62 64.3127 1056.85C65.1344 1056.06 66.1753 1055.44 67.4355 1054.99C68.7145 1054.52 69.9213 1054.33 71.0557 1054.41C72.1833 1054.47 73.2217 1054.76 74.1708 1055.26C75.101 1055.78 75.9292 1056.51 76.6553 1057.46C77.3934 1058.38 77.9902 1059.48 78.4457 1060.74C78.908 1062.01 79.1509 1063.25 79.1742 1064.43C79.2164 1065.6 79.0443 1066.69 78.6579 1067.68C78.2527 1068.67 77.6393 1069.57 76.8176 1070.35C75.9891 1071.12 74.9354 1071.73 73.6564 1072.2C72.3962 1072.65 71.2022 1072.85 70.0746 1072.79C68.9214 1072.72 67.8796 1072.42 66.9493 1071.91C66.0003 1071.4 65.1661 1070.68 64.4468 1069.75C63.7087 1068.83 63.1085 1067.73 62.6462 1066.45Z" fill="white"/>
<path d="M55.7067 1045.18L54.4358 1041.17L63.4428 1038.31C64.8153 1037.88 65.6976 1037.22 66.0897 1036.34C66.4628 1035.47 66.4436 1034.38 66.0321 1033.09L64.852 1029.37L51.9848 1033.45L50.714 1029.45L65.5827 1024.73L68.0336 1032.45C68.899 1035.18 69.0544 1037.35 68.4998 1038.97C67.9201 1040.59 66.6581 1041.7 64.7137 1042.32L55.7067 1045.18Z" fill="white"/>
<path d="M44.1609 999.408L44.8772 1002.17L42.8446 1002.69L42.1283 999.936L37.4824 1001.14L36.4267 997.078L41.0727 995.871L39.9039 991.37L41.9365 990.843L43.1052 995.343L50.6548 993.383C51.3904 993.192 51.9995 992.951 52.4819 992.66C52.94 992.355 53.2984 992.025 53.5571 991.668C53.7914 991.297 53.9382 990.908 53.9976 990.5C54.0569 990.092 54.0338 989.685 53.9283 989.278C53.7775 988.697 53.5446 988.159 53.2296 987.662C52.8952 987.17 52.5739 986.768 52.2654 986.456L53.9266 985.094C54.3678 985.6 54.7832 986.205 55.1728 986.909C55.5574 987.595 55.8452 988.305 56.0362 989.041C56.6043 991.228 56.4996 993.053 55.7222 994.515C54.9448 995.978 53.6076 996.955 51.7105 997.448L44.1609 999.408Z" fill="white"/>
<path d="M37.0946 980.504L36.1755 976.406L45.3965 974.338C46.8016 974.023 47.7376 973.444 48.2046 972.601C48.652 971.763 48.7269 970.68 48.4293 969.353L47.5759 965.548L34.4031 968.502L33.484 964.404L48.7059 960.99L50.4784 968.894C51.1042 971.684 51.0705 973.865 50.3772 975.434C49.66 976.989 48.3061 977.99 46.3156 978.436L37.0946 980.504Z" fill="white"/>
<path d="M42.3899 940.576C42.2671 939.907 42.0567 939.316 41.7588 938.801C41.4377 938.27 41.0147 937.85 40.49 937.539C39.9617 937.209 39.3236 937.001 38.5757 936.915C37.8242 936.809 36.9468 936.848 35.9436 937.033C34.9404 937.217 34.1064 937.492 33.4416 937.858C32.7732 938.205 32.2507 938.626 31.8742 939.122C31.494 939.599 31.258 940.14 31.1661 940.747C31.0509 941.337 31.0547 941.967 31.1775 942.636L31.8551 946.324L43.0675 944.264L42.3899 940.576ZM45.8917 948.016L25.2373 951.81L24.4785 947.679L29.7896 946.703L29.1121 943.015C28.8628 941.658 28.814 940.396 28.9657 939.229C29.1138 938.043 29.45 936.995 29.9743 936.085C30.4986 935.176 31.1949 934.428 32.0632 933.841C32.9279 933.235 33.9504 932.823 35.1306 932.607C36.3109 932.39 37.4128 932.411 38.4365 932.67C39.4566 932.91 40.3733 933.362 41.1867 934.026C42 934.69 42.6867 935.55 43.2468 936.606C43.8032 937.643 44.2061 938.839 44.4554 940.197L45.8917 948.016Z" fill="white"/>
<path d="M37.9145 910.51C37.7741 909.541 37.4755 908.664 37.0187 907.882C36.5591 907.079 35.9637 906.317 35.2326 905.594L36.8422 904.148C37.2331 904.476 37.6044 904.877 37.956 905.351C38.3047 905.806 38.621 906.316 38.9049 906.881C39.1661 907.429 39.392 908.013 39.5827 908.632C39.7931 909.248 39.9442 909.873 40.0358 910.507C40.2392 911.912 40.2374 913.226 40.0303 914.448C39.8402 915.648 39.4574 916.703 38.8821 917.615C38.287 918.53 37.5077 919.289 36.5444 919.893C35.5781 920.478 34.422 920.868 33.076 921.062C31.7498 921.254 30.542 921.217 29.4526 920.95C28.3405 920.667 27.3836 920.199 26.582 919.547C25.7577 918.878 25.0915 918.045 24.5834 917.047C24.0554 916.053 23.6998 914.922 23.5165 913.655C23.3446 912.468 23.3609 911.323 23.5653 910.223C23.7698 909.122 24.1626 908.136 24.7436 907.264C25.3049 906.394 26.0375 905.662 26.9415 905.066C27.8455 904.47 28.9111 904.084 30.1384 903.906L32.2167 903.605L34.0515 916.283C35.6601 915.808 36.7561 915.073 37.3398 914.08C37.9206 913.066 38.1122 911.876 37.9145 910.51ZM25.4464 913.376C25.5294 913.95 25.7157 914.469 26.005 914.932C26.2944 915.395 26.7038 915.781 27.2333 916.088C27.7599 916.375 28.4164 916.584 29.203 916.712C29.9867 916.821 30.9144 916.808 31.9861 916.673L30.7829 908.36C29.7536 908.509 28.8801 908.756 28.1623 909.103C27.4445 909.449 26.8768 909.855 26.459 910.319C26.0186 910.767 25.7268 911.264 25.5835 911.81C25.4176 912.339 25.3719 912.861 25.4464 913.376Z" fill="white"/>
<path d="M27.9916 725.06L34.2646 725.643L33.8624 729.974L27.5894 729.392L12.0509 737.741L12.4947 732.961L23.7509 726.926L23.7648 726.777L13.8123 718.772L14.2561 713.993L27.9916 725.06Z" fill="white"/>
<path d="M35.7846 699.183C35.8687 698.548 35.8286 697.938 35.6643 697.351C35.5 696.764 35.1976 696.23 34.7572 695.748C34.2969 695.263 33.6761 694.848 32.8948 694.502C32.116 694.137 31.1517 693.878 30.0018 693.725C28.8518 693.573 27.8533 693.572 27.0063 693.721C26.1619 693.852 25.4642 694.092 24.9133 694.443C24.3426 694.791 23.9015 695.226 23.59 695.75C23.2785 696.274 23.0807 696.853 22.9965 697.487C22.9124 698.122 22.9525 698.732 23.1168 699.319C23.2811 699.905 23.5934 700.441 24.0537 700.926C24.4942 701.408 25.1037 701.832 25.8825 702.197C26.6638 702.543 27.6294 702.792 28.7794 702.945C29.9293 703.097 30.9265 703.108 31.7709 702.978C32.618 702.828 33.3269 702.579 33.8976 702.231C34.4484 701.88 34.8796 701.443 35.1911 700.92C35.5027 700.396 35.7005 699.817 35.7846 699.183ZM21.0635 697.231C21.2396 695.902 21.5896 694.708 22.1135 693.648C22.6203 692.565 23.2831 691.674 24.102 690.976C24.9011 690.275 25.8549 689.776 26.9636 689.479C28.055 689.16 29.2649 689.088 30.5933 689.264C31.9415 689.443 33.1008 689.829 34.0713 690.421C35.0445 690.994 35.8354 691.725 36.444 692.612C37.0327 693.497 37.4306 694.529 37.6377 695.706C37.8672 696.866 37.8938 698.111 37.7177 699.439C37.5389 700.787 37.1876 701.991 36.6637 703.052C36.1596 704.115 35.508 704.997 34.7089 705.698C33.89 706.396 32.9348 706.905 31.8434 707.224C30.7546 707.524 29.5361 707.584 28.1879 707.406C26.8595 707.229 25.7087 706.855 24.7356 706.282C23.7453 705.687 22.9557 704.946 22.3669 704.061C21.7583 703.174 21.3492 702.151 21.1395 700.993C20.9101 699.833 20.8847 698.579 21.0635 697.231Z" fill="white"/>
<path d="M24.6735 675.354L25.3873 671.215L34.6998 672.821C36.1189 673.065 37.2049 672.887 37.958 672.287C38.6913 671.683 39.1736 670.71 39.4047 669.37L40.0676 665.527L26.764 663.232L27.4778 659.094L42.8508 661.745L41.4742 669.727C40.9881 672.545 40.1252 674.548 38.8855 675.735C37.6295 676.898 35.9963 677.306 33.986 676.96L24.6735 675.354Z" fill="white"/>
<path d="M35.4231 629.666L34.791 632.445L32.7433 631.979L33.3754 629.2L28.6949 628.136L29.6264 624.04L34.3068 625.105L35.3381 620.571L37.3858 621.037L36.3545 625.571L43.9603 627.301C44.7014 627.469 45.3529 627.535 45.915 627.499C46.4619 627.439 46.9322 627.31 47.3259 627.112C47.7044 626.891 48.0139 626.612 48.2542 626.277C48.4944 625.942 48.6612 625.57 48.7543 625.16C48.8874 624.575 48.9282 623.99 48.8769 623.404C48.8061 622.814 48.7056 622.309 48.5753 621.889L50.6764 621.444C50.8358 622.096 50.9266 622.824 50.9486 623.629C50.9751 624.414 50.904 625.178 50.7355 625.919C50.2343 628.122 49.3023 629.695 47.9396 630.636C46.577 631.577 44.94 631.831 43.0288 631.396L35.4231 629.666Z" fill="white"/>
<path d="M37.838 609.645L38.9059 605.583L48.0453 607.985C49.438 608.352 50.5354 608.268 51.3374 607.734C52.1201 607.196 52.6843 606.269 53.0301 604.953L54.0217 601.181L40.9654 597.749L42.0333 593.687L57.1206 597.653L55.0611 605.487C54.3339 608.253 53.3016 610.174 51.9643 611.249C50.6127 612.3 48.9504 612.566 46.9774 612.047L37.838 609.645Z" fill="white"/>
<path d="M60.9423 576.461C61.1409 575.81 61.2263 575.188 61.1985 574.594C61.1575 573.975 60.9754 573.407 60.6523 572.89C60.3349 572.354 59.8641 571.876 59.2397 571.455C58.6212 571.015 57.8242 570.647 56.8486 570.349C55.8731 570.051 55.006 569.912 54.2473 569.931C53.4944 569.931 52.8367 570.065 52.2741 570.332C51.7173 570.58 51.2586 570.953 50.898 571.449C50.524 571.92 50.2378 572.481 50.0392 573.132L48.9441 576.718L59.8472 580.047L60.9423 576.461ZM60.6292 584.677L40.5446 578.545L41.771 574.528L46.9357 576.105L48.0307 572.518C48.4337 571.198 48.9709 570.055 49.6422 569.089C50.3195 568.104 51.1 567.328 51.984 566.762C52.868 566.195 53.8304 565.851 54.8712 565.73C55.9178 565.589 57.015 565.694 58.1627 566.045C59.3104 566.395 60.2791 566.921 61.0687 567.622C61.8643 568.304 62.4704 569.127 62.8871 570.091C63.3039 571.055 63.518 572.134 63.5294 573.33C63.5466 574.506 63.3537 575.754 62.9508 577.074L60.6292 584.677Z" fill="white"/>
<path d="M70.8921 547.448C71.2142 546.523 71.3526 545.607 71.3076 544.702C71.2691 543.778 71.0917 542.827 70.7756 541.849L72.87 541.307C73.0663 541.778 73.2112 542.305 73.3047 542.888C73.4049 543.452 73.4508 544.05 73.4425 544.683C73.4219 545.29 73.3537 545.912 73.2378 546.549C73.1409 547.193 72.9872 547.817 72.7769 548.422C72.3103 549.763 71.7036 550.928 70.957 551.918C70.2358 552.895 69.4099 553.656 68.4793 554.2C67.5298 554.738 66.4884 555.053 65.355 555.146C64.2281 555.22 63.0225 555.033 61.738 554.586C60.4724 554.146 59.4175 553.557 58.5733 552.818C57.7168 552.054 57.0828 551.199 56.6714 550.251C56.2477 549.277 56.04 548.231 56.0484 547.112C56.0378 545.986 56.2428 544.818 56.6635 543.609C57.0578 542.476 57.5991 541.468 58.2875 540.585C58.9758 539.702 59.7787 539.007 60.6961 538.501C61.5947 537.988 62.5823 537.675 63.6591 537.562C64.7358 537.45 65.8597 537.597 67.0309 538.005L69.0143 538.695L64.8047 550.794C66.4514 551.112 67.7626 550.965 68.7384 550.352C69.7207 549.719 70.4386 548.752 70.8921 547.448ZM58.5052 544.25C58.3146 544.798 58.241 545.344 58.2845 545.889C58.328 546.433 58.5139 546.964 58.8424 547.48C59.1774 547.978 59.6644 548.465 60.3033 548.942C60.9488 549.399 61.7783 549.815 62.7918 550.189L65.5521 542.255C64.5699 541.913 63.6804 541.731 62.8838 541.708C62.0871 541.685 61.3964 541.783 60.8116 542.003C60.2145 542.198 59.7266 542.505 59.3479 542.923C58.957 543.317 58.676 543.759 58.5052 544.25Z" fill="white"/>
<path d="M146.873 379.737L152.169 383.15L149.813 386.806L144.517 383.394L126.879 383.628L129.479 379.593L142.25 379.435L142.331 379.309L137.197 367.615L139.797 363.58L146.873 379.737Z" fill="white"/>
<path d="M165.753 360.357C166.12 359.833 166.367 359.273 166.492 358.677C166.617 358.081 166.595 357.467 166.427 356.836C166.243 356.194 165.884 355.539 165.35 354.871C164.828 354.188 164.092 353.513 163.143 352.847C162.193 352.18 161.308 351.718 160.487 351.46C159.678 351.186 158.948 351.077 158.298 351.134C157.631 351.179 157.038 351.362 156.52 351.683C156.002 352.003 155.559 352.426 155.192 352.95C154.824 353.474 154.578 354.034 154.453 354.63C154.328 355.226 154.358 355.846 154.542 356.488C154.71 357.119 155.055 357.777 155.577 358.46C156.111 359.128 156.853 359.794 157.802 360.46C158.752 361.127 159.631 361.597 160.44 361.871C161.261 362.129 162.005 362.236 162.672 362.19C163.322 362.134 163.907 361.945 164.425 361.624C164.943 361.304 165.385 360.881 165.753 360.357ZM153.595 351.83C154.365 350.733 155.227 349.835 156.181 349.136C157.13 348.41 158.129 347.926 159.178 347.684C160.211 347.431 161.287 347.429 162.408 347.677C163.523 347.898 164.629 348.393 165.727 349.162C166.84 349.943 167.69 350.821 168.278 351.795C168.876 352.752 169.241 353.765 169.371 354.833C169.485 355.89 169.362 356.989 169.002 358.129C168.67 359.264 168.119 360.38 167.349 361.477C166.568 362.59 165.701 363.497 164.747 364.195C163.809 364.905 162.824 365.387 161.791 365.64C160.742 365.882 159.66 365.892 158.545 365.671C157.44 365.435 156.332 364.926 155.218 364.145C154.121 363.375 153.273 362.512 152.674 361.554C152.071 360.569 151.712 359.548 151.598 358.491C151.468 357.423 151.577 356.327 151.926 355.203C152.258 354.068 152.814 352.943 153.595 351.83Z" fill="white"/>
<path d="M167.083 333.827L169.627 330.485L177.146 336.211C178.291 337.083 179.337 337.427 180.282 337.242C181.212 337.044 182.088 336.405 182.912 335.323L185.275 332.22L174.535 324.041L177.079 320.7L189.49 330.151L184.583 336.595C182.85 338.87 181.16 340.248 179.513 340.728C177.861 341.18 176.224 340.788 174.601 339.552L167.083 333.827Z" fill="white"/>
<path d="M197.82 298.133L195.977 300.307L194.375 298.949L196.219 296.775L192.558 293.67L195.274 290.467L198.935 293.572L201.943 290.025L203.544 291.384L200.537 294.93L206.485 299.975C207.065 300.467 207.612 300.826 208.128 301.053C208.641 301.253 209.118 301.355 209.558 301.362C209.996 301.34 210.399 301.236 210.767 301.049C211.135 300.863 211.454 300.61 211.726 300.289C212.114 299.832 212.421 299.331 212.646 298.788C212.855 298.231 212.999 297.737 213.077 297.305L215.146 297.88C214.987 298.531 214.731 299.219 214.379 299.944C214.04 300.653 213.625 301.297 213.134 301.877C211.672 303.6 210.119 304.565 208.476 304.771C206.833 304.977 205.264 304.446 203.769 303.178L197.82 298.133Z" fill="white"/>
<path d="M209.061 281.647L211.881 278.534L218.884 284.879C219.951 285.846 220.963 286.278 221.921 286.174C222.864 286.057 223.792 285.494 224.705 284.486L227.324 281.596L217.319 272.532L220.139 269.419L231.7 279.894L226.261 285.896C224.341 288.016 222.539 289.244 220.857 289.582C219.173 289.892 217.575 289.362 216.063 287.992L209.061 281.647Z" fill="white"/>
<path d="M244.78 262.931C245.256 262.445 245.618 261.932 245.867 261.392C246.115 260.824 246.215 260.236 246.166 259.628C246.131 259.006 245.934 258.365 245.573 257.704C245.226 257.029 244.689 256.335 243.96 255.621C243.231 254.908 242.525 254.385 241.843 254.053C241.174 253.706 240.529 253.522 239.906 253.501C239.298 253.465 238.719 253.584 238.17 253.859C237.622 254.105 237.109 254.471 236.634 254.957L234.01 257.637L242.157 265.611L244.78 262.931ZM240.72 270.082L225.713 255.392L228.651 252.39L232.51 256.168L235.133 253.488C236.098 252.502 237.101 251.734 238.142 251.186C239.197 250.623 240.247 250.294 241.292 250.198C242.338 250.102 243.351 250.239 244.33 250.611C245.324 250.968 246.25 251.566 247.107 252.405C247.965 253.245 248.583 254.158 248.961 255.144C249.353 256.115 249.513 257.125 249.439 258.172C249.365 259.219 249.058 260.276 248.518 261.343C247.992 262.395 247.246 263.414 246.281 264.4L240.72 270.082Z" fill="white"/>
<path d="M266.975 241.737C267.687 241.064 268.231 240.314 268.607 239.49C268.998 238.652 269.278 237.726 269.447 236.712L271.556 237.194C271.514 237.702 271.4 238.237 271.215 238.797C271.044 239.344 270.81 239.897 270.512 240.455C270.214 240.984 269.868 241.505 269.472 242.018C269.09 242.545 268.666 243.029 268.201 243.469C267.17 244.445 266.096 245.201 264.977 245.736C263.888 246.272 262.804 246.568 261.728 246.623C260.637 246.664 259.567 246.465 258.518 246.026C257.484 245.574 256.499 244.854 255.564 243.866C254.643 242.893 253.977 241.884 253.567 240.84C253.158 239.768 252.988 238.717 253.059 237.686C253.13 236.627 253.427 235.602 253.949 234.612C254.458 233.607 255.177 232.665 256.106 231.785C256.978 230.96 257.922 230.314 258.939 229.846C259.956 229.379 260.989 229.131 262.036 229.103C263.07 229.061 264.091 229.237 265.099 229.632C266.107 230.028 267.037 230.676 267.89 231.576L269.333 233.101L260.031 241.908C261.347 242.949 262.579 243.421 263.728 243.325C264.891 243.215 265.973 242.686 266.975 241.737ZM257.447 233.201C257.026 233.6 256.709 234.051 256.497 234.554C256.286 235.058 256.207 235.614 256.261 236.224C256.329 236.82 256.538 237.477 256.886 238.194C257.249 238.897 257.794 239.647 258.522 240.445L264.622 234.67C263.907 233.915 263.201 233.344 262.504 232.957C261.807 232.57 261.149 232.34 260.528 232.266C259.908 232.165 259.334 232.213 258.805 232.41C258.277 232.58 257.824 232.843 257.447 233.201Z" fill="white"/>
<path d="M411.532 127.549L414.674 133.01L410.903 135.179L407.761 129.719L391.979 121.839L396.14 119.446L407.562 125.161L407.692 125.086L408.491 112.339L412.652 109.945L411.532 127.549Z" fill="white"/>
<path d="M437.222 118.967C437.788 118.67 438.264 118.285 438.649 117.812C439.033 117.34 439.296 116.785 439.436 116.147C439.566 115.491 439.548 114.745 439.38 113.907C439.23 113.06 438.885 112.123 438.347 111.095C437.809 110.068 437.234 109.251 436.623 108.646C436.03 108.031 435.431 107.599 434.827 107.351C434.214 107.086 433.603 106.976 432.996 107.024C432.389 107.071 431.801 107.243 431.235 107.54C430.668 107.837 430.192 108.222 429.807 108.694C429.423 109.167 429.165 109.731 429.034 110.386C428.894 111.024 428.899 111.767 429.05 112.614C429.218 113.451 429.571 114.384 430.109 115.412C430.648 116.439 431.213 117.26 431.806 117.875C432.417 118.481 433.029 118.917 433.643 119.182C434.247 119.43 434.853 119.531 435.46 119.483C436.067 119.436 436.655 119.264 437.222 118.967ZM430.33 105.813C431.517 105.191 432.694 104.788 433.863 104.605C435.04 104.395 436.149 104.423 437.192 104.69C438.226 104.938 439.183 105.43 440.065 106.165C440.955 106.873 441.711 107.82 442.333 109.007C442.964 110.212 443.317 111.381 443.393 112.516C443.485 113.641 443.345 114.709 442.97 115.718C442.586 116.709 441.973 117.629 441.131 118.477C440.315 119.333 439.313 120.072 438.127 120.694C436.922 121.325 435.735 121.732 434.567 121.916C433.408 122.117 432.311 122.093 431.278 121.844C430.235 121.577 429.269 121.09 428.379 120.383C427.506 119.665 426.754 118.705 426.123 117.5C425.501 116.313 425.144 115.157 425.051 114.031C424.966 112.879 425.116 111.807 425.5 110.816C425.874 109.807 426.474 108.883 427.299 108.044C428.115 107.188 429.125 106.444 430.33 105.813Z" fill="white"/>
<path d="M450.602 95.9921L454.396 94.1912L458.448 102.728C459.066 104.029 459.837 104.815 460.762 105.084C461.678 105.335 462.75 105.17 463.979 104.586L467.502 102.914L461.714 90.7181L465.508 88.9173L472.197 103.01L464.879 106.484C462.296 107.71 460.162 108.158 458.478 107.828C456.803 107.472 455.529 106.372 454.654 104.529L450.602 95.9921Z" fill="white"/>
<path d="M494.386 78.3558L491.75 79.4391L490.952 77.4968L493.588 76.4135L491.763 71.9737L495.648 70.3773L497.472 74.817L501.773 73.0495L502.572 74.9919L498.271 76.7594L501.236 83.9739C501.524 84.6769 501.845 85.2477 502.199 85.6863C502.563 86.0989 502.939 86.4092 503.327 86.6172C503.726 86.7992 504.132 86.8919 504.544 86.8955C504.957 86.899 505.357 86.821 505.746 86.6613C506.3 86.4333 506.803 86.1296 507.252 85.7502C507.694 85.3524 508.049 84.9795 508.317 84.6316L509.891 86.0931C509.45 86.5986 508.907 87.0922 508.261 87.5736C507.634 88.0475 506.969 88.4289 506.266 88.7178C504.176 89.5768 502.354 89.7202 500.799 89.148C499.245 88.5758 498.096 87.3833 497.351 85.5704L494.386 78.3558Z" fill="white"/>
<path d="M511.786 68.9393L515.722 67.4717L519.024 76.326C519.527 77.6752 520.228 78.5239 521.126 78.8719C522.017 79.2013 523.1 79.1283 524.374 78.6531L528.028 77.2903L523.311 64.6413L527.246 63.1737L532.697 77.7903L525.108 80.6207C522.428 81.6201 520.264 81.883 518.614 81.4095C516.977 80.9103 515.801 79.705 515.088 77.7936L511.786 68.9393Z" fill="white"/>
<path d="M552.027 68.7706C552.673 68.558 553.231 68.2691 553.7 67.9041C554.182 67.5138 554.541 67.0376 554.777 66.4756C555.033 65.9074 555.152 65.2469 555.136 64.4942C555.139 63.7353 554.981 62.8714 554.662 61.9025C554.343 60.9336 553.957 60.1448 553.504 59.5359C553.07 58.9208 552.581 58.4604 552.039 58.1548C551.515 57.8429 550.946 57.6826 550.333 57.674C549.732 57.6401 549.109 57.7295 548.463 57.9421L544.901 59.1145L548.465 69.943L552.027 68.7706ZM545.132 73.2509L538.567 53.3037L542.556 51.9905L544.244 57.1198L547.806 55.9474C549.117 55.5159 550.361 55.2961 551.537 55.2878C552.733 55.2734 553.817 55.464 554.789 55.8598C555.762 56.2556 556.597 56.8438 557.296 57.6243C558.014 58.3986 558.561 59.3557 558.936 60.4956C559.311 61.6354 559.44 62.73 559.322 63.7795C559.224 64.8227 558.901 65.7923 558.353 66.6883C557.806 67.5843 557.047 68.3815 556.077 69.0799C555.126 69.772 553.995 70.3338 552.684 70.7653L545.132 73.2509Z" fill="white"/>
<path d="M581.524 60.1629C582.466 59.8926 583.294 59.4783 584.008 58.9198C584.74 58.3558 585.416 57.6627 586.033 56.8406L587.683 58.2399C587.411 58.6715 587.064 59.0936 586.641 59.5061C586.238 59.9132 585.776 60.2955 585.254 60.6533C584.746 60.9862 584.198 61.289 583.611 61.5617C583.029 61.8535 582.43 62.0877 581.815 62.2642C580.45 62.6558 579.148 62.8317 577.909 62.7919C576.695 62.7658 575.597 62.5294 574.616 62.0827C573.629 61.6167 572.771 60.9474 572.042 60.0746C571.332 59.1963 570.79 58.1035 570.415 56.7962C570.045 55.5082 569.919 54.3064 570.036 53.1909C570.166 52.0507 570.5 51.0393 571.038 50.1569C571.589 49.2497 572.324 48.4769 573.244 47.8385C574.158 47.1809 575.23 46.6756 576.461 46.3226C577.614 45.9916 578.75 45.853 579.868 45.9067C580.986 45.9604 582.017 46.2161 582.96 46.6739C583.897 47.1124 584.722 47.7392 585.434 48.5543C586.147 49.3695 586.674 50.373 587.016 51.5649L587.595 53.5834L575.282 57.1163C575.97 58.6458 576.846 59.6324 577.91 60.0763C578.993 60.5146 580.198 60.5435 581.524 60.1629ZM576.998 48.197C576.441 48.3569 575.952 48.6116 575.532 48.961C575.112 49.3103 574.786 49.7681 574.553 50.3343C574.339 50.8949 574.222 51.5736 574.201 52.3704C574.199 53.1616 574.338 54.079 574.616 55.1226L582.69 52.8059C582.404 51.8063 582.04 50.9743 581.6 50.3099C581.159 49.6456 580.681 49.1379 580.164 48.7868C579.661 48.411 579.129 48.1891 578.568 48.121C578.022 48.0282 577.498 48.0536 576.998 48.197Z" fill="white"/>
</svg>
