<svg width="20" height="20" viewBox="0 0 20 20" fill="none" xmlns="http://www.w3.org/2000/svg">
<g clip-path="url(#clip0_2799_634)">
<path fill-rule="evenodd" clip-rule="evenodd" d="M9.71538 14.3977C9.68587 14.3886 9.65846 14.3737 9.63474 14.3539C9.61101 14.3341 9.59145 14.3098 9.57718 14.2824C9.56291 14.255 9.55422 14.225 9.5516 14.1942C9.54898 14.1635 9.5525 14.1325 9.56194 14.103C9.57138 14.0736 9.58656 14.0464 9.6066 14.0229C9.62665 13.9993 9.65115 13.98 9.6787 13.9661C9.70626 13.9521 9.7363 13.9437 9.76711 13.9414C9.79792 13.9391 9.82888 13.943 9.8582 13.9527L12.4608 14.7971C12.6863 14.869 12.931 14.8492 13.1419 14.7419C13.3528 14.6346 13.5129 14.4484 13.5875 14.2239C13.741 13.7572 13.4638 13.2612 12.9976 13.11L8.3873 11.6144C7.38765 11.2901 6.43097 11.9959 5.41175 12.748C4.95499 13.085 4.48648 13.4306 3.99027 13.7072L5.97796 17.6038L6.35074 17.4137C7.20542 16.9776 8.20656 17.2053 9.30824 17.4559C10.1386 17.6448 11.0298 17.8475 11.9201 17.7666C12.5898 17.7058 13.2004 17.2671 13.7732 16.8461L13.7735 16.8464L18.7311 12.8847C19.691 12.1177 18.6941 11.2591 18.1689 11.6158L14.0044 14.445C13.8771 14.7671 13.632 15.0288 13.3188 15.1768C13.0055 15.3248 12.6477 15.3481 12.318 15.2418L9.71538 14.3975V14.3977ZM13.3615 11.5646H14.7541V11.6473C14.7539 11.7042 14.7313 11.7588 14.691 11.799C14.6507 11.8393 14.5962 11.862 14.5393 11.8621H13.5763C13.5194 11.862 13.4648 11.8393 13.4246 11.799C13.3843 11.7588 13.3616 11.7042 13.3615 11.6473L13.3615 11.5646ZM12.2819 9.47429V10.548C12.2823 10.6931 12.3402 10.8323 12.4429 10.9349C12.5455 11.0376 12.6847 11.0954 12.8298 11.0958H15.2859C15.431 11.0954 15.5702 11.0376 15.6728 10.9349C15.7755 10.8323 15.8333 10.6931 15.8338 10.548V9.47429H12.2819ZM17.0289 3.07308C16.9847 3.11577 16.9255 3.13939 16.864 3.13886C16.8026 3.13832 16.7438 3.11368 16.7003 3.07022C16.6569 3.02677 16.6322 2.96798 16.6317 2.90653C16.6312 2.84508 16.6548 2.78587 16.6975 2.74167L17.3241 2.11503C17.3683 2.07206 17.4276 2.0482 17.4892 2.04861C17.5508 2.04903 17.6098 2.07368 17.6533 2.11724C17.6969 2.16081 17.7216 2.21977 17.722 2.28138C17.7224 2.34299 17.6985 2.40228 17.6556 2.44644L17.0289 3.07308ZM18.0252 5.94714C17.9631 5.94714 17.9035 5.92245 17.8595 5.87849C17.8155 5.83454 17.7909 5.77492 17.7909 5.71276C17.7909 5.6506 17.8155 5.59099 17.8595 5.54704C17.9035 5.50308 17.9631 5.47839 18.0252 5.47839H18.9115C18.9736 5.47839 19.0333 5.50308 19.0772 5.54704C19.1212 5.59099 19.1459 5.6506 19.1459 5.71276C19.1459 5.77492 19.1212 5.83454 19.0772 5.87849C19.0333 5.92245 18.9736 5.94714 18.9115 5.94714H18.0252ZM14.2922 1.74534C14.2922 1.8075 14.2675 1.86712 14.2235 1.91107C14.1796 1.95502 14.12 1.97972 14.0578 1.97972C13.9956 1.97972 13.936 1.95502 13.8921 1.91107C13.8481 1.86712 13.8234 1.8075 13.8234 1.74534V0.859131C13.8234 0.796971 13.8481 0.737357 13.8921 0.693403C13.936 0.649449 13.9956 0.624756 14.0578 0.624756C14.12 0.624756 14.1796 0.649449 14.2235 0.693403C14.2675 0.737357 14.2922 0.796971 14.2922 0.859131V1.74534ZM10.0904 5.47839C10.1525 5.47839 10.2122 5.50308 10.2561 5.54704C10.3001 5.59099 10.3248 5.6506 10.3248 5.71276C10.3248 5.77492 10.3001 5.83454 10.2561 5.87849C10.2122 5.92245 10.1525 5.94714 10.0904 5.94714H9.20417C9.14201 5.94714 9.0824 5.92245 9.03845 5.87849C8.99449 5.83454 8.9698 5.77492 8.9698 5.71276C8.9698 5.6506 8.99449 5.59099 9.03845 5.54704C9.0824 5.50308 9.14201 5.47839 9.20417 5.47839H10.0904ZM11.4181 2.74167C11.4608 2.78587 11.4844 2.84508 11.4839 2.90653C11.4834 2.96798 11.4587 3.02677 11.4153 3.07022C11.3718 3.11368 11.313 3.13832 11.2516 3.13886C11.1901 3.13939 11.1309 3.11577 11.0867 3.07308L10.4601 2.44644C10.4377 2.42482 10.4198 2.39895 10.4075 2.37036C10.3953 2.34176 10.3888 2.31101 10.3885 2.27989C10.3883 2.24877 10.3942 2.21791 10.406 2.1891C10.4178 2.1603 10.4352 2.13413 10.4572 2.11212C10.4792 2.09012 10.5053 2.07272 10.5341 2.06093C10.5629 2.04915 10.5938 2.04322 10.6249 2.04349C10.6561 2.04376 10.6868 2.05022 10.7154 2.06251C10.744 2.07479 10.7699 2.09264 10.7915 2.11503L11.4181 2.74167ZM15.8869 9.00554C16.1316 7.9414 17.139 7.30077 17.139 5.71276C17.1404 5.30722 17.0618 4.90538 16.9076 4.53029C16.7534 4.15519 16.5267 3.81423 16.2404 3.52696C15.9542 3.23968 15.614 3.01174 15.2395 2.85621C14.8649 2.70068 14.4634 2.62062 14.0578 2.62062C13.6523 2.62062 13.2507 2.70068 12.8762 2.85621C12.5016 3.01174 12.1615 3.23968 11.8752 3.52696C11.589 3.81423 11.3623 4.15519 11.2081 4.53029C11.0539 4.90538 10.9752 5.30722 10.9767 5.71276C10.9767 7.30058 11.9842 7.94124 12.2288 9.00554H13.8234V7.47866L13.0915 6.74671C13.0691 6.72509 13.0512 6.69923 13.039 6.67063C13.0267 6.64204 13.0202 6.61128 13.0199 6.58016C13.0197 6.54904 13.0256 6.51818 13.0374 6.48938C13.0492 6.46057 13.0666 6.4344 13.0886 6.4124C13.1106 6.39039 13.1367 6.37299 13.1656 6.3612C13.1944 6.34942 13.2252 6.34349 13.2563 6.34376C13.2875 6.34403 13.3182 6.3505 13.3468 6.36278C13.3754 6.37506 13.4013 6.39292 13.4229 6.4153L14.0578 7.05022L14.6928 6.4153C14.7144 6.39292 14.7402 6.37506 14.7688 6.36278C14.7974 6.3505 14.8282 6.34403 14.8593 6.34376C14.8904 6.34349 14.9213 6.34942 14.9501 6.3612C14.9789 6.37299 15.0051 6.39039 15.0271 6.4124C15.0491 6.4344 15.0665 6.46057 15.0783 6.48938C15.0901 6.51818 15.096 6.54904 15.0957 6.58016C15.0954 6.61128 15.089 6.64204 15.0767 6.67063C15.0644 6.69923 15.0466 6.72509 15.0242 6.74671L14.2922 7.47866V9.00554H15.8869ZM3.07359 13.1453C3.08439 13.1397 3.0962 13.1362 3.10834 13.1352C3.12048 13.1342 3.13271 13.1356 3.14431 13.1393C3.1559 13.143 3.16665 13.149 3.17591 13.1569C3.18518 13.1648 3.19278 13.1745 3.19827 13.1854L5.93265 18.5458C5.94037 18.5575 5.94538 18.5707 5.9473 18.5845C5.94921 18.5984 5.94799 18.6125 5.94372 18.6257C5.93945 18.639 5.93224 18.6512 5.92263 18.6613C5.91302 18.6715 5.90125 18.6793 5.8882 18.6842L4.55527 19.3642C4.53568 19.375 4.51281 19.3781 4.49106 19.373C4.4693 19.3679 4.45021 19.3549 4.43745 19.3366L0.869916 14.3896C0.861802 14.3788 0.856179 14.3663 0.85345 14.3531C0.850721 14.3399 0.850954 14.3263 0.854133 14.3132C0.857312 14.3001 0.863358 14.2878 0.871835 14.2773C0.880312 14.2668 0.89101 14.2584 0.903158 14.2525L3.07359 13.1453Z" fill="white"/>
</g>
<defs>
<clipPath id="clip0_2799_634">
<rect width="20" height="20" fill="white"/>
</clipPath>
</defs>
</svg>
