<svg width="20" height="20" viewBox="0 0 20 20" fill="none" xmlns="http://www.w3.org/2000/svg">
<path d="M17.0203 11.1563L12.2286 15.948L10.8828 14.6022C11.3477 14.6192 11.811 14.5399 12.2438 14.3693C12.6765 14.1986 13.0693 13.9403 13.3974 13.6105L16.437 10.573L17.0203 11.1563ZM12.1411 4.79177C12.1002 4.7916 12.0602 4.77936 12.0262 4.75659C11.9921 4.73381 11.9655 4.70151 11.9498 4.66372C11.934 4.62593 11.9297 4.58433 11.9374 4.54411C11.9451 4.50389 11.9646 4.46685 11.9932 4.4376L12.8141 3.61677C12.8327 3.59496 12.8557 3.57725 12.8816 3.56474C12.9074 3.55224 12.9356 3.54521 12.9643 3.5441C12.993 3.54299 13.0216 3.54783 13.0483 3.5583C13.075 3.56877 13.0993 3.58466 13.1196 3.60496C13.1399 3.62527 13.1558 3.64955 13.1663 3.67628C13.1768 3.70302 13.1816 3.73163 13.1805 3.76032C13.1794 3.78901 13.1723 3.81716 13.1598 3.84301C13.1473 3.86886 13.1296 3.89184 13.1078 3.91052L12.2891 4.73968C12.2484 4.77565 12.1954 4.79433 12.1411 4.79177ZM13.0807 7.08343C13.0393 7.08367 12.9988 7.07159 12.9644 7.04871C12.9299 7.02584 12.903 6.99321 12.8871 6.95499C12.8712 6.91677 12.8671 6.8747 12.8753 6.83412C12.8834 6.79355 12.9034 6.75632 12.9328 6.72718L13.7474 5.9126C13.7668 5.89318 13.7899 5.87777 13.8153 5.86725C13.8406 5.85674 13.8678 5.85133 13.8953 5.85133C13.9228 5.85133 13.95 5.85674 13.9754 5.86725C14.0007 5.87777 14.0238 5.89318 14.0432 5.9126C14.0627 5.93202 14.0781 5.95509 14.0886 5.98046C14.0991 6.00584 14.1045 6.03305 14.1045 6.06052C14.1045 6.08799 14.0991 6.11519 14.0886 6.14057C14.0781 6.16595 14.0627 6.18901 14.0432 6.20843L13.2224 7.02927C13.1837 7.06448 13.1331 7.08382 13.0807 7.08343ZM13.9557 9.44593C13.9145 9.44576 13.8743 9.43337 13.8401 9.41034C13.806 9.38731 13.7794 9.35466 13.7638 9.31653C13.7482 9.2784 13.7442 9.23649 13.7524 9.19611C13.7606 9.15574 13.7806 9.1187 13.8099 9.08968L14.6286 8.26885C14.648 8.24932 14.6711 8.23382 14.6964 8.22325C14.7218 8.21267 14.7491 8.20723 14.7766 8.20723C14.8041 8.20723 14.8313 8.21267 14.8567 8.22325C14.8821 8.23382 14.9051 8.24932 14.9245 8.26885C14.9633 8.30788 14.9851 8.36069 14.9851 8.41573C14.9851 8.47076 14.9633 8.52357 14.9245 8.5626L14.1016 9.3751C14.0832 9.39605 14.0609 9.41312 14.0358 9.42528C14.0108 9.43745 13.9835 9.44447 13.9557 9.44593Z" fill="white"/>
<path d="M16.3536 10.0667L13.1078 13.3105C12.7869 13.6342 12.3958 13.8798 11.9649 14.0282C11.5339 14.1767 11.0746 14.2241 10.6224 14.1667L10.037 14.0896C9.78429 14.0568 9.52745 14.0824 9.2862 14.1644C9.04494 14.2464 8.8257 14.3826 8.64531 14.5626L7.77031 15.4375C7.75156 15.4167 2.93073 10.5855 2.91406 10.5855L2.92865 10.5709C3.14926 10.7811 3.42668 10.922 3.72656 10.9762C4.02644 11.0304 4.33563 10.9955 4.61586 10.8757C4.8961 10.756 5.13508 10.5568 5.30324 10.3026C5.4714 10.0485 5.56136 9.75062 5.56198 9.44588C5.56302 9.42576 5.56302 9.40559 5.56198 9.38547C5.58137 9.38753 5.60092 9.38753 5.62031 9.38547C5.82997 9.38534 6.03744 9.34292 6.23031 9.26073C6.42318 9.17854 6.59748 9.05828 6.74278 8.90714C6.88808 8.75601 7.00139 8.5771 7.07593 8.38115C7.15046 8.18519 7.18469 7.97621 7.17656 7.76672C7.19595 7.76878 7.21551 7.76878 7.2349 7.76672C7.44482 7.7669 7.6526 7.72461 7.84575 7.64239C8.0389 7.56017 8.21342 7.43973 8.35881 7.28831C8.5042 7.13689 8.61745 6.95762 8.69175 6.76129C8.76605 6.56496 8.79986 6.35562 8.79115 6.14588C8.81054 6.14795 8.83009 6.14795 8.84948 6.14588C9.15422 6.14583 9.45224 6.0563 9.70657 5.8884C9.96089 5.72051 10.1603 5.48165 10.2801 5.20144C10.3999 4.92123 10.4348 4.61202 10.3805 4.31216C10.3262 4.0123 10.185 3.73499 9.97448 3.51463L11.6641 1.83547C11.7768 1.72283 11.9118 1.63504 12.0605 1.57774C12.2092 1.52043 12.3682 1.49488 12.5273 1.50273C12.6865 1.51058 12.8422 1.55165 12.9845 1.62331C13.1268 1.69497 13.2526 1.79562 13.3536 1.9188C13.5313 2.14773 13.6183 2.43417 13.5979 2.72324C13.5776 3.01232 13.4513 3.28372 13.2432 3.48547L12.962 3.77088C13.075 3.6585 13.2103 3.57093 13.3591 3.51379C13.5079 3.45665 13.667 3.43118 13.8262 3.43903C13.9854 3.44687 14.1413 3.48785 14.2837 3.55934C14.4262 3.63083 14.5522 3.73126 14.6536 3.85422C14.8299 4.08309 14.9158 4.36878 14.8951 4.6569C14.8743 4.94502 14.7484 5.21545 14.5411 5.41672L13.9016 6.0563C14.0141 5.94337 14.1491 5.85532 14.2978 5.79783C14.4465 5.74034 14.6056 5.71469 14.7649 5.72254C14.9241 5.7304 15.0799 5.77158 15.2223 5.84342C15.3646 5.91527 15.4903 6.01618 15.5911 6.13963C15.7699 6.36854 15.8575 6.65552 15.8371 6.9452C15.8167 7.23489 15.6897 7.50677 15.4807 7.70838L14.7766 8.41255C14.8894 8.30056 15.0243 8.21331 15.1728 8.15639C15.3212 8.09947 15.4799 8.07413 15.6387 8.08197C15.7975 8.08981 15.9529 8.13067 16.095 8.20194C16.2371 8.2732 16.3628 8.37332 16.4641 8.49588C16.6429 8.72512 16.7306 9.01244 16.7102 9.30248C16.6898 9.59252 16.5628 9.86475 16.3536 10.0667Z" fill="white"/>
<path d="M7.46771 15.718L2.63287 10.8831C2.48398 10.7342 2.24258 10.7342 2.0937 10.8831L0.31709 12.6597C0.168203 12.8086 0.168204 13.05 0.317091 13.1989L5.15193 18.0337C5.30082 18.1826 5.54221 18.1826 5.6911 18.0337L7.46771 16.2571C7.6166 16.1082 7.6166 15.8668 7.46771 15.718Z" fill="white"/>
<path d="M19.6822 13.1771L17.9155 11.4021C17.8803 11.3664 17.8382 11.3381 17.7919 11.3187C17.7456 11.2993 17.6959 11.2894 17.6457 11.2894C17.5955 11.2894 17.5458 11.2993 17.4995 11.3187C17.4532 11.3381 17.4112 11.3664 17.3759 11.4021L12.5426 16.2355C12.5069 16.2707 12.4785 16.3127 12.4592 16.359C12.4398 16.4054 12.4299 16.4551 12.4299 16.5053C12.4299 16.5554 12.4398 16.6051 12.4592 16.6515C12.4785 16.6978 12.5069 16.7398 12.5426 16.775L14.3093 18.5417C14.3445 18.5774 14.3866 18.6058 14.4329 18.6251C14.4792 18.6445 14.5289 18.6545 14.5791 18.6545C14.6293 18.6545 14.679 18.6445 14.7253 18.6251C14.7716 18.6058 14.8136 18.5774 14.8489 18.5417L19.6822 13.7084C19.7518 13.6375 19.7908 13.5421 19.7908 13.4428C19.7908 13.3434 19.7518 13.248 19.6822 13.1771ZM14.6801 17.0834C14.5466 17.0834 14.4161 17.0438 14.3051 16.9696C14.1941 16.8954 14.1076 16.79 14.0565 16.6667C14.0054 16.5433 13.992 16.4076 14.0181 16.2767C14.0441 16.1458 14.1084 16.0255 14.2028 15.9311C14.2972 15.8367 14.4175 15.7724 14.5484 15.7463C14.6794 15.7203 14.8151 15.7337 14.9384 15.7848C15.0618 15.8358 15.1672 15.9224 15.2413 16.0334C15.3155 16.1444 15.3551 16.2749 15.3551 16.4084C15.3551 16.5874 15.284 16.7591 15.1574 16.8857C15.0308 17.0123 14.8591 17.0834 14.6801 17.0834ZM9.66136 5.41671C9.55534 5.52272 9.42948 5.60682 9.29097 5.6642C9.15245 5.72157 9.00399 5.75111 8.85406 5.75111C8.70414 5.75111 8.55568 5.72157 8.41716 5.6642C8.27864 5.60682 8.15279 5.52272 8.04677 5.41671L5.92386 3.28546C5.81825 3.17903 5.73464 3.05285 5.6778 2.91411C5.62097 2.77537 5.59201 2.6268 5.59259 2.47687C5.59376 2.17408 5.71517 1.88415 5.93011 1.67087C6.14504 1.4576 6.4359 1.33844 6.73869 1.33961C7.04149 1.34078 7.33141 1.46219 7.54469 1.67712C7.53556 1.68865 7.52786 1.70124 7.52177 1.71462C7.42659 1.90848 7.39547 2.12758 7.43292 2.34027C7.47036 2.55297 7.57443 2.74826 7.73011 2.89796L8.39469 3.56671C8.57734 3.74838 8.8032 3.8806 9.05103 3.95094C9.29886 4.02128 9.5605 4.02742 9.81136 3.96879C9.95837 4.19001 10.0238 4.4555 9.99643 4.71969C9.96906 4.98389 9.85059 5.23032 9.66136 5.41671ZM8.04677 7.02296C7.94104 7.12947 7.81527 7.21401 7.67672 7.2717C7.53817 7.32939 7.38957 7.35909 7.23948 7.35909C7.0894 7.35909 6.9408 7.32939 6.80224 7.2717C6.66369 7.21401 6.53792 7.12947 6.43219 7.02296C4.97386 5.56462 5.27594 5.87087 4.62594 5.21671C4.42637 4.9977 4.31976 4.70969 4.32864 4.41352C4.33752 4.11735 4.46119 3.83624 4.67353 3.62959C4.88586 3.42293 5.17023 3.30692 5.46652 3.30608C5.76282 3.30523 6.04784 3.41961 6.26136 3.62504L8.04677 5.41671C8.25735 5.63099 8.37534 5.9194 8.37534 6.21983C8.37534 6.52026 8.25735 6.80868 8.04677 7.02296Z" fill="white"/>
<path d="M6.43258 8.63757C6.21812 8.85181 5.92739 8.97215 5.62425 8.97215C5.32111 8.97215 5.03038 8.85181 4.81592 8.63757L3.35758 7.16882C3.14458 6.95361 3.0258 6.6626 3.02736 6.3598C3.02892 6.05701 3.1507 5.76724 3.36592 5.55424C3.58113 5.34124 3.87214 5.22245 4.17493 5.22401C4.47773 5.22558 4.7675 5.34736 4.9805 5.56257L6.43883 7.02091C6.54475 7.12737 6.62863 7.25368 6.68565 7.39261C6.74268 7.53154 6.77173 7.68036 6.77115 7.83054C6.77057 7.98071 6.74037 8.1293 6.68227 8.26778C6.62417 8.40627 6.53932 8.53193 6.43258 8.63757Z" fill="white"/>
<path d="M4.8169 10.2522C4.71088 10.3582 4.58503 10.4423 4.44651 10.4997C4.308 10.557 4.15954 10.5866 4.00961 10.5866C3.85968 10.5866 3.71122 10.557 3.5727 10.4997C3.43419 10.4423 3.30833 10.3582 3.20232 10.2522L2.57732 9.62717C2.36293 9.41306 2.24238 9.12256 2.24219 8.81957C2.24199 8.51658 2.36217 8.22592 2.57627 8.01154C2.79038 7.79716 3.08088 7.67661 3.38387 7.67641C3.68686 7.67622 3.97752 7.79639 4.1919 8.0105L4.8169 8.6355C4.92373 8.74127 5.00853 8.86717 5.06641 9.00591C5.12428 9.14466 5.15408 9.2935 5.15408 9.44383C5.15408 9.59417 5.12428 9.74301 5.06641 9.88175C5.00853 10.0205 4.92373 10.1464 4.8169 10.2522ZM11.0586 1.8605L9.33356 3.58342C9.08724 3.55555 8.85751 3.44545 8.68148 3.27092L8.01898 2.60425C7.94005 2.51627 7.88768 2.40771 7.86796 2.29117C7.84823 2.17463 7.86196 2.05489 7.90754 1.94583C7.95313 1.83678 8.0287 1.74289 8.1255 1.67505C8.22229 1.60721 8.33634 1.56822 8.4544 1.56258H10.5377C10.6436 1.559 10.7485 1.58497 10.8404 1.63759C10.9324 1.69021 11.008 1.76739 11.0586 1.8605Z" fill="white"/>
</svg>
