<svg width="48" height="48" viewBox="0 0 48 48" fill="none" xmlns="http://www.w3.org/2000/svg">
<path d="M6.61542 39.2366L5.83252 41.0025C5.41205 41.951 6.31327 42.9494 7.29971 42.6279L13.5465 40.5921L16.2324 46.5882C16.6565 47.535 18.0015 47.5325 18.422 46.584L21.155 40.4196M8.89599 34.0926L7.94536 36.2368M26.8464 40.4197L29.5794 46.5841C29.9999 47.5326 31.345 47.5351 31.769 46.5883L34.4549 40.5922L40.7017 42.628C41.6881 42.9495 42.5894 41.9511 42.1689 41.0026L39.1054 34.0928M39.705 14.3592C40.7441 12.0053 40.418 9.19556 38.7265 7.12894M36.1122 5.14575C34.3285 4.36931 32.2866 4.37372 30.5057 5.15981C29.4953 2.55262 26.9647 0.703125 24.0007 0.703125C21.0367 0.703125 18.5062 2.55262 17.4958 5.15981C14.9377 4.03069 11.8406 4.51228 9.7447 6.60816C7.64883 8.70403 7.16733 11.8012 8.29636 14.3592" stroke="black" stroke-miterlimit="10" stroke-linecap="round" stroke-linejoin="round"/>
<path d="M8.29662 27.3691C7.16749 29.9272 7.64908 33.0243 9.74496 35.1202C11.8408 37.2161 14.938 37.6976 17.496 36.5686C18.5065 39.1757 21.037 41.0252 24.001 41.0252C26.965 41.0252 29.4956 39.1757 30.5059 36.5686C33.064 37.6977 36.1611 37.2161 38.257 35.1202C40.3528 33.0243 40.8343 29.9272 39.7053 27.3691M35.4718 14.3592C33.2048 10.37 28.9173 7.67883 24.001 7.67883C19.0846 7.67883 14.7971 10.3699 12.5301 14.3592" stroke="black" stroke-miterlimit="10" stroke-linecap="round" stroke-linejoin="round"/>
<path d="M12.5291 27.3691C14.7962 31.3584 19.0837 34.0495 24 34.0495C28.9163 34.0495 33.2038 31.3584 35.4709 27.3691M41.762 27.3691H6.23803C4.39791 27.3691 2.90625 25.8775 2.90625 24.0373V17.691C2.90625 15.8509 4.39791 14.3593 6.23803 14.3593H41.762C43.6021 14.3593 45.0938 15.8509 45.0938 17.691V24.0373C45.0938 25.8775 43.6021 27.3691 41.762 27.3691Z" stroke="black" stroke-miterlimit="10" stroke-linecap="round" stroke-linejoin="round"/>
<path d="M9.47644 17.769H6.84375V24.017H9.47644M9.28228 20.893H6.84375M28.939 17.769H26.3063V24.017H28.939M28.745 20.893H26.3063M12.6314 17.7114L17.0672 24.017M16.755 17.7114L12.3129 24.017M37.6709 17.7114H41.1533M39.4051 17.9128V24.017M32.5307 21.0075L35.1794 24.017M31.7703 17.7114V24.017M31.7723 17.7114H33.4479C34.3858 17.7114 35.1794 18.4451 35.1794 19.3502C35.1794 20.2552 34.3858 20.9889 33.4479 20.9889C32.9828 20.9889 31.784 20.9961 31.784 20.9961M19.8907 24.017V17.7114H21.6465C22.6293 17.7114 23.4608 18.5081 23.4608 19.4909C23.4608 20.4737 22.6292 21.2704 21.6465 21.2704C21.1591 21.2704 19.9029 21.2782 19.9029 21.2782" stroke="black" stroke-miterlimit="10" stroke-linecap="round" stroke-linejoin="round"/>
</svg>
