<svg width="48" height="48" viewBox="0 0 48 48" fill="none" xmlns="http://www.w3.org/2000/svg">
<g clip-path="url(#clip0_2799_612)">
<path d="M44.2867 15.75C42.5242 15.75 41.0898 17.1281 40.9867 18.8625H35.9992C40.1148 10.0875 33.3461 -0.215671 23.6242 0.140579C14.4648 0.318704 7.96797 10.575 12.0086 18.8625H7.01172C6.63672 14.6437 0.542969 14.7843 0.402344 19.0593V44.5218C0.402344 46.3593 1.91172 47.8687 3.74922 47.8687H44.2492C46.0867 47.8687 47.5867 46.3593 47.5961 44.5218V19.0593C47.5961 17.2312 46.1148 15.75 44.2867 15.75ZM23.6523 1.1812C30.318 0.843704 36.3086 6.67496 36.168 13.3406C36.168 16.5468 34.8836 19.6312 32.6523 21.8906C29.7273 24.4125 28.3211 26.9625 28.5461 30.9187H19.4805V29.6343C19.4805 26.9906 18.243 24.4125 16.0961 22.5656C15.018 21.6281 14.0898 20.5125 13.3961 19.2656C8.86797 11.5593 14.7836 1.38745 23.6523 1.1812ZM27.6461 35.5781H29.7555C31.668 35.7281 31.3398 38.3906 29.3992 38.1468H18.5898C17.7555 38.25 16.9586 37.7625 16.9492 36.8625C16.9492 36.1593 17.5211 35.5781 18.2336 35.5781C18.5242 35.5781 18.7586 35.3437 18.7586 35.0531C18.7586 34.7625 18.5242 34.5281 18.2336 34.5281C17.5305 34.5281 16.9492 33.9562 16.9492 33.2437C16.9492 32.5312 17.5305 31.9687 18.2336 31.9687H29.7555C30.4586 31.9687 31.0398 32.5406 31.0398 33.2531C31.0398 33.9656 30.468 34.5375 29.7555 34.5375H27.6461C26.9617 34.5375 26.9711 35.5781 27.6461 35.5781ZM28.8742 39.1875C28.8742 39.2906 28.8648 39.3843 28.8555 39.4781C28.6867 41.2312 27.2898 42.7593 25.5648 43.0968C25.0305 43.2375 23.8305 43.1625 23.268 43.1812C21.093 43.2187 19.1617 41.3531 19.1242 39.1875H28.8742ZM1.44297 19.0593C1.53672 16.0687 5.88672 16.0593 5.98047 19.0593V42.15C4.81797 40.9687 2.60547 40.9687 1.44297 42.1593V19.0593ZM44.2492 46.8281H3.74922C2.49297 46.8281 1.46172 45.8062 1.44297 44.5312C1.46172 43.2937 2.47422 42.2906 3.71172 42.2906C4.95859 42.2906 5.98047 43.3125 5.98047 44.5593C5.98047 44.85 6.21484 45.0843 6.50547 45.0843C6.79609 45.0843 7.03047 44.85 7.03047 44.5593V19.9031H12.543C13.5836 21.7218 15.1773 22.8937 16.4898 24.4593C17.6992 25.9125 18.4305 27.7406 18.4305 29.6437V30.9281C16.1617 30.7687 15.0273 33.6375 16.7805 35.0531C15.1586 36.3187 16.0305 39.0281 18.0836 39.1781C18.1773 41.9343 20.5211 44.2312 23.2773 44.2218H24.7398C27.4867 44.2312 29.868 41.925 29.9336 39.1781C31.9961 39.0093 32.868 36.3375 31.2367 35.0531C32.9898 33.6562 31.8461 30.75 29.5867 30.9281C29.4648 28.7906 29.8867 26.6062 31.2086 24.8812C32.5117 23.1 34.368 21.8531 35.4742 19.9031H40.9867V44.5593C40.9773 45.1218 41.7836 45.2718 41.9898 44.7656C42.018 43.4718 42.8992 42.2906 44.2961 42.3C45.5336 42.3 46.5648 43.3218 46.5648 44.5593C46.5367 45.8062 45.5055 46.8281 44.2492 46.8281ZM46.5555 42.15C45.393 40.9593 43.1898 40.9593 42.018 42.1406V19.0593C42.1117 16.0687 46.4617 16.0593 46.5555 19.0593V42.15ZM23.9992 18.075C26.1367 18.075 27.8711 16.3406 27.8711 14.2031C27.693 9.08433 20.3148 9.07496 20.1273 14.2031C20.1273 16.3406 21.8617 18.075 23.9992 18.075ZM23.9992 11.3812C27.7398 11.5031 27.7398 16.9218 23.9992 17.0437C20.268 16.9125 20.268 11.4937 23.9992 11.3812ZM15.768 16.4625H17.0523C17.1742 16.8281 17.3148 17.175 17.493 17.5125L16.5836 18.4218C16.1898 18.825 16.1898 19.4718 16.5836 19.875L18.3273 21.6187C18.7305 22.0218 19.3773 22.0218 19.7805 21.6187L20.6898 20.7093C21.0273 20.8781 21.3742 21.0281 21.7398 21.15V22.4343C21.7398 22.9968 22.1992 23.4656 22.7711 23.4656H25.2367C25.7992 23.4656 26.268 23.0062 26.268 22.4343V21.15C26.6336 21.0281 26.9805 20.8875 27.318 20.7093L28.218 21.6093C28.6023 22.0125 29.2961 22.0125 29.6805 21.6093L31.4242 19.8656C31.8273 19.4625 31.8273 18.8156 31.4242 18.4125L30.5148 17.5031C30.693 17.1656 30.8336 16.8093 30.9555 16.4531H32.2398C32.8023 16.4531 33.2711 15.9937 33.2711 15.4218V12.9562C33.2711 12.3937 32.8117 11.925 32.2398 11.925H30.9555C30.843 11.5593 30.693 11.2125 30.5148 10.875C30.8992 10.425 31.7617 9.86245 31.7242 9.2437C31.7242 8.97183 31.6117 8.70933 31.4242 8.52183L29.6805 6.77808C29.2961 6.37495 28.6023 6.37495 28.2273 6.77808L27.318 7.68745C26.9805 7.5187 26.6242 7.3687 26.268 7.24683V5.97183C26.268 5.40933 25.8086 4.94058 25.2367 4.94058H22.7711C22.2086 4.94058 21.7398 5.39995 21.7398 5.97183V7.2562C21.3836 7.37808 21.0273 7.5187 20.6898 7.69683L19.7805 6.78745C19.3773 6.38433 18.7305 6.38433 18.3273 6.78745L16.5836 8.5312C16.1805 8.93433 16.1805 9.5812 16.5836 9.98433L17.493 10.8937C17.3242 11.2312 17.1742 11.5875 17.0523 11.9437H15.768C15.2055 11.9437 14.7367 12.4031 14.7367 12.975V15.4406C14.7367 16.0031 15.1961 16.4625 15.768 16.4625ZM17.4367 12.9843C17.6711 12.9843 17.8773 12.825 17.943 12.6C18.0836 12.0562 18.2992 11.5406 18.5805 11.0625C18.7023 10.8562 18.6648 10.5937 18.4961 10.4343L17.3148 9.27183L19.0398 7.52808C21.0273 9.51558 20.0242 8.8687 22.3961 8.1562C22.6211 8.09995 22.7805 7.88433 22.7805 7.64995L22.7617 5.99058L25.218 5.97183V7.64058C25.218 7.87495 25.3773 8.0812 25.6023 8.14683C27.9555 8.84995 26.9805 9.51558 28.9305 7.5187L30.6742 9.2437C28.6867 11.2312 29.343 10.2187 30.0461 12.5906C30.1023 12.8156 30.3086 12.9843 30.5523 12.9843H32.2117L32.2305 15.4218H30.5617C30.3273 15.4218 30.1211 15.5812 30.0555 15.8156C29.3617 18.1687 28.6773 17.1843 30.6836 19.1437L28.9586 20.8875L27.7773 19.7062C27.4586 19.3687 27.0648 19.6781 26.7461 19.8375C26.3055 20.1656 25.2461 20.1 25.2273 20.7656L25.2461 22.425L22.7898 22.4437V20.775C22.7711 20.1093 21.7023 20.175 21.2617 19.8468C20.943 19.6781 20.5492 19.3781 20.2305 19.7156L19.068 20.8968L17.3242 19.1718C19.3211 17.1843 18.6648 18.1875 17.9523 15.8156C17.8961 15.5906 17.6898 15.4312 17.4461 15.4312L15.7867 15.45L15.768 12.9937H17.4367V12.9843Z" fill="black"/>
</g>
<defs>
<clipPath id="clip0_2799_612">
<rect width="48" height="48" fill="white"/>
</clipPath>
</defs>
</svg>
