<svg width="48" height="48" viewBox="0 0 48 48" fill="none" xmlns="http://www.w3.org/2000/svg">
<path d="M18.327 18.1218C18.2473 18.8268 18.4555 19.4784 18.9289 20.0081C19.4014 20.5368 20.0267 20.8162 20.7355 20.8162H27.267C27.9767 20.8162 28.6011 20.5368 29.0736 20.0081C29.5461 19.4793 29.7542 18.8268 29.6755 18.1228C29.4411 16.0406 27.9608 14.3775 26.0267 13.8412C26.877 13.2168 27.4302 12.21 27.4302 11.0765C27.4302 9.18653 25.8927 7.6481 24.0017 7.6481C22.1108 7.6481 20.5733 9.18653 20.5733 11.0765C20.5733 12.21 21.1264 13.2168 21.9767 13.8412C20.0417 14.3765 18.5614 16.0387 18.327 18.1218ZM24.0008 8.77216C25.2711 8.77216 26.3042 9.80528 26.3042 11.0756C26.3042 12.3459 25.2711 13.379 24.0008 13.379C22.7305 13.379 21.6973 12.3459 21.6973 11.0756C21.6973 9.80528 22.7305 8.77216 24.0008 8.77216ZM23.3239 14.7825H24.6786C26.668 14.7825 28.3348 16.2722 28.557 18.2475C28.6011 18.6356 28.4952 18.9665 28.2345 19.2581C27.9739 19.5497 27.657 19.6912 27.2661 19.6912H20.7345C20.3436 19.6912 20.0267 19.5497 19.7661 19.2581C19.5055 18.9665 19.4005 18.6365 19.4436 18.2475C19.6667 16.2722 21.3345 14.7825 23.3239 14.7825ZM13.4192 25.9022C12.9392 25.3837 12.2942 25.0978 11.6052 25.0978C10.9161 25.0978 10.272 25.3828 9.79109 25.9022C9.57414 26.1368 9.40023 26.4078 9.27734 26.7028C9.24828 26.5172 9.23328 26.324 9.23328 26.1225V17.0287C9.23328 15.539 8.09141 14.3278 6.68891 14.3278C5.28641 14.3278 4.14453 15.539 4.14453 17.0287V29.7975C4.14453 30.9609 4.53266 31.9706 5.29953 32.7975L10.137 38.0165V46.3537C10.137 46.664 10.3892 46.9162 10.6995 46.9162H18.2727C18.583 46.9162 18.8352 46.664 18.8352 46.3537V32.8087C18.8595 32.1384 18.6383 31.5318 18.1939 31.0537L13.4192 25.9022ZM6.12359 32.0325C5.54891 31.4118 5.26859 30.6806 5.26859 29.7975V17.0287C5.26859 16.1597 5.90516 15.4528 6.68797 15.4528C7.47078 15.4528 8.10734 16.1597 8.10734 17.0287V26.1225C8.10734 27.2859 8.49547 28.2956 9.26234 29.1225L13.3367 33.5184C13.3869 33.5727 13.4473 33.6165 13.5144 33.6473C13.5816 33.6782 13.6542 33.6955 13.728 33.6983C13.8018 33.7011 13.8755 33.6893 13.9448 33.6636C14.0141 33.6378 14.0776 33.5987 14.1317 33.5484C14.3595 33.3375 14.3727 32.9812 14.1617 32.7534L10.5936 28.9031C10.5898 28.8984 10.5861 28.8947 10.5823 28.89C10.0414 28.2675 10.0564 27.27 10.6152 26.6672C10.8805 26.3812 11.2311 26.2237 11.6042 26.2237C11.9773 26.2237 12.328 26.3812 12.5933 26.6672L17.367 31.8187C17.6127 32.0831 17.7242 32.3962 17.7083 32.7759V41.3681H11.2602V37.7962C11.2602 37.6547 11.2067 37.5178 11.1102 37.4137L6.12359 32.0325ZM11.2611 45.7912V42.4931H17.7092V45.7912H11.2611ZM41.3127 14.3278C39.9092 14.3278 38.7683 15.54 38.7683 17.0287V26.1225C38.7683 26.324 38.7542 26.5172 38.7242 26.7028C38.6013 26.4078 38.4274 26.1368 38.2105 25.9022C37.7305 25.3837 37.0855 25.0978 36.3964 25.0978C35.7073 25.0978 35.0623 25.3828 34.5823 25.9022L29.8086 31.0537C29.3652 31.5328 29.1439 32.1393 29.1673 32.8087V46.3537C29.1673 46.664 29.4195 46.9162 29.7298 46.9162H37.303C37.6133 46.9162 37.8655 46.664 37.8655 46.3537V38.0165L42.703 32.7975C43.4689 31.9706 43.858 30.9618 43.858 29.7975V17.0287C43.857 15.539 42.7161 14.3278 41.3127 14.3278ZM30.2933 45.7912V42.4931H36.7414V45.7912H30.2933ZM42.732 29.7975C42.732 30.6806 42.4527 31.4118 41.877 32.0325L36.8905 37.4137C36.794 37.5178 36.7405 37.6544 36.7405 37.7962V41.3681H30.2923V32.7759C30.2773 32.3962 30.3889 32.0831 30.6336 31.8187L35.4073 26.6672C35.6727 26.3812 36.0233 26.2237 36.3964 26.2237C36.7686 26.2237 37.1202 26.3812 37.3855 26.6672C37.9442 27.27 37.9592 28.2675 37.4183 28.89C37.4145 28.8947 37.4108 28.8984 37.407 28.9031L33.8389 32.7534C33.628 32.9812 33.6411 33.3375 33.8689 33.5484C34.0967 33.7593 34.453 33.7462 34.6639 33.5184L38.7383 29.1225C39.5042 28.2956 39.8933 27.2868 39.8933 26.1225V17.0287C39.8933 16.1597 40.5298 15.4528 41.3127 15.4528C42.0955 15.4528 42.732 16.1597 42.732 17.0287V29.7975ZM11.8489 17.1872C11.6148 16.2193 11.4968 15.227 11.4973 14.2312C11.4973 7.33685 17.1064 1.72778 24.0008 1.72778C26.7589 1.72778 29.3998 2.62497 31.5664 4.27685L31.423 2.6156C31.3958 2.30622 31.6255 2.03341 31.9348 2.00622C32.2442 1.97997 32.517 2.20872 32.5442 2.5181L32.8067 5.54435C32.8132 5.61797 32.805 5.69215 32.7828 5.76263C32.7605 5.83311 32.7246 5.89852 32.6771 5.95511C32.6295 6.0117 32.5713 6.05837 32.5057 6.09245C32.4401 6.12653 32.3685 6.14735 32.2948 6.15372L29.2686 6.41622C29.2517 6.4181 29.2358 6.4181 29.2198 6.4181C29.0745 6.4186 28.9345 6.3628 28.8294 6.2624C28.7243 6.16199 28.6621 6.02477 28.6559 5.87952C28.6497 5.73427 28.7 5.59227 28.7962 5.48329C28.8924 5.37431 29.0271 5.30682 29.172 5.29497L30.8577 5.14872C28.8908 3.66091 26.4992 2.85185 24.0027 2.85185C17.7289 2.85185 12.6242 7.95559 12.6242 14.2303C12.6242 15.1397 12.732 16.0453 12.9439 16.9209C13.017 17.2228 12.8314 17.5265 12.5295 17.5997C12.486 17.6104 12.4413 17.6158 12.3964 17.6156C12.2702 17.6164 12.1474 17.5745 12.048 17.4968C11.9486 17.419 11.8785 17.3099 11.8489 17.1872ZM24.0008 26.7347C21.1639 26.7347 18.463 25.7915 16.2655 24.0553L16.3714 25.7315C16.3761 25.8053 16.3662 25.8792 16.3423 25.9492C16.3185 26.0191 16.281 26.0836 16.2322 26.1391C16.1833 26.1946 16.124 26.2399 16.0577 26.2724C15.9913 26.3049 15.9192 26.3241 15.8455 26.3287C15.8333 26.3297 15.8211 26.3297 15.8098 26.3297C15.5155 26.3297 15.268 26.1009 15.2492 25.8028L15.058 22.7709C15.0533 22.6972 15.0631 22.6232 15.087 22.5533C15.1109 22.4833 15.1484 22.4188 15.1972 22.3633C15.246 22.3079 15.3053 22.2626 15.3717 22.2301C15.438 22.1975 15.5102 22.1784 15.5839 22.1737L18.6158 21.9825C18.927 21.9628 19.1933 22.1981 19.213 22.5084C19.2327 22.8187 18.9973 23.0859 18.687 23.1056L17.0136 23.2115C19.0039 24.7659 21.4414 25.6097 24.0017 25.6097C30.2755 25.6097 35.3792 20.5059 35.3792 14.2312C35.3792 13.26 35.2564 12.2953 35.0155 11.3643C34.9377 11.0634 35.1177 10.7568 35.4186 10.679C35.7195 10.6012 36.0261 10.7812 36.1039 11.0822C36.3701 12.111 36.5046 13.1694 36.5042 14.2322C36.5033 21.1256 30.8952 26.7347 24.0008 26.7347Z" fill="black"/>
</svg>
