<svg width="20" height="20" viewBox="0 0 20 20" fill="none" xmlns="http://www.w3.org/2000/svg">
<g clip-path="url(#clip0_2799_621)">
<path d="M9.16406 20H10.8307C11.1623 20 11.4802 19.8683 11.7146 19.6339C11.949 19.3995 12.0807 19.0816 12.0807 18.75H7.91406C7.91406 19.0816 8.04576 19.3995 8.28018 19.6339C8.5146 19.8683 8.83254 20 9.16406 20ZM7.08073 16.25V17.0834C7.08073 17.543 7.45448 17.9167 7.91406 17.9167H12.0807C12.5403 17.9167 12.9141 17.543 12.9141 17.0834V16.25H7.08073ZM9.9974 3.33337C6.78073 3.33337 4.16406 5.95004 4.16406 9.16671C4.16406 11.375 5.12656 12.775 5.93073 13.5584C6.4724 14.0834 6.8349 14.7292 6.99323 15.4167H13.0016C13.1599 14.7292 13.5224 14.0834 14.0641 13.5584C14.8682 12.775 15.8307 11.375 15.8307 9.16671C15.8307 5.95004 13.2141 3.33337 9.9974 3.33337ZM13.0924 10.4725L12.6757 11.1942C12.5607 11.3934 12.3057 11.4617 12.0724 11.3271L11.7424 11.1367C11.7062 11.1163 11.6648 11.1072 11.6234 11.1105C11.5819 11.1137 11.5425 11.1292 11.5099 11.155C11.3428 11.2821 11.1591 11.3884 10.9628 11.4705C10.9242 11.4858 10.891 11.5123 10.8675 11.5466C10.844 11.5809 10.8312 11.6214 10.8307 11.663V12.0834C10.8307 12.1939 10.7868 12.2999 10.7087 12.378C10.6306 12.4561 10.5246 12.5 10.4141 12.5H9.58073C9.47022 12.5 9.36424 12.4561 9.2861 12.378C9.20796 12.2999 9.16406 12.1939 9.16406 12.0834V11.663C9.16362 11.6214 9.15083 11.5809 9.12731 11.5466C9.10379 11.5123 9.07061 11.4858 9.03198 11.4705C8.83698 11.3889 8.65314 11.283 8.4849 11.155C8.45224 11.1293 8.41264 11.1138 8.37117 11.1106C8.32969 11.1074 8.2882 11.1167 8.25198 11.1371L7.88865 11.3471C7.79295 11.4024 7.67922 11.4173 7.57248 11.3887C7.46574 11.3601 7.37473 11.2903 7.31948 11.1946L6.90281 10.473C6.78781 10.2738 6.85615 10.0188 7.08948 9.88421L7.41823 9.69462C7.45429 9.67327 7.48315 9.64164 7.50111 9.60378C7.51908 9.56592 7.52533 9.52356 7.51906 9.48212C7.4911 9.27306 7.4911 9.06119 7.51906 8.85212C7.52523 8.81065 7.51889 8.76828 7.50085 8.73043C7.48282 8.69258 7.45391 8.66096 7.41781 8.63962L7.05573 8.43046C6.96003 8.3752 6.8902 8.2842 6.8616 8.17746C6.83301 8.07072 6.84798 7.95699 6.90323 7.86129L7.3199 7.13962C7.4349 6.94046 7.6899 6.87212 7.92323 7.00671L8.25323 7.19712C8.3274 7.24004 8.4174 7.23046 8.48573 7.17879C8.65281 7.05171 8.83656 6.94546 9.03281 6.86337C9.07144 6.848 9.10462 6.8215 9.12814 6.78722C9.15166 6.75294 9.16445 6.71244 9.1649 6.67087V6.25046C9.1649 6.13995 9.2088 6.03397 9.28694 5.95583C9.36508 5.87769 9.47106 5.83379 9.58156 5.83379H10.4149C10.5254 5.83379 10.6314 5.87769 10.7095 5.95583C10.7877 6.03397 10.8316 6.13995 10.8316 6.25046V6.67087C10.8316 6.75629 10.8849 6.83046 10.9636 6.86337C11.1599 6.94546 11.3436 7.05171 11.5107 7.17879C11.5434 7.20456 11.583 7.22002 11.6245 7.22321C11.6659 7.2264 11.7074 7.21717 11.7436 7.19671L12.107 6.98671C12.2027 6.93146 12.3164 6.91648 12.4231 6.94508C12.5299 6.97368 12.6209 7.04351 12.6761 7.13921L13.0928 7.86087C13.2078 8.06004 13.1395 8.31504 12.9061 8.44962L12.5774 8.63921C12.5413 8.66056 12.5125 8.69219 12.4945 8.73005C12.4766 8.76791 12.4703 8.81027 12.4766 8.85171C12.5045 9.06078 12.5045 9.27264 12.4766 9.48171C12.4704 9.52318 12.4767 9.56555 12.4948 9.6034C12.5128 9.64126 12.5417 9.67287 12.5778 9.69421L12.9399 9.90337C13.0356 9.95863 13.1054 10.0496 13.134 10.1564C13.1626 10.2631 13.1476 10.3768 13.0924 10.4725Z" fill="white"/>
<path d="M10 10.4166C10.6904 10.4166 11.25 9.85698 11.25 9.16663C11.25 8.47627 10.6904 7.91663 10 7.91663C9.30964 7.91663 8.75 8.47627 8.75 9.16663C8.75 9.85698 9.30964 10.4166 10 10.4166Z" fill="white"/>
<path d="M18.7487 8.75H17.707C17.5965 8.75 17.4905 8.7939 17.4124 8.87204C17.3343 8.95018 17.2904 9.05616 17.2904 9.16667C17.2904 9.27717 17.3343 9.38315 17.4124 9.46129C17.4905 9.53943 17.5965 9.58333 17.707 9.58333H18.7487C18.8592 9.58333 18.9652 9.53943 19.0433 9.46129C19.1215 9.38315 19.1654 9.27717 19.1654 9.16667C19.1654 9.05616 19.1215 8.95018 19.0433 8.87204C18.9652 8.7939 18.8592 8.75 18.7487 8.75ZM2.29036 8.75H1.2487C1.13819 8.75 1.03221 8.7939 0.95407 8.87204C0.87593 8.95018 0.832031 9.05616 0.832031 9.16667C0.832031 9.27717 0.87593 9.38315 0.95407 9.46129C1.03221 9.53943 1.13819 9.58333 1.2487 9.58333H2.29036C2.40087 9.58333 2.50685 9.53943 2.58499 9.46129C2.66313 9.38315 2.70703 9.27717 2.70703 9.16667C2.70703 9.05616 2.66313 8.95018 2.58499 8.87204C2.50685 8.7939 2.40087 8.75 2.29036 8.75ZM9.9987 1.875C10.1092 1.875 10.2152 1.8311 10.2933 1.75296C10.3715 1.67482 10.4154 1.56884 10.4154 1.45833V0.416667C10.4154 0.30616 10.3715 0.200179 10.2933 0.122039C10.2152 0.0438987 10.1092 0 9.9987 0C9.88819 0 9.78221 0.0438987 9.70407 0.122039C9.62593 0.200179 9.58203 0.30616 9.58203 0.416667V1.45833C9.58203 1.56884 9.62593 1.67482 9.70407 1.75296C9.78221 1.8311 9.88819 1.875 9.9987 1.875ZM15.7441 14.3225C15.7057 14.2827 15.6597 14.251 15.6089 14.2291C15.558 14.2073 15.5034 14.1958 15.448 14.1953C15.3927 14.1948 15.3378 14.2054 15.2866 14.2263C15.2354 14.2473 15.1889 14.2782 15.1498 14.3173C15.1107 14.3565 15.0797 14.403 15.0588 14.4542C15.0378 14.5054 15.0273 14.5603 15.0278 14.6156C15.0282 14.6709 15.0397 14.7256 15.0616 14.7764C15.0834 14.8273 15.1152 14.8732 15.1549 14.9117L15.8916 15.6483C15.9303 15.687 15.9762 15.7177 16.0268 15.7386C16.0773 15.7596 16.1315 15.7704 16.1862 15.7704C16.2409 15.7704 16.2951 15.7596 16.3456 15.7386C16.3962 15.7177 16.4421 15.687 16.4808 15.6483C16.5195 15.6096 16.5502 15.5637 16.5711 15.5132C16.592 15.4626 16.6028 15.4085 16.6028 15.3537C16.6028 15.299 16.592 15.2449 16.5711 15.1943C16.5502 15.1438 16.5195 15.0979 16.4808 15.0592L15.7441 14.3225ZM4.25328 4.01083C4.29197 4.04952 4.33789 4.08021 4.38844 4.10114C4.43898 4.12208 4.49316 4.13285 4.54786 4.13285C4.60257 4.13285 4.65675 4.12208 4.70729 4.10114C4.75784 4.08021 4.80376 4.04952 4.84245 4.01083C4.88113 3.97215 4.91182 3.92622 4.93276 3.87568C4.95369 3.82513 4.96447 3.77096 4.96447 3.71625C4.96447 3.66154 4.95369 3.60737 4.93276 3.55682C4.91182 3.50628 4.88113 3.46035 4.84245 3.42167L4.10578 2.685C4.0671 2.64631 4.02117 2.61563 3.97063 2.59469C3.92008 2.57376 3.86591 2.56298 3.8112 2.56298C3.70071 2.56298 3.59474 2.60687 3.51661 2.685C3.47793 2.72369 3.44724 2.76961 3.42631 2.82016C3.40537 2.8707 3.39459 2.92487 3.39459 2.97958C3.39459 3.09007 3.43849 3.19604 3.51661 3.27417L4.25328 4.01083ZM15.8912 2.685L15.1545 3.42167C15.1158 3.46035 15.0852 3.50628 15.0642 3.55682C15.0433 3.60737 15.0325 3.66154 15.0325 3.71625C15.0325 3.77096 15.0433 3.82513 15.0642 3.87568C15.0852 3.92622 15.1158 3.97215 15.1545 4.01083C15.1932 4.04952 15.2391 4.08021 15.2897 4.10114C15.3402 4.12208 15.3944 4.13285 15.4491 4.13285C15.5038 4.13285 15.558 4.12208 15.6085 4.10114C15.6591 4.08021 15.705 4.04952 15.7437 4.01083L16.4804 3.27417C16.5191 3.23548 16.5497 3.18956 16.5707 3.13901C16.5916 3.08847 16.6024 3.03429 16.6024 2.97958C16.6024 2.92487 16.5916 2.8707 16.5707 2.82016C16.5497 2.76961 16.5191 2.72369 16.4804 2.685C16.4417 2.64631 16.3958 2.61563 16.3452 2.59469C16.2947 2.57376 16.2405 2.56298 16.1858 2.56298C16.1311 2.56298 16.0769 2.57376 16.0264 2.59469C15.9758 2.61563 15.9299 2.64631 15.8912 2.685ZM4.25328 14.3225L3.51661 15.0592C3.47793 15.0979 3.44724 15.1438 3.42631 15.1943C3.40537 15.2449 3.39459 15.299 3.39459 15.3537C3.39459 15.4085 3.40537 15.4626 3.42631 15.5132C3.44724 15.5637 3.47793 15.6096 3.51661 15.6483C3.5553 15.687 3.60123 15.7177 3.65177 15.7386C3.70232 15.7596 3.75649 15.7704 3.8112 15.7704C3.86591 15.7704 3.92008 15.7596 3.97063 15.7386C4.02117 15.7177 4.0671 15.687 4.10578 15.6483L4.84245 14.9117C4.88113 14.873 4.91182 14.8271 4.93276 14.7765C4.95369 14.726 4.96447 14.6718 4.96447 14.6171C4.96447 14.5624 4.95369 14.5082 4.93276 14.4577C4.91182 14.4071 4.88113 14.3612 4.84245 14.3225C4.80376 14.2838 4.75784 14.2531 4.70729 14.2322C4.65675 14.2113 4.60257 14.2005 4.54786 14.2005C4.49316 14.2005 4.43898 14.2113 4.38844 14.2322C4.33789 14.2531 4.29197 14.2838 4.25328 14.3225Z" fill="white"/>
</g>
<defs>
<clipPath id="clip0_2799_621">
<rect width="20" height="20" fill="white"/>
</clipPath>
</defs>
</svg>
