<svg width="48" height="48" viewBox="0 0 48 48" fill="none" xmlns="http://www.w3.org/2000/svg">
<path d="M8.36844 7.85869C6.71656 10.35 5.74391 13.3354 5.71175 16.5563C5.66938 20.8055 7.28188 24.6776 9.9441 27.5679C10.9505 28.6605 11.7544 29.9235 12.276 31.3144L13.9911 35.8878C14.1251 36.2452 14.365 36.5532 14.6787 36.7706C14.9925 36.988 15.3651 37.1045 15.7468 37.1045M27.7084 37.1045C28.0901 37.1045 28.4627 36.988 28.7764 36.7706C29.0902 36.5532 29.3301 36.2452 29.4641 35.8878L31.1099 31.4987C31.652 30.0532 32.4529 28.7142 33.5 27.5798C36.1346 24.7253 37.7442 20.9105 37.7442 16.7197C37.7442 7.87406 30.5733 0.703125 21.7276 0.703125C17.3371 0.703125 13.3659 2.45391 10.476 5.301M27.5518 37.1045V41.5224C27.5518 42.2991 26.9221 42.9287 26.1455 42.9287H17.3096C16.5329 42.9287 15.9033 42.2991 15.9033 41.5224V37.1045M22.1966 37.1045H30.4639M12.9913 37.1045H18.9153M15.1753 40.0166H28.2798M17.3593 42.9287V43.5469C17.3593 45.6179 19.0383 47.2969 21.1093 47.2969H22.3457C24.4168 47.2969 26.0957 45.6179 26.0957 43.5469V42.9287M40.4004 6.84694L39.1635 7.61522M36.9867 2.95406L36.2996 4.23787M42.2878 11.7022L40.8318 11.7171" stroke="black" stroke-miterlimit="10" stroke-linecap="round" stroke-linejoin="round"/>
<path d="M27.5501 23.0739L31.3455 19.2786C32.4828 18.1413 32.4828 16.2975 31.3455 15.1602C30.2082 14.0229 28.3644 14.0229 27.2272 15.1602L21.0496 21.3378L17.9608 18.249C16.8235 17.1117 14.9797 17.1117 13.8425 18.249C12.7052 19.3863 12.7052 21.2301 13.8425 22.3673L18.9904 27.5153C20.1277 28.6525 21.9714 28.6525 23.1087 27.5153L25.2061 25.4179M20.4625 6.60356C21.2287 6.51038 21.7875 5.81597 21.7204 5.03297C21.6495 4.20666 20.8777 3.61594 20.0549 3.71925C19.5024 3.78851 18.9548 3.89282 18.4155 4.03153C17.5666 4.24997 17.1054 5.16844 17.431 5.98238C17.705 6.66731 18.4456 7.03078 19.1602 6.84806C19.5886 6.73853 20.0236 6.65686 20.4625 6.60356ZM15.2798 7.11047C14.7946 6.38709 13.7819 6.24262 13.1245 6.81422C12.909 7.00159 12.6996 7.19588 12.4967 7.39678C10.4167 9.45544 9.11203 12.1019 8.73506 14.9744C8.6219 15.8367 9.29756 16.6008 10.1673 16.6008C10.899 16.6008 11.5281 16.0646 11.6246 15.3393C11.9212 13.1118 12.9338 11.0613 14.5451 9.4665C14.7024 9.31084 14.8646 9.16026 15.0316 9.015C15.5834 8.53528 15.6872 7.71769 15.2798 7.11047Z" stroke="black" stroke-miterlimit="10" stroke-linecap="round" stroke-linejoin="round"/>
</svg>
