<svg width="48" height="48" viewBox="0 0 48 48" fill="none" xmlns="http://www.w3.org/2000/svg">
<path d="M24.2709 36.7209C24.2709 37.0313 24.0187 37.2834 23.7084 37.2834H7.5075C7.19719 37.2834 6.945 37.0313 6.945 36.7209C6.945 36.4106 7.19719 36.1584 7.5075 36.1584H23.7084C24.0187 36.1584 24.2709 36.4106 24.2709 36.7209ZM46.5938 38.7028C46.5938 39.7284 46.1972 40.6903 45.4762 41.4103C44.73 42.1566 43.7494 42.5297 42.7688 42.5297C41.7881 42.5297 40.8075 42.1566 40.0613 41.4103L36.5897 37.9387C35.8688 37.2178 35.4722 36.2559 35.4722 35.2312C35.4722 34.3969 35.7347 33.6047 36.2212 32.9503L34.5469 31.2759C34.3669 31.4344 34.1813 31.5863 33.9881 31.7297V42.7444C33.9881 44.8659 32.2612 46.5928 30.1397 46.5928H9.43313C7.31156 46.5928 5.58469 44.8669 5.58469 42.7444V42.5269H5.25469C3.13313 42.5269 1.40625 40.8009 1.40625 38.6784V8.11406C1.40625 5.9925 3.13219 4.26562 5.25469 4.26562H8.54625C8.57906 2.68406 9.87656 1.40625 11.4684 1.40625H19.7484C21.3394 1.40625 22.6369 2.68406 22.6706 4.2675H25.9622C28.0837 4.2675 29.8106 5.99344 29.8106 8.11594V8.33344H30.1406C32.2622 8.33344 33.9891 10.0594 33.9891 12.1819V17.5575C36.1491 19.1709 37.5506 21.7472 37.5506 24.6441C37.5506 26.8791 36.7163 28.9228 35.3438 30.4809L37.0181 32.1553C37.6725 31.6687 38.4647 31.4062 39.2991 31.4062C40.3247 31.4062 41.2866 31.8028 42.0066 32.5238L45.4781 35.9953C46.1972 36.7163 46.5938 37.6772 46.5938 38.7028ZM29.8097 9.4575V15.8719C30.8784 16.0052 31.9135 16.3341 32.8631 16.8422V12.1809C32.8631 10.6791 31.6416 9.4575 30.1397 9.4575H29.8097ZM9.66937 7.63969C9.66937 7.67344 9.69937 7.70344 9.73312 7.70344H21.4819C21.5156 7.70344 21.5456 7.67344 21.5456 7.63969V4.33031C21.5456 3.33844 20.7384 2.53125 19.7475 2.53125H11.4675C10.4756 2.53125 9.66844 3.33844 9.66844 4.33031V7.63969H9.66937ZM5.25469 41.4038H25.9613C27.4631 41.4038 28.6847 40.1822 28.6847 38.6803V33.4838C23.8219 33.4706 19.8694 29.5106 19.8694 24.6441C19.8694 19.7775 23.8219 15.8175 28.6847 15.8044V8.11594C28.6847 6.61406 27.4631 5.3925 25.9613 5.3925H22.6716V7.63969C22.6716 8.295 22.1381 8.82844 21.4828 8.82844H9.73312C9.07781 8.82844 8.54437 8.295 8.54437 7.63969V5.3925H5.25469C3.75281 5.3925 2.53125 6.61406 2.53125 8.11594V38.6803C2.53125 40.1812 3.75281 41.4038 5.25469 41.4038ZM32.8631 32.445C31.9135 32.9531 30.8784 33.282 29.8097 33.4153V38.6803C29.8097 40.8019 28.0838 42.5288 25.9613 42.5288H6.70969V42.7462C6.70969 44.2481 7.93125 45.4697 9.43313 45.4697H30.1397C31.6416 45.4697 32.8631 44.2481 32.8631 42.7462V32.445ZM36.4237 24.6441C36.4237 20.3897 32.9625 16.9294 28.7091 16.9294C24.4556 16.9294 20.9944 20.3906 20.9944 24.6441C20.9944 28.8984 24.4556 32.3588 28.7091 32.3588C32.9625 32.3588 36.4237 28.8975 36.4237 24.6441ZM45.4688 38.7028C45.4688 37.9781 45.1884 37.2984 44.6803 36.7903L41.2087 33.3187C40.7006 32.8106 40.0209 32.5303 39.2963 32.5303C38.5716 32.5303 37.8919 32.8106 37.3838 33.3187C36.8756 33.8269 36.5953 34.5066 36.5953 35.2312C36.5953 35.9559 36.8756 36.6356 37.3838 37.1438L40.8553 40.6153C41.91 41.67 43.6256 41.67 44.6803 40.6153C45.1884 40.1072 45.4688 39.4275 45.4688 38.7028ZM7.5075 31.6791H19.1775C19.4878 31.6791 19.74 31.4269 19.74 31.1166C19.74 30.8063 19.4878 30.5541 19.1775 30.5541H7.5075C7.19719 30.5541 6.945 30.8063 6.945 31.1166C6.945 31.4269 7.19625 31.6791 7.5075 31.6791ZM7.5075 26.0756H17.22C17.5303 26.0756 17.7825 25.8234 17.7825 25.5131C17.7825 25.2028 17.5303 24.9506 17.22 24.9506H7.5075C7.19719 24.9506 6.945 25.2028 6.945 25.5131C6.945 25.8234 7.19625 26.0756 7.5075 26.0756ZM7.5075 20.4713H18.2034C18.5137 20.4713 18.7659 20.2191 18.7659 19.9088C18.7659 19.5984 18.5137 19.3463 18.2034 19.3463H7.5075C7.19719 19.3463 6.945 19.5984 6.945 19.9088C6.945 20.2191 7.19625 20.4713 7.5075 20.4713ZM7.5075 14.8669H23.7084C24.0187 14.8669 24.2709 14.6147 24.2709 14.3044C24.2709 13.9941 24.0187 13.7419 23.7084 13.7419H7.5075C7.19719 13.7419 6.945 13.9941 6.945 14.3044C6.945 14.6147 7.19719 14.8669 7.5075 14.8669ZM31.8469 21.7556L27.2634 26.3391L25.5722 24.6478C25.3528 24.4284 24.9966 24.4284 24.7762 24.6478C24.5569 24.8672 24.5569 25.2234 24.7762 25.4437L26.8659 27.5334C26.9181 27.5857 26.9801 27.6272 27.0483 27.6554C27.1165 27.6837 27.1896 27.6983 27.2634 27.6983C27.3373 27.6983 27.4104 27.6837 27.4786 27.6554C27.5468 27.6272 27.6088 27.5857 27.6609 27.5334L32.6428 22.5516C32.8622 22.3322 32.8622 21.9759 32.6428 21.7556C32.5906 21.7032 32.5286 21.6617 32.4603 21.6333C32.392 21.605 32.3188 21.5904 32.2448 21.5904C32.1709 21.5904 32.0977 21.605 32.0294 21.6333C31.9611 21.6617 31.8991 21.7032 31.8469 21.7556Z" fill="black"/>
</svg>
