<svg width="48" height="48" viewBox="0 0 48 48" fill="none" xmlns="http://www.w3.org/2000/svg">
<path d="M43.3355 32.3184C43.3342 30.2231 42.5422 28.2055 41.1179 26.6688V20.64H42.4235V19.92C42.4235 9.60955 34.1819 1.19995 24.0491 1.19995C13.9163 1.19995 5.66987 9.59995 5.66987 19.9008V20.64H6.88427V26.6879C5.78056 27.8809 5.04909 29.37 4.77961 30.9727C4.51014 32.5754 4.71439 34.2219 5.36729 35.7102C6.02019 37.1985 7.09335 38.4638 8.45508 39.3508C9.81681 40.2379 11.4079 40.7082 13.0331 40.704H13.7531V23.9568H13.0331C11.3537 23.9478 9.71139 24.4501 8.32427 25.3968V20.64H9.72107V19.92C9.72107 11.8416 16.1483 5.27035 24.0491 5.27035C31.9499 5.27035 38.4011 11.8224 38.4011 19.9008V20.64H39.7019V25.44C38.3147 24.4933 36.6724 23.991 34.9931 24H34.2731V40.6848H34.9931C35.6134 40.6831 36.2316 40.6122 36.8363 40.4736C36.7369 41.8029 36.1383 43.0455 35.1608 43.9519C34.1832 44.8582 32.899 45.3612 31.5659 45.36H30.0683C30.0046 44.5972 29.6571 43.8861 29.0946 43.3671C28.532 42.848 27.7953 42.5589 27.0299 42.5568H23.0411C22.6394 42.5542 22.2411 42.631 21.8691 42.7827C21.4972 42.9344 21.1588 43.158 20.8734 43.4407C20.588 43.7234 20.3612 44.0597 20.206 44.4302C20.0508 44.8007 19.9703 45.1982 19.9691 45.6V46.56H20.2091V46.8H31.5659C33.3481 46.8 35.0574 46.092 36.3176 44.8317C37.5779 43.5715 38.2859 41.8622 38.2859 40.08V39.9887C39.7831 39.3409 41.0585 38.2699 41.9556 36.9073C42.8526 35.5446 43.3322 33.9497 43.3355 32.3184ZM12.3131 25.44V39.2159C10.6117 39.036 9.03704 38.2328 7.89263 36.961C6.74822 35.6892 6.115 34.0388 6.115 32.3279C6.115 30.6171 6.74822 28.9667 7.89263 27.6949C9.03704 26.4231 10.6117 25.6199 12.3131 25.44ZM24.0491 3.83995C15.5915 3.83995 8.68907 10.6704 8.29547 19.2H7.12427C7.49867 9.99355 14.9483 2.63995 24.0491 2.63995C33.1499 2.63995 40.5995 9.99355 40.9691 19.2H39.7979C39.4283 10.6416 32.5067 3.81115 24.0491 3.81115V3.83995ZM23.0411 43.9968H27.0539C27.437 43.998 27.8071 44.136 28.0975 44.3859C28.3879 44.6359 28.5795 44.9813 28.6379 45.36H21.4379C21.4967 44.978 21.6911 44.63 21.9855 44.3797C22.2799 44.1293 22.6546 43.9934 23.0411 43.9968ZM35.7131 39.1968V25.44C37.4145 25.6199 38.9891 26.4231 40.1335 27.6949C41.2779 28.9667 41.9111 30.6171 41.9111 32.3279C41.9111 34.0388 41.2779 35.6892 40.1335 36.961C38.9891 38.2328 37.4145 39.036 35.7131 39.2159V39.1968Z" fill="black"/>
</svg>
