<svg width="1701" height="1701" viewBox="0 0 1701 1701" fill="none" xmlns="http://www.w3.org/2000/svg">
<path d="M836.729 1688.75C834.929 1688.71 833.305 1688.44 831.857 1687.95C830.387 1687.47 829.143 1686.78 828.125 1685.88C827.086 1684.97 826.292 1683.86 825.743 1682.52C825.194 1681.21 824.94 1679.69 824.981 1677.97C825.022 1676.25 825.348 1674.74 825.959 1673.43C826.569 1672.15 827.415 1671.08 828.496 1670.22C829.556 1669.37 830.832 1668.73 832.322 1668.3C833.792 1667.9 835.427 1667.72 837.226 1667.76L847.124 1667.99L846.626 1688.99L836.729 1688.75ZM842.331 1686.64L842.722 1670.14L837.173 1670.01C836.153 1669.99 835.2 1670.11 834.313 1670.39C833.406 1670.69 832.615 1671.16 831.939 1671.81C831.263 1672.47 830.723 1673.32 830.318 1674.35C829.894 1675.38 829.664 1676.62 829.63 1678.08C829.595 1679.54 829.765 1680.8 830.141 1681.85C830.496 1682.89 830.996 1683.76 831.64 1684.43C832.284 1685.13 833.052 1685.64 833.944 1685.96C834.817 1686.3 835.762 1686.48 836.782 1686.5L842.331 1686.64Z" fill="white"/>
<path d="M795.501 1679.58L799.095 1679.8C800.452 1679.88 801.513 1679.57 802.276 1678.88C803.039 1678.2 803.464 1677.15 803.551 1675.71L804.107 1666.58L808.3 1666.83L807.743 1675.97C807.619 1678 806.885 1679.54 805.539 1680.58C804.172 1681.64 802.281 1682.1 799.865 1681.95L795.374 1681.68L795.501 1679.58Z" fill="white"/>
<path d="M781.808 1665.03L785.994 1665.37L784.734 1680.62L780.548 1680.28L781.808 1665.03ZM780.065 1684.3C780.115 1683.7 780.368 1683.19 780.824 1682.77C781.259 1682.36 781.815 1682.19 782.493 1682.24C783.171 1682.3 783.701 1682.56 784.083 1683.04C784.444 1683.53 784.6 1684.07 784.55 1684.67C784.501 1685.27 784.259 1685.77 783.824 1686.18C783.367 1686.6 782.8 1686.78 782.123 1686.73C781.465 1686.67 780.946 1686.4 780.565 1685.91C780.182 1685.43 780.016 1684.9 780.065 1684.3Z" fill="white"/>
<path d="M764.499 1665.55C763.823 1665.47 763.196 1665.51 762.617 1665.64C762.017 1665.8 761.492 1666.08 761.044 1666.5C760.576 1666.91 760.194 1667.46 759.896 1668.15C759.579 1668.84 759.364 1669.69 759.252 1670.7C759.14 1671.72 759.164 1672.6 759.324 1673.34C759.464 1674.08 759.717 1674.7 760.084 1675.2C760.431 1675.7 760.882 1676.09 761.437 1676.35C761.969 1676.63 762.573 1676.81 763.249 1676.88L766.977 1677.29L768.226 1665.96L764.499 1665.55ZM772.631 1664.33L770.329 1685.21L766.155 1684.75L766.747 1679.38L763.019 1678.97C761.647 1678.82 760.425 1678.5 759.351 1678.02C758.257 1677.54 757.35 1676.91 756.629 1676.15C755.909 1675.39 755.392 1674.5 755.08 1673.5C754.748 1672.5 754.648 1671.4 754.779 1670.21C754.911 1669.02 755.248 1667.97 755.79 1667.06C756.313 1666.15 757.009 1665.41 757.879 1664.82C758.749 1664.23 759.77 1663.82 760.943 1663.59C762.095 1663.35 763.357 1663.31 764.729 1663.46L772.631 1664.33Z" fill="white"/>
<path d="M733.193 1661.7C732.52 1661.6 731.892 1661.61 731.309 1661.72C730.702 1661.85 730.168 1662.12 729.704 1662.51C729.221 1662.91 728.817 1663.44 728.493 1664.12C728.149 1664.8 727.902 1665.64 727.751 1666.65C727.601 1667.66 727.591 1668.54 727.722 1669.28C727.833 1670.03 728.062 1670.66 728.41 1671.18C728.738 1671.69 729.173 1672.09 729.717 1672.37C730.239 1672.67 730.836 1672.87 731.508 1672.97L735.217 1673.53L736.901 1662.25L733.193 1661.7ZM741.366 1660.8L738.263 1681.57L734.109 1680.95L734.907 1675.61L731.198 1675.05C729.833 1674.85 728.624 1674.49 727.569 1673.96C726.495 1673.44 725.612 1672.78 724.921 1671.99C724.231 1671.2 723.748 1670.3 723.475 1669.29C723.182 1668.27 723.124 1667.17 723.301 1665.99C723.478 1664.8 723.855 1663.76 724.432 1662.88C724.989 1661.99 725.714 1661.27 726.606 1660.72C727.497 1660.16 728.533 1659.79 729.714 1659.6C730.875 1659.41 732.138 1659.42 733.503 1659.62L741.366 1660.8Z" fill="white"/>
<path d="M702.262 1656.68C701.594 1656.56 700.966 1656.54 700.378 1656.63C699.768 1656.74 699.223 1656.98 698.745 1657.36C698.247 1657.74 697.823 1658.26 697.473 1658.92C697.104 1659.59 696.824 1660.42 696.635 1661.42C696.446 1662.42 696.402 1663.3 696.504 1664.05C696.587 1664.8 696.792 1665.44 697.119 1665.97C697.427 1666.5 697.847 1666.91 698.38 1667.22C698.89 1667.54 699.479 1667.76 700.147 1667.89L703.832 1668.58L705.947 1657.38L702.262 1656.68ZM710.463 1656.09L706.567 1676.73L702.44 1675.95L703.442 1670.64L699.757 1669.95C698.401 1669.69 697.206 1669.28 696.172 1668.72C695.119 1668.16 694.262 1667.47 693.602 1666.65C692.942 1665.83 692.495 1664.91 692.261 1663.89C692.006 1662.87 691.99 1661.77 692.213 1660.59C692.436 1659.41 692.852 1658.39 693.463 1657.53C694.054 1656.66 694.805 1655.97 695.717 1655.45C696.63 1654.93 697.679 1654.6 698.866 1654.45C700.034 1654.31 701.295 1654.36 702.651 1654.62L710.463 1656.09Z" fill="white"/>
<path d="M675.649 1649.2L679.753 1650.09L675.295 1670.61L671.191 1669.72L675.649 1649.2Z" fill="white"/>
<path d="M657.609 1646.62C656.657 1646.38 655.733 1646.33 654.836 1646.46C653.92 1646.58 652.989 1646.85 652.045 1647.26L651.31 1645.22C651.76 1644.98 652.271 1644.79 652.843 1644.64C653.395 1644.49 653.986 1644.39 654.617 1644.34C655.223 1644.3 655.849 1644.31 656.494 1644.36C657.144 1644.4 657.78 1644.5 658.402 1644.65C659.781 1644.99 660.997 1645.48 662.053 1646.13C663.093 1646.76 663.928 1647.51 664.557 1648.39C665.181 1649.28 665.592 1650.29 665.791 1651.41C665.969 1652.52 665.896 1653.74 665.571 1655.06C665.251 1656.36 664.763 1657.47 664.107 1658.38C663.426 1659.3 662.634 1660.01 661.728 1660.51C660.799 1661.03 659.777 1661.33 658.661 1661.43C657.541 1661.54 656.36 1661.45 655.117 1661.14C653.952 1660.85 652.897 1660.41 651.954 1659.81C651.011 1659.2 650.244 1658.47 649.654 1657.6C649.059 1656.76 648.655 1655.8 648.442 1654.74C648.23 1653.68 648.271 1652.55 648.568 1651.34L649.069 1649.3L661.508 1652.36C661.672 1650.7 661.403 1649.4 660.701 1648.49C659.979 1647.57 658.949 1646.95 657.609 1646.62ZM655.583 1659.25C656.146 1659.39 656.696 1659.41 657.235 1659.31C657.773 1659.22 658.283 1658.99 658.767 1658.61C659.231 1658.23 659.671 1657.7 660.085 1657.02C660.481 1656.33 660.817 1655.47 661.094 1654.43L652.937 1652.42C652.689 1653.43 652.591 1654.33 652.642 1655.13C652.694 1655.92 652.856 1656.6 653.13 1657.16C653.379 1657.74 653.73 1658.2 654.183 1658.53C654.611 1658.89 655.078 1659.12 655.583 1659.25Z" fill="white"/>
<path d="M466.633 1596.32C465.04 1595.48 463.704 1594.52 462.625 1593.44C461.52 1592.36 460.711 1591.19 460.2 1589.93C459.671 1588.65 459.456 1587.3 459.557 1585.86C459.648 1584.44 460.094 1582.97 460.893 1581.45C461.693 1579.92 462.657 1578.71 463.784 1577.81C464.902 1576.93 466.135 1576.35 467.483 1576.06C468.813 1575.77 470.24 1575.76 471.764 1576.04C473.261 1576.33 474.807 1576.89 476.4 1577.73L485.164 1582.34L475.397 1600.93L466.633 1596.32ZM472.593 1596.91L480.267 1582.3L475.354 1579.72C474.451 1579.25 473.54 1578.94 472.621 1578.8C471.676 1578.66 470.757 1578.73 469.866 1579.01C468.966 1579.3 468.105 1579.82 467.285 1580.57C466.447 1581.3 465.689 1582.32 465.01 1583.61C464.331 1584.9 463.927 1586.1 463.797 1587.21C463.65 1588.3 463.715 1589.3 463.992 1590.19C464.26 1591.1 464.723 1591.9 465.38 1592.58C466.01 1593.27 466.777 1593.86 467.68 1594.33L472.593 1596.91Z" fill="white"/>
<path d="M434.077 1569.96L437.2 1571.76C438.379 1572.43 439.466 1572.63 440.458 1572.35C441.441 1572.08 442.291 1571.32 443.008 1570.07L447.562 1562.14L451.205 1564.23L446.651 1572.16C445.635 1573.93 444.294 1574.98 442.626 1575.32C440.931 1575.66 439.034 1575.23 436.935 1574.02L433.032 1571.78L434.077 1569.96Z" fill="white"/>
<path d="M428.383 1550.91L431.98 1553.08L424.079 1566.18L420.482 1564.02L428.383 1550.91ZM418.263 1567.41C418.573 1566.89 419.026 1566.55 419.623 1566.37C420.193 1566.2 420.769 1566.29 421.351 1566.64C421.934 1566.99 422.291 1567.47 422.424 1568.06C422.529 1568.66 422.426 1569.22 422.116 1569.73C421.807 1570.24 421.367 1570.59 420.797 1570.76C420.2 1570.93 419.61 1570.85 419.028 1570.5C418.463 1570.15 418.119 1569.68 417.997 1569.07C417.864 1568.47 417.953 1567.92 418.263 1567.41Z" fill="white"/>
<path d="M412.71 1543.73C412.137 1543.36 411.561 1543.11 410.982 1542.98C410.375 1542.85 409.779 1542.87 409.194 1543.05C408.592 1543.21 408.004 1543.53 407.43 1544.02C406.84 1544.49 406.269 1545.16 405.719 1546.02C405.168 1546.88 404.8 1547.68 404.614 1548.41C404.41 1549.14 404.361 1549.81 404.467 1550.42C404.555 1551.02 404.789 1551.57 405.17 1552.05C405.523 1552.54 405.985 1552.96 406.558 1553.33L409.715 1555.35L415.867 1545.76L412.71 1543.73ZM420.536 1546.25L409.203 1563.93L405.667 1561.67L408.582 1557.12L405.424 1555.1C404.263 1554.35 403.307 1553.53 402.559 1552.62C401.793 1551.7 401.257 1550.74 400.951 1549.74C400.644 1548.73 400.573 1547.71 400.738 1546.68C400.885 1545.63 401.283 1544.6 401.93 1543.59C402.578 1542.58 403.346 1541.79 404.235 1541.22C405.106 1540.64 406.062 1540.28 407.103 1540.14C408.143 1540 409.24 1540.08 410.394 1540.39C411.532 1540.7 412.681 1541.22 413.843 1541.96L420.536 1546.25Z" fill="white"/>
<path d="M386.277 1526.32C385.719 1525.93 385.154 1525.66 384.58 1525.5C383.978 1525.35 383.382 1525.35 382.79 1525.5C382.183 1525.63 381.583 1525.93 380.991 1526.4C380.382 1526.85 379.787 1527.5 379.203 1528.33C378.62 1529.17 378.221 1529.95 378.007 1530.68C377.776 1531.4 377.701 1532.07 377.783 1532.68C377.848 1533.29 378.061 1533.84 378.423 1534.34C378.756 1534.84 379.202 1535.28 379.76 1535.67L382.837 1537.81L389.354 1528.46L386.277 1526.32ZM394.001 1529.14L381.995 1546.37L378.549 1543.97L381.636 1539.54L378.56 1537.39C377.427 1536.6 376.505 1535.74 375.791 1534.81C375.062 1533.86 374.563 1532.88 374.296 1531.86C374.028 1530.85 373.996 1529.83 374.201 1528.8C374.388 1527.76 374.825 1526.75 375.511 1525.76C376.197 1524.78 376.995 1524.02 377.905 1523.48C378.799 1522.93 379.768 1522.61 380.813 1522.51C381.858 1522.41 382.951 1522.54 384.092 1522.89C385.217 1523.24 386.346 1523.8 387.478 1524.59L394.001 1529.14Z" fill="white"/>
<path d="M360.459 1507.83C359.916 1507.42 359.361 1507.13 358.794 1506.95C358.199 1506.78 357.603 1506.75 357.006 1506.88C356.394 1506.99 355.783 1507.27 355.173 1507.71C354.548 1508.14 353.927 1508.76 353.312 1509.58C352.697 1510.39 352.269 1511.16 352.026 1511.88C351.767 1512.58 351.667 1513.25 351.725 1513.87C351.766 1514.48 351.958 1515.04 352.3 1515.54C352.615 1516.06 353.043 1516.52 353.585 1516.93L356.577 1519.19L363.45 1510.1L360.459 1507.83ZM368.067 1510.95L355.406 1527.71L352.055 1525.17L355.311 1520.87L352.319 1518.6C351.218 1517.77 350.33 1516.88 349.653 1515.91C348.961 1514.94 348.5 1513.94 348.272 1512.91C348.044 1511.89 348.052 1510.87 348.295 1509.85C348.523 1508.82 348.999 1507.82 349.722 1506.87C350.446 1505.91 351.272 1505.18 352.202 1504.68C353.116 1504.17 354.097 1503.88 355.145 1503.82C356.194 1503.76 357.281 1503.93 358.408 1504.33C359.518 1504.72 360.624 1505.33 361.725 1506.16L368.067 1510.95Z" fill="white"/>
<path d="M339.785 1489.2L343.066 1491.83L329.954 1508.23L326.674 1505.61L339.785 1489.2Z" fill="white"/>
<path d="M324.925 1479.01C324.176 1478.38 323.371 1477.92 322.51 1477.64C321.633 1477.34 320.682 1477.17 319.655 1477.11L319.899 1474.96C320.409 1474.95 320.953 1475 321.531 1475.12C322.094 1475.23 322.669 1475.4 323.256 1475.64C323.815 1475.87 324.372 1476.16 324.925 1476.5C325.492 1476.82 326.02 1477.19 326.509 1477.6C327.594 1478.51 328.465 1479.5 329.121 1480.55C329.776 1481.57 330.19 1482.62 330.365 1483.68C330.528 1484.76 330.449 1485.84 330.13 1486.94C329.795 1488.01 329.189 1489.07 328.312 1490.11C327.448 1491.14 326.52 1491.91 325.528 1492.43C324.508 1492.96 323.482 1493.25 322.45 1493.29C321.389 1493.34 320.338 1493.16 319.296 1492.75C318.24 1492.36 317.224 1491.75 316.246 1490.92C315.329 1490.15 314.581 1489.28 314.003 1488.32C313.426 1487.36 313.064 1486.36 312.92 1485.33C312.762 1484.3 312.824 1483.27 313.105 1482.22C313.385 1481.18 313.925 1480.18 314.725 1479.23L316.08 1477.63L325.869 1485.89C326.756 1484.47 327.088 1483.19 326.865 1482.06C326.626 1480.92 325.98 1479.9 324.925 1479.01ZM317.503 1489.43C317.947 1489.8 318.43 1490.07 318.954 1490.22C319.478 1490.38 320.04 1490.39 320.64 1490.27C321.225 1490.14 321.854 1489.86 322.528 1489.43C323.186 1488.99 323.871 1488.37 324.583 1487.55L318.164 1482.14C317.493 1482.93 317.004 1483.7 316.698 1484.43C316.391 1485.17 316.235 1485.85 316.231 1486.47C316.199 1487.1 316.311 1487.66 316.566 1488.17C316.794 1488.67 317.106 1489.09 317.503 1489.43Z" fill="white"/>
<path d="M175.983 1349.5C174.923 1348.04 174.148 1346.59 173.659 1345.14C173.143 1343.68 172.933 1342.28 173.031 1340.92C173.118 1339.54 173.523 1338.23 174.248 1336.99C174.956 1335.75 176.005 1334.63 177.395 1333.61C178.785 1332.6 180.183 1331.94 181.592 1331.63C182.984 1331.33 184.348 1331.35 185.683 1331.69C187.007 1332.01 188.291 1332.63 189.535 1333.56C190.751 1334.48 191.889 1335.67 192.95 1337.12L198.784 1345.12L181.817 1357.49L175.983 1349.5ZM181.072 1352.65L194.402 1342.93L191.132 1338.45C190.531 1337.62 189.85 1336.94 189.089 1336.41C188.3 1335.87 187.444 1335.53 186.522 1335.38C185.584 1335.25 184.583 1335.34 183.518 1335.64C182.442 1335.93 181.315 1336.51 180.135 1337.37C178.956 1338.23 178.064 1339.13 177.459 1340.06C176.843 1340.98 176.462 1341.9 176.318 1342.83C176.158 1343.76 176.222 1344.68 176.51 1345.58C176.77 1346.48 177.2 1347.35 177.801 1348.17L181.072 1352.65Z" fill="white"/>
<path d="M158.357 1311.43L160.369 1314.41C161.129 1315.54 162.017 1316.2 163.033 1316.38C164.033 1316.58 165.13 1316.27 166.324 1315.47L173.911 1310.35L176.259 1313.84L168.671 1318.95C166.979 1320.09 165.311 1320.44 163.667 1320.01C161.995 1319.57 160.483 1318.34 159.131 1316.33L156.616 1312.6L158.357 1311.43Z" fill="white"/>
<path d="M161.672 1291.86L163.943 1295.39L151.075 1303.66L148.803 1300.13L161.672 1291.86ZM145.316 1302.2C145.82 1301.87 146.38 1301.76 146.994 1301.87C147.58 1301.96 148.057 1302.3 148.425 1302.87C148.793 1303.44 148.905 1304.03 148.763 1304.62C148.592 1305.2 148.254 1305.66 147.75 1305.98C147.245 1306.31 146.7 1306.42 146.113 1306.32C145.499 1306.22 145.008 1305.88 144.64 1305.31C144.283 1304.75 144.185 1304.17 144.344 1303.57C144.487 1302.98 144.811 1302.52 145.316 1302.2Z" fill="white"/>
<path d="M150.775 1278.5C150.423 1277.92 150.016 1277.44 149.555 1277.07C149.067 1276.68 148.522 1276.44 147.921 1276.34C147.31 1276.21 146.64 1276.25 145.91 1276.43C145.17 1276.6 144.363 1276.95 143.491 1277.47C142.618 1278 141.936 1278.55 141.444 1279.13C140.942 1279.69 140.603 1280.27 140.426 1280.87C140.24 1281.45 140.211 1282.04 140.34 1282.64C140.442 1283.23 140.669 1283.82 141.021 1284.4L142.962 1287.61L152.716 1281.71L150.775 1278.5ZM156.687 1284.22L138.719 1295.09L136.545 1291.49L141.165 1288.7L139.224 1285.49C138.51 1284.31 138.017 1283.15 137.745 1282C137.463 1280.84 137.406 1279.74 137.573 1278.7C137.741 1277.67 138.127 1276.72 138.731 1275.87C139.324 1274.99 140.134 1274.24 141.161 1273.62C142.188 1273 143.226 1272.63 144.275 1272.51C145.314 1272.37 146.331 1272.47 147.327 1272.8C148.323 1273.14 149.27 1273.7 150.168 1274.49C151.056 1275.26 151.857 1276.23 152.571 1277.41L156.687 1284.22Z" fill="white"/>
<path d="M134.729 1251.21C134.4 1250.61 134.012 1250.12 133.566 1249.72C133.092 1249.32 132.558 1249.06 131.962 1248.93C131.356 1248.79 130.685 1248.79 129.948 1248.95C129.202 1249.09 128.383 1249.4 127.49 1249.9C126.598 1250.39 125.894 1250.92 125.381 1251.48C124.857 1252.02 124.496 1252.58 124.297 1253.17C124.088 1253.75 124.037 1254.34 124.142 1254.94C124.221 1255.54 124.425 1256.13 124.754 1256.73L126.57 1260.01L136.545 1254.49L134.729 1251.21ZM140.416 1257.15L122.041 1267.31L120.008 1263.64L124.733 1261.02L122.917 1257.74C122.249 1256.54 121.801 1255.36 121.574 1254.2C121.337 1253.03 121.322 1251.93 121.53 1250.9C121.737 1249.87 122.159 1248.94 122.796 1248.11C123.423 1247.26 124.261 1246.54 125.311 1245.96C126.361 1245.38 127.413 1245.05 128.466 1244.97C129.509 1244.87 130.522 1245.01 131.504 1245.38C132.486 1245.75 133.411 1246.35 134.278 1247.17C135.135 1247.98 135.898 1248.98 136.566 1250.19L140.416 1257.15Z" fill="white"/>
<path d="M119.717 1223.25C119.411 1222.64 119.043 1222.13 118.612 1221.72C118.155 1221.31 117.631 1221.02 117.04 1220.87C116.44 1220.7 115.769 1220.68 115.027 1220.81C114.276 1220.92 113.445 1221.2 112.534 1221.66C111.624 1222.12 110.901 1222.62 110.365 1223.16C109.821 1223.68 109.438 1224.23 109.217 1224.81C108.986 1225.38 108.911 1225.96 108.994 1226.57C109.049 1227.17 109.23 1227.77 109.536 1228.38L111.223 1231.73L121.404 1226.6L119.717 1223.25ZM125.169 1229.41L106.414 1238.85L104.525 1235.1L109.347 1232.67L107.66 1229.32C107.04 1228.09 106.638 1226.89 106.456 1225.73C106.264 1224.55 106.292 1223.45 106.54 1222.43C106.787 1221.41 107.245 1220.5 107.913 1219.69C108.573 1218.87 109.438 1218.18 110.51 1217.64C111.582 1217.1 112.645 1216.81 113.701 1216.78C114.747 1216.72 115.754 1216.89 116.721 1217.3C117.688 1217.71 118.589 1218.34 119.423 1219.2C120.249 1220.04 120.972 1221.07 121.593 1222.31L125.169 1229.41Z" fill="white"/>
<path d="M109.37 1197.36L111.156 1201.16L92.149 1210.09L90.3632 1206.29L109.37 1197.36Z" fill="white"/>
<path d="M100.494 1181.55C100.102 1180.65 99.5813 1179.89 98.9334 1179.26C98.2774 1178.6 97.5012 1178.03 96.6047 1177.52L97.7734 1175.7C98.2372 1175.91 98.7014 1176.2 99.1663 1176.57C99.6231 1176.91 100.063 1177.32 100.487 1177.79C100.884 1178.25 101.257 1178.75 101.605 1179.3C101.971 1179.84 102.282 1180.4 102.538 1180.99C103.107 1182.29 103.454 1183.55 103.578 1184.79C103.713 1186 103.624 1187.11 103.311 1188.15C102.979 1189.19 102.429 1190.13 101.66 1190.96C100.884 1191.78 99.8722 1192.46 98.6261 1193.01C97.3982 1193.55 96.2237 1193.83 95.1025 1193.86C93.9551 1193.88 92.9084 1193.69 91.9626 1193.27C90.9905 1192.84 90.1273 1192.22 89.3729 1191.39C88.6002 1190.57 87.9575 1189.57 87.4449 1188.4C86.9643 1187.3 86.6767 1186.19 86.582 1185.08C86.4874 1183.96 86.6046 1182.91 86.9336 1181.91C87.2443 1180.93 87.7565 1180.03 88.4703 1179.21C89.1841 1178.4 90.109 1177.74 91.2453 1177.25L93.1695 1176.41L98.2997 1188.14C99.7247 1187.26 100.587 1186.26 100.886 1185.15C101.177 1184.01 101.047 1182.82 100.494 1181.55ZM89.2317 1187.62C89.464 1188.15 89.781 1188.6 90.1828 1188.97C90.5847 1189.34 91.0816 1189.61 91.6736 1189.76C92.2576 1189.9 92.9459 1189.93 93.7384 1189.84C94.5229 1189.74 95.4139 1189.48 96.4115 1189.07L93.0474 1181.37C92.0945 1181.79 91.3179 1182.26 90.7176 1182.78C90.1173 1183.3 89.6774 1183.85 89.3977 1184.41C89.0918 1184.95 88.9421 1185.51 88.9488 1186.07C88.9291 1186.63 89.0234 1187.14 89.2317 1187.62Z" fill="white"/>
<path d="M24.4041 999.591C24.1 997.817 24.0513 996.171 24.258 994.655C24.4416 993.122 24.8792 991.768 25.5708 990.594C26.259 989.401 27.2047 988.407 28.4077 987.612C29.591 986.821 31.0303 986.28 32.7256 985.989C34.4208 985.699 35.968 985.728 37.367 986.076C38.7463 986.428 39.9592 987.052 41.0056 987.948C42.0487 988.825 42.922 989.953 43.6254 991.334C44.3058 992.699 44.798 994.269 45.1022 996.043L46.7749 1005.8L26.0769 1009.35L24.4041 999.591ZM27.5595 1004.68L43.8223 1001.89L42.8845 996.423C42.7122 995.417 42.4038 994.506 41.9594 993.69C41.492 992.857 40.8772 992.171 40.1152 991.632C39.3335 991.096 38.398 990.729 37.3087 990.53C36.2161 990.312 34.9503 990.326 33.5113 990.572C32.0722 990.819 30.874 991.227 29.9165 991.797C28.9557 992.348 28.2058 993.004 27.6668 993.766C27.1081 994.531 26.7569 995.383 26.6133 996.321C26.4466 997.242 26.4494 998.205 26.6218 999.211L27.5595 1004.68Z" fill="white"/>
<path d="M25.5749 957.988L26.0518 961.556C26.232 962.904 26.7365 963.886 27.5653 964.501C28.3744 965.12 29.4925 965.333 30.9199 965.143L39.9892 963.931L40.5456 968.094L31.4762 969.306C29.4542 969.576 27.8034 969.151 26.5237 968.031C25.2215 966.893 24.4101 965.125 24.0895 962.726L23.4934 958.266L25.5749 957.988Z" fill="white"/>
<path d="M37.2376 941.921L37.7042 946.095L22.499 947.795L22.0323 943.621L37.2376 941.921ZM17.9907 943.922C18.587 943.855 19.137 944.005 19.6409 944.371C20.1226 944.72 20.4012 945.232 20.4768 945.908C20.5523 946.584 20.3948 947.155 20.0042 947.621C19.5915 948.07 19.087 948.327 18.4907 948.394C17.8944 948.461 17.3554 948.32 16.8737 947.971C16.3699 947.605 16.0802 947.084 16.0046 946.408C15.9313 945.752 16.0999 945.19 16.5104 944.721C16.901 944.255 17.3944 943.989 17.9907 943.922Z" fill="white"/>
<path d="M33.3939 925.038C33.3369 924.36 33.1853 923.751 32.939 923.21C32.6712 922.65 32.2913 922.19 31.7994 921.83C31.3058 921.45 30.6911 921.181 29.9552 921.022C29.2176 920.843 28.3406 920.796 27.3242 920.882C26.3078 920.967 25.4509 921.16 24.7535 921.459C24.0545 921.739 23.4934 922.107 23.0702 922.564C22.6454 923.002 22.3576 923.517 22.2069 924.112C22.0346 924.689 21.977 925.316 22.034 925.993L22.3483 929.73L33.7082 928.775L33.3939 925.038ZM36.1528 932.784L15.2267 934.544L14.8747 930.359L20.2557 929.906L19.9414 926.169C19.8257 924.794 19.9003 923.534 20.1652 922.387C20.4283 921.221 20.8652 920.211 21.4758 919.357C22.0863 918.503 22.8523 917.826 23.7737 917.327C24.6935 916.808 25.7512 916.498 26.947 916.398C28.1428 916.297 29.2374 916.426 30.2309 916.784C31.2228 917.122 32.091 917.661 32.8357 918.401C33.5803 919.141 34.1798 920.064 34.6341 921.17C35.0867 922.256 35.3708 923.487 35.4865 924.862L36.1528 932.784Z" fill="white"/>
<path d="M31.1247 893.197C31.0939 892.518 30.9659 891.903 30.7408 891.353C30.4947 890.783 30.1328 890.309 29.6552 889.93C29.1766 889.532 28.5727 889.239 27.8435 889.052C27.1134 888.845 26.2388 888.764 25.2199 888.81C24.2009 888.857 23.3372 889.016 22.6289 889.288C21.9196 889.541 21.3447 889.887 20.9042 890.327C20.4628 890.748 20.1553 891.252 19.9818 891.841C19.7874 892.41 19.7056 893.035 19.7365 893.714L19.9064 897.46L31.2947 896.943L31.1247 893.197ZM33.5829 901.044L12.6045 901.996L12.4141 897.8L17.8086 897.555L17.6386 893.809C17.5761 892.43 17.6992 891.174 18.0081 890.038C18.3161 888.883 18.7916 887.891 19.4346 887.061C20.0777 886.231 20.8692 885.584 21.8092 885.121C22.7482 884.638 23.8171 884.369 25.0159 884.315C26.2147 884.261 27.3035 884.431 28.2825 884.827C29.2605 885.203 30.1073 885.776 30.8229 886.544C31.5385 887.312 32.1019 888.258 32.5132 889.38C32.9236 890.483 33.16 891.723 33.2226 893.102L33.5829 901.044Z" fill="white"/>
<path d="M30.0742 861.032C30.0697 860.353 29.9655 859.733 29.7618 859.175C29.5379 858.596 29.1947 858.108 28.732 857.711C28.2692 857.294 27.6771 856.978 26.9556 856.763C26.234 856.528 25.3632 856.414 24.3432 856.421C23.3233 856.428 22.4541 856.553 21.7357 856.798C21.0172 857.023 20.4294 857.347 19.9722 857.77C19.5149 858.173 19.1882 858.665 18.992 859.247C18.7758 859.808 18.6699 860.429 18.6745 861.109L18.6996 864.859L30.0993 864.782L30.0742 861.032ZM32.2274 868.968L11.2279 869.109L11.1998 864.909L16.5996 864.873L16.5745 861.123C16.5653 859.743 16.7369 858.492 17.0894 857.369C17.4418 856.227 17.9553 855.253 18.6299 854.449C19.3045 853.644 20.1204 853.029 21.0776 852.603C22.0346 852.156 23.1132 851.929 24.3131 851.921C25.5131 851.913 26.5945 852.126 27.5575 852.559C28.5203 852.973 29.3443 853.577 30.0297 854.373C30.715 855.168 31.2415 856.135 31.6091 857.272C31.9766 858.39 32.165 859.638 32.1742 861.018L32.2274 868.968Z" fill="white"/>
<path d="M32.2946 832.882L32.2083 837.081L11.2127 836.65L11.299 832.451L32.2946 832.882Z" fill="white"/>
<path d="M31.3586 814.596C31.405 813.617 31.2783 812.7 30.9785 811.845C30.6796 810.97 30.2399 810.108 29.6594 809.26L31.5142 808.146C31.8359 808.542 32.1242 809.006 32.3793 809.539C32.6353 810.052 32.849 810.612 33.0203 811.221C33.1727 811.809 33.2836 812.425 33.3532 813.069C33.4427 813.714 33.4724 814.356 33.4421 814.995C33.3748 816.414 33.1235 817.703 32.688 818.864C32.2735 820.006 31.6972 820.97 30.9591 821.755C30.2011 822.54 29.2918 823.138 28.2312 823.548C27.1715 823.939 25.9624 824.101 24.604 824.037C23.2655 823.974 22.0868 823.707 21.0678 823.239C20.0298 822.749 19.1792 822.108 18.516 821.316C17.8338 820.502 17.3379 819.558 17.0285 818.482C16.6992 817.405 16.5648 816.228 16.6254 814.949C16.6822 813.75 16.9155 812.63 17.3253 811.588C17.7351 810.547 18.3081 809.653 19.0442 808.907C19.7604 808.16 20.6189 807.58 21.6195 807.167C22.6202 806.754 23.7399 806.577 24.9785 806.635L27.0761 806.735L26.4695 819.53C28.139 819.369 29.3546 818.856 30.1165 817.991C30.8792 817.106 31.2933 815.975 31.3586 814.596ZM18.5732 815.041C18.5457 815.621 18.63 816.165 18.8261 816.675C19.0222 817.185 19.351 817.641 19.8124 818.043C20.2748 818.426 20.8799 818.755 21.6277 819.03C22.3765 819.286 23.2897 819.45 24.3676 819.521L24.7654 811.13C23.7265 811.081 22.8219 811.158 22.0514 811.362C21.2808 811.566 20.6464 811.856 20.148 812.233C19.6305 812.589 19.2496 813.021 19.0053 813.53C18.7418 814.018 18.5978 814.522 18.5732 815.041Z" fill="white"/>
<path d="M43.6988 617.558C44.2111 615.833 44.8956 614.336 45.7521 613.067C46.5951 611.774 47.5865 610.754 48.7261 610.007C49.8714 609.241 51.1593 608.768 52.5897 608.588C54.0011 608.402 55.5311 608.554 57.18 609.043C58.8289 609.533 60.2035 610.244 61.3038 611.175C62.3849 612.101 63.1965 613.198 63.7384 614.464C64.2859 615.712 64.5696 617.11 64.5893 618.66C64.5956 620.185 64.3425 621.81 63.8302 623.536L61.0124 633.026L40.881 627.049L43.6988 617.558ZM44.2761 623.519L60.0936 628.216L61.6733 622.895C61.9636 621.917 62.0902 620.964 62.0531 620.035C62.0025 619.081 61.7548 618.194 61.3099 617.373C60.8459 616.547 60.1695 615.804 59.2806 615.144C58.3975 614.464 57.2561 613.917 55.8565 613.501C54.4569 613.085 53.2017 612.921 52.0908 613.009C50.9857 613.077 50.0228 613.334 49.2023 613.779C48.3626 614.218 47.6708 614.826 47.1271 615.603C46.5698 616.356 46.1461 617.221 45.8557 618.199L44.2761 623.519Z" fill="white"/>
<path d="M63.2475 580.519L62.0944 583.929C61.6588 585.217 61.6762 586.321 62.1466 587.24C62.598 588.153 63.5058 588.84 64.8699 589.301L73.5378 592.232L72.1925 596.21L63.5246 593.28C61.5921 592.626 60.3003 591.514 59.6493 589.943C58.9858 588.346 59.0416 586.401 59.8168 584.109L61.2581 579.846L63.2475 580.519Z" fill="white"/>
<path d="M80.8214 571.273L79.3899 575.222L65.006 570.007L66.4375 566.059L80.8214 571.273ZM62.6811 564.537C63.2452 564.742 63.6719 565.12 63.9612 565.671C64.2385 566.197 64.2613 566.78 64.0295 567.419C63.7978 568.059 63.4035 568.501 62.8467 568.746C62.2779 568.965 61.7115 568.972 61.1474 568.768C60.5833 568.563 60.1626 568.198 59.8853 567.672C59.596 567.12 59.5672 566.525 59.799 565.886C60.0239 565.265 60.4242 564.836 60.9998 564.598C61.5566 564.353 62.117 564.333 62.6811 564.537Z" fill="white"/>
<path d="M84.8074 554.576C85.0566 553.943 85.1909 553.33 85.2101 552.736C85.218 552.115 85.0813 551.535 84.8 550.994C84.526 550.435 84.0943 549.921 83.5051 549.452C82.9232 548.965 82.1578 548.534 81.2088 548.16C80.2598 547.786 79.4064 547.579 78.6485 547.538C77.898 547.479 77.2317 547.561 76.6498 547.783C76.0752 547.986 75.5885 548.321 75.1898 548.787C74.7799 549.228 74.4502 549.764 74.201 550.397L72.8263 553.886L83.4327 558.065L84.8074 554.576ZM83.8469 562.742L64.3088 555.044L65.8484 551.137L70.8725 553.116L72.2472 549.627C72.753 548.343 73.3787 547.246 74.1243 546.336C74.8771 545.407 75.7165 544.696 76.6424 544.201C77.5683 543.706 78.5549 543.439 79.602 543.4C80.6565 543.342 81.7419 543.534 82.8584 543.973C83.9749 544.413 84.899 545.014 85.6309 545.775C86.3701 546.518 86.9094 547.386 87.2488 548.38C87.5882 549.373 87.7164 550.466 87.6335 551.659C87.5578 552.833 87.2671 554.062 86.7612 555.346L83.8469 562.742Z" fill="white"/>
<path d="M96.7642 525.32C97.0378 524.697 97.1958 524.089 97.238 523.496C97.27 522.877 97.1559 522.291 96.8957 521.74C96.6436 521.17 96.2322 520.64 95.6616 520.149C95.099 519.639 94.3509 519.18 93.4171 518.769C92.4833 518.359 91.6385 518.118 90.8828 518.048C90.1352 517.96 89.4663 518.016 88.8762 518.215C88.2941 518.396 87.7948 518.712 87.3783 519.163C86.9516 519.587 86.6014 520.11 86.3278 520.732L84.8189 524.166L95.2553 528.753L96.7642 525.32ZM95.4878 533.443L76.2629 524.993L77.9528 521.148L82.8964 523.321L84.4053 519.888C84.9606 518.624 85.6284 517.552 86.4086 516.672C87.1969 515.773 88.0632 515.094 89.0077 514.635C89.9521 514.177 90.9482 513.948 91.9961 513.95C93.052 513.933 94.1292 514.167 95.2278 514.649C96.3263 515.132 97.2265 515.768 97.9283 516.557C98.6382 517.328 99.1434 518.217 99.4441 519.223C99.7447 520.229 99.8304 521.326 99.7013 522.514C99.5802 523.684 99.242 524.901 98.6867 526.165L95.4878 533.443Z" fill="white"/>
<path d="M109.954 496.333C110.252 495.721 110.433 495.12 110.499 494.529C110.555 493.911 110.464 493.322 110.225 492.761C109.995 492.182 109.605 491.636 109.054 491.123C108.512 490.592 107.782 490.103 106.865 489.656C105.948 489.21 105.113 488.937 104.361 488.837C103.617 488.72 102.947 488.749 102.349 488.926C101.761 489.084 101.249 489.38 100.816 489.814C100.373 490.221 100.002 490.73 99.7046 491.342L98.0629 494.713L108.312 499.704L109.954 496.333ZM108.362 504.4L89.481 495.206L91.3198 491.43L96.1748 493.794L97.8166 490.422C98.4207 489.181 99.1298 488.136 99.9438 487.287C100.767 486.42 101.659 485.775 102.62 485.354C103.582 484.932 104.586 484.743 105.633 484.785C106.689 484.81 107.756 485.085 108.835 485.611C109.914 486.136 110.789 486.807 111.459 487.622C112.138 488.42 112.609 489.328 112.87 490.345C113.131 491.362 113.174 492.461 112.998 493.644C112.832 494.809 112.446 496.011 111.842 497.252L108.362 504.4Z" fill="white"/>
<path d="M124.264 472.43L122.323 476.154L103.701 466.446L105.643 462.722L124.264 472.43Z" fill="white"/>
<path d="M131.41 455.881C131.886 455.025 132.18 454.147 132.291 453.247C132.412 452.331 132.4 451.363 132.257 450.345L134.413 450.171C134.526 450.669 134.578 451.212 134.57 451.803C134.572 452.376 134.514 452.973 134.397 453.595C134.273 454.189 134.099 454.791 133.875 455.398C133.669 456.016 133.41 456.605 133.099 457.164C132.409 458.405 131.611 459.449 130.706 460.295C129.828 461.134 128.883 461.742 127.873 462.118C126.845 462.485 125.765 462.617 124.633 462.513C123.51 462.393 122.354 462.002 121.166 461.341C119.994 460.69 119.056 459.928 118.352 459.055C117.639 458.156 117.162 457.204 116.919 456.199C116.669 455.168 116.644 454.101 116.845 453C117.028 451.889 117.43 450.774 118.052 449.655C118.635 448.606 119.342 447.706 120.172 446.955C121.001 446.203 121.912 445.657 122.903 445.315C123.876 444.964 124.903 444.825 125.983 444.9C127.063 444.974 128.145 445.312 129.228 445.915L131.064 446.936L124.838 458.131C126.406 458.728 127.723 458.808 128.789 458.372C129.866 457.917 130.739 457.087 131.41 455.881ZM119.756 450.603C119.475 451.11 119.308 451.635 119.258 452.179C119.207 452.723 119.299 453.277 119.534 453.843C119.778 454.391 120.174 454.954 120.722 455.533C121.279 456.095 122.025 456.647 122.959 457.189L127.041 449.848C126.132 449.342 125.288 449.01 124.507 448.85C123.726 448.691 123.028 448.669 122.415 448.785C121.793 448.875 121.26 449.093 120.815 449.44C120.362 449.761 120.009 450.148 119.756 450.603Z" fill="white"/>
<path d="M229.901 284.905C231.125 283.585 232.402 282.546 233.731 281.788C235.06 281.002 236.401 280.527 237.753 280.362C239.119 280.183 240.484 280.33 241.846 280.802C243.194 281.26 244.498 282.074 245.759 283.244C247.021 284.413 247.938 285.659 248.512 286.982C249.071 288.291 249.313 289.633 249.237 291.009C249.176 292.37 248.81 293.75 248.141 295.148C247.471 296.517 246.525 297.862 245.301 299.182L238.57 306.442L223.17 292.165L229.901 284.905ZM227.778 290.505L239.877 301.723L243.651 297.653C244.344 296.905 244.88 296.106 245.258 295.257C245.636 294.379 245.807 293.474 245.771 292.541C245.721 291.595 245.444 290.629 244.94 289.643C244.449 288.643 243.669 287.646 242.598 286.654C241.527 285.661 240.475 284.958 239.44 284.544C238.419 284.116 237.442 283.919 236.509 283.954C235.562 283.976 234.672 284.215 233.841 284.671C233.008 285.099 232.244 285.687 231.551 286.435L227.778 290.505Z" fill="white"/>
<path d="M263.816 260.36L261.272 262.908C260.311 263.871 259.839 264.868 259.854 265.9C259.855 266.919 260.365 267.936 261.384 268.954L267.859 275.418L264.892 278.391L258.416 271.926C256.973 270.485 256.307 268.916 256.418 267.219C256.53 265.493 257.441 263.774 259.15 262.061L262.329 258.877L263.816 260.36Z" fill="white"/>
<path d="M283.704 259.813L280.674 262.721L270.08 251.681L273.111 248.773L283.704 259.813ZM270.415 245.747C270.831 246.18 271.046 246.708 271.061 247.33C271.077 247.925 270.84 248.457 270.349 248.928C269.859 249.399 269.31 249.621 268.702 249.594C268.095 249.539 267.584 249.296 267.168 248.863C266.753 248.43 266.537 247.916 266.521 247.322C266.506 246.699 266.743 246.152 267.234 245.681C267.71 245.224 268.259 245.016 268.88 245.058C269.488 245.084 270 245.314 270.415 245.747Z" fill="white"/>
<path d="M294.755 246.517C295.258 246.06 295.65 245.569 295.93 245.045C296.211 244.492 296.345 243.911 296.332 243.301C296.334 242.678 296.174 242.026 295.852 241.346C295.546 240.651 295.05 239.927 294.364 239.172C293.678 238.417 293.004 237.853 292.342 237.482C291.695 237.097 291.062 236.875 290.442 236.817C289.836 236.746 289.252 236.831 288.688 237.073C288.125 237.287 287.593 237.622 287.089 238.079L284.314 240.601L291.979 249.039L294.755 246.517ZM290.282 253.417L276.162 237.874L279.271 235.049L282.902 239.046L285.677 236.525C286.699 235.597 287.745 234.89 288.816 234.403C289.902 233.903 290.97 233.636 292.019 233.601C293.068 233.566 294.071 233.763 295.028 234.191C295.999 234.606 296.888 235.258 297.695 236.146C298.502 237.034 299.065 237.981 299.385 238.988C299.719 239.981 299.819 240.998 299.684 242.039C299.549 243.08 299.181 244.118 298.579 245.151C297.992 246.17 297.188 247.144 296.167 248.072L290.282 253.417Z" fill="white"/>
<path d="M318.48 225.504C319 225.066 319.41 224.591 319.71 224.077C320.013 223.535 320.169 222.96 320.179 222.35C320.205 221.728 320.07 221.071 319.775 220.378C319.496 219.672 319.028 218.929 318.371 218.148C317.715 217.368 317.063 216.779 316.416 216.382C315.785 215.972 315.16 215.727 314.542 215.645C313.94 215.55 313.353 215.613 312.78 215.833C312.21 216.025 311.665 216.34 311.144 216.777L308.274 219.19L315.609 227.917L318.48 225.504ZM313.745 232.227L300.233 216.152L303.448 213.449L306.922 217.583L309.793 215.17C310.849 214.282 311.922 213.615 313.011 213.17C314.115 212.712 315.192 212.486 316.242 212.492C317.292 212.497 318.287 212.733 319.226 213.197C320.18 213.649 321.044 214.334 321.816 215.253C322.588 216.171 323.115 217.14 323.396 218.157C323.692 219.163 323.752 220.183 323.578 221.218C323.403 222.253 322.995 223.276 322.354 224.285C321.728 225.281 320.887 226.223 319.831 227.111L313.745 232.227Z" fill="white"/>
<path d="M343.011 205.405C343.548 204.988 343.976 204.529 344.296 204.027C344.619 203.498 344.797 202.928 344.831 202.32C344.88 201.699 344.771 201.037 344.503 200.333C344.251 199.617 343.812 198.857 343.186 198.051C342.56 197.246 341.932 196.632 341.3 196.211C340.685 195.777 340.07 195.508 339.456 195.402C338.858 195.284 338.269 195.324 337.688 195.522C337.111 195.692 336.554 195.986 336.017 196.403L333.056 198.704L340.05 207.706L343.011 205.405ZM338.022 211.941L325.138 195.358L328.454 192.781L331.767 197.045L334.729 194.745C335.818 193.898 336.916 193.273 338.021 192.87C339.142 192.455 340.227 192.271 341.276 192.317C342.325 192.363 343.31 192.636 344.231 193.137C345.167 193.625 346.003 194.343 346.74 195.29C347.476 196.238 347.965 197.226 348.206 198.254C348.464 199.269 348.485 200.291 348.27 201.319C348.056 202.347 347.609 203.353 346.93 204.336C346.266 205.308 345.389 206.217 344.3 207.064L338.022 211.941Z" fill="white"/>
<path d="M366.38 190.286L362.995 192.771L350.566 175.844L353.952 173.359L366.38 190.286Z" fill="white"/>
<path d="M380.123 178.568C380.928 178.009 381.579 177.351 382.075 176.593C382.588 175.823 383.004 174.95 383.325 173.973L385.337 174.768C385.218 175.264 385.025 175.775 384.758 176.302C384.506 176.817 384.191 177.327 383.812 177.834C383.438 178.312 383.017 178.775 382.548 179.222C382.091 179.685 381.599 180.099 381.073 180.464C379.907 181.274 378.73 181.859 377.544 182.219C376.386 182.584 375.27 182.713 374.197 182.606C373.113 182.481 372.086 182.123 371.115 181.531C370.161 180.927 369.296 180.067 368.521 178.949C367.757 177.848 367.251 176.751 367.003 175.657C366.761 174.535 366.752 173.47 366.978 172.462C367.208 171.425 367.656 170.457 368.322 169.557C368.976 168.641 369.829 167.818 370.881 167.088C371.867 166.404 372.898 165.908 373.974 165.6C375.05 165.291 376.108 165.202 377.148 165.333C378.177 165.447 379.159 165.775 380.096 166.318C381.032 166.861 381.854 167.642 382.561 168.661L383.758 170.387L373.233 177.688C374.376 178.916 375.523 179.568 376.672 179.647C377.839 179.714 378.989 179.354 380.123 178.568ZM371.992 168.69C371.516 169.021 371.135 169.419 370.849 169.885C370.564 170.351 370.402 170.889 370.363 171.5C370.341 172.1 370.448 172.78 370.684 173.541C370.937 174.291 371.362 175.116 371.962 176.014L378.863 171.226C378.27 170.372 377.659 169.701 377.028 169.213C376.398 168.725 375.782 168.398 375.179 168.232C374.582 168.038 374.007 167.999 373.455 168.114C372.907 168.202 372.42 168.394 371.992 168.69Z" fill="white"/>
<path d="M543.953 68.602C545.634 67.9592 547.239 67.592 548.767 67.5004C550.307 67.3829 551.719 67.5495 553.005 68.0002C554.309 68.4437 555.468 69.1783 556.481 70.2042C557.487 71.2114 558.297 72.5183 558.911 74.1249C559.525 75.7316 559.797 77.2549 559.727 78.695C559.649 80.1164 559.273 81.4273 558.597 82.6278C557.939 83.8212 557.002 84.8969 555.784 85.855C554.577 86.7874 553.133 87.5749 551.452 88.2176L542.204 91.7526L534.706 72.1369L543.953 68.602ZM539.572 72.6854L545.464 88.0977L550.648 86.1159C551.601 85.7517 552.435 85.2724 553.15 84.6779C553.876 84.0577 554.43 83.3215 554.81 82.4693C555.184 81.5985 555.363 80.6095 555.346 79.5024C555.349 78.3881 555.089 77.1491 554.568 75.7853C554.046 74.4216 553.413 73.3254 552.668 72.4968C551.942 71.661 551.153 71.0527 550.301 70.6719C549.441 70.2724 548.538 70.0932 547.59 70.1343C546.654 70.1497 545.709 70.3394 544.757 70.7036L539.572 72.6854Z" fill="white"/>
<path d="M585.125 61.6331L581.717 62.7923C580.429 63.2302 579.564 63.9154 579.12 64.8478C578.671 65.7613 578.677 66.8997 579.141 68.263L582.087 76.9257L578.111 78.2781L575.165 69.6154C574.508 67.6841 574.605 65.9822 575.456 64.5096C576.32 63.0118 577.897 61.8732 580.188 61.094L584.449 59.6449L585.125 61.6331Z" fill="white"/>
<path d="M603.187 69.9477L599.182 71.2132L594.572 56.6244L598.577 55.3588L603.187 69.9477ZM597.5 51.4518C597.68 52.0239 597.64 52.5926 597.378 53.1578C597.129 53.6978 596.68 54.0703 596.032 54.2752C595.384 54.4801 594.793 54.4361 594.26 54.1431C593.74 53.825 593.389 53.3799 593.209 52.8078C593.028 52.2357 593.062 51.6796 593.311 51.1395C593.573 50.5743 594.028 50.1893 594.676 49.9844C595.305 49.7855 595.89 49.8421 596.429 50.1542C596.962 50.4472 597.319 50.8797 597.5 51.4518Z" fill="white"/>
<path d="M619.026 62.9101C619.68 62.7233 620.248 62.4568 620.732 62.1106C621.229 61.7398 621.607 61.2782 621.865 60.726C622.143 60.1684 622.288 59.5132 622.302 58.7604C622.335 58.0022 622.211 57.1327 621.931 56.1519C621.651 55.1712 621.297 54.3676 620.868 53.7413C620.459 53.1094 619.989 52.63 619.459 52.3031C618.948 51.9707 618.386 51.788 617.773 51.755C617.174 51.6973 616.548 51.7619 615.894 51.9487L612.288 52.9789L615.42 63.9403L619.026 62.9101ZM611.959 67.1133L606.19 46.9213L610.228 45.7675L611.711 50.9597L615.317 49.9295C616.644 49.5504 617.895 49.3801 619.071 49.4185C620.266 49.4515 621.342 49.685 622.298 50.1191C623.254 50.5531 624.066 51.174 624.733 51.9817C625.42 52.7839 625.928 53.7619 626.258 54.9157C626.588 56.0695 626.673 57.1684 626.513 58.2123C626.373 59.2508 626.012 60.2068 625.43 61.0804C624.847 61.954 624.057 62.7205 623.06 63.3799C622.082 64.0337 620.93 64.5502 619.603 64.9293L611.959 67.1133Z" fill="white"/>
<path d="M649.784 54.5489C650.445 54.3878 651.023 54.1438 651.52 53.8169C652.031 53.4657 652.427 53.0194 652.706 52.4777C653.006 51.9313 653.177 51.2823 653.22 50.5307C653.283 49.7743 653.193 48.9006 652.951 47.9097C652.71 46.9187 652.387 46.1019 651.983 45.4592C651.599 44.8118 651.149 44.3144 650.631 43.967C650.134 43.6148 649.58 43.4103 648.969 43.3534C648.373 43.2723 647.744 43.3123 647.084 43.4733L643.44 44.3616L646.141 55.4372L649.784 54.5489ZM642.558 58.4723L637.583 38.0699L641.664 37.075L642.943 42.3214L646.586 41.4331C647.927 41.1062 649.184 40.985 650.357 41.0695C651.55 41.1492 652.616 41.4246 653.554 41.8958C654.492 42.3669 655.279 43.0191 655.915 43.8523C656.57 44.6808 657.039 45.6779 657.323 46.8438C657.608 48.0096 657.65 49.111 657.45 50.1479C657.269 51.1801 656.871 52.1212 656.254 52.9714C655.638 53.8215 654.819 54.5565 653.797 55.1762C652.794 55.7913 651.622 56.2623 650.281 56.5891L642.558 58.4723Z" fill="white"/>
<path d="M680.959 47.3712C681.625 47.2361 682.213 47.015 682.722 46.7078C683.247 46.377 683.66 45.9465 683.96 45.4162C684.281 44.882 684.477 44.2402 684.55 43.4909C684.642 42.7376 684.587 41.861 684.384 40.8614C684.182 39.8617 683.891 39.0328 683.513 38.3748C683.155 37.7128 682.724 37.1981 682.221 36.8307C681.738 36.4592 681.192 36.2331 680.584 36.1523C679.991 36.0478 679.362 36.0631 678.695 36.1981L675.02 36.9427L677.283 48.1158L680.959 47.3712ZM673.584 51.0079L669.414 30.426L673.531 29.5921L674.603 34.8846L678.278 34.14C679.631 33.8659 680.892 33.7942 682.061 33.9246C683.249 34.0511 684.303 34.3681 685.222 34.8757C686.142 35.3834 686.902 36.0659 687.505 36.9234C688.126 37.7769 688.556 38.7917 688.795 39.9678C689.033 41.144 689.032 42.2461 688.791 43.2744C688.57 44.2987 688.135 45.2235 687.486 46.0488C686.837 46.8741 685.99 47.5763 684.944 48.1555C683.918 48.7307 682.728 49.1553 681.376 49.4293L673.584 51.0079Z" fill="white"/>
<path d="M708.184 44.2819L704.046 45.0044L700.434 24.3175L704.571 23.595L708.184 44.2819Z" fill="white"/>
<path d="M725.434 39.929C726.404 39.7861 727.279 39.4853 728.061 39.0266C728.862 38.5649 729.623 37.9676 730.344 37.2347L731.793 38.8406C731.467 39.2323 731.067 39.6046 730.593 39.9574C730.139 40.3073 729.63 40.6249 729.066 40.9102C728.518 41.1728 727.935 41.4002 727.317 41.5924C726.701 41.8044 726.077 41.957 725.443 42.0503C724.039 42.2572 722.725 42.2587 721.502 42.0547C720.302 41.8676 719.245 41.4875 718.332 40.9145C717.416 40.3217 716.654 39.5443 716.048 38.5825C715.461 37.6177 715.068 36.4626 714.87 35.1171C714.675 33.7914 714.709 32.5835 714.973 31.4934C715.254 30.3806 715.719 29.4226 716.369 28.6193C717.036 27.7933 717.867 27.125 718.864 26.6143C719.857 26.0839 720.987 25.7255 722.253 25.5389C723.44 25.364 724.584 25.3774 725.686 25.5791C726.787 25.7808 727.774 26.1711 728.648 26.7499C729.519 27.309 730.253 28.0398 730.851 28.9423C731.449 29.8448 731.838 30.9094 732.019 32.1362L732.325 34.2138L719.652 36.0806C720.131 37.6879 720.868 38.7821 721.864 39.3633C722.879 39.9415 724.069 40.1301 725.434 39.929ZM722.537 27.4681C721.963 27.5526 721.445 27.7401 720.983 28.0307C720.52 28.3212 720.136 28.7316 719.83 29.2618C719.544 29.7892 719.337 30.4463 719.21 31.2331C719.104 32.0171 719.119 32.9447 719.256 34.0161L727.567 32.792C727.415 31.7631 727.165 30.8902 726.817 30.1733C726.469 29.4564 726.062 28.8896 725.596 28.473C725.148 28.0337 724.65 27.7432 724.103 27.6013C723.574 27.4367 723.052 27.3923 722.537 27.4681Z" fill="white"/>
<path d="M922.656 14.1248C924.448 14.2939 926.049 14.6761 927.459 15.2712C928.891 15.8483 930.084 16.6238 931.036 17.5976C932.009 18.5733 932.722 19.7455 933.175 21.1141C933.631 22.4629 933.778 23.9934 933.616 25.7058C933.454 27.4182 933.023 28.9043 932.321 30.1639C931.622 31.4037 930.703 32.4118 929.565 33.1883C928.447 33.9667 927.13 34.5154 925.613 34.8343C924.118 35.1352 922.475 35.201 920.683 35.0319L910.826 34.1018L912.799 13.1947L922.656 14.1248ZM916.919 15.8434L915.368 32.2704L920.894 32.7919C921.909 32.8877 922.869 32.8276 923.774 32.6116C924.7 32.3776 925.522 31.9631 926.241 31.368C926.962 30.753 927.561 29.9457 928.037 28.946C928.533 27.9482 928.849 26.7225 928.987 25.2689C929.124 23.8154 929.042 22.5521 928.742 21.4792C928.461 20.4081 928.023 19.513 927.428 18.7939C926.835 18.0549 926.104 17.4937 925.236 17.1105C924.39 16.7093 923.46 16.4607 922.444 16.3649L916.919 15.8434Z" fill="white"/>
<path d="M962.716 26.1257L959.147 25.6551C957.799 25.4773 956.72 25.7082 955.909 26.3477C955.101 26.9674 954.603 27.9911 954.415 29.4187L953.219 38.4902L949.055 37.9411L950.251 28.8696C950.517 26.8471 951.359 25.3644 952.774 24.4213C954.212 23.4611 956.13 23.1391 958.53 23.4555L962.991 24.0438L962.716 26.1257Z" fill="white"/>
<path d="M975.124 41.5683L970.973 40.9299L973.299 25.8077L977.45 26.4461L975.124 41.5683ZM978.214 22.466C978.122 23.059 977.834 23.5509 977.349 23.9417C976.887 24.3158 976.32 24.4512 975.648 24.3478C974.976 24.2444 974.466 23.9434 974.117 23.4447C973.792 22.9292 973.675 22.375 973.766 21.7819C973.857 21.1889 974.134 20.7053 974.596 20.3313C975.081 19.9405 975.66 19.7967 976.332 19.9001C976.984 20.0004 977.483 20.3098 977.828 20.8283C978.176 21.3271 978.305 21.8729 978.214 22.466Z" fill="white"/>
<path d="M992.159 42.2199C992.828 42.3416 993.456 42.3541 994.043 42.2575C994.653 42.1448 995.196 41.898 995.672 41.517C996.167 41.1396 996.588 40.6163 996.933 39.9473C997.298 39.2819 997.572 38.4474 997.754 37.4438C997.937 36.4403 997.974 35.5628 997.867 34.8115C997.779 34.0638 997.57 33.426 997.239 32.8983C996.928 32.3742 996.505 31.9618 995.97 31.6613C995.458 31.3447 994.868 31.1255 994.199 31.0038L990.51 30.3329L988.47 41.549L992.159 42.2199ZM983.962 42.8637L987.719 22.2025L991.851 22.9539L990.885 28.2668L994.575 28.9377C995.932 29.1846 997.13 29.5854 998.168 30.1399C999.225 30.6981 1000.09 31.3832 1000.75 32.1954C1001.42 33.0076 1001.87 33.9235 1002.11 34.9431C1002.37 35.9664 1002.4 37.0683 1002.18 38.2489C1001.97 39.4296 1001.56 40.4528 1000.95 41.3186C1000.37 42.1879 999.621 42.8856 998.712 43.4115C997.803 43.9374 996.756 44.2754 995.57 44.4257C994.403 44.5795 993.141 44.5329 991.784 44.286L983.962 42.8637Z" fill="white"/>
<path d="M1023.17 48.2622C1023.83 48.4097 1024.46 48.4465 1025.05 48.3727C1025.66 48.2838 1026.21 48.0581 1026.7 47.6958C1027.21 47.3379 1027.65 46.8313 1028.02 46.1761C1028.41 45.5253 1028.72 44.7021 1028.94 43.7063C1029.16 42.7106 1029.23 41.8353 1029.16 41.0804C1029.1 40.3298 1028.91 39.6844 1028.6 39.1443C1028.31 38.6085 1027.91 38.1801 1027.38 37.8591C1026.88 37.5229 1026.3 37.281 1025.64 37.1335L1021.98 36.3203L1019.51 47.449L1023.17 48.2622ZM1014.95 48.5881L1019.5 28.0879L1023.6 28.9988L1022.43 34.2703L1026.09 35.0835C1027.44 35.3828 1028.62 35.8296 1029.64 36.4239C1030.67 37.0226 1031.51 37.7406 1032.14 38.5779C1032.77 39.4152 1033.19 40.348 1033.39 41.3762C1033.61 42.4088 1033.59 43.5108 1033.33 44.6822C1033.07 45.8537 1032.63 46.8603 1031.99 47.702C1031.37 48.5481 1030.6 49.2163 1029.67 49.7066C1028.74 50.1969 1027.68 50.4942 1026.49 50.5984C1025.32 50.7069 1024.06 50.6115 1022.71 50.3122L1014.95 48.5881Z" fill="white"/>
<path d="M1054.27 55.5949C1054.93 55.7683 1055.56 55.8297 1056.15 55.7792C1056.76 55.7143 1057.33 55.5105 1057.83 55.1677C1058.35 54.83 1058.81 54.3412 1059.21 53.7011C1059.62 53.0661 1059.96 52.2554 1060.22 51.2692C1060.48 50.2829 1060.59 49.411 1060.54 48.6536C1060.51 47.9013 1060.35 47.2493 1060.06 46.6974C1059.79 46.1506 1059.4 45.7065 1058.89 45.3652C1058.41 45.0097 1057.84 44.7452 1057.18 44.5718L1053.55 43.6155L1050.65 54.6386L1054.27 55.5949ZM1046.05 55.5982L1051.41 35.2924L1055.47 36.3635L1054.09 41.585L1057.72 42.5412C1059.05 42.8932 1060.21 43.386 1061.2 44.0197C1062.21 44.6585 1063.02 45.4087 1063.62 46.2702C1064.22 47.1317 1064.6 48.0801 1064.76 49.1155C1064.94 50.156 1064.88 51.2564 1064.57 52.4167C1064.27 53.577 1063.78 54.5652 1063.11 55.3813C1062.46 56.2024 1061.66 56.8398 1060.71 57.2933C1059.77 57.7468 1058.69 58.0022 1057.5 58.0596C1056.33 58.1221 1055.07 57.9774 1053.74 57.6255L1046.05 55.5982Z" fill="white"/>
<path d="M1080.53 65.0102L1076.5 63.8275L1082.42 43.6772L1086.45 44.8599L1080.53 65.0102Z" fill="white"/>
<path d="M1098.15 68.8119C1099.09 69.1131 1100 69.2312 1100.91 69.1659C1101.83 69.1067 1102.78 68.9082 1103.75 68.5704L1104.34 70.6521C1103.87 70.8588 1103.35 71.0154 1102.77 71.122C1102.21 71.2347 1101.61 71.294 1100.98 71.2999C1100.37 71.2928 1099.75 71.2385 1099.11 71.1369C1098.46 71.0543 1097.83 70.9147 1097.22 70.7179C1095.87 70.2814 1094.69 69.7009 1093.69 68.9765C1092.69 68.2773 1091.92 67.4686 1091.35 66.5504C1090.79 65.6132 1090.45 64.5791 1090.33 63.448C1090.24 62.3231 1090.4 61.1136 1090.81 59.8194C1091.23 58.5443 1091.79 57.4765 1092.51 56.616C1093.25 55.7426 1094.1 55.0897 1095.03 54.6573C1096 54.212 1097.04 53.981 1098.16 53.9643C1099.28 53.9286 1100.46 54.1075 1101.67 54.501C1102.82 54.8699 1103.84 55.3886 1104.73 56.0571C1105.63 56.7255 1106.34 57.5127 1106.87 58.4186C1107.4 59.3055 1107.74 60.2859 1107.88 61.3598C1108.01 62.4338 1107.89 63.5607 1107.51 64.7407L1106.86 66.739L1094.67 62.8007C1094.39 64.4541 1094.57 65.7617 1095.2 66.7235C1095.86 67.6915 1096.84 68.3876 1098.15 68.8119ZM1101.07 56.3566C1100.52 56.1782 1099.98 56.1169 1099.43 56.1725C1098.89 56.2281 1098.36 56.4259 1097.85 56.7658C1097.36 57.1119 1096.89 57.6097 1096.42 58.2591C1095.98 58.9146 1095.58 59.7532 1095.23 60.7747L1103.23 63.3572C1103.55 62.3676 1103.71 61.4743 1103.71 60.6773C1103.72 59.8803 1103.61 59.192 1103.37 58.6122C1103.16 58.0196 1102.85 57.5387 1102.42 57.1695C1102.02 56.7874 1101.57 56.5164 1101.07 56.3566Z" fill="white"/>
<path d="M1284.86 132.428C1286.39 133.376 1287.65 134.429 1288.65 135.589C1289.68 136.742 1290.4 137.966 1290.82 139.262C1291.26 140.568 1291.38 141.935 1291.18 143.363C1290.99 144.773 1290.44 146.21 1289.53 147.672C1288.63 149.135 1287.58 150.275 1286.39 151.092C1285.21 151.892 1283.94 152.387 1282.58 152.577C1281.23 152.778 1279.81 152.685 1278.31 152.297C1276.83 151.903 1275.33 151.232 1273.8 150.284L1265.38 145.074L1276.44 127.218L1284.86 132.428ZM1278.95 131.42L1270.27 145.45L1274.99 148.371C1275.85 148.908 1276.74 149.281 1277.65 149.489C1278.58 149.69 1279.5 149.684 1280.41 149.47C1281.33 149.24 1282.22 148.782 1283.09 148.098C1283.98 147.424 1284.81 146.466 1285.58 145.225C1286.35 143.983 1286.83 142.815 1287.04 141.721C1287.27 140.636 1287.27 139.64 1287.06 138.731C1286.85 137.806 1286.45 136.979 1285.84 136.25C1285.26 135.514 1284.54 134.878 1283.67 134.342L1278.95 131.42Z" fill="white"/>
<path d="M1315.38 160.951L1312.39 158.944C1311.26 158.186 1310.2 157.914 1309.18 158.127C1308.19 158.323 1307.28 159.019 1306.48 160.215L1301.38 167.811L1297.89 165.47L1303 157.874C1304.13 156.18 1305.54 155.225 1307.23 155.009C1308.95 154.787 1310.81 155.35 1312.82 156.699L1316.55 159.208L1315.38 160.951Z" fill="white"/>
<path d="M1319.77 180.386L1316.34 177.97L1325.14 165.455L1328.58 167.871L1319.77 180.386ZM1331.03 164.645C1330.68 165.135 1330.21 165.448 1329.6 165.583C1329.02 165.713 1328.45 165.582 1327.89 165.191C1327.34 164.8 1327.01 164.303 1326.92 163.702C1326.86 163.095 1327 162.547 1327.35 162.056C1327.69 161.565 1328.16 161.255 1328.74 161.125C1329.34 160.991 1329.93 161.119 1330.48 161.51C1331.02 161.89 1331.33 162.388 1331.41 163.006C1331.5 163.608 1331.37 164.154 1331.03 164.645Z" fill="white"/>
<path d="M1334.98 188.712C1335.53 189.118 1336.09 189.409 1336.65 189.583C1337.25 189.753 1337.85 189.773 1338.44 189.643C1339.05 189.525 1339.66 189.243 1340.27 188.797C1340.89 188.364 1341.51 187.738 1342.12 186.92C1342.73 186.102 1343.15 185.332 1343.39 184.612C1343.64 183.903 1343.74 183.239 1343.68 182.619C1343.63 182.011 1343.43 181.454 1343.09 180.947C1342.77 180.436 1342.34 179.977 1341.79 179.571L1338.79 177.33L1331.98 186.471L1334.98 188.712ZM1327.35 185.646L1339.9 168.807L1343.27 171.316L1340.04 175.646L1343.05 177.887C1344.16 178.711 1345.05 179.602 1345.73 180.56C1346.43 181.53 1346.9 182.527 1347.13 183.55C1347.37 184.573 1347.37 185.595 1347.13 186.616C1346.91 187.649 1346.44 188.646 1345.73 189.608C1345.01 190.571 1344.19 191.305 1343.26 191.812C1342.35 192.331 1341.37 192.624 1340.32 192.691C1339.28 192.759 1338.19 192.596 1337.06 192.204C1335.94 191.823 1334.83 191.221 1333.73 190.396L1327.35 185.646Z" fill="white"/>
<path d="M1360.18 207.988C1360.71 208.415 1361.26 208.726 1361.82 208.922C1362.41 209.115 1363 209.158 1363.6 209.052C1364.22 208.957 1364.84 208.699 1365.46 208.277C1366.1 207.867 1366.74 207.266 1367.38 206.472C1368.02 205.678 1368.47 204.925 1368.74 204.214C1369.02 203.516 1369.14 202.856 1369.1 202.234C1369.08 201.625 1368.91 201.06 1368.58 200.541C1368.28 200.018 1367.87 199.543 1367.34 199.116L1364.42 196.761L1357.26 205.633L1360.18 207.988ZM1352.68 204.63L1365.86 188.287L1369.13 190.924L1365.74 195.127L1368.66 197.481C1369.73 198.348 1370.59 199.273 1371.24 200.256C1371.9 201.252 1372.33 202.266 1372.52 203.298C1372.72 204.329 1372.68 205.351 1372.4 206.361C1372.14 207.385 1371.64 208.364 1370.88 209.297C1370.13 210.231 1369.28 210.934 1368.33 211.405C1367.41 211.888 1366.42 212.143 1365.37 212.17C1364.32 212.197 1363.23 211.992 1362.12 211.557C1361.02 211.134 1359.94 210.489 1358.86 209.622L1352.68 204.63Z" fill="white"/>
<path d="M1384.6 228.203C1385.12 228.65 1385.65 228.982 1386.2 229.199C1386.78 229.415 1387.38 229.481 1387.98 229.397C1388.6 229.327 1389.23 229.093 1389.87 228.695C1390.52 228.31 1391.18 227.733 1391.86 226.965C1392.53 226.196 1393.01 225.461 1393.3 224.761C1393.61 224.074 1393.75 223.419 1393.74 222.796C1393.74 222.187 1393.59 221.616 1393.28 221.084C1393.01 220.55 1392.61 220.059 1392.1 219.612L1389.27 217.147L1381.78 225.737L1384.6 228.203ZM1377.23 224.559L1391.04 208.735L1394.2 211.496L1390.65 215.565L1393.48 218.03C1394.52 218.937 1395.34 219.895 1395.95 220.902C1396.57 221.923 1396.96 222.952 1397.12 223.991C1397.27 225.029 1397.19 226.048 1396.88 227.047C1396.58 228.06 1396.04 229.019 1395.25 229.923C1394.46 230.827 1393.58 231.496 1392.62 231.93C1391.67 232.378 1390.67 232.595 1389.62 232.581C1388.57 232.568 1387.5 232.322 1386.4 231.844C1385.32 231.379 1384.26 230.692 1383.22 229.785L1377.23 224.559Z" fill="white"/>
<path d="M1403.9 248.221L1400.81 245.375L1415.04 229.93L1418.13 232.776L1403.9 248.221Z" fill="white"/>
<path d="M1418 259.418C1418.7 260.101 1419.47 260.614 1420.31 260.955C1421.16 261.311 1422.1 261.552 1423.12 261.679L1422.73 263.806C1422.22 263.785 1421.68 263.694 1421.11 263.532C1420.56 263.384 1419.99 263.173 1419.42 262.898C1418.88 262.623 1418.35 262.299 1417.82 261.924C1417.28 261.564 1416.78 261.161 1416.32 260.715C1415.3 259.726 1414.5 258.683 1413.92 257.588C1413.34 256.522 1413 255.452 1412.9 254.378C1412.81 253.29 1412.96 252.213 1413.36 251.147C1413.77 250.094 1414.45 249.08 1415.39 248.105C1416.33 247.144 1417.31 246.437 1418.33 245.984C1419.39 245.531 1420.43 245.318 1421.47 245.345C1422.53 245.373 1423.56 245.627 1424.57 246.107C1425.6 246.574 1426.57 247.253 1427.49 248.145C1428.35 248.981 1429.03 249.898 1429.54 250.895C1430.05 251.892 1430.34 252.913 1430.41 253.959C1430.5 254.99 1430.37 256.017 1430.01 257.041C1429.66 258.064 1429.05 259.02 1428.19 259.909L1426.72 261.415L1417.54 252.487C1416.55 253.845 1416.13 255.096 1416.27 256.239C1416.43 257.397 1417.01 258.457 1418 259.418ZM1426.13 249.543C1425.71 249.139 1425.25 248.842 1424.74 248.651C1424.23 248.46 1423.67 248.404 1423.06 248.484C1422.47 248.577 1421.82 248.813 1421.12 249.19C1420.43 249.582 1419.7 250.158 1418.94 250.919L1424.96 256.773C1425.68 256.027 1426.23 255.298 1426.58 254.586C1426.94 253.874 1427.14 253.206 1427.19 252.583C1427.27 251.96 1427.19 251.388 1426.98 250.868C1426.78 250.347 1426.5 249.906 1426.13 249.543Z" fill="white"/>
<path d="M1557.49 399.041C1558.44 400.566 1559.11 402.07 1559.5 403.551C1559.91 405.039 1560.02 406.457 1559.83 407.805C1559.65 409.171 1559.15 410.45 1558.34 411.642C1557.54 412.824 1556.42 413.872 1554.96 414.785C1553.5 415.699 1552.06 416.26 1550.64 416.47C1549.23 416.669 1547.87 416.553 1546.56 416.122C1545.26 415.708 1544.02 414.996 1542.85 413.986C1541.7 412.983 1540.65 411.719 1539.69 410.193L1534.43 401.805L1552.23 390.653L1557.49 399.041ZM1552.63 395.533L1538.65 404.296L1541.6 408.999C1542.14 409.863 1542.77 410.588 1543.49 411.174C1544.24 411.767 1545.07 412.168 1545.98 412.377C1546.91 412.575 1547.91 412.559 1549 412.328C1550.09 412.115 1551.26 411.621 1552.49 410.845C1553.73 410.07 1554.68 409.236 1555.35 408.345C1556.03 407.471 1556.47 406.579 1556.68 405.669C1556.91 404.749 1556.91 403.828 1556.69 402.906C1556.49 401.99 1556.12 401.1 1555.58 400.236L1552.63 395.533Z" fill="white"/>
<path d="M1572.33 438.143L1570.53 435.024C1569.85 433.845 1569.01 433.129 1568.01 432.875C1567.03 432.61 1565.91 432.838 1564.67 433.557L1556.74 438.125L1554.64 434.486L1562.57 429.917C1564.34 428.899 1566.03 428.665 1567.64 429.214C1569.27 429.772 1570.69 431.099 1571.9 433.196L1574.15 437.095L1572.33 438.143Z" fill="white"/>
<path d="M1567.68 457.489L1565.66 453.805L1579.08 446.455L1581.1 450.139L1567.68 457.489ZM1584.72 448.325C1584.19 448.613 1583.63 448.684 1583.02 448.536C1582.45 448.397 1581.99 448.029 1581.67 447.432C1581.34 446.836 1581.27 446.248 1581.45 445.668C1581.66 445.096 1582.03 444.666 1582.56 444.378C1583.08 444.09 1583.64 444.016 1584.22 444.155C1584.82 444.302 1585.29 444.674 1585.61 445.271C1585.93 445.85 1585.99 446.434 1585.79 447.023C1585.6 447.603 1585.25 448.037 1584.72 448.325Z" fill="white"/>
<path d="M1577.65 471.653C1577.96 472.258 1578.33 472.765 1578.76 473.172C1579.22 473.588 1579.75 473.869 1580.34 474.015C1580.94 474.179 1581.61 474.195 1582.35 474.062C1583.1 473.948 1583.93 473.658 1584.84 473.193C1585.75 472.728 1586.47 472.224 1587 471.682C1587.54 471.158 1587.92 470.604 1588.14 470.021C1588.36 469.455 1588.43 468.868 1588.35 468.261C1588.29 467.662 1588.1 467.06 1587.79 466.455L1586.08 463.118L1575.94 468.316L1577.65 471.653ZM1572.15 465.535L1590.84 455.96L1592.76 459.698L1587.95 462.16L1589.66 465.498C1590.29 466.726 1590.7 467.92 1590.89 469.081C1591.09 470.26 1591.07 471.36 1590.83 472.382C1590.59 473.405 1590.14 474.321 1589.48 475.133C1588.82 475.962 1587.96 476.65 1586.89 477.198C1585.82 477.745 1584.76 478.041 1583.71 478.088C1582.66 478.152 1581.65 477.983 1580.68 477.581C1579.71 477.179 1578.81 476.553 1577.97 475.702C1577.14 474.869 1576.41 473.839 1575.78 472.611L1572.15 465.535Z" fill="white"/>
<path d="M1591.79 500.135C1592.07 500.752 1592.42 501.272 1592.84 501.696C1593.28 502.129 1593.8 502.431 1594.38 502.6C1594.98 502.787 1595.65 502.829 1596.39 502.725C1597.15 502.64 1597.99 502.383 1598.91 501.953C1599.84 501.524 1600.58 501.049 1601.13 500.528C1601.69 500.025 1602.09 499.486 1602.33 498.912C1602.58 498.355 1602.67 497.772 1602.61 497.162C1602.57 496.561 1602.41 495.952 1602.13 495.336L1600.55 491.934L1590.21 496.733L1591.79 500.135ZM1586.53 493.808L1605.58 484.967L1607.35 488.777L1602.45 491.05L1604.03 494.452C1604.61 495.703 1604.97 496.913 1605.12 498.08C1605.27 499.266 1605.21 500.365 1604.93 501.377C1604.65 502.389 1604.16 503.287 1603.47 504.072C1602.78 504.875 1601.9 505.53 1600.81 506.035C1599.72 506.54 1598.65 506.795 1597.59 506.8C1596.54 506.823 1595.54 506.615 1594.59 506.176C1593.64 505.737 1592.76 505.076 1591.95 504.193C1591.15 503.329 1590.46 502.271 1589.88 501.019L1586.53 493.808Z" fill="white"/>
<path d="M1604.82 529.176C1605.08 529.804 1605.41 530.337 1605.81 530.777C1606.24 531.227 1606.74 531.549 1607.32 531.74C1607.9 531.951 1608.57 532.019 1609.32 531.944C1610.08 531.888 1610.93 531.664 1611.87 531.271C1612.81 530.878 1613.56 530.432 1614.14 529.933C1614.72 529.453 1615.14 528.93 1615.4 528.365C1615.67 527.819 1615.79 527.24 1615.75 526.627C1615.73 526.026 1615.6 525.411 1615.34 524.784L1613.89 521.323L1603.37 525.716L1604.82 529.176ZM1599.81 522.649L1619.19 514.558L1620.81 518.434L1615.83 520.514L1617.27 523.975C1617.8 525.248 1618.12 526.471 1618.22 527.643C1618.33 528.834 1618.22 529.93 1617.9 530.93C1617.58 531.93 1617.06 532.809 1616.34 533.566C1615.62 534.342 1614.71 534.961 1613.6 535.424C1612.49 535.886 1611.41 536.099 1610.36 536.063C1609.31 536.045 1608.32 535.798 1607.38 535.322C1606.45 534.846 1605.59 534.151 1604.82 533.238C1604.06 532.343 1603.41 531.259 1602.88 529.985L1599.81 522.649Z" fill="white"/>
<path d="M1613.21 555.507L1611.7 551.588L1631.29 544.028L1632.8 547.947L1613.21 555.507Z" fill="white"/>
<path d="M1620.86 571.683C1621.19 572.606 1621.66 573.407 1622.26 574.085C1622.87 574.781 1623.6 575.412 1624.46 575.977L1623.16 577.711C1622.72 577.466 1622.27 577.146 1621.84 576.75C1621.4 576.372 1620.99 575.934 1620.6 575.436C1620.24 574.95 1619.9 574.422 1619.6 573.852C1619.27 573.289 1619 572.706 1618.78 572.103C1618.31 570.765 1618.05 569.477 1618.02 568.238C1617.97 567.024 1618.13 565.914 1618.52 564.907C1618.92 563.893 1619.54 562.995 1620.36 562.214C1621.2 561.451 1622.25 560.842 1623.54 560.386C1624.8 559.938 1625.99 559.737 1627.11 559.785C1628.26 559.845 1629.29 560.115 1630.2 560.597C1631.14 561.091 1631.96 561.777 1632.65 562.655C1633.36 563.527 1633.93 564.566 1634.36 565.772C1634.76 566.903 1634.97 568.028 1634.99 569.147C1635 570.267 1634.81 571.311 1634.42 572.28C1634.04 573.243 1633.46 574.105 1632.69 574.867C1631.92 575.628 1630.95 576.216 1629.78 576.632L1627.81 577.335L1623.52 565.264C1622.03 566.046 1621.1 566.981 1620.73 568.07C1620.36 569.178 1620.4 570.383 1620.86 571.683ZM1632.53 566.425C1632.33 565.878 1632.05 565.406 1631.67 565.009C1631.3 564.611 1630.82 564.314 1630.24 564.117C1629.67 563.938 1628.98 563.863 1628.19 563.891C1627.4 563.938 1626.49 564.133 1625.47 564.476L1628.28 572.391C1629.26 572.043 1630.07 571.629 1630.7 571.148C1631.34 570.668 1631.81 570.158 1632.13 569.621C1632.48 569.095 1632.67 568.551 1632.7 567.987C1632.76 567.436 1632.7 566.915 1632.53 566.425Z" fill="white"/>
<path d="M1684 758.471C1684.18 760.262 1684.12 761.907 1683.8 763.406C1683.51 764.922 1682.98 766.242 1682.21 767.364C1681.44 768.506 1680.43 769.432 1679.17 770.14C1677.93 770.847 1676.46 771.285 1674.75 771.457C1673.04 771.628 1671.5 771.49 1670.12 771.045C1668.77 770.597 1667.61 769.889 1666.63 768.922C1665.65 767.975 1664.86 766.788 1664.25 765.361C1663.67 763.952 1663.29 762.352 1663.11 760.561L1662.12 750.71L1683.02 748.62L1684 758.471ZM1681.21 753.173L1664.79 754.815L1665.35 760.337C1665.45 761.352 1665.69 762.282 1666.08 763.128C1666.48 763.992 1667.05 764.719 1667.77 765.31C1668.51 765.899 1669.42 766.331 1670.49 766.606C1671.57 766.9 1672.83 766.975 1674.29 766.83C1675.74 766.684 1676.96 766.361 1677.96 765.859C1678.95 765.378 1679.75 764.776 1680.34 764.053C1680.95 763.329 1681.36 762.504 1681.57 761.579C1681.8 760.671 1681.87 759.71 1681.76 758.695L1681.21 753.173Z" fill="white"/>
<path d="M1679.95 800.275L1679.73 796.682C1679.64 795.324 1679.21 794.31 1678.42 793.637C1677.66 792.964 1676.56 792.672 1675.12 792.762L1665.99 793.334L1665.73 789.143L1674.86 788.57C1676.9 788.443 1678.51 788.983 1679.71 790.19C1680.93 791.416 1681.61 793.237 1681.77 795.652L1682.05 800.143L1679.95 800.275Z" fill="white"/>
<path d="M1667.2 815.723L1667.03 811.526L1682.32 810.899L1682.49 815.096L1667.2 815.723ZM1686.54 815.079C1685.94 815.104 1685.4 814.916 1684.93 814.515C1684.47 814.133 1684.23 813.603 1684.2 812.924C1684.17 812.244 1684.37 811.686 1684.79 811.248C1685.24 810.829 1685.76 810.608 1686.36 810.583C1686.96 810.559 1687.48 810.737 1687.94 811.119C1688.42 811.52 1688.67 812.06 1688.7 812.739C1688.72 813.399 1688.52 813.948 1688.07 814.386C1687.65 814.824 1687.14 815.055 1686.54 815.079Z" fill="white"/>
<path d="M1669.86 833.157C1669.86 833.837 1669.97 834.455 1670.18 835.013C1670.41 835.589 1670.76 836.075 1671.22 836.469C1671.69 836.882 1672.28 837.194 1673 837.405C1673.73 837.635 1674.6 837.743 1675.62 837.729C1676.64 837.716 1677.51 837.584 1678.22 837.334C1678.94 837.104 1679.53 836.777 1679.98 836.35C1680.43 835.944 1680.76 835.45 1680.95 834.867C1681.16 834.304 1681.26 833.683 1681.25 833.003L1681.2 829.253L1669.8 829.407L1669.86 833.157ZM1667.65 825.236L1688.65 824.952L1688.7 829.152L1683.3 829.225L1683.35 832.975C1683.37 834.354 1683.21 835.607 1682.86 836.731C1682.52 837.876 1682.01 838.853 1681.34 839.662C1680.68 840.471 1679.86 841.092 1678.91 841.525C1677.96 841.978 1676.88 842.213 1675.68 842.229C1674.48 842.245 1673.4 842.04 1672.43 841.613C1671.46 841.206 1670.64 840.607 1669.95 839.816C1669.25 839.025 1668.72 838.062 1668.35 836.927C1667.97 835.812 1667.77 834.565 1667.76 833.185L1667.65 825.236Z" fill="white"/>
<path d="M1669.88 865.45C1669.86 866.13 1669.94 866.752 1670.13 867.317C1670.33 867.902 1670.66 868.401 1671.11 868.812C1671.56 869.243 1672.14 869.578 1672.86 869.816C1673.57 870.074 1674.44 870.216 1675.46 870.242C1676.48 870.267 1677.35 870.169 1678.08 869.947C1678.8 869.746 1679.4 869.441 1679.87 869.032C1680.34 868.644 1680.68 868.162 1680.9 867.588C1681.13 867.033 1681.26 866.416 1681.27 865.736L1681.37 861.988L1669.97 861.701L1669.88 865.45ZM1667.98 857.45L1688.97 857.978L1688.86 862.176L1683.47 862.04L1683.37 865.789C1683.34 867.169 1683.13 868.414 1682.74 869.525C1682.35 870.655 1681.81 871.612 1681.11 872.394C1680.41 873.177 1679.57 873.766 1678.6 874.162C1677.63 874.578 1676.54 874.77 1675.34 874.74C1674.14 874.71 1673.07 874.463 1672.12 873.999C1671.17 873.555 1670.37 872.925 1669.71 872.108C1669.05 871.291 1668.55 870.308 1668.22 869.159C1667.89 868.031 1667.74 866.777 1667.78 865.397L1667.98 857.45Z" fill="white"/>
<path d="M1668.67 897.481C1668.63 898.16 1668.69 898.785 1668.85 899.356C1669.03 899.949 1669.34 900.46 1669.77 900.888C1670.21 901.337 1670.77 901.694 1671.48 901.959C1672.18 902.245 1673.04 902.42 1674.06 902.485C1675.08 902.55 1675.95 902.485 1676.69 902.292C1677.42 902.118 1678.03 901.836 1678.52 901.447C1679 901.077 1679.36 900.609 1679.6 900.043C1679.85 899.498 1680 898.886 1680.05 898.207L1680.28 894.465L1668.91 893.739L1668.67 897.481ZM1667.08 889.413L1688.04 890.751L1687.77 894.943L1682.38 894.599L1682.14 898.341C1682.05 899.718 1681.79 900.954 1681.36 902.049C1680.93 903.164 1680.35 904.099 1679.62 904.854C1678.89 905.609 1678.03 906.165 1677.05 906.523C1676.06 906.901 1674.97 907.052 1673.77 906.976C1672.58 906.899 1671.51 906.611 1670.58 906.111C1669.65 905.63 1668.87 904.969 1668.24 904.128C1667.62 903.286 1667.16 902.285 1666.87 901.124C1666.59 899.983 1666.49 898.724 1666.57 897.347L1667.08 889.413Z" fill="white"/>
<path d="M1664.5 925.079L1664.88 920.897L1685.79 922.804L1685.41 926.986L1664.5 925.079Z" fill="white"/>
<path d="M1664.18 943.075C1664.06 944.048 1664.12 944.972 1664.36 945.846C1664.6 946.74 1664.98 947.631 1665.5 948.518L1663.57 949.498C1663.28 949.081 1663.02 948.597 1662.8 948.048C1662.58 947.519 1662.41 946.944 1662.28 946.325C1662.17 945.728 1662.1 945.106 1662.08 944.458C1662.04 943.809 1662.05 943.166 1662.13 942.531C1662.29 941.12 1662.63 939.852 1663.15 938.724C1663.64 937.615 1664.29 936.694 1665.08 935.962C1665.89 935.232 1666.84 934.7 1667.93 934.365C1669.01 934.05 1670.23 933.973 1671.58 934.132C1672.91 934.29 1674.07 934.638 1675.05 935.177C1676.05 935.738 1676.85 936.438 1677.46 937.275C1678.08 938.134 1678.51 939.111 1678.74 940.206C1679 941.303 1679.05 942.487 1678.9 943.758C1678.76 944.95 1678.45 946.051 1677.96 947.061C1677.48 948.072 1676.85 948.923 1676.06 949.616C1675.29 950.31 1674.4 950.829 1673.37 951.17C1672.34 951.512 1671.21 951.61 1669.98 951.465L1667.9 951.218L1669.4 938.497C1667.72 938.54 1666.48 938.966 1665.65 939.776C1664.83 940.605 1664.34 941.705 1664.18 943.075ZM1676.96 943.529C1677.03 942.953 1676.98 942.404 1676.82 941.882C1676.67 941.359 1676.37 940.881 1675.94 940.448C1675.5 940.034 1674.92 939.663 1674.2 939.335C1673.47 939.028 1672.57 938.801 1671.5 938.654L1670.51 946.996C1671.54 947.118 1672.45 947.104 1673.23 946.955C1674.02 946.806 1674.67 946.561 1675.19 946.22C1675.74 945.902 1676.15 945.497 1676.43 945.006C1676.72 944.538 1676.9 944.046 1676.96 943.529Z" fill="white"/>
<path d="M1637.91 1138.43C1637.28 1140.11 1636.49 1141.56 1635.54 1142.76C1634.61 1143.99 1633.55 1144.94 1632.36 1145.6C1631.16 1146.29 1629.85 1146.67 1628.41 1146.74C1626.99 1146.83 1625.47 1146.57 1623.86 1145.97C1622.25 1145.36 1620.93 1144.55 1619.9 1143.55C1618.89 1142.55 1618.15 1141.4 1617.7 1140.09C1617.24 1138.81 1617.06 1137.4 1617.15 1135.85C1617.25 1134.33 1617.62 1132.72 1618.25 1131.04L1621.74 1121.77L1641.39 1129.16L1637.91 1138.43ZM1637.76 1132.44L1622.31 1126.63L1620.36 1131.83C1620 1132.78 1619.81 1133.73 1619.78 1134.66C1619.76 1135.61 1619.95 1136.51 1620.33 1137.36C1620.74 1138.22 1621.36 1139.01 1622.2 1139.73C1623.03 1140.47 1624.13 1141.1 1625.5 1141.61C1626.86 1142.13 1628.1 1142.38 1629.22 1142.37C1630.33 1142.38 1631.3 1142.19 1632.15 1141.81C1633.02 1141.43 1633.76 1140.87 1634.35 1140.13C1634.96 1139.42 1635.45 1138.59 1635.8 1137.64L1637.76 1132.44Z" fill="white"/>
<path d="M1615.88 1173.79L1617.27 1170.47C1617.79 1169.21 1617.85 1168.11 1617.45 1167.16C1617.06 1166.22 1616.2 1165.47 1614.88 1164.91L1606.44 1161.38L1608.06 1157.5L1616.5 1161.04C1618.38 1161.83 1619.59 1163.03 1620.13 1164.64C1620.68 1166.28 1620.49 1168.22 1619.55 1170.45L1617.81 1174.6L1615.88 1173.79Z" fill="white"/>
<path d="M1597.64 1181.89L1599.34 1178.05L1613.32 1184.27L1611.62 1188.11L1597.64 1181.89ZM1615.26 1189.89C1614.71 1189.65 1614.31 1189.24 1614.06 1188.67C1613.82 1188.12 1613.84 1187.54 1614.11 1186.92C1614.39 1186.3 1614.82 1185.89 1615.39 1185.68C1615.97 1185.5 1616.54 1185.54 1617.08 1185.78C1617.63 1186.02 1618.03 1186.42 1618.27 1186.96C1618.52 1187.53 1618.5 1188.13 1618.23 1188.75C1617.96 1189.35 1617.53 1189.75 1616.94 1189.95C1616.36 1190.15 1615.8 1190.13 1615.26 1189.89Z" fill="white"/>
<path d="M1592.38 1198.48C1592.08 1199.1 1591.91 1199.7 1591.85 1200.29C1591.79 1200.91 1591.89 1201.5 1592.13 1202.06C1592.37 1202.63 1592.76 1203.18 1593.31 1203.69C1593.86 1204.21 1594.59 1204.7 1595.51 1205.14C1596.43 1205.58 1597.27 1205.85 1598.02 1205.94C1598.77 1206.05 1599.44 1206.02 1600.03 1205.84C1600.62 1205.68 1601.13 1205.38 1601.56 1204.94C1602 1204.53 1602.37 1204.02 1602.66 1203.4L1604.28 1200.02L1594 1195.1L1592.38 1198.48ZM1593.92 1190.41L1612.86 1199.47L1611.05 1203.26L1606.17 1200.93L1604.56 1204.31C1603.96 1205.55 1603.26 1206.6 1602.45 1207.46C1601.63 1208.33 1600.75 1208.98 1599.79 1209.41C1598.83 1209.84 1597.83 1210.04 1596.78 1210C1595.72 1209.98 1594.65 1209.71 1593.57 1209.2C1592.49 1208.68 1591.61 1208.01 1590.93 1207.2C1590.25 1206.41 1589.77 1205.51 1589.5 1204.49C1589.24 1203.48 1589.19 1202.38 1589.35 1201.19C1589.51 1200.03 1589.89 1198.82 1590.48 1197.58L1593.92 1190.41Z" fill="white"/>
<path d="M1578.3 1226.97C1577.98 1227.57 1577.78 1228.16 1577.7 1228.75C1577.62 1229.37 1577.69 1229.96 1577.91 1230.53C1578.12 1231.11 1578.5 1231.67 1579.03 1232.2C1579.55 1232.75 1580.27 1233.26 1581.17 1233.74C1582.07 1234.21 1582.9 1234.51 1583.65 1234.64C1584.39 1234.78 1585.06 1234.77 1585.66 1234.61C1586.25 1234.47 1586.77 1234.2 1587.22 1233.78C1587.68 1233.38 1588.06 1232.89 1588.38 1232.28L1590.13 1228.97L1580.05 1223.65L1578.3 1226.97ZM1580.15 1218.96L1598.72 1228.75L1596.76 1232.46L1591.99 1229.95L1590.24 1233.26C1589.6 1234.48 1588.85 1235.51 1588.01 1236.33C1587.16 1237.17 1586.25 1237.79 1585.28 1238.18C1584.3 1238.57 1583.29 1238.72 1582.25 1238.65C1581.19 1238.59 1580.13 1238.28 1579.07 1237.72C1578.01 1237.16 1577.16 1236.46 1576.51 1235.63C1575.86 1234.81 1575.42 1233.88 1575.19 1232.86C1574.96 1231.83 1574.96 1230.73 1575.17 1229.56C1575.37 1228.4 1575.8 1227.21 1576.44 1225.99L1580.15 1218.96Z" fill="white"/>
<path d="M1563.16 1254.81C1562.82 1255.4 1562.6 1255.99 1562.49 1256.58C1562.39 1257.19 1562.44 1257.78 1562.64 1258.36C1562.83 1258.95 1563.18 1259.52 1563.69 1260.08C1564.19 1260.64 1564.89 1261.18 1565.77 1261.69C1566.65 1262.2 1567.47 1262.53 1568.21 1262.69C1568.94 1262.86 1569.61 1262.87 1570.22 1262.74C1570.82 1262.62 1571.35 1262.37 1571.82 1261.96C1572.29 1261.59 1572.69 1261.11 1573.03 1260.52L1574.91 1257.27L1565.04 1251.57L1563.16 1254.81ZM1565.32 1246.88L1583.5 1257.39L1581.4 1261.02L1576.73 1258.32L1574.85 1261.57C1574.16 1262.76 1573.38 1263.76 1572.51 1264.55C1571.62 1265.35 1570.69 1265.93 1569.7 1266.28C1568.71 1266.64 1567.7 1266.76 1566.65 1266.64C1565.6 1266.54 1564.56 1266.19 1563.52 1265.59C1562.48 1264.99 1561.65 1264.26 1561.04 1263.4C1560.42 1262.55 1560.02 1261.61 1559.83 1260.58C1559.64 1259.55 1559.68 1258.45 1559.93 1257.28C1560.18 1256.13 1560.65 1254.96 1561.34 1253.76L1565.32 1246.88Z" fill="white"/>
<path d="M1547.24 1277.57L1549.44 1273.99L1567.33 1284.99L1565.13 1288.56L1547.24 1277.57Z" fill="white"/>
<path d="M1538.99 1293.5C1538.46 1294.32 1538.1 1295.18 1537.93 1296.07C1537.75 1296.97 1537.69 1297.94 1537.76 1298.97L1535.6 1298.99C1535.52 1298.48 1535.51 1297.94 1535.56 1297.35C1535.59 1296.78 1535.69 1296.18 1535.85 1295.57C1536.02 1294.99 1536.24 1294.4 1536.5 1293.81C1536.75 1293.21 1537.05 1292.64 1537.4 1292.1C1538.18 1290.91 1539.04 1289.93 1540.01 1289.15C1540.94 1288.37 1541.93 1287.83 1542.96 1287.53C1544.01 1287.24 1545.1 1287.18 1546.22 1287.36C1547.33 1287.56 1548.46 1288.03 1549.6 1288.78C1550.72 1289.51 1551.6 1290.33 1552.24 1291.25C1552.89 1292.2 1553.3 1293.19 1553.47 1294.2C1553.65 1295.25 1553.6 1296.32 1553.32 1297.4C1553.06 1298.5 1552.58 1299.58 1551.88 1300.65C1551.23 1301.66 1550.46 1302.51 1549.58 1303.2C1548.7 1303.89 1547.75 1304.37 1546.74 1304.64C1545.74 1304.92 1544.71 1304.99 1543.64 1304.84C1542.56 1304.69 1541.51 1304.27 1540.47 1303.6L1538.71 1302.45L1545.71 1291.72C1544.19 1291.01 1542.88 1290.84 1541.78 1291.2C1540.68 1291.58 1539.75 1292.35 1538.99 1293.5ZM1550.25 1299.59C1550.56 1299.1 1550.77 1298.59 1550.86 1298.05C1550.95 1297.51 1550.89 1296.95 1550.7 1296.37C1550.49 1295.81 1550.14 1295.22 1549.63 1294.6C1549.12 1294 1548.41 1293.4 1547.52 1292.79L1542.93 1299.83C1543.8 1300.4 1544.62 1300.79 1545.39 1301C1546.15 1301.22 1546.85 1301.29 1547.47 1301.21C1548.09 1301.17 1548.64 1300.99 1549.11 1300.67C1549.58 1300.38 1549.96 1300.02 1550.25 1299.59Z" fill="white"/>
<path d="M1428.71 1457.22C1427.39 1458.45 1426.05 1459.4 1424.67 1460.06C1423.29 1460.75 1421.92 1461.13 1420.56 1461.2C1419.18 1461.29 1417.83 1461.04 1416.5 1460.48C1415.19 1459.93 1413.95 1459.02 1412.77 1457.77C1411.59 1456.51 1410.77 1455.21 1410.29 1453.85C1409.82 1452.5 1409.67 1451.15 1409.84 1449.78C1410 1448.43 1410.46 1447.07 1411.23 1445.73C1411.99 1444.41 1413.03 1443.13 1414.34 1441.9L1421.57 1435.13L1435.93 1450.45L1428.71 1457.22ZM1431.22 1451.78L1419.93 1439.75L1415.88 1443.54C1415.14 1444.24 1414.55 1445 1414.11 1445.82C1413.67 1446.67 1413.44 1447.56 1413.41 1448.49C1413.39 1449.44 1413.6 1450.42 1414.04 1451.44C1414.46 1452.47 1415.16 1453.52 1416.16 1454.59C1417.16 1455.65 1418.16 1456.43 1419.17 1456.91C1420.15 1457.41 1421.11 1457.68 1422.05 1457.71C1422.99 1457.75 1423.9 1457.58 1424.76 1457.18C1425.62 1456.81 1426.42 1456.28 1427.17 1455.58L1431.22 1451.78Z" fill="white"/>
<path d="M1393.15 1479.33L1395.86 1476.97C1396.89 1476.08 1397.43 1475.11 1397.49 1474.08C1397.56 1473.07 1397.12 1472.02 1396.18 1470.93L1390.17 1464.03L1393.34 1461.27L1399.34 1468.17C1400.68 1469.71 1401.24 1471.32 1401.01 1473.01C1400.78 1474.72 1399.75 1476.37 1397.92 1477.96L1394.53 1480.92L1393.15 1479.33Z" fill="white"/>
<path d="M1373.26 1478.49L1376.49 1475.81L1386.28 1487.56L1383.06 1490.25L1373.26 1478.49ZM1385.53 1493.46C1385.15 1493 1384.97 1492.45 1385 1491.83C1385.03 1491.24 1385.3 1490.72 1385.82 1490.29C1386.35 1489.85 1386.91 1489.67 1387.51 1489.74C1388.11 1489.84 1388.61 1490.11 1388.99 1490.58C1389.38 1491.04 1389.56 1491.56 1389.53 1492.16C1389.5 1492.78 1389.23 1493.31 1388.7 1493.74C1388.2 1494.17 1387.63 1494.34 1387.02 1494.25C1386.41 1494.18 1385.92 1493.92 1385.53 1493.46Z" fill="white"/>
<path d="M1361.29 1491C1360.76 1491.42 1360.33 1491.88 1360.02 1492.38C1359.7 1492.92 1359.52 1493.49 1359.49 1494.1C1359.45 1494.72 1359.56 1495.38 1359.84 1496.08C1360.09 1496.79 1360.54 1497.55 1361.17 1498.35C1361.8 1499.15 1362.43 1499.76 1363.07 1500.18C1363.68 1500.61 1364.3 1500.88 1364.92 1500.98C1365.51 1501.09 1366.1 1501.05 1366.68 1500.84C1367.26 1500.67 1367.81 1500.37 1368.35 1499.95L1371.29 1497.63L1364.24 1488.68L1361.29 1491ZM1366.24 1484.43L1379.23 1500.92L1375.94 1503.52L1372.59 1499.28L1369.65 1501.6C1368.56 1502.46 1367.47 1503.09 1366.37 1503.5C1365.25 1503.92 1364.17 1504.11 1363.12 1504.07C1362.07 1504.04 1361.08 1503.77 1360.16 1503.27C1359.22 1502.79 1358.38 1502.08 1357.63 1501.14C1356.89 1500.2 1356.4 1499.21 1356.15 1498.18C1355.88 1497.17 1355.85 1496.15 1356.06 1495.12C1356.27 1494.09 1356.71 1493.08 1357.38 1492.09C1358.04 1491.12 1358.91 1490.2 1359.99 1489.35L1366.24 1484.43Z" fill="white"/>
<path d="M1336.12 1510.32C1335.57 1510.72 1335.13 1511.17 1334.79 1511.66C1334.45 1512.18 1334.25 1512.74 1334.2 1513.35C1334.13 1513.97 1334.22 1514.63 1334.47 1515.34C1334.7 1516.07 1335.11 1516.84 1335.71 1517.67C1336.31 1518.49 1336.92 1519.12 1337.54 1519.57C1338.14 1520.02 1338.74 1520.31 1339.35 1520.43C1339.95 1520.57 1340.54 1520.55 1341.13 1520.37C1341.71 1520.22 1342.27 1519.94 1342.82 1519.54L1345.86 1517.34L1339.15 1508.12L1336.12 1510.32ZM1341.31 1503.95L1353.66 1520.93L1350.27 1523.4L1347.09 1519.03L1344.06 1521.24C1342.94 1522.05 1341.83 1522.64 1340.71 1523.01C1339.57 1523.39 1338.48 1523.54 1337.44 1523.46C1336.39 1523.38 1335.41 1523.07 1334.51 1522.55C1333.59 1522.03 1332.78 1521.28 1332.07 1520.31C1331.37 1519.34 1330.91 1518.34 1330.7 1517.3C1330.47 1516.28 1330.49 1515.26 1330.73 1514.24C1330.98 1513.22 1331.46 1512.23 1332.17 1511.27C1332.86 1510.32 1333.77 1509.44 1334.88 1508.62L1341.31 1503.95Z" fill="white"/>
<path d="M1310.21 1528.67C1309.64 1529.05 1309.18 1529.48 1308.83 1529.95C1308.47 1530.46 1308.25 1531.02 1308.17 1531.62C1308.08 1532.24 1308.14 1532.9 1308.36 1533.62C1308.56 1534.36 1308.95 1535.15 1309.52 1535.99C1310.08 1536.84 1310.67 1537.5 1311.27 1537.96C1311.85 1538.44 1312.44 1538.75 1313.05 1538.9C1313.64 1539.06 1314.23 1539.06 1314.82 1538.9C1315.41 1538.77 1315.99 1538.52 1316.55 1538.14L1319.67 1536.06L1313.32 1526.58L1310.21 1528.67ZM1315.64 1522.5L1327.33 1539.95L1323.84 1542.29L1320.83 1537.8L1317.72 1539.89C1316.57 1540.65 1315.43 1541.2 1314.3 1541.52C1313.16 1541.86 1312.06 1541.97 1311.02 1541.85C1309.97 1541.73 1309.01 1541.39 1308.13 1540.82C1307.23 1540.27 1306.44 1539.49 1305.78 1538.5C1305.11 1537.5 1304.69 1536.48 1304.52 1535.44C1304.34 1534.41 1304.39 1533.39 1304.67 1532.38C1304.96 1531.37 1305.48 1530.39 1306.22 1529.46C1306.95 1528.54 1307.89 1527.69 1309.04 1526.93L1315.64 1522.5Z" fill="white"/>
<path d="M1285.92 1542.05L1289.47 1539.81L1300.68 1557.56L1297.13 1559.81L1285.92 1542.05Z" fill="white"/>
<path d="M1271.48 1552.72C1270.63 1553.22 1269.94 1553.83 1269.39 1554.55C1268.83 1555.28 1268.35 1556.13 1267.96 1557.08L1266.01 1556.14C1266.16 1555.66 1266.39 1555.16 1266.69 1554.65C1266.98 1554.16 1267.33 1553.67 1267.75 1553.19C1268.15 1552.74 1268.6 1552.31 1269.1 1551.9C1269.59 1551.47 1270.11 1551.09 1270.66 1550.76C1271.88 1550.04 1273.1 1549.53 1274.31 1549.26C1275.49 1548.98 1276.61 1548.93 1277.67 1549.11C1278.74 1549.31 1279.74 1549.74 1280.67 1550.4C1281.58 1551.07 1282.38 1551.99 1283.08 1553.15C1283.76 1554.31 1284.19 1555.44 1284.36 1556.55C1284.52 1557.68 1284.46 1558.74 1284.16 1559.73C1283.86 1560.75 1283.34 1561.69 1282.62 1562.54C1281.9 1563.41 1280.99 1564.17 1279.89 1564.82C1278.86 1565.43 1277.8 1565.86 1276.7 1566.09C1275.6 1566.32 1274.54 1566.33 1273.52 1566.13C1272.5 1565.94 1271.54 1565.55 1270.64 1564.94C1269.75 1564.33 1268.98 1563.5 1268.35 1562.43L1267.28 1560.63L1278.29 1554.08C1277.23 1552.78 1276.14 1552.04 1274.99 1551.89C1273.84 1551.74 1272.66 1552.01 1271.48 1552.72ZM1278.89 1563.14C1279.39 1562.85 1279.8 1562.48 1280.12 1562.03C1280.44 1561.59 1280.63 1561.06 1280.72 1560.46C1280.78 1559.86 1280.72 1559.17 1280.54 1558.4C1280.34 1557.63 1279.97 1556.78 1279.44 1555.84L1272.22 1560.13C1272.75 1561.03 1273.31 1561.74 1273.91 1562.27C1274.5 1562.8 1275.09 1563.17 1275.68 1563.38C1276.26 1563.61 1276.84 1563.69 1277.39 1563.62C1277.95 1563.57 1278.45 1563.41 1278.89 1563.14Z" fill="white"/>
</svg>
