<svg width="30" height="30" viewBox="0 0 16 16" fill="none" xmlns="http://www.w3.org/2000/svg">
<path fill-rule="evenodd" clip-rule="evenodd" d="M3.99996 7.99999C3.99996 8.1326 4.05264 8.25978 4.14641 8.35354C4.24018 8.44731 4.36735 8.49999 4.49996 8.49999H10.293L8.14596 10.646C8.09947 10.6925 8.0626 10.7477 8.03744 10.8084C8.01228 10.8691 7.99933 10.9342 7.99933 11C7.99933 11.0657 8.01228 11.1308 8.03744 11.1916C8.0626 11.2523 8.09947 11.3075 8.14596 11.354C8.19245 11.4005 8.24764 11.4374 8.30838 11.4625C8.36912 11.4877 8.43422 11.5006 8.49996 11.5006C8.5657 11.5006 8.6308 11.4877 8.69154 11.4625C8.75228 11.4374 8.80747 11.4005 8.85396 11.354L11.854 8.35399C11.9005 8.30755 11.9375 8.25237 11.9627 8.19162C11.9879 8.13088 12.0009 8.06576 12.0009 7.99999C12.0009 7.93422 11.9879 7.8691 11.9627 7.80836C11.9375 7.74761 11.9005 7.69244 11.854 7.64599L8.85396 4.64599C8.76007 4.5521 8.63274 4.49936 8.49996 4.49936C8.36718 4.49936 8.23985 4.5521 8.14596 4.64599C8.05207 4.73988 7.99933 4.86722 7.99933 4.99999C7.99933 5.13277 8.05207 5.2601 8.14596 5.35399L10.293 7.49999H4.49996C4.36735 7.49999 4.24018 7.55267 4.14641 7.64644C4.05264 7.74021 3.99996 7.86738 3.99996 7.99999Z" fill="black"/>
</svg>
