<svg width="30" height="30" viewBox="0 0 17 17" fill="none" xmlns="http://www.w3.org/2000/svg">
<g clip-path="url(#clip0_17_795)">
<path d="M16.5 8.54899C16.5 4.10299 12.918 0.498993 8.49999 0.498993C4.07999 0.499993 0.497986 4.10299 0.497986 8.54999C0.497986 12.567 3.42399 15.897 7.24799 16.501V10.876H5.21799V8.54999H7.24999V6.77499C7.24999 4.75799 8.44499 3.64399 10.272 3.64399C11.148 3.64399 12.063 3.80099 12.063 3.80099V5.78099H11.054C10.061 5.78099 9.75099 6.40199 9.75099 7.03899V8.54899H11.969L11.615 10.875H9.74999V16.5C13.574 15.896 16.5 12.566 16.5 8.54899Z" fill="white"/>
</g>
<defs>
<clipPath id="clip0_17_795">
<rect width="29" height="16" fill="white" transform="translate(0.5 0.5)"/>
</clipPath>
</defs>
</svg>
