<svg width="1770" height="350" viewBox="0 0 1770 350" fill="none" xmlns="http://www.w3.org/2000/svg">
<mask id="mask0_54_40" style="mask-type:alpha" maskUnits="userSpaceOnUse" x="0" y="0" width="1770" height="350">
<rect width="1770" height="350" fill="#393939"/>
</mask>
<g mask="url(#mask0_54_40)">
<path d="M364.862 207.85H448.562L408.062 107.95H405.362L364.862 207.85ZM437.762 85L514.712 274H475.832L458.012 228.1H355.412L337.592 274H298.712L375.662 85H437.762ZM574.196 274H536.396V85H574.196V274ZM651.22 274H613.42V136.3H651.22V274ZM652.57 99.85C652.57 105.25 650.68 110.02 646.9 114.16C643.3 118.12 638.44 120.1 632.32 120.1C626.2 120.1 621.25 118.12 617.47 114.16C613.87 110.02 612.07 105.25 612.07 99.85C612.07 94.45 613.87 89.77 617.47 85.81C621.25 81.67 626.2 79.6 632.32 79.6C638.26 79.6 643.12 81.67 646.9 85.81C650.68 89.77 652.57 94.45 652.57 99.85ZM765.981 152.5C753.021 152.5 742.761 156.55 735.201 164.65C727.821 172.57 724.131 184.72 724.131 201.1C724.131 217.48 727.821 229.72 735.201 237.82C742.761 245.74 753.021 249.7 765.981 249.7H799.731V152.5H765.981ZM837.531 271.3C837.531 279.76 835.911 287.41 832.671 294.25C829.431 301.27 824.571 307.3 818.091 312.34C811.791 317.38 803.781 321.25 794.061 323.95C784.521 326.65 773.361 328 760.581 328C756.261 328 751.581 327.64 746.541 326.92C741.681 326.38 736.731 325.39 731.691 323.95C726.651 322.69 721.701 320.98 716.841 318.82C712.161 316.84 707.841 314.5 703.881 311.8L713.331 295.6C719.451 299.74 726.381 302.98 734.121 305.32C741.861 307.84 749.781 309.1 757.881 309.1C771.381 309.1 781.731 306.04 788.931 299.92C796.131 293.8 799.731 284.26 799.731 271.3V268.6H765.981C753.561 268.6 742.221 266.98 731.961 263.74C721.881 260.5 713.241 255.91 706.041 249.97C698.841 244.03 693.261 236.92 689.301 228.64C685.521 220.36 683.631 211.18 683.631 201.1C683.631 191.02 685.521 181.84 689.301 173.56C693.261 165.28 698.841 158.17 706.041 152.23C713.241 146.29 721.881 141.7 731.961 138.46C742.221 135.22 753.561 133.6 765.981 133.6H837.531V271.3ZM1023.71 274H985.915V188.95C985.915 175.99 982.675 166.72 976.195 161.14C969.715 155.38 960.355 152.5 948.115 152.5H913.015V274H875.215V133.6H948.115C973.855 133.6 992.845 138.28 1005.08 147.64C1017.5 156.82 1023.71 170.59 1023.71 188.95V274ZM1066.93 152.5H1041.28V133.6H1066.93V90.4H1104.73V133.6H1146.58V152.5H1104.73V222.7C1104.73 229.54 1105.45 235.39 1106.89 240.25C1108.51 244.93 1110.58 248.8 1113.1 251.86C1115.8 254.74 1118.86 256.9 1122.28 258.34C1125.7 259.78 1129.3 260.5 1133.08 260.5C1138.48 260.5 1143.7 259.69 1148.74 258.07C1153.78 256.27 1158.01 254.38 1161.43 252.4L1169.53 269.95C1164.13 272.65 1157.92 274.9 1150.9 276.7C1144.06 278.5 1137.22 279.4 1130.38 279.4C1110.04 279.4 1094.38 274.36 1083.4 264.28C1072.42 254.2 1066.93 240.34 1066.93 222.7V152.5ZM1263.92 260.5C1272.74 260.5 1280.93 258.97 1288.49 255.91C1296.23 252.85 1303.79 248.53 1311.17 242.95L1321.97 259.15C1318.55 262.21 1314.5 265 1309.82 267.52C1305.32 270.04 1300.37 272.2 1294.97 274C1289.75 275.62 1284.26 276.88 1278.5 277.78C1272.74 278.86 1266.98 279.4 1261.22 279.4C1248.44 279.4 1236.74 277.69 1226.12 274.27C1215.68 271.03 1206.77 266.26 1199.39 259.96C1192.01 253.48 1186.25 245.56 1182.11 236.2C1178.15 226.84 1176.17 216.04 1176.17 203.8C1176.17 191.74 1178.06 181.03 1181.84 171.67C1185.8 162.13 1191.2 154.21 1198.04 147.91C1205.06 141.43 1213.34 136.57 1222.88 133.33C1232.42 129.91 1242.95 128.2 1254.47 128.2C1265.27 128.2 1275.44 129.82 1284.98 133.06C1294.52 136.3 1302.8 141.07 1309.82 147.37C1316.84 153.49 1322.42 160.96 1326.56 169.78C1330.7 178.6 1332.77 188.59 1332.77 199.75V218.65H1217.48C1219.64 233.59 1224.77 244.3 1232.87 250.78C1241.15 257.26 1251.5 260.5 1263.92 260.5ZM1254.47 145.75C1249.25 145.75 1244.39 146.74 1239.89 148.72C1235.39 150.7 1231.43 153.85 1228.01 158.17C1224.77 162.49 1222.07 168.07 1219.91 174.91C1217.93 181.75 1216.85 190.03 1216.67 199.75H1292.27C1292.27 190.39 1291.19 182.29 1289.03 175.45C1286.87 168.61 1283.99 163.03 1280.39 158.71C1276.97 154.21 1272.92 150.97 1268.24 148.99C1263.74 146.83 1259.15 145.75 1254.47 145.75ZM1479.9 172.75V139H1412.4V105.25H1479.9V139H1513.65V172.75H1479.9ZM1412.4 274V240.25H1378.65V139H1412.4V240.25H1479.9V274H1412.4ZM1479.9 240.25V206.5H1513.65V240.25H1479.9ZM1581.15 274V105.25H1614.9V172.75H1682.4V105.25H1716.15V274H1682.4V206.5H1614.9V274H1581.15Z" fill="white"/>
<path fill-rule="evenodd" clip-rule="evenodd" d="M149.625 52.3493C146.65 46.5502 138.362 46.5502 135.388 52.3493L116.859 88.4778L83.3927 157.9C82.0259 160.735 82.4486 164.108 84.4726 166.519L106.452 192.693C110.175 197.126 117.228 196.26 119.768 191.059L139.202 151.257C141.982 145.905 149.638 145.905 152.418 151.257L173.23 193.88C175.825 199.194 171.955 205.39 166.041 205.39H117.185C117.157 205.39 117.142 205.423 117.16 205.444C117.178 205.466 117.163 205.499 117.135 205.499H65.4711C62.3993 205.499 59.5987 207.258 58.2648 210.025L19.8036 289.807C17.2429 295.119 21.1132 301.281 27.0099 301.281H108.494C110.918 301.281 113.212 300.182 114.73 298.292L142.506 263.722L149.248 255.834C152.441 252.098 158.217 252.098 161.411 255.834L168.153 263.722L195.929 298.292C197.447 300.182 199.741 301.281 202.165 301.281H258.002C263.899 301.281 267.769 295.119 265.209 289.807L168.153 88.4778L149.625 52.3493Z" fill="white"/>
</g>
</svg>
