<svg width="30" height="30" viewBox="0 0 17 17" fill="none" xmlns="http://www.w3.org/2000/svg">
<g clip-path="url(#clip0_17_798)">
<path d="M8.5 0.5C6.329 0.5 6.056 0.51 5.203 0.548C4.35 0.588 3.769 0.722 3.26 0.92C2.72584 1.12033 2.24214 1.4354 1.843 1.843C1.4354 2.24214 1.12033 2.72584 0.92 3.26C0.722 3.768 0.587 4.35 0.548 5.2C0.51 6.055 0.5 6.327 0.5 8.501C0.5 10.673 0.51 10.945 0.548 11.798C0.588 12.65 0.722 13.231 0.92 13.74C1.125 14.266 1.398 14.712 1.843 15.157C2.287 15.602 2.733 15.876 3.259 16.08C3.769 16.278 4.349 16.413 5.201 16.452C6.055 16.49 6.327 16.5 8.5 16.5C10.673 16.5 10.944 16.49 11.798 16.452C12.649 16.412 13.232 16.278 13.741 16.08C14.2748 15.8795 14.7581 15.5645 15.157 15.157C15.602 14.712 15.875 14.266 16.08 13.74C16.277 13.231 16.412 12.65 16.452 11.798C16.49 10.945 16.5 10.673 16.5 8.5C16.5 6.327 16.49 6.055 16.452 5.201C16.412 4.35 16.277 3.768 16.08 3.26C15.8797 2.72584 15.5646 2.24214 15.157 1.843C14.7579 1.4354 14.2742 1.12033 13.74 0.92C13.23 0.722 12.648 0.587 11.797 0.548C10.943 0.51 10.672 0.5 8.498 0.5H8.5ZM7.783 1.942H8.501C10.637 1.942 10.89 1.949 11.733 1.988C12.513 2.023 12.937 2.154 13.219 2.263C13.592 2.408 13.859 2.582 14.139 2.862C14.419 3.142 14.592 3.408 14.737 3.782C14.847 4.063 14.977 4.487 15.012 5.267C15.051 6.11 15.059 6.363 15.059 8.498C15.059 10.633 15.051 10.887 15.012 11.73C14.977 12.51 14.846 12.933 14.737 13.215C14.6078 13.5619 14.4032 13.8758 14.138 14.134C13.858 14.414 13.592 14.587 13.218 14.732C12.938 14.842 12.514 14.972 11.733 15.008C10.89 15.046 10.637 15.055 8.501 15.055C6.365 15.055 6.111 15.046 5.268 15.008C4.488 14.972 4.065 14.842 3.783 14.732C3.43583 14.6033 3.1216 14.399 2.863 14.134C2.59727 13.8756 2.39233 13.5614 2.263 13.214C2.154 12.933 2.023 12.509 1.988 11.729C1.95 10.886 1.942 10.633 1.942 8.496C1.942 6.359 1.95 6.108 1.988 5.265C2.024 4.485 2.154 4.061 2.264 3.779C2.409 3.406 2.583 3.139 2.863 2.859C3.143 2.579 3.409 2.406 3.783 2.261C4.065 2.151 4.488 2.021 5.268 1.985C6.006 1.951 6.292 1.941 7.783 1.94V1.942ZM12.771 3.27C12.6449 3.27 12.5201 3.29483 12.4036 3.34308C12.2872 3.39132 12.1813 3.46203 12.0922 3.55118C12.003 3.64032 11.9323 3.74615 11.8841 3.86262C11.8358 3.9791 11.811 4.10393 11.811 4.23C11.811 4.35607 11.8358 4.4809 11.8841 4.59738C11.9323 4.71385 12.003 4.81968 12.0922 4.90882C12.1813 4.99797 12.2872 5.06868 12.4036 5.11692C12.5201 5.16517 12.6449 5.19 12.771 5.19C13.0256 5.19 13.2698 5.08886 13.4498 4.90882C13.6299 4.72879 13.731 4.48461 13.731 4.23C13.731 3.97539 13.6299 3.73121 13.4498 3.55118C13.2698 3.37114 13.0256 3.27 12.771 3.27ZM8.501 4.392C7.95607 4.3835 7.41489 4.48349 6.90898 4.68614C6.40306 4.8888 5.94251 5.19007 5.55415 5.57242C5.16579 5.95478 4.85736 6.41057 4.64684 6.91326C4.43632 7.41595 4.3279 7.9555 4.3279 8.5005C4.3279 9.0455 4.43632 9.58505 4.64684 10.0877C4.85736 10.5904 5.16579 11.0462 5.55415 11.4286C5.94251 11.8109 6.40306 12.1122 6.90898 12.3149C7.41489 12.5175 7.95607 12.6175 8.501 12.609C9.57954 12.5922 10.6082 12.1519 11.365 11.3833C12.1217 10.6146 12.5459 9.57917 12.5459 8.5005C12.5459 7.42183 12.1217 6.38641 11.365 5.61775C10.6082 4.84909 9.57954 4.40883 8.501 4.392ZM8.501 5.833C8.85124 5.833 9.19804 5.90198 9.52162 6.03601C9.84519 6.17004 10.1392 6.36649 10.3869 6.61415C10.6345 6.8618 10.831 7.15581 10.965 7.47938C11.099 7.80296 11.168 8.14976 11.168 8.5C11.168 8.85023 11.099 9.19704 10.965 9.52062C10.831 9.84419 10.6345 10.1382 10.3869 10.3859C10.1392 10.6335 9.84519 10.83 9.52162 10.964C9.19804 11.098 8.85124 11.167 8.501 11.167C7.79367 11.167 7.11531 10.886 6.61515 10.3859C6.11499 9.88569 5.834 9.20733 5.834 8.5C5.834 7.79267 6.11499 7.11431 6.61515 6.61415C7.11531 6.11399 7.79367 5.833 8.501 5.833Z" fill="white"/>
</g>
<defs>
<clipPath id="clip0_17_798">
<rect width="29" height="16" fill="white" transform="translate(0.5 0.5)"/>
</clipPath>
</defs>
</svg>
