<svg width="279" height="51" viewBox="0 0 279 51" fill="none" xmlns="http://www.w3.org/2000/svg">
<path d="M72.8767 30.2H85.2767L79.2767 15.4H78.8767L72.8767 30.2ZM83.6767 12L95.0767 40H89.3167L86.6767 33.2H71.4767L68.8367 40H63.0767L74.4767 12H83.6767ZM103.889 40H98.2892V12H103.889V40ZM115.3 40H109.7V19.6H115.3V40ZM115.5 14.2C115.5 15 115.22 15.7067 114.66 16.32C114.127 16.9067 113.407 17.2 112.5 17.2C111.593 17.2 110.86 16.9067 110.3 16.32C109.767 15.7067 109.5 15 109.5 14.2C109.5 13.4 109.767 12.7067 110.3 12.12C110.86 11.5067 111.593 11.2 112.5 11.2C113.38 11.2 114.1 11.5067 114.66 12.12C115.22 12.7067 115.5 13.4 115.5 14.2ZM132.302 22C130.382 22 128.862 22.6 127.742 23.8C126.648 24.9733 126.102 26.7733 126.102 29.2C126.102 31.6267 126.648 33.44 127.742 34.64C128.862 35.8133 130.382 36.4 132.302 36.4H137.302V22H132.302ZM142.902 39.6C142.902 40.8533 142.662 41.9867 142.182 43C141.702 44.04 140.982 44.9333 140.022 45.68C139.088 46.4267 137.902 47 136.462 47.4C135.048 47.8 133.395 48 131.502 48C130.862 48 130.168 47.9467 129.422 47.84C128.702 47.76 127.968 47.6133 127.222 47.4C126.475 47.2133 125.742 46.96 125.022 46.64C124.328 46.3467 123.688 46 123.102 45.6L124.502 43.2C125.408 43.8133 126.435 44.2933 127.582 44.64C128.728 45.0133 129.902 45.2 131.102 45.2C133.102 45.2 134.635 44.7467 135.702 43.84C136.768 42.9333 137.302 41.52 137.302 39.6V39.2H132.302C130.462 39.2 128.782 38.96 127.262 38.48C125.768 38 124.488 37.32 123.422 36.44C122.355 35.56 121.528 34.5067 120.942 33.28C120.382 32.0533 120.102 30.6933 120.102 29.2C120.102 27.7067 120.382 26.3467 120.942 25.12C121.528 23.8933 122.355 22.84 123.422 21.96C124.488 21.08 125.768 20.4 127.262 19.92C128.782 19.44 130.462 19.2 132.302 19.2H142.902V39.6ZM170.485 40H164.885V27.4C164.885 25.48 164.405 24.1067 163.445 23.28C162.485 22.4267 161.098 22 159.285 22H154.085V40H148.485V19.2H159.285C163.098 19.2 165.911 19.8933 167.725 21.28C169.565 22.64 170.485 24.68 170.485 27.4V40ZM176.886 22H173.086V19.2H176.886V12.8H182.486V19.2H188.686V22H182.486V32.4C182.486 33.4133 182.593 34.28 182.806 35C183.046 35.6933 183.353 36.2667 183.726 36.72C184.126 37.1467 184.579 37.4667 185.086 37.68C185.593 37.8933 186.126 38 186.686 38C187.486 38 188.259 37.88 189.006 37.64C189.753 37.3733 190.379 37.0933 190.886 36.8L192.086 39.4C191.286 39.8 190.366 40.1333 189.326 40.4C188.313 40.6667 187.299 40.8 186.286 40.8C183.273 40.8 180.953 40.0533 179.326 38.56C177.699 37.0667 176.886 35.0133 176.886 32.4V22ZM206.07 38C207.377 38 208.59 37.7733 209.71 37.32C210.857 36.8667 211.977 36.2267 213.07 35.4L214.67 37.8C214.164 38.2533 213.564 38.6667 212.87 39.04C212.204 39.4133 211.47 39.7333 210.67 40C209.897 40.24 209.084 40.4267 208.23 40.56C207.377 40.72 206.524 40.8 205.67 40.8C203.777 40.8 202.044 40.5467 200.47 40.04C198.924 39.56 197.604 38.8533 196.51 37.92C195.417 36.96 194.564 35.7867 193.95 34.4C193.364 33.0133 193.07 31.4133 193.07 29.6C193.07 27.8133 193.35 26.2267 193.91 24.84C194.497 23.4267 195.297 22.2533 196.31 21.32C197.35 20.36 198.577 19.64 199.99 19.16C201.404 18.6533 202.964 18.4 204.67 18.4C206.27 18.4 207.777 18.64 209.19 19.12C210.604 19.6 211.83 20.3067 212.87 21.24C213.91 22.1467 214.737 23.2533 215.35 24.56C215.964 25.8667 216.27 27.3467 216.27 29V31.8H199.19C199.51 34.0133 200.27 35.6 201.47 36.56C202.697 37.52 204.23 38 206.07 38ZM204.67 21C203.897 21 203.177 21.1467 202.51 21.44C201.844 21.7333 201.257 22.2 200.75 22.84C200.27 23.48 199.87 24.3067 199.55 25.32C199.257 26.3333 199.097 27.56 199.07 29H210.27C210.27 27.6133 210.11 26.4133 209.79 25.4C209.47 24.3867 209.044 23.56 208.51 22.92C208.004 22.2533 207.404 21.7733 206.71 21.48C206.044 21.16 205.364 21 204.67 21ZM238.067 25V20H228.067V15H238.067V20H243.067V25H238.067ZM228.067 40V35H223.067V20H228.067V35H238.067V40H228.067ZM238.067 35V30H243.067V35H238.067ZM253.067 40V15H258.067V25H268.067V15H273.067V40H268.067V30H258.067V40H253.067Z" fill="white"/>
<path fill-rule="evenodd" clip-rule="evenodd" d="M29.5263 3.47144C27.1526 -1.15715 20.5368 -1.15715 18.163 3.47144L11.7218 16.8329C10.827 18.6891 11.1037 20.8976 12.4289 22.4757C14.8662 25.3781 19.4838 24.8113 21.1467 21.4056L23.1127 17.3791C23.7286 16.1935 25.4247 16.1935 26.0405 17.3791L29.3318 24.1197C30.5158 26.5446 28.7502 29.3716 26.0517 29.3716H18.2353C18.2291 29.3716 18.2257 29.3788 18.2297 29.3836C18.2337 29.3883 18.2304 29.3956 18.2241 29.3956H8.51292C6.77219 29.3956 5.18519 30.3923 4.42928 31.9604L0.967768 39.1408C-1.59285 44.4525 2.27743 50.6148 8.1741 50.6148H13.3246C15.749 50.6148 18.0426 49.5154 19.5611 47.6255L23.8447 42.294C25.3365 40.5487 28.0345 40.5487 29.5263 42.294L33.8869 47.7213C35.3567 49.5507 37.5768 50.6148 39.9235 50.6148C45.6312 50.6148 49.3774 44.65 46.8989 39.5085L29.5263 3.47144Z" fill="white"/>
</svg>
