<svg width="17" height="19" viewBox="0 0 17 19" fill="none" xmlns="http://www.w3.org/2000/svg">
<path fill-rule="evenodd" clip-rule="evenodd" d="M10.3729 2.08319C9.5289 0.48985 7.2463 0.48985 6.40231 2.08319V2.08319L4.17844 6.54955C3.85102 7.20713 3.95129 7.99711 4.4326 8.55204V8.55204C5.28018 9.52926 6.84821 9.33432 7.4307 8.17931L8.13224 6.78825V6.78825C8.35118 6.38018 8.93634 6.38018 9.15528 6.78825V6.78825L10.2851 9.02849C10.7053 9.86168 10.0997 10.8453 9.16654 10.8453H6.42694C6.42488 10.8453 6.42377 10.8478 6.42512 10.8493V10.8493C6.42648 10.8509 6.42537 10.8533 6.4233 10.8533H3.00344C2.41041 10.8533 1.86844 11.1889 1.60411 11.7198L1.04493 12.8428C-0.143188 15.229 1.59237 18.032 4.25799 18.032H4.34182C5.42508 18.032 6.45209 17.5496 7.14387 16.716L8.38799 15.2168V15.2168C8.91509 14.6198 9.84618 14.6198 10.3733 15.2168V15.2168L11.9031 17.0603C12.4139 17.6758 13.1722 18.032 13.972 18.032V18.032C15.9687 18.032 17.2686 15.9325 16.3787 14.1451L10.3729 2.08319V2.08319Z" fill="white"/>
</svg>
