<svg width="30" height="30" viewBox="0 0 17 17" fill="none" xmlns="http://www.w3.org/2000/svg">
<g clip-path="url(#clip0_17_804)">
<path d="M8.551 2.49899H8.64C9.462 2.50199 13.627 2.53199 14.75 2.83399C15.0895 2.92616 15.3989 3.10582 15.6472 3.355C15.8955 3.60419 16.074 3.91418 16.165 4.25399C16.266 4.63399 16.337 5.13699 16.385 5.65599L16.395 5.75999L16.417 6.01999L16.425 6.12399C16.49 7.03799 16.498 7.89399 16.499 8.08099V8.15599C16.498 8.34999 16.489 9.26399 16.417 10.216L16.409 10.321L16.4 10.425C16.35 10.997 16.276 11.565 16.165 11.983C16.074 12.3228 15.8955 12.6328 15.6472 12.882C15.3989 13.1312 15.0895 13.3108 14.75 13.403C13.59 13.715 9.181 13.737 8.57 13.738H8.428C8.119 13.738 6.841 13.732 5.501 13.686L5.331 13.68L5.244 13.676L5.073 13.669L4.902 13.662C3.792 13.613 2.735 13.534 2.248 13.402C1.90863 13.3099 1.59935 13.1304 1.35105 12.8814C1.10275 12.6324 0.924123 12.3226 0.833 11.983C0.722 11.566 0.648 10.997 0.598 10.425L0.59 10.32L0.582 10.216C0.532363 9.53841 0.505015 8.85937 0.5 8.17999L0.5 8.05699C0.502 7.84199 0.51 7.09899 0.564 6.27899L0.571 6.17599L0.574 6.12399L0.582 6.01999L0.604 5.75999L0.614 5.65599C0.662 5.13699 0.733 4.63299 0.834 4.25399C0.92497 3.91418 1.10353 3.60419 1.35184 3.355C1.60015 3.10582 1.90951 2.92616 2.249 2.83399C2.736 2.70399 3.793 2.62399 4.903 2.57399L5.073 2.56699L5.245 2.56099L5.331 2.55799L5.502 2.55099C6.45371 2.5204 7.40581 2.50339 8.358 2.49999L8.551 2.49899ZM6.9 5.70899V10.527L11.057 8.11899L6.9 5.70899Z" fill="white"/>
</g>
<defs>
<clipPath id="clip0_17_804">
<rect width="16" height="29" fill="white" transform="translate(0.5 0.5)"/>
</clipPath>
</defs>
</svg>
